<?xml version="1.0" encoding="utf-8"?>
<!-- Generator: Adobe Illustrator 28.1.0, SVG Export Plug-In . SVG Version: 6.00 Build 0)  -->
<svg version="1.1" id="Layer_1" xmlns="http://www.w3.org/2000/svg" xmlns:xlink="http://www.w3.org/1999/xlink" x="0px" y="0px"
	 viewBox="0 0 3710 3710" style="enable-background:new 0 0 3710 3710;" xml:space="preserve">
<style type="text/css">
	.st0{fill:#FFFFFF;}
	.st1{opacity:0.25;fill:#F89F1E;}
	.st2{fill:#135C79;}
	.st3{fill:url(#SVGID_1_);}
	.st4{opacity:0.71;}
	.st5{opacity:0.65;fill:#FFFFFF;enable-background:new    ;}
	.st6{opacity:0.75;fill:#FFFFFF;enable-background:new    ;}
	.st7{opacity:0.75;}
	.st8{fill:#AA5000;}
	.st9{fill:url(#SVGID_00000009568446696510378630000000706435397222593439_);}
	.st10{fill:url(#SVGID_00000135693113742079187570000002037189820728895108_);}
	.st11{fill:#F89F1E;}
	.st12{fill:url(#SVGID_00000026122586856997755950000002798369537237487276_);}
	.st13{fill:url(#SVGID_00000027577709489019568440000015249776769293596851_);}
	.st14{opacity:0.6;fill:#FFFFFF;enable-background:new    ;}
	.st15{opacity:0.72;fill:#FFFFFF;enable-background:new    ;}
	.st16{fill:url(#SVGID_00000164508421253981500650000016429378345555868843_);}
	.st17{fill:url(#SVGID_00000004519218649007637220000005320062252675097733_);}
</style>
<g id="Background">
	<g>
		<g>
			<rect y="0" class="st0" width="3710" height="3710"/>
		</g>
	</g>
</g>
<path class="st1" d="M2918.5,2809.7c-57.3,59.6-111.5,98-154.3,128.3c-503.3,356.7-1098.8,252.8-1225.4,227.4
	c-186.9-37.5-548.2-110-809.4-413.4c-395.2-459.1-333.6-1182.4-27.1-1659.8c56.1-87.3,352.2-572,954.2-649.8
	c364.3-47,788.9,47.8,1096.5,302.4C3398.4,1279,3352.5,2358.3,2918.5,2809.7z"/>
<path class="st2" d="M754.8,567.4c-9,426.8-38.4,1899-24.4,2420.6c1.5,55.3,39.4,99.6,86.6,101.4c233.7,8.9,1090.2,31.6,1472.4,12.9
	c79.6-3.9,142.9-79.3,144.6-172.5c7.9-448,25.5-1707.9-16.2-2285.1c-5-69.2-51.4-124.2-110.4-131.1
	C2052.9,483.7,1192.7,410.9,862.5,436C802.9,440.5,756.3,497.6,754.8,567.4z"/>
<linearGradient id="SVGID_1_" gradientUnits="userSpaceOnUse" x1="1725.3894" y1="2963.7661" x2="1170.8375" y2="-534.9672" gradientTransform="matrix(1 0 0 -1 0 3707.5276)">
	<stop  offset="0" style="stop-color:#53D8FF"/>
	<stop  offset="1" style="stop-color:#3840F7"/>
</linearGradient>
<path class="st3" d="M859.1,698.3c-12.6,344.5-52.2,1490.5-39.7,1914.3c1.8,61.9,43.6,112,96.5,115.6
	c217.8,14.9,960.7,47.8,1280.1,17.9c57.5-5.4,102.6-59.8,105.7-127.2c16.2-351.4,62.7-1418.5,50.6-1837.6
	c-1.9-66.8-46.2-121.4-103.1-127.4c-235.6-24.7-1025-83.6-1296.4-66.3C901.8,590.8,861.2,638.7,859.1,698.3z"/>
<path class="st0" d="M1443.2,520.6L1443.2,520.6c0,13.1,8.7,23.9,19.9,24.6c55.2,3.4,210.7,12.9,280.1,17.7
	c13.7,0.9,24.5-13.5,21.9-29.2l-0.4-2.7c-1.8-10.8-9.4-18.9-18.7-19.9c-47-5-188.7-19-282.6-15.1
	C1452,496.5,1443.2,507.4,1443.2,520.6z"/>
<circle class="st2" cx="1551.8" cy="1094.9" r="325.9"/>
<path class="st0" d="M1651.5,971.7c0,55.2-44.7,114.8-99.9,114.8c-55.2,0-99.9-59.6-99.9-114.8s44.7-94.3,99.9-94.3
	S1651.5,916.6,1651.5,971.7z"/>
<path class="st0" d="M1427.6,1299h243.9c25.7,0,48.4-16.6,56.2-41.1l13.1-41c9.6-30-6-62.6-35.6-73.4
	c-99.3-36.3-201.9-31.6-307.1,3.3c-29.5,9.8-45.8,41.3-37.7,71.3l10.1,37.3C1377.6,1281.1,1401,1299,1427.6,1299z"/>
<g class="st4">
	<path class="st5" d="M2176.7,1941.3H987.6c-3.7,0-6.7-3-6.7-6.7V1763c0-3.7,3-6.7,6.7-6.7h1189.1c3.7,0,6.7,3,6.7,6.7v171.5
		C2183.4,1938.3,2180.4,1941.3,2176.7,1941.3z"/>
	<path class="st5" d="M2170.2,2243.2H981.1c-3.7,0-6.7-3-6.7-6.7V2065c0-3.7,3-6.7,6.7-6.7h1189.1c3.7,0,6.7,3,6.7,6.7v171.5
		C2176.9,2240.1,2173.9,2243.2,2170.2,2243.2z"/>
	<path class="st5" d="M1937.9,2603.2h-760.2c-4.6,0-8.3-3.7-8.3-8.3v-219.2c0-4.6,3.7-8.3,8.3-8.3h760.2c4.6,0,8.3,3.7,8.3,8.3
		v219.2C1946.2,2599.5,1942.5,2603.2,1937.9,2603.2z"/>
</g>
<path class="st6" d="M1738.4,1901h-692.3c-6.6,0-12-5.4-12-12v-78.8c0-6.6,5.4-12,12-12h692.3c6.6,0,12,5.4,12,12v78.8
	C1750.4,1895.6,1745,1901,1738.4,1901z"/>
<g class="st7">
	
		<ellipse transform="matrix(0.7071 -0.7071 0.7071 0.7071 -1206.92 1377.2681)" class="st0" cx="1059" cy="2145.5" rx="42.2" ry="42.2"/>
	<ellipse class="st0" cx="1174.9" cy="2147.7" rx="42.2" ry="42.2"/>
	<ellipse class="st0" cx="1286.3" cy="2153.1" rx="42.2" ry="42.2"/>
	<ellipse class="st0" cx="1402" cy="2155.3" rx="42.2" ry="42.2"/>
	<ellipse class="st0" cx="1517.7" cy="2154.4" rx="42.2" ry="42.2"/>
	<ellipse class="st0" cx="1633.5" cy="2156.4" rx="42.2" ry="42.2"/>
</g>
<path class="st8" d="M2115.4,2294.1l129.3,32.3l-32.3,242.4c0,0,48.5,48.5,64.6,113.1c16.2,64.6,31.1,336.1,31.1,336.1l30.7,18.5
	l3.7,15.5l-89.2,120l14.8-95.5c2.4-15.2-1.7-45.9-0.4-46.6c-48.5-129.3-152.2-493.5-152.2-493.5v-242.3H2115.4z"/>
<path class="st8" d="M2077.6,3053.7c1.4,0,2.8,0.1,4.2,0c-6.2-77.9-34.8-420.9-63.4-549.5c-32.3-145.4,48.5-436.3,48.5-436.3
	l145.4,145.4l-80.8,274.7c55.4,83.1-9,569.5-7.6,569.3l-0.1,1.1l21.1,29l-2.6,15.7l-128.8,76l50.7-82.3
	C2072.3,3083.7,2076.7,3068.9,2077.6,3053.7z"/>
<path class="st8" d="M2241.2,1422.8c0,0,283.2,319.2,0,482.8l-28.9-20.9c0,0,140.6-134.6,0-299.4L2241.2,1422.8z"/>
<linearGradient id="SVGID_00000115489341113671529120000004672541418215420065_" gradientUnits="userSpaceOnUse" x1="-2196.5613" y1="530.2426" x2="-1828.5393" y2="1094.8799" gradientTransform="matrix(-1 0 0 -1 -97.1565 3707.5276)">
	<stop  offset="0" style="stop-color:#CB236D"/>
	<stop  offset="1" style="stop-color:#4C246D"/>
</linearGradient>
<path style="fill:url(#SVGID_00000115489341113671529120000004672541418215420065_);" d="M2005.1,3191h41.1c7.7,0,14.9-3.5,19.6-9.6
	c12.8-16.6,39.4-49.1,52.1-50c17.1-1.1,14.9,59.6,14.9,59.6h9.6l12.1-75.5c3.1-19-6.4-37.8-23.4-46.7l0,0c0,0-3.9,28.9-25.1,41.7
	c-21.2,12.8-86.2,58.5-86.2,58.5s-8-1.1-16.7,0.4C1990.1,3171.8,1991.9,3191,2005.1,3191z"/>
<linearGradient id="SVGID_00000014627946427447103780000012610028896031588500_" gradientUnits="userSpaceOnUse" x1="-2528.1489" y1="358.2872" x2="-2119.7964" y2="1064.0836" gradientTransform="matrix(-1 0 0 -1 -97.1565 3707.5276)">
	<stop  offset="0" style="stop-color:#CB236D"/>
	<stop  offset="1" style="stop-color:#4C246D"/>
</linearGradient>
<path style="fill:url(#SVGID_00000014627946427447103780000012610028896031588500_);" d="M2250,3186.3l37.9-15.9
	c7.1-3,12.4-9.1,14.4-16.5c5.4-20.3,17.2-60.6,28.6-66.3c15.3-7.7,36.9,49.2,36.9,49.2l8.8-3.7l-18.1-74.3
	c-4.6-18.7-20.6-32.4-39.7-34l0,0c0,0,7.6,28.1-7,48.1s-56.7,87.4-56.7,87.4s-7.8,2-15.2,6.9
	C2228.8,3174.4,2237.9,3191.4,2250,3186.3z"/>
<path class="st11" d="M2029.9,1821.9c0,0,4.8,29.1-2.2,109.2s-40.2,268.1-33.5,448c0,0,94.6,22.1,259,11.6
	c0,0,69.4-280.9,52.5-387.6c-16.9-106.8-108.6-183.4-108.6-183.4L2029.9,1821.9z"/>
<polygon class="st8" points="2099.8,1286.8 2088.2,1422.8 2198.1,1422.8 2170.8,1215.2 "/>
<path class="st2" d="M2230.7,1404c-37.9-2.1-122.7-6-182.8-2.7c-31.6,1.7-58.1,24.4-64.6,55.4l-14.6,70.2c-5.5,26.1-4.6,53.2,2.4,79
	l58.8,216c0,0,52.3,31.5,167.2-2.2c0,0,100.9-240.6,59.6-394.5C2253.5,1413.2,2243,1404.7,2230.7,1404z"/>
<path class="st8" d="M1986.2,1444.1c-16.2,42.6-30.8,87.3-46.5,129.2c-8,21-16.1,41.5-24.8,60.4c-4.4,9.4-9.2,18-13.6,25.9
	c-4.4,7.7-9.4,14.2-12,17.2c-0.5,0.4,1.2,0.8,1.8,0.8c0.3,0-10.9,1.9-14.4,2.4l-13.5-0.1c-19.4-1-41.3-4.4-63.4-8.7
	c-44.4-8.3-90.6-19.9-138-28.7l-0.4-0.1c-9.1-1.7-17.8,4.3-19.5,13.4c-1.1,6,1.1,11.8,5.4,15.6c19.1,16.8,39.4,30.7,60.4,44.1
	c10.6,6.5,21.4,12.8,32.3,18.9c11.2,5.7,22.4,11.4,34,16.7c23.4,10.2,47.6,19.6,75.4,25.6c7.3,1.2,14.5,2.5,22.1,3.5
	c8.4,0.3,16.1,1,25.3,0.5c4.9-0.5,9.8-1.1,14.7-1.8c2.6-0.5,4.5-0.5,7.7-1.4c3.4-1,6.7-2.1,10-3.4c6.9-2.5,11.4-5.5,17-8.6
	c4.7-3.1,8.9-6.3,13-9.6c15.2-13,24.7-25.8,33-38.2c8.3-12.3,14.9-24.7,20.8-36.8c11.9-24.2,21.1-48.2,28.6-72.4
	c15.2-48.4,25.5-96,29.9-146.6c2.1-24.2-15.9-45.5-40.1-47.6c-20-1.7-38.1,10.3-44.9,28.2L1986.2,1444.1z"/>
<linearGradient id="SVGID_00000077293019844489718140000006702592287565515166_" gradientUnits="userSpaceOnUse" x1="-1791.3519" y1="2161.0427" x2="-2741.656" y2="1616.631" gradientTransform="matrix(-1 0 0 -1 -332.3174 3707.5276)">
	<stop  offset="0" style="stop-color:#F9B776"/>
	<stop  offset="1" style="stop-color:#F47960"/>
</linearGradient>
<path style="fill:url(#SVGID_00000077293019844489718140000006702592287565515166_);" d="M1676.7,1664.2l-19.6-46.5l-103.2-25.7
	c0,0-8.3,17.9,35.1,25.7c0,0-15.5,17.1-7.2,37.2C1590,1675,1677.7,1695.2,1676.7,1664.2z"/>
<path class="st8" d="M2053.3,1129.8c-3.9,2.3-34.8,111.3-8.9,157.1c25.9,45.7,105-5.5,126.4-71.6
	C2192.2,1149.1,2157.8,1068.1,2053.3,1129.8z"/>
<linearGradient id="SVGID_00000035513290025010323060000008573300659132194983_" gradientUnits="userSpaceOnUse" x1="-2225.4082" y1="2611.6597" x2="-2527.8926" y2="2218.4302" gradientTransform="matrix(-1 0 0 -1 -97.1565 3707.5276)">
	<stop  offset="0" style="stop-color:#2B3582"/>
	<stop  offset="1" style="stop-color:#150E42"/>
</linearGradient>
<path style="fill:url(#SVGID_00000035513290025010323060000008573300659132194983_);" d="M2258.3,1215.2
	c17.7,86.9,76.5,63.1,118.2,101.8c67.5,62.7,164-1.9,257.9,57.5c67.8,42.9,100.4,152.6,67.9,241.2
	c-45,122.7-198.9,173.1-278.7,135.8c-76.2-35.7-65.4-142.7-167.9-184c-43.5-17.5-65-6.1-91.1-32.2c-45.6-45.5-33.3-133.9-28.6-167.9
	c10.3-73.9,35.1-87.2,23.2-119.7c-23-63.1-130.4-50.1-139.3-94.7c-8.1-40.6,69.7-117.5,142.9-105.4
	C2276.1,1066.3,2250.4,1176.5,2258.3,1215.2z"/>
<path class="st14" d="M2668.4,1594.9c1.3,0,2.6-0.9,2.9-2.3c14.5-60.2,7.9-109.6-19.6-146.8c-45.6-61.7-134.3-67.8-135.2-67.9
	c-1.4-0.2-3,1.1-3.1,2.8c-0.1,1.6,1.1,3,2.8,3.1c0.9,0.1,86.9,6,130.8,65.5c26.4,35.7,32.6,83.4,18.5,141.9
	c-0.4,1.6,0.6,3.2,2.2,3.6C2668,1594.9,2668.2,1594.9,2668.4,1594.9z"/>
<path class="st15" d="M2377.9,1650c0.1,0,0.2,0,0.4,0c0.8-0.2,1.3-1,1.1-1.8c-14.1-54.2-38.9-91.9-73.7-111.9
	c-25.3-14.6-49-15.9-69.9-17.1c-20.1-1.2-37.5-2.2-51.6-14.6c-28.9-25.7-27.3-87.6,5-184c0.3-0.8-0.2-1.6-0.9-1.9
	c-0.8-0.3-1.6,0.2-1.9,0.9c-32.7,97.6-34.1,160.5-4.1,187.1c14.8,13.1,32.6,14.2,53.4,15.4c20.6,1.2,43.9,2.5,68.6,16.8
	c34.1,19.6,58.4,56.7,72.3,110.1C2376.7,1649.6,2377.3,1650,2377.9,1650z"/>
<path class="st15" d="M2216.3,1193.7c0.2,0,0.3,0,0.5-0.1c0.8-0.3,1.2-1.1,0.9-1.9c-11.2-33.4-43.6-28.5-77.9-23.2
	c-21.7,3.3-44.1,6.8-63.2,1.1c-14.2-4.2-22.6-10.7-25.1-19.4c-4.2-14.7,10.4-31.2,10.6-31.4c0.6-0.6,0.5-1.5-0.1-2.1
	c-0.6-0.5-1.5-0.5-2.1,0.1c-0.6,0.7-15.8,17.8-11.2,34.1c2.7,9.7,11.8,16.9,27.1,21.4c19.7,5.8,42.4,2.3,64.5-1
	c34.4-5.3,64.2-9.9,74.6,21.2C2215.1,1193.3,2215.7,1193.7,2216.3,1193.7z"/>
<g>
	
		<linearGradient id="SVGID_00000098214235283313260130000001698742878368693660_" gradientUnits="userSpaceOnUse" x1="3060.0789" y1="3742.0364" x2="2634.0698" y2="2169.0833" gradientTransform="matrix(1 0 0 -1 0 3707.5276)">
		<stop  offset="0" style="stop-color:#FDF53F"/>
		<stop  offset="1" style="stop-color:#D93C65"/>
	</linearGradient>
	<path style="fill:url(#SVGID_00000098214235283313260130000001698742878368693660_);" d="M2543.4,856c0-153,129.6-277,285.1-277
		c150.9,0,270,117.5,270,262.4s-119.1,268.6-270,276.6C2673,1126.2,2543.4,1009,2543.4,856z"/>
</g>
<g>
	<g>
		<path class="st11" d="M2569.4,855.4c0-138.7,117.5-251,258.4-251c136.8,0,244.7,106.5,244.7,237.8s-108,243.5-244.7,250.7
			C2686.9,1100.2,2569.4,994,2569.4,855.4z"/>
	</g>
</g>
<g>
	<path class="st0" d="M2744.1,839.6h-23.2v-92.3c0-36.2,27.1-66.9,63.1-71.3l47.3-5.8c20.4-2.5,40.9,3.9,56.3,17.5
		s24.2,33.2,24.2,53.7V822h-23.2v-80.6c0-13.9-6-27.2-16.4-36.4s-24.3-13.5-38.1-11.9l-47.3,5.8c-24.4,3-42.8,23.7-42.8,48.3
		L2744.1,839.6L2744.1,839.6z"/>
	<path class="st0" d="M2714.1,818.9l203-11.2c8.2-0.5,15.2,6.1,15.2,14.4v160.8c0,7.9-6.4,14.4-14.4,14.4h-198.1
		c-7.8,0-14.1-6.2-14.4-13.9l-4.9-149.6C2700.2,825.9,2706.3,819.3,2714.1,818.9z"/>
	
		<linearGradient id="SVGID_00000095333340973190541450000018327039089280017593_" gradientUnits="userSpaceOnUse" x1="2896.1135" y1="3564.1672" x2="2775.95" y2="2398.0466" gradientTransform="matrix(1 0 0 -1 0 3707.5276)">
		<stop  offset="0" style="stop-color:#FDF53F"/>
		<stop  offset="1" style="stop-color:#D93C65"/>
	</linearGradient>
	<path style="fill:url(#SVGID_00000095333340973190541450000018327039089280017593_);" d="M2849.5,951.2l-12.3-35.3
		c-1.5-4.2-0.5-9,2.7-12.2c6.3-6.4,10-15.3,9.6-25c-0.8-17.2-14.9-31.2-32.1-31.9c-19.1-0.7-34.8,14.5-34.8,33.4
		c0,10.5,4.8,19.9,12.4,26c3.9,3.2,5.5,8.4,3.9,13.2l-11.1,31.9c-2.7,7.7,3.1,15.8,11.3,15.8h39.2
		C2846.4,967,2852.2,958.9,2849.5,951.2z"/>
</g>
</svg>
