<?xml version="1.0" encoding="utf-8"?>
<!-- Generator: Adobe Illustrator 28.1.0, SVG Export Plug-In . SVG Version: 6.00 Build 0)  -->
<svg version="1.1" id="Layer_1" xmlns="http://www.w3.org/2000/svg" xmlns:xlink="http://www.w3.org/1999/xlink" x="0px" y="0px"
	 viewBox="0 0 3000 2000" style="enable-background:new 0 0 3000 2000;" xml:space="preserve">
<style type="text/css">
	.st0{fill:#A7BD37;}
	.st1{clip-path:url(#SVGID_00000080166981319376910560000015091450932289696958_);fill:#3E5409;}
	.st2{fill:#E3EEFD;}
	.st3{clip-path:url(#SVGID_00000086689665892428289200000016818749495082786693_);}
	.st4{fill:#CCDFFE;}
	.st5{clip-path:url(#SVGID_00000111166215125580409600000004350135007870557115_);}
	.st6{clip-path:url(#SVGID_00000165932090189749601900000002197493464776404899_);}
	.st7{clip-path:url(#SVGID_00000067209690705076919950000012042295778057234843_);}
	.st8{clip-path:url(#SVGID_00000020381038409682032140000016621927344987553928_);}
	.st9{clip-path:url(#SVGID_00000093881208799253172060000004167375794690416560_);}
	.st10{clip-path:url(#SVGID_00000028307927430131272030000013536894921739505799_);}
	.st11{clip-path:url(#SVGID_00000029030424208961019060000001418084009236820664_);fill:#E3EEFD;}
	.st12{clip-path:url(#SVGID_00000093890419137608493410000010086358558497387708_);fill:#E3EEFD;}
	.st13{fill:#FFFFFF;}
	.st14{clip-path:url(#SVGID_00000010301961633564464870000007044778632362995647_);fill:#3E5409;}
	.st15{fill:#135C79;}
	.st16{fill:#B9D4FD;}
	.st17{clip-path:url(#SVGID_00000108310728700740558830000003413634997886530949_);fill:#739BFD;}
	
		.st18{opacity:0.2;clip-path:url(#SVGID_00000090286877866468765650000004360888981575558068_);fill:#FFFFFF;enable-background:new    ;}
	
		.st19{opacity:0.2;clip-path:url(#SVGID_00000072987596427626874830000013891317387581141901_);fill:#FFFFFF;enable-background:new    ;}
	
		.st20{opacity:0.2;clip-path:url(#SVGID_00000096738985987645960810000007392112804610146999_);fill:#FFFFFF;enable-background:new    ;}
	
		.st21{opacity:0.2;clip-path:url(#SVGID_00000110465839525598110420000014334092673891381155_);fill:#FFFFFF;enable-background:new    ;}
	.st22{fill:#F89F1E;}
	.st23{fill:#38385C;}
	.st24{fill:#1A1A35;}
	.st25{clip-path:url(#SVGID_00000139983857973572142830000001224347475311297690_);fill:#1A1A35;}
	.st26{fill:#FFB6A6;}
	.st27{clip-path:url(#SVGID_00000170270743497587169580000014135931089562165927_);fill:#FF8370;}
	.st28{clip-path:url(#SVGID_00000094594204197426139650000004452374874554865834_);fill:#FFFFFF;}
	.st29{clip-path:url(#SVGID_00000168802672792171305630000012853261829869584534_);fill:#FF8370;}
	.st30{clip-path:url(#SVGID_00000079482566255216625510000009688489967022446497_);fill:#135C79;}
	.st31{clip-path:url(#SVGID_00000042724543078576761860000011205360907141819540_);fill:#F89F1E;}
	.st32{fill:#EECD76;}
	.st33{clip-path:url(#SVGID_00000088846492741267532010000009034847208287327129_);fill:#FFFFFF;}
	.st34{fill:#EDA26A;}
	.st35{clip-path:url(#SVGID_00000136381191389375964050000000903618244208417690_);fill:#FF8370;}
</style>
<g>
	<g>
		<path id="XMLID_340_" class="st0" d="M566.8,1716.8c0,0-167-1.6-238.4-100.7c0,0,116.5-3.3,158.9,22.4c0,0-104.9-38.4-147.2-159.4
			c0,0,118.1,27.7,153.1,70c0,0-51.2-43.7-75.9-138.5c0,0,88.5,30,121.5,71.1L566.8,1716.8z"/>
	</g>
	<g>
		<defs>
			<path id="SVGID_1_" d="M566.8,1716.8c0,0-167-1.6-238.4-100.7c0,0,116.5-3.3,158.9,22.4c0,0-104.9-38.4-147.2-159.4
				c0,0,118.1,27.7,153.1,70c0,0-51.2-43.7-75.9-138.5c0,0,88.5,30,121.5,71.1L566.8,1716.8z"/>
		</defs>
		<clipPath id="SVGID_00000098209868587880486590000012360276368798461062_">
			<use xlink:href="#SVGID_1_"  style="overflow:visible;"/>
		</clipPath>
		<path style="clip-path:url(#SVGID_00000098209868587880486590000012360276368798461062_);fill:#3E5409;" d="M485.7,1432.4
			c0,0,32.7,255.5,10.4,288.2l102.9,8l-55.8-296.2L485.7,1432.4L485.7,1432.4z"/>
	</g>
</g>
<g>
	<g>
		<path id="XMLID_339_" class="st2" d="M2658.2,1097.6c-48.9-295.2-287-318.6-536.5-284.5c-215.4,5.1-301.2-228.3-440.9-353
			c-812-613.7-1518.8,803-594.1,1125.9C1510.6,1665.4,2716.7,1763.9,2658.2,1097.6z"/>
	</g>
	<g>
		<defs>
			<path id="SVGID_00000068639032795868507930000007464416809343506074_" d="M2658.2,1097.6c-48.9-295.2-287-318.6-536.5-284.5
				c-215.4,5.1-301.2-228.3-440.9-353c-812-613.7-1518.8,803-594.1,1125.9C1510.6,1665.4,2716.7,1763.9,2658.2,1097.6z"/>
		</defs>
		<clipPath id="SVGID_00000112612485668200848700000003057994331566078595_">
			<use xlink:href="#SVGID_00000068639032795868507930000007464416809343506074_"  style="overflow:visible;"/>
		</clipPath>
		<g style="clip-path:url(#SVGID_00000112612485668200848700000003057994331566078595_);">
			<g>
				<polyline id="XMLID_30_" class="st4" points="729.2,1297.9 729.2,860.7 1004.5,860.7 1004.5,1177.8 1107.1,1177.8 
					1107.1,1036.8 1359.2,1036.8 1359.2,1280.2 1574.1,1280.2 1574.1,1118.7 1870.2,1118.7 1870.2,919.3 2234.6,919.3 
					2234.6,1326.9 2386.4,1326.9 2386.4,1202.9 2743.4,1202.9 2743.4,1652.1 749.9,1652.1 729.2,1297.9 				"/>
			</g>
			<g>
				<defs>
					<polyline id="SVGID_00000147212434496663315680000006568055358875381382_" points="729.2,1297.9 729.2,860.7 1004.5,860.7 
						1004.5,1177.8 1107.1,1177.8 1107.1,1036.8 1359.2,1036.8 1359.2,1280.2 1574.1,1280.2 1574.1,1118.7 1870.2,1118.7 
						1870.2,919.3 2234.6,919.3 2234.6,1326.9 2386.4,1326.9 2386.4,1202.9 2743.4,1202.9 2743.4,1652.1 749.9,1652.1 729.2,1297.9 
											"/>
				</defs>
				<clipPath id="SVGID_00000140718820173991078990000012073218755269308052_">
					<use xlink:href="#SVGID_00000147212434496663315680000006568055358875381382_"  style="overflow:visible;"/>
				</clipPath>
				<g style="clip-path:url(#SVGID_00000140718820173991078990000012073218755269308052_);">
					<rect x="926.3" y="889.1" class="st2" width="43.1" height="43.1"/>
					<rect x="926.3" y="955.9" class="st2" width="43.1" height="43.1"/>
					<rect x="926.3" y="1022.7" class="st2" width="43.1" height="43.1"/>
					<rect x="926.3" y="1089.5" class="st2" width="43.1" height="43.1"/>
				</g>
			</g>
			<g>
				<defs>
					<polyline id="SVGID_00000121260764361446483150000004693207720824387225_" points="729.2,1297.9 729.2,860.7 1004.5,860.7 
						1004.5,1177.8 1107.1,1177.8 1107.1,1036.8 1359.2,1036.8 1359.2,1280.2 1574.1,1280.2 1574.1,1118.7 1870.2,1118.7 
						1870.2,919.3 2234.6,919.3 2234.6,1326.9 2386.4,1326.9 2386.4,1202.9 2743.4,1202.9 2743.4,1652.1 749.9,1652.1 729.2,1297.9 
											"/>
				</defs>
				<clipPath id="SVGID_00000069368223514004873220000003748642337269553558_">
					<use xlink:href="#SVGID_00000121260764361446483150000004693207720824387225_"  style="overflow:visible;"/>
				</clipPath>
				<g style="clip-path:url(#SVGID_00000069368223514004873220000003748642337269553558_);">
					<g>
						<rect x="1129.3" y="1055.6" class="st2" width="37" height="32.7"/>
						<rect x="1185.1" y="1055.6" class="st2" width="37" height="32.7"/>
					</g>
					<g>
						<rect x="1128.4" y="1099.6" class="st2" width="37" height="32.7"/>
						<rect x="1184.2" y="1099.6" class="st2" width="37" height="32.7"/>
					</g>
					<g>
						<rect x="1127.5" y="1143.7" class="st2" width="37" height="32.7"/>
						<rect x="1183.3" y="1143.7" class="st2" width="37" height="32.7"/>
					</g>
				</g>
			</g>
			<g>
				<defs>
					<polyline id="SVGID_00000180368018563148903570000002371529741836770991_" points="729.2,1297.9 729.2,860.7 1004.5,860.7 
						1004.5,1177.8 1107.1,1177.8 1107.1,1036.8 1359.2,1036.8 1359.2,1280.2 1574.1,1280.2 1574.1,1118.7 1870.2,1118.7 
						1870.2,919.3 2234.6,919.3 2234.6,1326.9 2386.4,1326.9 2386.4,1202.9 2743.4,1202.9 2743.4,1652.1 749.9,1652.1 729.2,1297.9 
											"/>
				</defs>
				<clipPath id="SVGID_00000083778149176964979550000004119471065531888045_">
					<use xlink:href="#SVGID_00000180368018563148903570000002371529741836770991_"  style="overflow:visible;"/>
				</clipPath>
				<g style="clip-path:url(#SVGID_00000083778149176964979550000004119471065531888045_);">
					<rect x="1601.3" y="1139" class="st2" width="34.7" height="293.3"/>
					<rect x="1651.9" y="1139" class="st2" width="34.7" height="231.3"/>
				</g>
			</g>
			<g>
				<defs>
					<polyline id="SVGID_00000150103970534503994570000017748067697900871597_" points="729.2,1297.9 729.2,860.7 1004.5,860.7 
						1004.5,1177.8 1107.1,1177.8 1107.1,1036.8 1359.2,1036.8 1359.2,1280.2 1574.1,1280.2 1574.1,1118.7 1870.2,1118.7 
						1870.2,919.3 2234.6,919.3 2234.6,1326.9 2386.4,1326.9 2386.4,1202.9 2743.4,1202.9 2743.4,1652.1 749.9,1652.1 729.2,1297.9 
											"/>
				</defs>
				<clipPath id="SVGID_00000172407136118843433120000006707185309125303183_">
					<use xlink:href="#SVGID_00000150103970534503994570000017748067697900871597_"  style="overflow:visible;"/>
				</clipPath>
				<g style="clip-path:url(#SVGID_00000172407136118843433120000006707185309125303183_);">
					<rect x="1904" y="944" class="st2" width="52" height="52"/>
					<rect x="1983.4" y="944" class="st2" width="52" height="52"/>
					<rect x="2062.8" y="944" class="st2" width="52" height="52"/>
					<rect x="2142.2" y="944" class="st2" width="52" height="52"/>
				</g>
			</g>
			<g>
				<defs>
					<polyline id="SVGID_00000119103256621569681970000000872056885767091388_" points="729.2,1297.9 729.2,860.7 1004.5,860.7 
						1004.5,1177.8 1107.1,1177.8 1107.1,1036.8 1359.2,1036.8 1359.2,1280.2 1574.1,1280.2 1574.1,1118.7 1870.2,1118.7 
						1870.2,919.3 2234.6,919.3 2234.6,1326.9 2386.4,1326.9 2386.4,1202.9 2743.4,1202.9 2743.4,1652.1 749.9,1652.1 729.2,1297.9 
											"/>
				</defs>
				<clipPath id="SVGID_00000148632433417483351530000001696496405350863499_">
					<use xlink:href="#SVGID_00000119103256621569681970000000872056885767091388_"  style="overflow:visible;"/>
				</clipPath>
				<g style="clip-path:url(#SVGID_00000148632433417483351530000001696496405350863499_);">
					<rect x="1904" y="1016.9" class="st2" width="52" height="52"/>
					<rect x="1983.4" y="1016.9" class="st2" width="52" height="52"/>
					<rect x="2062.8" y="1016.9" class="st2" width="52" height="52"/>
					<rect x="2142.2" y="1016.9" class="st2" width="52" height="52"/>
				</g>
			</g>
			<g>
				<defs>
					<polyline id="SVGID_00000160889799406641318540000000778334565549382296_" points="729.2,1297.9 729.2,860.7 1004.5,860.7 
						1004.5,1177.8 1107.1,1177.8 1107.1,1036.8 1359.2,1036.8 1359.2,1280.2 1574.1,1280.2 1574.1,1118.7 1870.2,1118.7 
						1870.2,919.3 2234.6,919.3 2234.6,1326.9 2386.4,1326.9 2386.4,1202.9 2743.4,1202.9 2743.4,1652.1 749.9,1652.1 729.2,1297.9 
											"/>
				</defs>
				<clipPath id="SVGID_00000176730581763979655420000006783691595524443275_">
					<use xlink:href="#SVGID_00000160889799406641318540000000778334565549382296_"  style="overflow:visible;"/>
				</clipPath>
				<g style="clip-path:url(#SVGID_00000176730581763979655420000006783691595524443275_);">
					<rect x="1904" y="1089.7" class="st2" width="52" height="52"/>
					<rect x="1983.4" y="1089.7" class="st2" width="52" height="52"/>
					<rect x="2062.8" y="1089.7" class="st2" width="52" height="52"/>
					<rect x="2142.2" y="1089.7" class="st2" width="52" height="52"/>
				</g>
			</g>
			<g>
				<defs>
					<polyline id="SVGID_00000000941243484241368680000003737663845769822378_" points="729.2,1297.9 729.2,860.7 1004.5,860.7 
						1004.5,1177.8 1107.1,1177.8 1107.1,1036.8 1359.2,1036.8 1359.2,1280.2 1574.1,1280.2 1574.1,1118.7 1870.2,1118.7 
						1870.2,919.3 2234.6,919.3 2234.6,1326.9 2386.4,1326.9 2386.4,1202.9 2743.4,1202.9 2743.4,1652.1 749.9,1652.1 729.2,1297.9 
											"/>
				</defs>
				<clipPath id="SVGID_00000081624994457230578250000005880090830219651980_">
					<use xlink:href="#SVGID_00000000941243484241368680000003737663845769822378_"  style="overflow:visible;"/>
				</clipPath>
				
					<rect x="2421.8" y="1221" style="clip-path:url(#SVGID_00000081624994457230578250000005880090830219651980_);fill:#E3EEFD;" width="247.2" height="36.2"/>
			</g>
			<g>
				<defs>
					<polyline id="SVGID_00000116957242327262033010000010725726096642398884_" points="729.2,1297.9 729.2,860.7 1004.5,860.7 
						1004.5,1177.8 1107.1,1177.8 1107.1,1036.8 1359.2,1036.8 1359.2,1280.2 1574.1,1280.2 1574.1,1118.7 1870.2,1118.7 
						1870.2,919.3 2234.6,919.3 2234.6,1326.9 2386.4,1326.9 2386.4,1202.9 2743.4,1202.9 2743.4,1652.1 749.9,1652.1 729.2,1297.9 
											"/>
				</defs>
				<clipPath id="SVGID_00000001651977595468242460000000545758300006649786_">
					<use xlink:href="#SVGID_00000116957242327262033010000010725726096642398884_"  style="overflow:visible;"/>
				</clipPath>
				
					<rect x="2421.3" y="1281.7" style="clip-path:url(#SVGID_00000001651977595468242460000000545758300006649786_);fill:#E3EEFD;" width="247.2" height="36.2"/>
			</g>
		</g>
	</g>
</g>
<g>
	<polygon class="st2" points="821.5,1715.7 2671.6,1721.9 1870.2,1867.1 579.8,1716.8 	"/>
	<path class="st13" d="M754.3,1715.7l1616.4,60.7c-102.9,85.5-1530.4-58.6-1680.6-59.7L754.3,1715.7z"/>
</g>
<g>
	<g>
		<path id="XMLID_338_" class="st0" d="M941.9,1479c0,0-16.2-89.2,125.6-152.1c0,0-14.2,120.6-51.6,160.2c0,0-1-50,155.5-54.7
			c0,0-65.7,117.5-115.1,145.1c0,0,49.5-28.3,175.4-25.7c0,0-90.3,94.4-154,111c0,0,43.8-21.9,127.8,0c0,0-134.9,53.9-227.5,53.9
			L941.9,1479z"/>
	</g>
	<g>
		<defs>
			<path id="SVGID_00000111913613062372357050000003132793994071021746_" d="M941.9,1479c0,0-16.2-89.2,125.6-152.1
				c0,0-14.2,120.6-51.6,160.2c0,0-1-50,155.5-54.7c0,0-65.7,117.5-115.1,145.1c0,0,49.5-28.3,175.4-25.7c0,0-90.3,94.4-154,111
				c0,0,43.8-21.9,127.8,0c0,0-134.9,53.9-227.5,53.9L941.9,1479z"/>
		</defs>
		<clipPath id="SVGID_00000103233029688570274290000017641361002996155559_">
			<use xlink:href="#SVGID_00000111913613062372357050000003132793994071021746_"  style="overflow:visible;"/>
		</clipPath>
		<path style="clip-path:url(#SVGID_00000103233029688570274290000017641361002996155559_);fill:#3E5409;" d="M966.8,1380.4
			l54.2,250c8.3,42.2,42.2,72,81.8,85.3l-170.8,6.7l-12.6-304.1L966.8,1380.4z"/>
	</g>
</g>
<path class="st15" d="M566.8,1716.8l411.3-0.1c16.1,0,27.2-12.9,24.8-28.8L887.2,922.4c-2.4-15.9-17.4-28.8-33.5-28.8l-411.3,0.1
	c-16.1,0-27.2,12.9-24.8,28.8L533.2,1688C535.6,1703.9,550.6,1716.8,566.8,1716.8z"/>
<g>
	<g>
		<polygon id="XMLID_337_" class="st16" points="961.4,1656.2 565.1,1656.3 459,954.3 855.3,954.1 		"/>
	</g>
	<g>
		<defs>
			<polygon id="SVGID_00000101088332919940914920000018267308420692994235_" points="961.4,1656.2 565.1,1656.3 459,954.3 
				855.3,954.1 			"/>
		</defs>
		<clipPath id="SVGID_00000088111458264000248420000002182225322701491372_">
			<use xlink:href="#SVGID_00000101088332919940914920000018267308420692994235_"  style="overflow:visible;"/>
		</clipPath>
		<polyline style="clip-path:url(#SVGID_00000088111458264000248420000002182225322701491372_);fill:#739BFD;" points="855.3,954.1 
			499.1,981.8 616.2,1660.3 553.9,1656.3 445.9,940.6 855.3,954.1 		"/>
	</g>
	<g>
		<defs>
			<polygon id="SVGID_00000096769417315664919440000001499377150465155224_" points="961.4,1656.2 565.1,1656.3 459,954.3 
				855.3,954.1 			"/>
		</defs>
		<clipPath id="SVGID_00000158733270532859278970000008614336864444043434_">
			<use xlink:href="#SVGID_00000096769417315664919440000001499377150465155224_"  style="overflow:visible;"/>
		</clipPath>
		
			<polygon style="opacity:0.2;clip-path:url(#SVGID_00000158733270532859278970000008614336864444043434_);fill:#FFFFFF;enable-background:new    ;" points="
			945,1212.8 526.7,1654.2 546.4,1784.7 961.4,1344.3 		"/>
	</g>
	<g>
		<defs>
			<polygon id="SVGID_00000052811308214761235750000001622644702315304367_" points="961.4,1656.2 565.1,1656.3 459,954.3 
				855.3,954.1 			"/>
		</defs>
		<clipPath id="SVGID_00000127037645551206405980000011496888290286627767_">
			<use xlink:href="#SVGID_00000052811308214761235750000001622644702315304367_"  style="overflow:visible;"/>
		</clipPath>
		
			<polygon style="opacity:0.2;clip-path:url(#SVGID_00000127037645551206405980000011496888290286627767_);fill:#FFFFFF;enable-background:new    ;" points="
			1068.9,1356.1 650.5,1797.6 670.3,1928.1 1085.3,1487.7 		"/>
	</g>
	<g>
		<defs>
			<polygon id="SVGID_00000098219745354138458330000001409597557513685901_" points="961.4,1656.2 565.1,1656.3 459,954.3 
				855.3,954.1 			"/>
		</defs>
		<clipPath id="SVGID_00000047757501580468987070000001191959418489118864_">
			<use xlink:href="#SVGID_00000098219745354138458330000001409597557513685901_"  style="overflow:visible;"/>
		</clipPath>
		
			<polygon style="opacity:0.2;clip-path:url(#SVGID_00000047757501580468987070000001191959418489118864_);fill:#FFFFFF;enable-background:new    ;" points="
			915.9,979.3 497.6,1420.7 517.3,1551.2 932.3,1110.9 		"/>
	</g>
	<g>
		<defs>
			<polygon id="SVGID_00000030458626266606337530000013881158417696222374_" points="961.4,1656.2 565.1,1656.3 459,954.3 
				855.3,954.1 			"/>
		</defs>
		<clipPath id="SVGID_00000088827933713082960710000017982970660343606461_">
			<use xlink:href="#SVGID_00000030458626266606337530000013881158417696222374_"  style="overflow:visible;"/>
		</clipPath>
		
			<polygon style="opacity:0.2;clip-path:url(#SVGID_00000088827933713082960710000017982970660343606461_);fill:#FFFFFF;enable-background:new    ;" points="
			851.5,778.3 433.2,1219.7 452.9,1350.2 867.9,909.9 		"/>
	</g>
</g>
<path class="st13" d="M689,933.8h-75c-3.6,0-7-2.9-7.5-6.4l0,0c-0.5-3.6,1.9-6.4,5.6-6.4h75c3.6,0,7,2.9,7.5,6.4l0,0
	C695.1,930.9,692.6,933.8,689,933.8z"/>
<path class="st22" d="M807.3,1303.8c-12.2-54.6-66.4-98.9-121-98.9c-126.4,9.9-100.7,172.4,63.6,284.4
	C840.6,1407.3,807.3,1303.8,807.3,1303.8z"/>
<path class="st13" d="M740.7,1295.6c8.1,54-65.9,41.9-73.1,0C659.5,1241.6,733.5,1253.7,740.7,1295.6z"/>
<path class="st13" d="M859.7,1530.3c5.1,14.5-217,14.5-211.9,0C642.7,1515.8,864.8,1515.8,859.7,1530.3z"/>
<path id="XMLID_336_" class="st15" d="M1703.1,909c-10.4-15-28.9-22.1-46.6-18L1350,952.5l-117.3,84.7l16.8,29.8l9.1,197.7
	l-151.5,108l24.2,45.4c255.8-67.8,227.9-8.8,284.2-277l229.8-110.3l183.8,213.7l66.7-56.3L1703.1,909z"/>
<path class="st15" d="M1229.5,1089c0,0,35.7-129.9,198.5-151.5C1428,937.5,1290.5,1002.3,1229.5,1089z"/>
<polygon class="st15" points="1258.5,1264.9 1285,1013.2 1248.6,1061.8 "/>
<path class="st15" d="M1668.6,1008.1c-21-27.6-46.6-12.5-68.2,4.6c-49.3,34.4-114.4,39.6-168.2,12.9l-16.7,115.7l229.8-110.3
	l183.8,213.7L1668.6,1008.1z"/>
<g>
	<path class="st23" d="M1847.5,1220.1l24.8-129.9c4.2-23.6,23.4-41.7,46.4-47.3c-28.2-19.4-66.8,12.4-71.3,41.8l-24.8,129.9
		c-5.3,27.3,17.4,52.3,45,49.6C1852.9,1255.6,1844,1238.4,1847.5,1220.1z"/>
	<path class="st24" d="M1903.1,1237c14.8-53.7,78.1-146.6,17.3-192.8l0,0c-0.5-0.4-1.1-0.9-1.6-1.3c-23,5.6-42.1,23.6-46.4,47.3
		l-24.8,129.9c-3.5,18.3,5.4,35.5,20.1,44.1C1883.6,1262.7,1897.4,1252.2,1903.1,1237z"/>
</g>
<path class="st24" d="M1829.1,1244.7c0,0-10.3-10.3-6.5-30.1c3.8-19.8,19.8-103.7,19.8-103.7l-55,85.2L1829.1,1244.7z"/>
<g>
	<g>
		<path id="XMLID_335_" class="st23" d="M1098.1,1380.5c-17.1,1.5-40.3,26.6-40.3,26.6l0,0c-17.5,15.2-45.5,62.2-36.7,88.7
			c1.7,9.8,11,16.4,20.9,14.9c41.8-8.6,58.3-64.8,71.6-93.2C1117.4,1407.3,1111.5,1378.9,1098.1,1380.5z"/>
	</g>
	<g>
		<defs>
			<path id="SVGID_00000005267056765264138460000002182346884633274547_" d="M1098.1,1380.5c-17.1,1.5-40.3,26.6-40.3,26.6l0,0
				c-17.5,15.2-45.5,62.2-36.7,88.7c1.7,9.8,11,16.4,20.9,14.9c41.8-8.6,58.3-64.8,71.6-93.2
				C1117.4,1407.3,1111.5,1378.9,1098.1,1380.5z"/>
		</defs>
		<clipPath id="SVGID_00000173875002685044840700000002523421029824600251_">
			<use xlink:href="#SVGID_00000005267056765264138460000002182346884633274547_"  style="overflow:visible;"/>
		</clipPath>
		<path style="clip-path:url(#SVGID_00000173875002685044840700000002523421029824600251_);fill:#1A1A35;" d="M1016,1487.1
			c1.4,0,27.6,4.9,37.8-0.6c10.2-5.4,56.1-75.4,56.1-75.4l9.2,4.8c-12.8,51.3-22.3,107.3-99,100.6L1016,1487.1z"/>
	</g>
</g>
<path class="st26" d="M1108.6,1375.8l-18.8,12.2c-29.2,20,0.6,70.8,25.2,27l12.7-3.6L1108.6,1375.8z"/>
<g>
	<g>
		<path id="XMLID_334_" class="st26" d="M1133.8,583.1l-62.2,29.2l65.9,135.5l46.2-30.7l-14.1-31.4c14.1-9.4,34.3-20.5,19.7-39.8
			C1189.2,646,1133.8,583.1,1133.8,583.1z"/>
	</g>
	<g>
		<defs>
			<path id="SVGID_00000177471978664593914050000000842796984890473637_" d="M1133.8,583.1l-62.2,29.2l65.9,135.5l46.2-30.7
				l-14.1-31.4c14.1-9.4,34.3-20.5,19.7-39.8C1189.2,646,1133.8,583.1,1133.8,583.1z"/>
		</defs>
		<clipPath id="SVGID_00000180346417904953119620000016987713258685938076_">
			<use xlink:href="#SVGID_00000177471978664593914050000000842796984890473637_"  style="overflow:visible;"/>
		</clipPath>
		<path style="clip-path:url(#SVGID_00000180346417904953119620000016987713258685938076_);fill:#FF8370;" d="M1094.9,619.8
			c0,0,27.2,15.5,74.2-0.8l-24.3-28.6L1094.9,619.8"/>
	</g>
	<g>
		<defs>
			<path id="SVGID_00000042710232740548075400000000362428331456206221_" d="M1133.8,583.1l-62.2,29.2l65.9,135.5l46.2-30.7
				l-14.1-31.4c14.1-9.4,34.3-20.5,19.7-39.8C1189.2,646,1133.8,583.1,1133.8,583.1z"/>
		</defs>
		<clipPath id="SVGID_00000025411461007247979350000010706195030206833590_">
			<use xlink:href="#SVGID_00000042710232740548075400000000362428331456206221_"  style="overflow:visible;"/>
		</clipPath>
		<path style="clip-path:url(#SVGID_00000025411461007247979350000010706195030206833590_);fill:#FFFFFF;" d="M1176.2,645.9
			c0,0-26.1,4.9-34,7.1C1134.4,655.2,1171.4,657,1176.2,645.9z"/>
	</g>
	<g>
		<defs>
			<path id="SVGID_00000152233675454752148840000011616143908151385007_" d="M1133.8,583.1l-62.2,29.2l65.9,135.5l46.2-30.7
				l-14.1-31.4c14.1-9.4,34.3-20.5,19.7-39.8C1189.2,646,1133.8,583.1,1133.8,583.1z"/>
		</defs>
		<clipPath id="SVGID_00000044156216931127221010000007099458365849056702_">
			<use xlink:href="#SVGID_00000152233675454752148840000011616143908151385007_"  style="overflow:visible;"/>
		</clipPath>
		<path style="clip-path:url(#SVGID_00000044156216931127221010000007099458365849056702_);fill:#FF8370;" d="M1166.6,712
			l-44.8-32.6c0,0,36-3.8,49.9-4.3c13.9-0.6,22.3-24.8,22.3-24.8c18.3,14-16.1,32.9-20.5,36.4l7.9,21.1L1166.6,712z"/>
	</g>
</g>
<path class="st23" d="M1094.9,619.8c0,0,27.1-2.8,54.3-11l-28.7-1.3c0,0,41.3-1.9,61-16.6c0,0-41.2-38.4-83.1-17.6
	c-41.9,20.8-37.1,37.3-37.1,37.3c-31.5,27.5,37.9,74.5,47.1,77.3c10.7-18.9,14-23.9,0.7-43.8c-15.9,13.4-34.2-23-6.6-14.1
	L1094.9,619.8z"/>
<g>
	<g>
		<g>
			<path id="XMLID_333_" class="st15" d="M1070.6,660.5c0,0,3.2-28.2,37.1-72.9l37.2-26.2c11.7-8.3,11.9-23.6,5.9-35.5
				c-1-2.6-4.2-3.6-6.5-2l-36,25.8C1040,547.3,1013.9,622.5,1070.6,660.5z"/>
		</g>
		<g>
			<defs>
				<path id="SVGID_00000021811287095932418610000012515346002652579219_" d="M1070.6,660.5c0,0,3.2-28.2,37.1-72.9l37.2-26.2
					c11.7-8.3,11.9-23.6,5.9-35.5c-1-2.6-4.2-3.6-6.5-2l-36,25.8C1040,547.3,1013.9,622.5,1070.6,660.5z"/>
			</defs>
			<use xlink:href="#SVGID_00000021811287095932418610000012515346002652579219_"  style="overflow:visible;fill:#135C79;"/>
			<clipPath id="SVGID_00000158029311354298289880000014710467940956878523_">
				<use xlink:href="#SVGID_00000021811287095932418610000012515346002652579219_"  style="overflow:visible;"/>
			</clipPath>
			<path style="clip-path:url(#SVGID_00000158029311354298289880000014710467940956878523_);fill:#135C79;" d="M1108.3,549.7
				c0,0,13.7,17.1-0.6,37.9c-14.3,20.8,0,0,0,0s-1.2-35.7-18.3-37.2C1089.4,550.4,1102,548.1,1108.3,549.7"/>
		</g>
	</g>
	<path class="st15" d="M1053,582.7c-5.9,9.7-12.8,5.4-6.7-4.2C1052.2,568.8,1059.1,573.1,1053,582.7z"/>
</g>
<path id="XMLID_316_" class="st22" d="M1118.8,738.2c98.8-145.8,289.1,181.7,309.2,199.2c0,0-146.1,16.1-198.5,151.5L1156.9,903
	C1156.9,903,1107.1,778.9,1118.8,738.2"/>
<path class="st23" d="M1118.8,738.2l-5.2-16.6c0,0,26.1-31.3,72-31.7l4.7,10C1190.3,700,1129.3,716.4,1118.8,738.2z"/>
<g>
	<g>
		<g>
			<defs>
				<path id="SVGID_00000054948116755698087120000007125298255253640122_" d="M1118.8,738.2l-65.1,94.1c-8.5,12.2-6,28.9,5.6,38.2
					l40.6,32.4c15.3,12.2,37.7,9.5,49.7-6l60.2-78.1L1118.8,738.2z"/>
			</defs>
			<clipPath id="SVGID_00000063618195278614383130000012616222411452560268_">
				<use xlink:href="#SVGID_00000054948116755698087120000007125298255253640122_"  style="overflow:visible;"/>
			</clipPath>
		</g>
	</g>
	<g>
		<g>
			<path id="XMLID_00000151509609624670165070000005336223394909999295_" class="st22" d="M1118.8,738.2l-65.1,94.1
				c-8.5,12.2-6,28.9,5.6,38.2l40.6,32.4c15.3,12.2,37.7,9.5,49.7-6l60.2-78.1L1118.8,738.2z"/>
		</g>
		<g>
			<defs>
				<path id="SVGID_00000078745592092133554150000008563352147499830659_" d="M1118.8,738.2l-65.1,94.1c-8.5,12.2-6,28.9,5.6,38.2
					l40.6,32.4c15.3,12.2,37.7,9.5,49.7-6l60.2-78.1L1118.8,738.2z"/>
			</defs>
			<use xlink:href="#SVGID_00000078745592092133554150000008563352147499830659_"  style="overflow:visible;fill:#F89F1E;"/>
			<clipPath id="SVGID_00000157269069489322272240000002828383546610545034_">
				<use xlink:href="#SVGID_00000078745592092133554150000008563352147499830659_"  style="overflow:visible;"/>
			</clipPath>
			<path style="clip-path:url(#SVGID_00000157269069489322272240000002828383546610545034_);fill:#F89F1E;" d="M1046.1,836.7
				c22-33.1,125.3,20.6,132.6,25.6l-54.4,57c0,0-53.4,0.9-64.2-8.7C1049.3,901,1041.2,853.3,1046.1,836.7z"/>
		</g>
	</g>
	<g>
		<g>
			<defs>
				<path id="SVGID_00000057111831213442075650000007991617729068471438_" d="M1118.8,738.2l-65.1,94.1c-8.5,12.2-6,28.9,5.6,38.2
					l40.6,32.4c15.3,12.2,37.7,9.5,49.7-6l60.2-78.1L1118.8,738.2z"/>
			</defs>
			<clipPath id="SVGID_00000103224818955597783760000008458023935926348984_">
				<use xlink:href="#SVGID_00000057111831213442075650000007991617729068471438_"  style="overflow:visible;"/>
			</clipPath>
		</g>
	</g>
</g>
<path class="st22" d="M1153.6,894.4l56.3-75.5c0,0-4.2,171.2,43.6,224c0,0-18.2,30.4-24,46.1L1153.6,894.4z"/>
<g>
	<g>
		<g>
			<polygon id="XMLID_314_" class="st32" points="1633.6,893 1359.2,919.3 1197.4,893 1197.4,594.5 1359.2,563.5 1633.6,594.5 			
				"/>
		</g>
		<g>
			<defs>
				<polygon id="SVGID_00000035492560484785478520000018428680216173859767_" points="1633.6,893 1359.2,919.3 1197.4,893 
					1197.4,594.5 1359.2,563.5 1633.6,594.5 				"/>
			</defs>
			<clipPath id="SVGID_00000076567950356218054580000012185967526098098336_">
				<use xlink:href="#SVGID_00000035492560484785478520000018428680216173859767_"  style="overflow:visible;"/>
			</clipPath>
			<polyline style="clip-path:url(#SVGID_00000076567950356218054580000012185967526098098336_);fill:#FFFFFF;" points="
				1480.3,577.2 1478.1,773.3 1520.6,768.1 1522.7,583.1 1480.3,577.2 			"/>
		</g>
	</g>
	<polygon class="st34" points="1359.2,919.3 1197.4,893 1197.4,594.5 1359.2,563.5 	"/>
</g>
<g>
	<g>
		<path id="XMLID_313_" class="st26" d="M1409.5,868.9c-5.6-1.9-49.4,15.9-64.3,0.9c34.2-43.5,0.4-22.8-23.1-1.9L1098.2,835
			c-17-2.5-33.8,5.4-42.8,20l0,0c-20.6,32.4,11.6,71.5,46.4,70.1l199-12.7v0.1c0,0,66.9,13.5,82.4,8.6
			C1398.8,916.2,1412.6,871.9,1409.5,868.9z"/>
	</g>
	<g>
		<defs>
			<path id="SVGID_00000070821143875816215710000017884849984534416785_" d="M1409.5,868.9c-5.6-1.9-49.4,15.9-64.3,0.9
				c34.2-43.5,0.4-22.8-23.1-1.9L1098.2,835c-17-2.5-33.8,5.4-42.8,20l0,0c-20.6,32.4,11.6,71.5,46.4,70.1l199-12.7v0.1
				c0,0,66.9,13.5,82.4,8.6C1398.8,916.2,1412.6,871.9,1409.5,868.9z"/>
		</defs>
		<clipPath id="SVGID_00000086664849781028244250000012109092473584536711_">
			<use xlink:href="#SVGID_00000070821143875816215710000017884849984534416785_"  style="overflow:visible;"/>
		</clipPath>
		<path style="clip-path:url(#SVGID_00000086664849781028244250000012109092473584536711_);fill:#FF8370;" d="M1050,856.9
			c0,0,23.8,39,72.3,42.9s178.6,12.6,178.6,12.6c-23.4-2-244.4,61.6-262.4-7.7C1038.6,889.4,1050,856.9,1050,856.9z"/>
	</g>
</g>
<path class="st22" d="M2309.4,1266c-1.3-277.2-422.8-277.2-424,0c0,0-21.8,222,212,398C2331.2,1488,2309.4,1266,2309.4,1266z"/>
<path class="st13" d="M2170.5,1248.5c-1.8,103.1-155.1,103.1-156.9,0C2015.4,1145.4,2168.8,1145.4,2170.5,1248.5z"/>
<path class="st23" d="M2092.1,1015.1c-3.4-1.3-1.7-3.1-4.7-10.2c-0.3-1,0.2-2.1,1.2-2.4c1-0.3,2.1,0.2,2.4,1.2
	c1.8,5.4,2.7,8.4,2.9,9l-1.8,0.6l0.3,1.9C2092.3,1015.1,2092.2,1015.1,2092.1,1015.1z M2085.5,995.3c-3.7-1.7-3.6-8.5-5.8-12.1
	c-0.9-2.3,2.8-3.7,3.6-1.4C2083.6,985,2090.3,994.3,2085.5,995.3z M2077.3,973.6c-3.8-1.9-3.8-8.4-6.1-11.9c-1-2.3,2.7-3.8,3.6-1.5
	C2075.2,963.4,2082.3,972.6,2077.3,973.6z M2068.6,952.2c-3.8-1.9-4-8.2-6.3-11.8c-1-2.3,2.6-3.8,3.5-1.5
	C2066.2,942,2073.6,951.2,2068.6,952.2z M2059.3,931c-3.8-1.9-4.1-8.1-6.6-11.6c-1.1-2.2,2.5-3.9,3.5-1.6
	C2056.8,920.9,2064.4,930,2059.3,931z M2049.5,910.1c-3.8-1.9-4.3-7.9-6.8-11.5c-1.1-2.2,2.4-4,3.4-1.7
	C2046.9,900.1,2054.7,909.1,2049.5,910.1z M2039.3,889.4c-3.7-1.9-4.4-7.8-7-11.3c-1.2-2.2,2.3-4,3.4-1.8
	C2036.5,879.4,2044.5,888.3,2039.3,889.4z M2028.7,868.9c-3.7-1.9-4.6-7.7-7.2-11.2c-1.2-2.2,2.2-4.1,3.4-1.8
	C2025.6,859.1,2033.9,867.6,2028.7,868.9z M2017.6,848.7c-3.7-1.9-4.7-7.6-7.4-11c-1.3-2.1,2.1-4.1,3.3-1.9
	C2014.4,838.9,2022.9,847.3,2017.6,848.7z M606.5,844c-1.1,0-2-0.9-1.9-2c0-0.2,0.2-4.3,0.9-11.8c0.2-2.5,4.1-2.1,3.8,0.4
	C607.8,839.9,610,843,606.5,844z M2006,828.7c-3.7-1.9-4.8-7.5-7.6-10.8c-0.5-0.9-0.3-2.1,0.7-2.6c3.9-1.2,6.2,8.1,8.6,10.6
	C2008.5,827,2007.5,828.7,2006,828.7z M608.6,820.8c-4.2-0.9-0.1-10.2-0.5-13.7c0.3-2.5,4.2-2,3.8,0.5
	C610.7,811.1,612.2,819.9,608.6,820.8z M1994.1,808.9c-3.7-1.8-5-7.4-7.7-10.7c-1.4-2.1,1.9-4.2,3.2-2.1
	C1990.6,799.2,1999.6,807.5,1994.1,808.9z M611.7,797.9c-4.3-0.9,0.2-10.3,0-13.7c0.4-2.5,4.3-1.8,3.8,0.7
	C614.1,788.2,615.3,796.9,611.7,797.9z M1981.8,789.4c-3.7-1.8-5.1-7.3-7.9-10.5c-1.4-2.1,1.9-4.2,3.2-2.1
	C1978.1,779.8,1987.3,787.9,1981.8,789.4z M615.6,775.1c-4.4-0.9,0.5-10.3,0.4-13.7c0.5-2.4,4.3-1.7,3.8,0.8
	C618.2,765.6,619.3,773.9,615.6,775.1z M1969,770.1c-3.7-1.8-5.2-7.2-8.1-10.3c-1.4-2,1.8-4.3,3.2-2.2
	C1965.1,760.6,1974.6,768.7,1969,770.1z M620.3,752.4c-4.5-0.9,0.8-10.3,0.7-13.6c0.5-2.4,4.4-1.5,3.7,0.9
	C623.2,743.1,623.9,751.2,620.3,752.4z M1955.9,751.2c-3.7-1.8-5.4-7.1-8.3-10.2c-1.5-2,1.7-4.3,3.1-2.3
	C1951.8,741.7,1961.6,749.6,1955.9,751.2z M1942.4,732.5c-3.7-1.8-5.5-7-8.5-10c-1.5-2,1.6-4.3,3.1-2.3
	C1938.1,723.1,1948.1,730.9,1942.4,732.5z M625.7,730c-4.6-0.9,1.1-10.3,1.1-13.6c0.6-2.4,4.4-1.4,3.7,1
	C628.8,720.7,629.3,728.7,625.7,730z M1928.4,714.1c-3.7-1.8-5.6-6.8-8.6-9.8c-0.7-0.8-0.5-2,0.3-2.7c3.7-1.7,7.1,7.3,9.8,9.4
	C1930.9,712.2,1930,714.1,1928.4,714.1z M631.8,707.7c-4.7-0.9,1.4-10.4,1.5-13.6c0.7-2.4,4.4-1.2,3.7,1.1
	C635.1,698.7,635.4,706.2,631.8,707.7z M1914.1,696c-3.7-1.8-5.7-6.7-8.8-9.6c-0.7-0.8-0.6-2,0.3-2.7c3.7-1.8,7.3,7.1,10,9.2
	C1916.6,694.1,1915.7,696,1914.1,696z M638.6,685.6c-4.8-0.9,1.6-10.3,1.9-13.5c0.8-2.4,4.5-1.1,3.6,1.3
	C642.1,676.8,642.2,684.1,638.6,685.6z M1899.4,678.2c-3.7-1.8-5.8-6.6-9-9.4c-1.7-1.9,1.3-4.4,2.9-2.5
	C1894.7,669,1905.3,676.5,1899.4,678.2z M646.1,663.8c-4.9-0.9,1.9-10.3,2.3-13.4c0.9-2.3,4.5-0.9,3.6,1.4
	C649.8,655.2,649.8,662.1,646.1,663.8z M1884.3,660.8c-3.7-1.8-5.9-6.4-9.1-9.2c-0.7-0.8-0.6-2,0.1-2.7c3.6-1.9,7.6,6.8,10.4,8.8
	C1886.9,658.7,1885.9,660.8,1884.3,660.8z M1868.8,643.6c-3.7-1.8-6.1-6.3-9.3-9c-0.7-0.8-0.7-2,0.1-2.7c3.6-2,7.7,6.6,10.6,8.5
	C1871.4,641.6,1870.4,643.7,1868.8,643.6z M654.4,642.2c-5-0.9,2.2-10.2,2.7-13.3c0.9-2.3,4.6-0.8,3.5,1.5
	C658.3,633.9,658.2,640.4,654.4,642.2z M1853,626.9c-3.7-1.8-6.2-6.1-9.4-8.8c-1.8-1.7,1-4.5,2.7-2.7
	C1847.8,617.9,1859.2,625,1853,626.9z M663.4,621c-5.1-1,2.5-10.2,3.1-13.2c1-2.3,4.6-0.6,3.5,1.6
	C667.6,612.8,667.2,619.1,663.4,621z M1836.8,610.4c-3.7-1.7-6.3-6-9.6-8.6c-0.8-0.7-0.8-2,0-2.7c3.5-2.2,8,6.2,11,8
	C1839.4,608.3,1838.4,610.5,1836.8,610.4z M673.2,600.1c-5.2-1.3,2.8-10,3.5-13.1c1.1-2.2,4.6-0.4,3.4,1.8
	C677.7,592.1,677,598.2,673.2,600.1z M1820.2,594.4c-1.6-0.5-12.7-9.6-9.8-11.1c3.4-2.2,8.2,6.1,11.2,7.8
	C1822.8,592.2,1821.9,594.5,1820.2,594.4z M683.8,579.6c-5.3-1.3,3.2-9.9,3.9-13c1.2-2.2,4.6-0.3,3.3,1.9
	C688.5,571.8,687.6,577.7,683.8,579.6z M1803.2,578.7c-1.7-0.6-12.8-9.2-10-10.9c3.4-2.3,8.3,5.9,11.3,7.5
	C1805.9,576.5,1804.9,578.8,1803.2,578.7z M1786,563.5c-1.7-0.7-12.9-8.8-10.2-10.6c3.3-2.4,8.5,5.7,11.5,7.3
	C1788.6,561.2,1787.7,563.5,1786,563.5z M695.2,559.5c-5.4-1.4,3.5-9.8,4.4-12.8c1.3-2.1,4.6-0.1,3.3,2
	C700.2,552,699,557.7,695.2,559.5z M1768.3,548.6c-1.9-0.9-13-8.4-10.4-10.4c3.3-2.5,8.5,5.5,11.7,7
	C1770.9,546.3,1770,548.7,1768.3,548.6z M707.5,540c-1.5,0-2.5-1.7-1.6-3c2.5-2.4,5.3-11.5,9.1-10.1c0.9,0.6,1.1,1.8,0.5,2.7
	C712.6,532.6,711.2,538.1,707.5,540z M1750.3,534.2c-1.9-1-13.1-8-10.6-10.2c3.2-2.6,8.7,5.3,11.8,6.7
	C1753,531.8,1752.1,534.2,1750.3,534.2z M720.5,520.9c-5.7-1.5,4.2-9.5,5.3-12.4c1.5-2,4.6,0.3,3.1,2.3
	C725.9,513.9,724.2,519.1,720.5,520.9z M1732,520.1c-2-1.1-13.2-7.6-10.8-9.9c3.1-2.6,8.8,5.1,12,6.4
	C1734.6,517.7,1733.8,520.2,1732,520.1z M1713.4,506.5c-2.1-1.2-13.2-7.1-11-9.6c3.1-2.7,8.9,4.8,12.1,6.2
	C1716,504.1,1715.2,506.6,1713.4,506.5z M734.4,502.5c-1.5,0-2.5-1.9-1.5-3.1c2.7-2.2,6.3-11,10-9.3c0.8,0.7,0.9,1.9,0.3,2.7
	C740.1,495.8,738.1,500.7,734.4,502.5z M1694.4,493.4c-2.1-1.2-13.3-6.8-11.2-9.4c3-2.8,9,4.7,12.3,5.9
	C1697.1,490.9,1696.2,493.5,1694.4,493.4z M749.1,484.8c-1.6,0.1-2.5-2-1.5-3.2c2.8-2.1,6.8-10.7,10.4-8.8c0.8,0.7,0.8,1.9,0.1,2.7
	C755.1,478.3,752.8,483,749.1,484.8z M1675.1,480.7c-2.2-1.3-13.3-6.3-11.4-9.1c2.9-2.9,9.2,4.4,12.4,5.6
	C1677.8,478.1,1677,480.8,1675.1,480.7z M1655.6,468.5c-2.3-1.3-13.4-5.9-11.5-8.8c2.9-2.9,9.3,4.2,12.5,5.3
	C1658.2,465.8,1657.5,468.6,1655.6,468.5z M764.6,467.7c-6.2-1.8,5.2-9,6.7-11.5c1.7-1.8,4.5,1,2.7,2.7
	C770.8,461.6,768.4,466,764.6,467.7z M1635.7,456.7c-2.3-1.3-13.5-5.6-11.7-8.6c2.8-3,9.3,4,12.7,5
	C1638.4,454,1637.6,456.8,1635.7,456.7z M781,451.5c-1.7,0.1-2.6-2.2-1.3-3.3c3-1.8,7.8-10,11.2-7.7c0.7,0.8,0.6,2-0.1,2.7
	C787.4,445.7,784.7,449.8,781,451.5z M1615.6,445.4c-2.4-1.4-13.4-5.1-11.9-8.3c2.7-3.1,9.4,3.8,12.8,4.7
	C1618.3,442.7,1617.5,445.5,1615.6,445.4z M798.1,436.1c-1.7,0.1-2.6-2.3-1.2-3.4c3.1-1.6,8.3-9.6,11.6-7.1
	C811.2,427.3,799.9,435.3,798.1,436.1z M1595.3,434.6c-3.8-1.3-7.4-3.8-11.1-5.4c-2.2-1.1-0.5-4.6,1.7-3.4
	C1588,427.4,1602.4,431.7,1595.3,434.6z M1574.6,424.3c-2.5-1.4-13.5-4.4-12.1-7.7c2.6-3.2,9.6,3.3,13,4.1
	C1577.3,421.4,1576.6,424.4,1574.6,424.3z M816.1,421.5c-1.8,0.1-2.6-2.4-1.2-3.4c3.2-1.4,8.8-9.2,12-6.5
	C829.3,413.7,818,420.6,816.1,421.5z M1553.8,414.4c-2.5-1.4-13.6-4.1-12.3-7.4c2.5-3.2,9.7,3.1,13.1,3.8
	C1556.4,411.6,1555.8,414.5,1553.8,414.4z M834.7,408c-1.8,0.1-2.7-2.5-1.1-3.5c3.2-1.3,9.2-8.7,12.3-5.9
	C848,401.1,836.8,406.8,834.7,408z M1532.7,405.1c-2.7-1.5-13.5-3.6-12.4-7.2c2.4-3.3,9.7,2.9,13.2,3.5
	C1535.3,402.2,1534.7,405.2,1532.7,405.1z M1511.4,396.2c-2.7-1.5-13.5-3.3-12.5-6.9c2.1-3.4,9.9,2.7,13.2,3.2
	C1514,393.2,1513.4,396.3,1511.4,396.2z M854,395.4c-1.9,0.1-2.7-2.6-1-3.6c3.3-1.1,9.7-8.2,12.6-5.3
	C867.4,389.4,856.3,394,854,395.4z M1489.9,387.9c-2.7-1.5-13.5-3-12.6-6.6c2-3.4,10,2.4,13.3,2.9
	C1492.5,384.8,1491.9,387.9,1489.9,387.9z M873.9,383.8c-1.9,0.1-2.7-2.7-0.9-3.6c3.4-0.9,10.1-7.7,12.8-4.6
	C887.5,378.5,876.3,382.4,873.9,383.8z M1468.2,380c-2.8-1.4-13.5-2.7-12.7-6.3c2-3.5,10.1,2.2,13.4,2.6
	C1470.9,376.9,1470.3,380.1,1468.2,380z M894.4,373.2c-2,0.1-2.7-2.8-0.8-3.7c3.4-0.8,10.5-7.2,13-4
	C907.9,368.8,896.9,371.7,894.4,373.2z M1446.4,372.6c-2.8-1.4-13.6-2.3-12.8-6c1.9-3.5,10.1,2,13.4,2.3
	C1449,369.5,1448.5,372.7,1446.4,372.6z M1424.3,365.7c-2.9-1.5-13.4-1.9-12.9-5.7c1.8-3.5,10.1,1.8,13.5,2
	C1427,362.5,1426.5,365.8,1424.3,365.7z M915.4,363.6c-2,0.1-2.7-2.9-0.8-3.7c3.3-0.6,11-6.7,13.2-3.3
	C929,360,918,362.2,915.4,363.6z M1402.2,359.3c-3.9-0.9-7.7-2.1-11.6-3.1c-2.4-0.6-1.4-4.4,1-3.7
	C1394,353.6,1409.7,355.5,1402.2,359.3z M936.8,355.1c-2.1,0.1-2.7-3.1-0.7-3.7c3.3-0.4,11.3-6.2,13.3-2.7
	C950.3,352.3,939.5,353.7,936.8,355.1z M1379.9,353.4c-3-1.4-13.4-1.3-13.1-5.2c1.7-3.6,10.2,1.3,13.5,1.4
	C1382.5,350.1,1382.1,353.5,1379.9,353.4z M1357.5,347.9c-3-1.3-13.4-1-13.1-4.9c1.6-3.7,10.2,1.1,13.6,1.1
	C1360.1,344.6,1359.7,348,1357.5,347.9z M958.6,347.7c-2.1,0.1-2.7-3.2-0.6-3.8c3.3-0.3,11.6-5.6,13.5-2.1
	C972.1,345.5,961.4,346.2,958.6,347.7z M1335,343c-3-1.3-13.3-0.7-13.2-4.6c1.5-3.7,10.3,0.9,13.6,0.8
	C1337.6,339.6,1337.2,343,1335,343z M980.7,341.2c-2.2,0.1-2.6-3.3-0.5-3.8c3.3-0.1,11.8-5.1,13.5-1.5
	C994.1,339.7,983.6,339.8,980.7,341.2z M1312.3,338.5c-3-1.3-13.3-0.5-13.2-4.3c1.4-3.7,10.3,0.7,13.6,0.5
	C1314.9,335,1314.6,338.5,1312.3,338.5z M1003.1,335.7c-2.2,0.1-2.6-3.4-0.4-3.8c3.3,0,12-4.6,13.6-0.9
	C1016.4,334.8,1006.1,334.4,1003.1,335.7z M1289.6,334.4c-3.1-1.2-13.2-0.2-13.3-4.1c1.1-3.7,10.4,0.5,13.6,0.2
	C1292.2,330.9,1291.9,334.5,1289.6,334.4z M1025.7,331.1c-2.3,0.1-2.6-3.5-0.3-3.8c3.3,0.2,12.2-4.1,13.6-0.3
	C1039,330.8,1028.7,329.9,1025.7,331.1z M1266.8,330.9c-3.2-1.2-13,0.2-13.3-3.8c1.3-3.8,10.2,0.2,13.6,0
	C1269.4,327.3,1269.1,330.9,1266.8,330.9z M1244,327.8c-3.3-1.2-13,0.5-13.4-3.5c1.2-3.8,10.2,0,13.6-0.4
	C1246.5,324.2,1246.3,327.8,1244,327.8z M1048.4,327.5c-2.3,0.1-2.6-3.6-0.3-3.8c3.3,0.3,12.4-3.6,13.6,0.2
	C1061.5,327.8,1051.6,326.3,1048.4,327.5z M1221,325.3c-3.3-1.1-12.9,0.8-13.4-3.1c1.1-3.8,10.3-0.3,13.6-0.7
	C1223.6,321.6,1223.4,325.3,1221,325.3z M1071.3,324.7c-2.4,0.1-2.6-3.6-0.2-3.8c3.3,0.4,12.5-3.2,13.6,0.7
	C1084.3,325.5,1074.5,323.6,1071.3,324.7z M1198,323.3c-3.9-0.3-7.8-0.5-11.6-0.7c-2.5-0.1-2.3-4,0.2-3.8c3.2,1,12.8-1.2,13.3,2.8
	C1199.9,322.6,1199,323.3,1198,323.3z M1094.3,322.8c-1,0-1.8-0.8-1.9-1.8c0.5-4,10.1-1.8,13.3-2.7c2.5-0.2,2.7,3.8,0.2,3.8
	C1102,322.3,1098.1,322.6,1094.3,322.8z M1175,322c-3.8-0.2-7.7-0.3-11.6-0.4c-2.5,0-2.4-4,0.1-3.8c3.2,0.9,12.8-1.5,13.4,2.4
	C1176.9,321.2,1176,322,1175,322z M1117.4,321.7c-1,0-1.9-0.8-1.9-1.9c0.6-3.9,10.1-1.5,13.4-2.3c2.5-0.1,2.6,3.8,0.1,3.8
	C1125.1,321.4,1121.2,321.5,1117.4,321.7z M1151.9,321.4c-3-0.7-13.2,1.7-13.4-2c0.4-3.8,10.4-1.2,13.5-1.9
	C1154.4,317.5,1154.4,321.4,1151.9,321.4z"/>
<g>
	<path class="st2" d="M2518.4,563.5H2095c23.8-37.1,64.8-84.6,113.5-67.6c30.9-123.7,209.5-114.4,227.4,11.7
		C2473.5,485,2521.9,522.8,2518.4,563.5z"/>
	<path class="st2" d="M2045.8,411.2h-299c18.6-16.6,44-22.2,68.6-17.6c20.7-49.5,95.3-52.9,120.4-5.5c15.2-12.8,35.5-0.3,47.8,11
		C1998.3,370.4,2039,384.5,2045.8,411.2z"/>
</g>
<g>
	<g>
		<path class="st15" d="M1406.1,848.9l-2.5-23l10.4-1.1c1.1-0.1,2.1,0,3.1,0.3c1,0.3,1.8,0.9,2.6,1.5c0.8,0.7,1.4,1.5,1.8,2.3
			c0.5,0.9,0.8,1.8,0.9,2.8c0.1,1,0,1.9-0.2,2.8c-0.2,0.9-0.6,1.7-1.1,2.4c-0.5,0.7-1.1,1.4-1.8,1.9l6,8l-5.9,0.6l-5.2-7l-3.6,0.4
			l0.8,7.4L1406.1,848.9z M1410.1,836.3l4.9-0.5c0.4,0,0.8-0.2,1.1-0.5c0.3-0.3,0.5-0.7,0.7-1.2c0.2-0.5,0.2-1.1,0.1-1.7
			c-0.1-0.6-0.3-1.2-0.5-1.6c-0.3-0.4-0.6-0.8-1-1c-0.4-0.2-0.8-0.3-1.2-0.3l-4.7,0.5L1410.1,836.3z"/>
		<path class="st15" d="M1434.5,846.2c-1.5,0.2-2.8,0.1-3.9-0.3c-1.2-0.3-2.2-0.9-3.1-1.6c-0.9-0.7-1.6-1.6-2.1-2.6
			c-0.5-1-0.8-2.1-1-3.2c-0.2-1.6,0-3.1,0.6-4.5c0.6-1.4,1.5-2.6,2.8-3.6c1.3-1,2.9-1.6,4.8-1.8c1.9-0.2,3.6,0,5,0.7
			c1.4,0.7,2.6,1.6,3.4,2.8c0.9,1.2,1.4,2.6,1.5,4.2c0,0.3,0,0.6,0,0.9c0,0.3,0,0.5,0,0.8l-12.6,1.4c0.1,0.7,0.4,1.3,0.8,1.8
			c0.4,0.5,0.9,0.8,1.5,1c0.6,0.2,1.2,0.3,1.8,0.2c0.8-0.1,1.5-0.3,2.1-0.8c0.6-0.4,1.1-1,1.3-1.6l4.5,0.8c-0.3,0.9-0.9,1.8-1.6,2.6
			c-0.7,0.8-1.6,1.4-2.6,1.9C1437,845.7,1435.8,846.1,1434.5,846.2z M1429.7,836.3l7.4-0.8c-0.2-0.7-0.4-1.2-0.8-1.7
			c-0.4-0.5-0.9-0.8-1.4-1c-0.6-0.2-1.2-0.3-1.8-0.2c-0.7,0.1-1.3,0.3-1.8,0.6c-0.5,0.3-0.9,0.8-1.2,1.3
			C1429.8,835,1429.7,835.6,1429.7,836.3z"/>
		<path class="st15" d="M1472.4,841.8l-5.2,0.6l-1-9.4c-0.1-1.1-0.4-1.9-0.9-2.3c-0.5-0.5-1-0.7-1.7-0.6c-0.7,0.1-1.3,0.4-2,1
			c-0.6,0.6-1,1.4-1.2,2.3l1,9.6l-5.2,0.6l-1-9.4c-0.1-1.1-0.4-1.9-0.9-2.3c-0.5-0.5-1-0.6-1.7-0.6c-0.7,0.1-1.3,0.4-1.9,1
			c-0.6,0.6-1,1.4-1.2,2.2l1,9.6l-5.2,0.6l-1.8-16.8l4.7-0.5l0.3,2.9c0.5-1.1,1.3-1.9,2.3-2.6c1-0.7,2.2-1.1,3.7-1.2
			c1.4-0.2,2.5,0.1,3.4,0.6c0.8,0.6,1.4,1.3,1.7,2.1c0.5-1.1,1.3-2,2.3-2.7c1-0.7,2.2-1.1,3.5-1.2c1.1-0.1,2,0,2.7,0.3
			c0.7,0.3,1.3,0.8,1.7,1.4c0.4,0.6,0.7,1.3,0.9,2c0.2,0.7,0.4,1.4,0.4,2.1L1472.4,841.8z"/>
		<path class="st15" d="M1483.4,841c-1.5,0.2-2.8,0.1-3.9-0.3c-1.2-0.3-2.2-0.9-3.1-1.6c-0.9-0.7-1.6-1.6-2.1-2.6
			c-0.5-1-0.8-2.1-1-3.2c-0.2-1.6,0-3.1,0.6-4.5c0.6-1.4,1.5-2.6,2.8-3.6s2.9-1.6,4.8-1.8c1.9-0.2,3.6,0,5,0.7
			c1.4,0.7,2.6,1.6,3.4,2.8c0.9,1.2,1.4,2.6,1.5,4.2c0,0.3,0,0.6,0,0.9c0,0.3,0,0.5,0,0.8l-12.6,1.4c0.1,0.7,0.4,1.3,0.8,1.8
			c0.4,0.5,0.9,0.8,1.5,1c0.6,0.2,1.2,0.3,1.8,0.2c0.8-0.1,1.5-0.3,2.1-0.8c0.6-0.4,1.1-1,1.3-1.6l4.5,0.8c-0.3,0.9-0.9,1.8-1.6,2.6
			c-0.7,0.8-1.6,1.4-2.6,1.9C1485.9,840.5,1484.7,840.8,1483.4,841z M1478.6,831l7.4-0.8c-0.2-0.7-0.4-1.2-0.8-1.7
			c-0.4-0.5-0.9-0.8-1.4-1c-0.6-0.2-1.2-0.3-1.8-0.2c-0.7,0.1-1.3,0.3-1.8,0.6c-0.5,0.3-0.9,0.8-1.2,1.3
			C1478.7,829.7,1478.6,830.3,1478.6,831z"/>
		<path class="st15" d="M1492.5,831.2c-0.2-1.6,0-3.2,0.5-4.5c0.5-1.4,1.3-2.5,2.3-3.4c1-0.9,2.3-1.4,3.8-1.6c1.2-0.1,2.3,0,3.3,0.5
			c1,0.5,1.9,1.1,2.4,2l-1-9.7l5.2-0.6l1.9,17.9c0.1,0.5,0.2,0.9,0.4,1.1c0.2,0.2,0.5,0.3,0.9,0.3l0.5,4.3c-0.9,0.3-1.6,0.4-2.2,0.5
			c-0.9,0.1-1.6,0-2.2-0.4c-0.6-0.3-1-0.8-1.2-1.5l-0.2-0.9c-0.5,1.1-1.2,2-2.2,2.6c-1,0.6-2,1-3.2,1.1c-1.2,0.1-2.3,0-3.3-0.3
			c-1-0.3-2-0.9-2.8-1.6c-0.8-0.7-1.5-1.6-2-2.6C1492.9,833.5,1492.6,832.4,1492.5,831.2z M1505.7,831.8l-0.4-3.5
			c-0.3-0.5-0.6-1-1.1-1.4c-0.4-0.4-0.9-0.7-1.5-0.9c-0.5-0.2-1.1-0.3-1.6-0.2c-0.6,0.1-1.1,0.2-1.5,0.5c-0.4,0.3-0.8,0.6-1.1,1.1
			c-0.3,0.4-0.5,0.9-0.6,1.5c-0.1,0.5-0.2,1.1-0.1,1.7c0.1,0.6,0.2,1.2,0.5,1.7c0.3,0.5,0.6,0.9,1,1.3c0.4,0.3,0.9,0.6,1.4,0.8
			c0.5,0.2,1.1,0.2,1.7,0.1c0.4,0,0.7-0.1,1.1-0.3c0.3-0.2,0.6-0.3,0.9-0.6c0.3-0.2,0.6-0.5,0.8-0.8
			C1505.4,832.5,1505.6,832.2,1505.7,831.8z"/>
		<path class="st15" d="M1513,818.2l-0.5-4.7l5.2-0.6l0.5,4.7L1513,818.2z M1515.1,837.2l-1.8-17l5.2-0.6l1.8,17L1515.1,837.2z"/>
		<path class="st15" d="M1522.5,830.3l-1.2-10.8l5.2-0.6l1,9.6c0.1,1,0.4,1.8,0.9,2.3c0.5,0.5,1.1,0.7,1.8,0.6
			c0.5-0.1,0.9-0.2,1.3-0.4c0.4-0.2,0.8-0.5,1.2-0.9c0.4-0.4,0.7-0.9,1-1.5l-1.1-10.4l5.2-0.6l1.2,11.1c0.1,0.5,0.2,0.9,0.4,1
			c0.2,0.2,0.5,0.3,0.9,0.3l0.5,4.3c-0.5,0.1-0.9,0.2-1.2,0.3c-0.4,0.1-0.7,0.1-1,0.2c-0.9,0.1-1.7,0-2.2-0.3
			c-0.6-0.3-1-0.8-1.2-1.5l-0.2-1c-0.7,1.2-1.5,2.1-2.6,2.8c-1.1,0.6-2.4,1-3.8,1.2c-1.7,0.2-3.1-0.2-4.1-1.2
			C1523.3,833.9,1522.7,832.4,1522.5,830.3z"/>
		<path class="st15" d="M1549.7,833.8c-1.5,0.2-2.9,0.1-4.3-0.3c-1.4-0.3-2.7-0.9-3.7-1.7l1.4-3.5c1.1,0.6,2.2,1.1,3.2,1.4
			c1,0.3,2,0.4,2.8,0.3c0.7-0.1,1.2-0.2,1.5-0.5c0.3-0.2,0.5-0.6,0.4-1c0-0.3-0.2-0.6-0.4-0.7c-0.2-0.2-0.6-0.3-1-0.4
			c-0.5-0.1-1-0.2-1.7-0.3c-1.3-0.3-2.5-0.6-3.4-0.9c-0.9-0.3-1.6-0.7-2.1-1.3c-0.5-0.5-0.8-1.3-0.9-2.2c-0.1-1.1,0.1-2.1,0.5-3.1
			c0.5-0.9,1.2-1.6,2.2-2.2c1-0.6,2.3-1,3.7-1.1c1.2-0.1,2.3-0.1,3.5,0.2c1.2,0.2,2.3,0.8,3.3,1.5l-1.7,3.5c-1-0.6-2-1-2.8-1.2
			c-0.8-0.2-1.5-0.3-2.3-0.2c-0.4,0-0.7,0.1-1,0.2c-0.3,0.1-0.5,0.3-0.7,0.5c-0.2,0.2-0.2,0.5-0.2,0.8c0,0.3,0.2,0.6,0.4,0.7
			c0.2,0.2,0.5,0.3,0.9,0.4c0.4,0.1,0.9,0.2,1.6,0.3c1.4,0.3,2.7,0.5,3.6,0.9c1,0.3,1.7,0.7,2.3,1.3c0.5,0.6,0.8,1.3,1,2.3
			c0.2,1.7-0.3,3.1-1.4,4.2C1553.5,833,1551.8,833.6,1549.7,833.8z"/>
	</g>
	<g>
		<path class="st22" d="M1580.2,812.1c-0.4-0.2-0.8-0.3-1.2-0.3l-4.8,0.5l0.7,6.4l5-0.5c0.4,0,0.8-0.2,1.1-0.5
			c0.3-0.3,0.6-0.7,0.7-1.2c0.2-0.5,0.2-1.1,0.1-1.7c-0.1-0.6-0.3-1.2-0.6-1.6C1581,812.6,1580.6,812.3,1580.2,812.1z"/>
		<path class="st22" d="M1612.8,811.7c-3.3-13-16.4-21.5-30.1-19.5c-13.1,1.9-23.3,14-22.4,27.1c0.6,9.4,1.9,18.7,2.9,28
			c0.8,0.5,1.7,0.2,2.6,0.1c8.6-0.9,17.1-1.9,25.7-2.7c0.9-0.1,1.7-0.2,2.6-0.4C1608.3,840.1,1616.4,826.1,1612.8,811.7z
			 M1584.4,830.1l-5.3-7.1l-3.7,0.4l0.8,7.6l-5.4,0.6l-2.5-23.4l10.6-1.1c1.1-0.1,2.1,0,3.1,0.3c1,0.4,1.9,0.9,2.6,1.6
			c0.8,0.7,1.4,1.5,1.9,2.4c0.5,0.9,0.8,1.8,0.9,2.8c0.1,1,0,1.9-0.2,2.8c-0.2,0.9-0.6,1.7-1.1,2.5c-0.5,0.8-1.1,1.4-1.9,1.9
			l6.1,8.2L1584.4,830.1z M1603.1,828.1l-3.7-4.4l-0.4-0.6l-0.2,0.7l-2.7,5.1l-5.4,0.6l5-9.2l-6.7-8l5.4-0.6l3.6,4.5l0.4,0.6
			l0.3-0.7l2.6-5.2l5.4-0.6l-4.9,9.1l6.9,8L1603.1,828.1z"/>
	</g>
	<g>
		<path class="st15" d="M1474.4,852.2l-0.1-1.3l0.9-0.1l0.1,1.3L1474.4,852.2z"/>
		<path class="st15" d="M1476.3,851.9l-0.1-1.3l0.9-0.1l0.1,1.3L1476.3,851.9z"/>
		<path class="st15" d="M1478.3,851.7l-0.1-1.3l0.9-0.1l0.1,1.3L1478.3,851.7z"/>
		<path class="st15" d="M1482.5,851.4c-0.4,0-0.8,0-1.1-0.1c-0.3-0.1-0.6-0.3-0.9-0.5c-0.3-0.2-0.5-0.5-0.6-0.8
			c-0.2-0.3-0.3-0.6-0.3-1c0-0.4,0-0.7,0.1-1.1c0.1-0.3,0.2-0.6,0.5-0.9c0.2-0.3,0.5-0.5,0.8-0.7s0.7-0.3,1.1-0.3
			c0.4,0,0.8,0,1.1,0.1c0.3,0.1,0.6,0.3,0.9,0.5c0.3,0.2,0.5,0.5,0.6,0.8c0.2,0.3,0.3,0.6,0.3,1c0,0.4,0,0.7-0.1,1
			c-0.1,0.3-0.2,0.6-0.5,0.9c-0.2,0.3-0.5,0.5-0.8,0.7C1483.3,851.2,1482.9,851.3,1482.5,851.4z M1480.7,848.9
			c0,0.3,0.1,0.6,0.3,0.9c0.2,0.2,0.4,0.4,0.6,0.6c0.2,0.1,0.5,0.2,0.8,0.1c0.3,0,0.5-0.1,0.8-0.3c0.2-0.2,0.4-0.4,0.5-0.7
			c0.1-0.3,0.1-0.6,0.1-0.9c0-0.3-0.1-0.6-0.3-0.9c-0.2-0.2-0.4-0.4-0.6-0.6c-0.3-0.1-0.5-0.2-0.8-0.1c-0.3,0-0.5,0.1-0.8,0.3
			c-0.2,0.2-0.4,0.4-0.5,0.7C1480.7,848.2,1480.6,848.5,1480.7,848.9z"/>
		<path class="st15" d="M1490.7,850.4l-1.1,0.1l-0.3-2.9c-0.1-0.5-0.2-0.8-0.3-1c-0.2-0.2-0.4-0.3-0.7-0.3c-0.2,0-0.4,0.1-0.6,0.2
			c-0.2,0.1-0.4,0.3-0.5,0.5c-0.1,0.2-0.2,0.4-0.3,0.7l0.3,3.1l-1.1,0.1l-0.6-5.2l1-0.1l0.1,1c0.1-0.2,0.3-0.5,0.5-0.7
			c0.2-0.2,0.4-0.3,0.7-0.5c0.3-0.1,0.5-0.2,0.9-0.2c0.3,0,0.6,0,0.8,0.1c0.2,0.1,0.4,0.2,0.5,0.4c0.1,0.2,0.2,0.4,0.3,0.6
			c0.1,0.2,0.1,0.5,0.2,0.8L1490.7,850.4z"/>
		<path class="st15" d="M1491.1,843l1.1-0.1l0.6,5.8c0,0.3,0.1,0.4,0.2,0.5c0.1,0.1,0.2,0.1,0.3,0.1c0.1,0,0.3,0,0.4-0.1
			c0.1,0,0.2-0.1,0.3-0.1l0.3,0.9c-0.2,0.1-0.3,0.2-0.6,0.2s-0.4,0.1-0.6,0.1c-0.4,0-0.7,0-0.9-0.2c-0.2-0.2-0.4-0.5-0.4-0.8
			L1491.1,843z"/>
		<path class="st15" d="M1494,843.9l-0.1-1.2l1.1-0.1l0.1,1.2L1494,843.9z M1494.7,850l-0.6-5.2l1.1-0.1l0.6,5.2L1494.7,850z"/>
		<path class="st15" d="M1501.6,849.2l-1.1,0.1l-0.3-2.9c-0.1-0.5-0.2-0.8-0.3-1c-0.2-0.2-0.4-0.3-0.7-0.3c-0.2,0-0.4,0.1-0.6,0.2
			c-0.2,0.1-0.4,0.3-0.5,0.5c-0.1,0.2-0.2,0.4-0.3,0.7l0.3,3.1l-1.1,0.1l-0.6-5.2l1-0.1l0.1,1c0.1-0.2,0.3-0.5,0.5-0.7
			c0.2-0.2,0.4-0.3,0.7-0.5c0.3-0.1,0.5-0.2,0.9-0.2c0.3,0,0.6,0,0.8,0.1c0.2,0.1,0.4,0.2,0.5,0.4c0.1,0.2,0.2,0.4,0.3,0.6
			c0.1,0.2,0.1,0.5,0.2,0.8L1501.6,849.2z"/>
		<path class="st15" d="M1505.1,849c-0.4,0-0.8,0-1.1-0.1c-0.3-0.1-0.7-0.3-0.9-0.5c-0.3-0.2-0.5-0.5-0.6-0.8
			c-0.2-0.3-0.3-0.6-0.3-1c-0.1-0.5,0-0.9,0.2-1.4c0.2-0.4,0.5-0.8,0.8-1.1c0.4-0.3,0.8-0.5,1.4-0.5c0.5-0.1,1,0,1.5,0.2
			c0.4,0.2,0.8,0.5,1,0.9c0.3,0.4,0.4,0.8,0.5,1.3c0,0.1,0,0.2,0,0.2c0,0.1,0,0.1,0,0.2l-4.2,0.4c0.1,0.3,0.2,0.6,0.3,0.8
			c0.2,0.2,0.4,0.4,0.6,0.5c0.2,0.1,0.5,0.1,0.8,0.1c0.3,0,0.6-0.1,0.8-0.3c0.2-0.2,0.4-0.4,0.5-0.6l1,0.2c-0.1,0.3-0.2,0.5-0.4,0.7
			c-0.2,0.2-0.5,0.4-0.8,0.6C1505.8,848.8,1505.5,848.9,1505.1,849z M1503.2,846.1l3.2-0.3c-0.1-0.3-0.2-0.5-0.3-0.8
			c-0.2-0.2-0.4-0.4-0.6-0.5c-0.2-0.1-0.5-0.1-0.8-0.1c-0.3,0-0.5,0.1-0.7,0.3c-0.2,0.2-0.4,0.3-0.5,0.6
			C1503.3,845.5,1503.2,845.8,1503.2,846.1z"/>
		<path class="st15" d="M1513.8,848c-0.4,0-0.8,0-1.1-0.2c-0.3-0.2-0.6-0.4-0.8-0.7l0.3,3.1l-1.1,0.1l-0.8-7.3l1-0.1l0.1,0.9
			c0.2-0.3,0.4-0.6,0.7-0.8c0.3-0.2,0.6-0.3,1-0.4c0.4,0,0.7,0,1,0.1c0.3,0.1,0.6,0.3,0.8,0.5c0.2,0.2,0.4,0.5,0.6,0.8
			c0.2,0.3,0.3,0.6,0.3,1c0.1,0.5,0,1-0.1,1.4c-0.2,0.4-0.4,0.8-0.7,1.1C1514.7,847.8,1514.3,848,1513.8,848z M1513.4,847.1
			c0.2,0,0.4-0.1,0.6-0.2c0.2-0.1,0.3-0.3,0.4-0.4c0.1-0.2,0.2-0.4,0.3-0.6c0.1-0.2,0.1-0.4,0-0.7c0-0.2-0.1-0.5-0.2-0.7
			s-0.2-0.4-0.4-0.5c-0.2-0.1-0.4-0.2-0.6-0.3c-0.2-0.1-0.4-0.1-0.7-0.1c-0.1,0-0.3,0.1-0.4,0.1c-0.1,0.1-0.3,0.2-0.4,0.3
			c-0.1,0.1-0.2,0.2-0.3,0.4c-0.1,0.1-0.1,0.3-0.2,0.4l0.1,1.4c0.1,0.2,0.3,0.4,0.4,0.5c0.2,0.2,0.4,0.3,0.6,0.3
			S1513.1,847.1,1513.4,847.1z"/>
		<path class="st15" d="M1521.6,847.1l-1.1,0.1l-0.3-2.9c-0.1-0.5-0.2-0.8-0.4-1c-0.2-0.2-0.5-0.3-0.8-0.3c-0.2,0-0.4,0.1-0.6,0.2
			c-0.2,0.1-0.4,0.3-0.5,0.5c-0.1,0.2-0.2,0.4-0.3,0.7l0.3,3.1l-1.1,0.1l-0.8-7.3l1.1-0.1l0.3,3.2c0.2-0.4,0.4-0.7,0.7-0.9
			c0.3-0.2,0.7-0.4,1.1-0.4c0.3,0,0.6,0,0.8,0.1c0.2,0.1,0.4,0.2,0.6,0.4c0.1,0.2,0.3,0.4,0.3,0.6c0.1,0.2,0.1,0.5,0.2,0.8
			L1521.6,847.1z"/>
		<path class="st15" d="M1522.2,845.5c0-0.3,0-0.6,0.2-0.9c0.2-0.3,0.4-0.5,0.7-0.7c0.3-0.2,0.7-0.3,1.1-0.3c0.2,0,0.5,0,0.7,0
			c0.2,0,0.5,0,0.7,0.1l0-0.3c0-0.4-0.2-0.6-0.4-0.8c-0.2-0.2-0.6-0.2-1-0.2c-0.3,0-0.6,0.1-0.8,0.2c-0.2,0.1-0.5,0.3-0.8,0.5
			l-0.4-0.7c0.3-0.3,0.7-0.5,1-0.6c0.3-0.2,0.7-0.2,1.1-0.3c0.7-0.1,1.3,0,1.7,0.4c0.4,0.3,0.7,0.8,0.8,1.5l0.2,1.9
			c0,0.1,0,0.2,0.1,0.3c0,0,0.1,0.1,0.2,0.1l0.1,0.9c-0.1,0-0.2,0.1-0.3,0.1c-0.1,0-0.1,0-0.2,0c-0.2,0-0.4,0-0.5-0.1
			c-0.1-0.1-0.2-0.2-0.3-0.4l-0.1-0.3c-0.2,0.3-0.5,0.6-0.8,0.8c-0.3,0.2-0.7,0.3-1,0.4c-0.3,0-0.7,0-1-0.1
			c-0.3-0.1-0.5-0.3-0.7-0.5C1522.4,846.1,1522.2,845.8,1522.2,845.5z M1525.6,845.4c0.1-0.1,0.1-0.2,0.2-0.3c0-0.1,0.1-0.2,0-0.2
			l-0.1-0.6c-0.2-0.1-0.4-0.1-0.6-0.1c-0.2,0-0.4,0-0.6,0c-0.4,0-0.7,0.2-0.9,0.3c-0.2,0.2-0.3,0.4-0.3,0.7c0,0.2,0.1,0.3,0.2,0.4
			c0.1,0.1,0.2,0.2,0.4,0.3c0.2,0.1,0.4,0.1,0.6,0.1c0.2,0,0.5-0.1,0.7-0.2C1525.3,845.7,1525.5,845.6,1525.6,845.4z"/>
		<path class="st15" d="M1530.7,841.8c-0.4,0.1-0.8,0.2-1.1,0.4c-0.3,0.2-0.5,0.5-0.6,0.9l0.3,3.2l-1.1,0.1l-0.6-5.2l1-0.1l0.1,1.1
			c0.1-0.4,0.3-0.7,0.6-0.9c0.3-0.2,0.6-0.4,0.9-0.5c0.1,0,0.1,0,0.2,0c0,0,0.1,0,0.1,0L1530.7,841.8z"/>
		<path class="st15" d="M1539.8,845.1l-1.1,0.1l-0.3-2.9c-0.1-0.5-0.2-0.8-0.4-1s-0.4-0.3-0.7-0.3c-0.3,0-0.6,0.2-0.8,0.4
			s-0.4,0.6-0.5,0.9l0.3,3.1l-1.1,0.1l-0.3-2.9c-0.1-0.5-0.2-0.8-0.4-1c-0.2-0.2-0.4-0.3-0.7-0.3c-0.3,0-0.6,0.2-0.8,0.4
			c-0.2,0.3-0.4,0.6-0.5,0.9l0.3,3.1l-1.1,0.1l-0.6-5.2l1-0.1l0.1,1c0.2-0.4,0.4-0.7,0.7-0.9c0.3-0.2,0.7-0.4,1.1-0.4
			c0.4,0,0.8,0,1.1,0.2c0.3,0.2,0.5,0.5,0.6,0.8c0.2-0.4,0.4-0.7,0.7-1c0.3-0.2,0.7-0.4,1.1-0.4c0.3,0,0.6,0,0.8,0.1
			c0.2,0.1,0.4,0.2,0.5,0.4c0.1,0.2,0.2,0.4,0.3,0.6c0.1,0.2,0.1,0.5,0.2,0.8L1539.8,845.1z"/>
		<path class="st15" d="M1540.4,843.5c0-0.3,0-0.6,0.2-0.9c0.2-0.3,0.4-0.5,0.7-0.7c0.3-0.2,0.7-0.3,1.1-0.3c0.2,0,0.5,0,0.7,0
			c0.2,0,0.5,0,0.7,0.1l0-0.3c0-0.4-0.2-0.6-0.4-0.8c-0.2-0.2-0.6-0.2-1-0.2c-0.3,0-0.6,0.1-0.8,0.2c-0.2,0.1-0.5,0.3-0.8,0.5
			l-0.4-0.7c0.3-0.3,0.7-0.5,1-0.6c0.3-0.2,0.7-0.2,1.1-0.3c0.7-0.1,1.3,0,1.7,0.4c0.4,0.3,0.7,0.8,0.8,1.5l0.2,1.9
			c0,0.1,0,0.2,0.1,0.3c0,0,0.1,0.1,0.2,0.1l0.1,0.9c-0.1,0-0.2,0.1-0.3,0.1c-0.1,0-0.1,0-0.2,0c-0.2,0-0.4,0-0.5-0.1
			c-0.1-0.1-0.2-0.2-0.3-0.4l-0.1-0.3c-0.2,0.3-0.5,0.6-0.8,0.8c-0.3,0.2-0.7,0.3-1,0.4c-0.3,0-0.7,0-1-0.1
			c-0.3-0.1-0.5-0.3-0.7-0.5S1540.4,843.8,1540.4,843.5z M1543.7,843.5c0.1-0.1,0.1-0.2,0.2-0.3c0-0.1,0.1-0.2,0-0.2l-0.1-0.6
			c-0.2-0.1-0.4-0.1-0.6-0.1c-0.2,0-0.4,0-0.6,0c-0.4,0-0.7,0.2-0.9,0.3c-0.2,0.2-0.3,0.4-0.3,0.7c0,0.2,0.1,0.3,0.2,0.4
			c0.1,0.1,0.2,0.2,0.4,0.3c0.2,0.1,0.4,0.1,0.6,0.1c0.2,0,0.5-0.1,0.7-0.2C1543.5,843.8,1543.6,843.7,1543.7,843.5z"/>
		<path class="st15" d="M1548.8,844.3c-0.4,0-0.8,0-1.1-0.1c-0.3-0.1-0.7-0.3-0.9-0.5c-0.3-0.2-0.5-0.5-0.6-0.8
			c-0.2-0.3-0.3-0.6-0.3-1c-0.1-0.5,0-0.9,0.2-1.4c0.2-0.4,0.5-0.8,0.8-1.1c0.4-0.3,0.8-0.5,1.4-0.5c0.5-0.1,1,0,1.4,0.2
			c0.4,0.2,0.7,0.5,1,0.9l-1,0.5c-0.1-0.2-0.3-0.4-0.6-0.5c-0.2-0.1-0.5-0.1-0.7-0.1c-0.3,0-0.6,0.1-0.8,0.3
			c-0.2,0.2-0.4,0.4-0.5,0.7c-0.1,0.3-0.1,0.6-0.1,0.9c0,0.3,0.1,0.6,0.3,0.9c0.2,0.3,0.4,0.4,0.6,0.6c0.3,0.1,0.5,0.2,0.8,0.1
			c0.2,0,0.4-0.1,0.5-0.2c0.2-0.1,0.3-0.2,0.4-0.3c0.1-0.1,0.2-0.3,0.2-0.4l1.1,0.2c-0.1,0.3-0.2,0.5-0.4,0.7
			c-0.2,0.2-0.4,0.4-0.7,0.6C1549.5,844.1,1549.1,844.2,1548.8,844.3z"/>
		<path class="st15" d="M1552,845.1c0.1,0,0.2,0,0.3,0c0.1,0,0.2,0,0.2,0c0.1,0,0.2-0.1,0.3-0.1c0.1-0.1,0.1-0.2,0.2-0.4
			c0.1-0.2,0.1-0.5,0.2-0.8l-2.7-5l1.1-0.1l2,3.9l1-4.2l1.1-0.1l-1.7,6.7c-0.1,0.2-0.1,0.4-0.3,0.6c-0.1,0.2-0.3,0.3-0.5,0.4
			c-0.2,0.1-0.4,0.2-0.7,0.2c-0.1,0-0.2,0-0.3,0c-0.1,0-0.2,0-0.3,0L1552,845.1z"/>
	</g>
</g>
</svg>
