<?xml version="1.0" encoding="utf-8"?>
<!-- Generator: Adobe Illustrator 28.1.0, SVG Export Plug-In . SVG Version: 6.00 Build 0)  -->
<svg version="1.1" xmlns="http://www.w3.org/2000/svg" xmlns:xlink="http://www.w3.org/1999/xlink" x="0px" y="0px"
	 viewBox="0 0 500 500" style="enable-background:new 0 0 500 500;" xml:space="preserve">
<style type="text/css">
	.st0{fill:#FFC226;}
	.st1{fill:#FF9A1F;}
	.st2{fill:#0074AD;}
	.st3{fill:#004669;}
	.st4{fill:#1ABF92;}
	.st5{fill:#FFFFFF;}
	.st6{fill:#DDECF0;}
	.st7{fill:#870048;}
	.st8{fill:#7F5500;}
	.st9{fill:#BEDDF4;}
	.st10{fill:#A5CBD6;}
</style>
<g id="BACKGROUND">
</g>
<g id="OBJECTS">
	<g>
		<path class="st0" d="M352.2,156.1c-9.9-2.7-20,3.2-22.7,13c-2.7,9.9,3.2,20,13,22.7c9.9,2.7,20-3.2,22.7-13
			C367.9,168.9,362.1,158.8,352.2,156.1z"/>
		<path class="st1" d="M360.8,177.6c-2,7.4-9.7,11.8-17.1,9.8c-7.4-2-11.8-9.7-9.8-17.1c2-7.4,9.7-11.8,17.1-9.8
			C358.4,162.5,362.8,170.2,360.8,177.6z M336.8,171.1c-1.6,5.8,1.9,11.8,7.7,13.4c5.8,1.6,11.8-1.9,13.4-7.7
			c1.6-5.8-1.9-11.8-7.7-13.4C344.4,161.9,338.4,165.3,336.8,171.1z"/>
	</g>
	<g>
		<path class="st0" d="M310,123.3c-9.9-2.7-20,3.2-22.7,13c-2.7,9.9,3.2,20,13,22.7c9.9,2.7,20-3.2,22.7-13
			C325.7,136.1,319.9,126,310,123.3z"/>
		<path class="st1" d="M318.6,144.8c-2,7.4-9.7,11.8-17.1,9.8c-7.4-2-11.8-9.7-9.8-17.1c2-7.4,9.7-11.8,17.1-9.8
			C316.3,129.7,320.7,137.4,318.6,144.8z M294.7,138.3c-1.6,5.8,1.9,11.8,7.7,13.4c5.8,1.6,11.8-1.9,13.4-7.7
			c1.6-5.8-1.9-11.8-7.7-13.4C302.3,129.1,296.2,132.5,294.7,138.3z"/>
	</g>
	<g>
		<path class="st0" d="M259.7,104.9c-9.9-2.7-20,3.2-22.7,13c-2.7,9.9,3.2,20,13,22.7c9.9,2.7,20-3.2,22.7-13
			C275.4,117.7,269.6,107.6,259.7,104.9z"/>
		<path class="st1" d="M268.3,126.4c-2,7.4-9.7,11.8-17.1,9.8c-7.4-2-11.8-9.7-9.8-17.1c2-7.4,9.7-11.8,17.1-9.8
			C265.9,111.3,270.3,119,268.3,126.4z M244.3,119.9c-1.6,5.8,1.9,11.8,7.7,13.4c5.8,1.6,11.8-1.9,13.4-7.7
			c1.6-5.8-1.9-11.8-7.7-13.4C251.9,110.7,245.9,114.1,244.3,119.9z"/>
	</g>
	<g>
		<g>
			<g>
				<g>
					<path class="st2" d="M404.1,320.9c-16,23.9-35.1,43-59,59c-37.5-37.5-75-75-112.5-112.5c16-23.9,35.1-43,59-59
						C329.1,245.9,366.6,283.4,404.1,320.9z"/>
				</g>
				<g>
					
						<rect x="275.8" y="227.2" transform="matrix(0.7071 -0.7071 0.7071 0.7071 -114.3799 310.4192)" class="st3" width="83.4" height="132.1"/>
					
						<rect x="279.5" y="231.9" transform="matrix(0.7071 -0.7071 0.7071 0.7071 -114.3799 310.419)" class="st4" width="76.1" height="122.8"/>
					
						<rect x="239.4" y="248.5" transform="matrix(0.7071 -0.7071 0.7071 0.7071 -97.7684 270.3157)" class="st5" width="76.1" height="9.4"/>
				</g>
				<path class="st3" d="M374.1,341.1c2.4,2.4,2.4,6.3,0,8.7c-2.4,2.4-6.3,2.4-8.7,0c-2.4-2.4-2.4-6.3,0-8.7
					C367.7,338.7,371.6,338.7,374.1,341.1z"/>
			</g>
			<g>
				<path class="st2" d="M277.4,279.7l28.1-28.1c1.2-1.2,3.2-1.2,4.4,0l48.4,48.4c1.2,1.2,1.2,3.2,0,4.4l-28.1,28.1
					c-1.2,1.2-3.2,1.2-4.4,0l-48.4-48.4C276.2,282.9,276.2,280.9,277.4,279.7z"/>
				
					<rect x="314.4" y="249.3" transform="matrix(0.7071 -0.7071 0.7071 0.7071 -107.9958 312.481)" class="st3" width="17.6" height="74.6"/>
				<path class="st6" d="M300.3,267.6l4.4-4.4c1-1,2.5-1,3.5,0l4.5,4.5c1,1,1,2.5,0,3.5l-4.4,4.4c-1,1-2.5,1-3.5,0l-4.5-4.5
					C299.4,270.2,299.4,268.6,300.3,267.6z"/>
			</g>
			<path class="st6" d="M308.2,242.9l-38.7,38.7c-0.7,0.7-1.9,0.7-2.6,0l0,0c-0.7-0.7-0.7-1.9,0-2.6l38.7-38.7
				c0.7-0.7,1.9-0.7,2.6,0l0,0C308.9,241,308.9,242.2,308.2,242.9z"/>
			<g>
				<path class="st7" d="M365.1,322.7l-18.1,18.1c-0.9,0.9-2.3,0.9-3.1,0l-6.2-6.2c-0.9-0.9-0.9-2.3,0-3.1l18.1-18.1
					c0.9-0.9,2.3-0.9,3.1,0l6.2,6.2C365.9,320.4,365.9,321.8,365.1,322.7z"/>
			</g>
		</g>
		<g>
			<path class="st5" d="M275,236.3c0.3,0.3,0.3,0.9,0,1.2l-11.6,11.6c-0.3,0.3-0.9,0.3-1.2,0l0,0c-0.3-0.3-0.3-0.9,0-1.2l11.6-11.6
				C274.1,236,274.7,236,275,236.3L275,236.3z"/>
			<path class="st5" d="M261.6,249.7c0.3,0.3,0.3,0.9,0,1.2c-0.3,0.3-0.9,0.3-1.2,0c-0.3-0.3-0.3-0.9,0-1.2
				C260.7,249.4,261.3,249.4,261.6,249.7z"/>
		</g>
	</g>
	<path class="st8" d="M459.9,363.3l-34.7-59.5l-31.1-24l-36.5-5.9l23.7,24l14.3,33.8c1.9,6.7-9.9,4-16.7,2.8l-23-8
		c0,0-9.4-0.2-12.3,7.4c-0.9,2.2,0.6,4.9,3.1,5.7c6.9,2.2,19.9,8.9,26.7,15.7c9.2,9.2,23.7,26.6,23.7,26.6l26.7,17.7l0.2-0.2
		l18.5,18.5l36-36L459.9,363.3z"/>
	<g>
		<polygon class="st5" points="500,395.5 472,369.6 426.3,415.3 468.4,461 500,429.4 		"/>
		<polygon class="st3" points="500,391.4 484.4,375.8 430.1,430.1 500,500 		"/>
		<path class="st5" d="M445.9,429.1c1.6,1.6,1.6,4.2,0,5.8c-1.6,1.6-4.2,1.6-5.8,0c-1.6-1.6-1.6-4.2,0-5.8
			C441.7,427.5,444.3,427.5,445.9,429.1z"/>
	</g>
	<g>
		<g>
			<g>
				<g>
					<path class="st2" d="M212.6,369H112.4c-3.9,0-7.1-3.2-7.1-7.1V151.4c0-3.9,3.2-7.1,7.1-7.1h100.3c3.9,0,7.1,3.2,7.1,7.1v210.5
						C219.7,365.9,216.6,369,212.6,369z"/>
				</g>
				<path class="st3" d="M207,155.9h-86.6c-1.6,0-2.9-1.3-2.9-2.9v-0.1c0-1.6,1.3-2.9,2.9-2.9H207c1.6,0,2.9,1.3,2.9,2.9v0.1
					C209.9,154.6,208.6,155.9,207,155.9z"/>
				<path class="st3" d="M198.4,250.7h-73.8c-4,0-7.2,3.2-7.2,7.2V369h88.2V257.9C205.6,254,202.4,250.7,198.4,250.7z"/>
				<path class="st3" d="M206.3,242.5h-87.6c-2,0-3.6-1.6-3.6-3.6V165c0-2,1.6-3.6,3.6-3.6h87.6c2,0,3.6,1.6,3.6,3.6v73.9
					C209.9,240.9,208.3,242.5,206.3,242.5z"/>
				<rect x="119.4" y="165.3" class="st4" width="86.2" height="73.2"/>
				<rect x="119.4" y="165.3" class="st9" width="86.2" height="11.5"/>
			</g>
			<g>
				<circle class="st5" cx="162.5" cy="205.3" r="18.9"/>
				<polygon class="st0" points="143.6,191.2 157.6,205.2 183.1,179.7 159,217 				"/>
			</g>
			<g>
				<g>
					<path class="st6" d="M139.5,276.8h-14.4c-2.1,0-3.9-1.7-3.9-3.9v-6.6c0-2.1,1.7-3.9,3.9-3.9h14.4c2.1,0,3.9,1.7,3.9,3.9v6.6
						C143.3,275.1,141.6,276.8,139.5,276.8z"/>
					<path class="st6" d="M168.7,276.8h-14.4c-2.1,0-3.9-1.7-3.9-3.9v-6.6c0-2.1,1.7-3.9,3.9-3.9h14.4c2.1,0,3.9,1.7,3.9,3.9v6.6
						C172.6,275.1,170.9,276.8,168.7,276.8z"/>
					<path class="st6" d="M198,276.8h-14.4c-2.1,0-3.9-1.7-3.9-3.9v-6.6c0-2.1,1.7-3.9,3.9-3.9H198c2.1,0,3.9,1.7,3.9,3.9v6.6
						C201.8,275.1,200.1,276.8,198,276.8z"/>
				</g>
				<g>
					<path class="st6" d="M139.5,297.4h-14.4c-2.1,0-3.9-1.7-3.9-3.9v-6.6c0-2.1,1.7-3.9,3.9-3.9h14.4c2.1,0,3.9,1.7,3.9,3.9v6.6
						C143.3,295.7,141.6,297.4,139.5,297.4z"/>
					<path class="st6" d="M168.7,297.4h-14.4c-2.1,0-3.9-1.7-3.9-3.9v-6.6c0-2.1,1.7-3.9,3.9-3.9h14.4c2.1,0,3.9,1.7,3.9,3.9v6.6
						C172.6,295.7,170.9,297.4,168.7,297.4z"/>
					<path class="st6" d="M198,297.4h-14.4c-2.1,0-3.9-1.7-3.9-3.9v-6.6c0-2.1,1.7-3.9,3.9-3.9H198c2.1,0,3.9,1.7,3.9,3.9v6.6
						C201.8,295.7,200.1,297.4,198,297.4z"/>
				</g>
				<g>
					<path class="st6" d="M139.5,318.1h-14.4c-2.1,0-3.9-1.7-3.9-3.9v-6.6c0-2.1,1.7-3.9,3.9-3.9h14.4c2.1,0,3.9,1.7,3.9,3.9v6.6
						C143.3,316.3,141.6,318.1,139.5,318.1z"/>
					<path class="st6" d="M168.7,318.1h-14.4c-2.1,0-3.9-1.7-3.9-3.9v-6.6c0-2.1,1.7-3.9,3.9-3.9h14.4c2.1,0,3.9,1.7,3.9,3.9v6.6
						C172.6,316.3,170.9,318.1,168.7,318.1z"/>
					<path class="st6" d="M198,318.1h-14.4c-2.1,0-3.9-1.7-3.9-3.9v-6.6c0-2.1,1.7-3.9,3.9-3.9H198c2.1,0,3.9,1.7,3.9,3.9v6.6
						C201.8,316.3,200.1,318.1,198,318.1z"/>
				</g>
				<g>
					<path class="st7" d="M139.5,338.7h-14.4c-2.1,0-3.9-1.7-3.9-3.9v-6.6c0-2.1,1.7-3.9,3.9-3.9h14.4c2.1,0,3.9,1.7,3.9,3.9v6.6
						C143.3,337,141.6,338.7,139.5,338.7z"/>
					<path class="st0" d="M168.7,338.7h-14.4c-2.1,0-3.9-1.7-3.9-3.9v-6.6c0-2.1,1.7-3.9,3.9-3.9h14.4c2.1,0,3.9,1.7,3.9,3.9v6.6
						C172.6,337,170.9,338.7,168.7,338.7z"/>
					<path class="st4" d="M198,338.7h-14.4c-2.1,0-3.9-1.7-3.9-3.9v-6.6c0-2.1,1.7-3.9,3.9-3.9H198c2.1,0,3.9,1.7,3.9,3.9v6.6
						C201.8,337,200.1,338.7,198,338.7z"/>
				</g>
			</g>
			<polygon class="st5" points="192.4,58.5 188.7,55 185,58.5 181.2,55 177.5,58.5 173.8,55 170,58.5 166.3,55 162.6,58.5 158.9,55 
				155.1,58.5 151.4,55 147.7,58.5 144,55 140.2,58.5 136.5,55 132.8,58.5 129,55 129,55 129,59.1 129,60.1 129,152.7 196,152.7 
				196,60.1 196,59.1 196,55.2 			"/>
			<g>
				<g>
					<g>
						<path class="st10" d="M180.1,82.7c0,0.9-0.7,1.5-1.5,1.5h-28.7c-0.9,0-1.5-0.7-1.5-1.5l0,0c0-0.9,0.7-1.5,1.5-1.5h28.7
							C179.4,81.1,180.1,81.8,180.1,82.7L180.1,82.7z"/>
					</g>
					<g>
						<path class="st10" d="M146.7,82.7c0,0.9-0.7,1.5-1.5,1.5c-0.9,0-1.5-0.7-1.5-1.5c0-0.9,0.7-1.5,1.5-1.5
							C146,81.1,146.7,81.8,146.7,82.7z"/>
					</g>
				</g>
				<g>
					<g>
						<path class="st10" d="M180.1,91.9c0,0.9-0.7,1.5-1.5,1.5h-28.7c-0.9,0-1.5-0.7-1.5-1.5l0,0c0-0.9,0.7-1.5,1.5-1.5h28.7
							C179.4,90.3,180.1,91,180.1,91.9L180.1,91.9z"/>
					</g>
					<g>
						<path class="st10" d="M146.7,91.9c0,0.9-0.7,1.5-1.5,1.5c-0.9,0-1.5-0.7-1.5-1.5c0-0.9,0.7-1.5,1.5-1.5
							C146,90.3,146.7,91,146.7,91.9z"/>
					</g>
				</g>
				<g>
					<g>
						<path class="st10" d="M180.1,101.1c0,0.9-0.7,1.5-1.5,1.5h-28.7c-0.9,0-1.5-0.7-1.5-1.5l0,0c0-0.9,0.7-1.5,1.5-1.5h28.7
							C179.4,99.5,180.1,100.2,180.1,101.1L180.1,101.1z"/>
					</g>
					<g>
						<path class="st10" d="M146.7,101.1c0,0.9-0.7,1.5-1.5,1.5c-0.9,0-1.5-0.7-1.5-1.5c0-0.9,0.7-1.5,1.5-1.5
							C146,99.5,146.7,100.2,146.7,101.1z"/>
					</g>
				</g>
				<g>
					<g>
						<path class="st10" d="M180.1,110.3c0,0.9-0.7,1.5-1.5,1.5h-28.7c-0.9,0-1.5-0.7-1.5-1.5l0,0c0-0.9,0.7-1.5,1.5-1.5h28.7
							C179.4,108.7,180.1,109.4,180.1,110.3L180.1,110.3z"/>
					</g>
					<g>
						<path class="st10" d="M146.7,110.3c0,0.9-0.7,1.5-1.5,1.5c-0.9,0-1.5-0.7-1.5-1.5c0-0.9,0.7-1.5,1.5-1.5
							C146,108.7,146.7,109.4,146.7,110.3z"/>
					</g>
				</g>
				<g>
					<g>
						<path class="st10" d="M180.1,132.7c0,0.9-0.7,1.5-1.5,1.5h-28.7c-0.9,0-1.5-0.7-1.5-1.5l0,0c0-0.9,0.7-1.5,1.5-1.5h28.7
							C179.4,131.1,180.1,131.8,180.1,132.7L180.1,132.7z"/>
					</g>
					<g>
						<path class="st10" d="M146.7,132.7c0,0.9-0.7,1.5-1.5,1.5c-0.9,0-1.5-0.7-1.5-1.5c0-0.9,0.7-1.5,1.5-1.5
							C146,131.1,146.7,131.8,146.7,132.7z"/>
					</g>
				</g>
				<g>
					<g>
						<path class="st10" d="M180.1,143.2c0,0.9-0.7,1.5-1.5,1.5h-28.7c-0.9,0-1.5-0.7-1.5-1.5l0,0c0-0.9,0.7-1.5,1.5-1.5h28.7
							C179.4,141.6,180.1,142.3,180.1,143.2L180.1,143.2z"/>
					</g>
					<g>
						<path class="st10" d="M146.7,143.2c0,0.9-0.7,1.5-1.5,1.5c-0.9,0-1.5-0.7-1.5-1.5c0-0.9,0.7-1.5,1.5-1.5
							C146,141.6,146.7,142.3,146.7,143.2z"/>
					</g>
				</g>
			</g>
		</g>
		<rect x="219.7" y="165.3" class="st2" width="9.5" height="190.2"/>
		<rect x="219.7" y="165.3" class="st3" width="2.8" height="190.2"/>
	</g>
	<path class="st8" d="M59.6,319.9L53,364.8l-31.2,29.5l20.6,49.4l42.9-34.9l16.5-1.7c11.6-1.2,17.8-4.4,28.3-9.5l16.1-10.3l35.2-3.6
		l-0.3-2.5c-0.7-6.5-6.2-11.4-12.7-11.4h-49.1c-14.7-7.3-14-33.2-14-33.2v-82.7c0-5.1-2.6-9.9-6.8-12.8l-0.1-0.1
		c-1.7-1.1-4-0.2-4.5,1.7l-13,61.1L59.6,319.9z"/>
	<g>
		<polygon class="st5" points="42.9,372.7 0,412.3 0,417.7 46.4,464.1 88.6,418.4 		"/>
		<polygon class="st7" points="18,500 84.7,433.2 30.4,378.9 0,409.3 0,500 		"/>
		<path class="st5" d="M68.9,432.2c-1.6,1.6-1.6,4.2,0,5.8c1.6,1.6,4.2,1.6,5.8,0c1.6-1.6,1.6-4.2,0-5.8
			C73.2,430.6,70.5,430.6,68.9,432.2z"/>
	</g>
</g>
</svg>
