<?xml version="1.0" encoding="utf-8"?>
<!-- Generator: Adobe Illustrator 28.1.0, SVG Export Plug-In . SVG Version: 6.00 Build 0)  -->
<svg version="1.1" xmlns="http://www.w3.org/2000/svg" xmlns:xlink="http://www.w3.org/1999/xlink" x="0px" y="0px"
	 viewBox="0 0 450 450" style="enable-background:new 0 0 450 450;" xml:space="preserve">
<style type="text/css">
	.st0{fill:#44403E;}
	.st1{fill:#F47747;}
	.st2{fill:#F6B968;}
	.st3{fill:#EEAA59;}
	.st4{fill:#33302F;}
	.st5{fill:#22201F;}
	.st6{fill:#FFCC90;}
	.st7{fill:#FFE0BC;}
	.st8{fill:#C1E4EA;}
	.st9{fill:#2A7B6D;}
	.st10{fill:#F2EBEC;}
	.st11{fill:#A83A48;}
	.st12{fill:#702730;}
</style>
<g id="background">
</g>
<g id="borrow_money">
	<path class="st0" d="M355.9,183.2l82.4,2.4c-7.9-42.3-27.4-80.2-56-110.1h-26.3V183.2z"/>
	<path class="st1" d="M130.7,280.7l-120.8-27c5.1,39.5,21.1,75.5,44.5,105.4l54,19.2L130.7,280.7z"/>
	<path class="st2" d="M217.9,175.3c-0.4,3.9,3.1,7.4,7.9,7.9l0,0c4.7,0.5,8.9-2.3,9.3-6.2l6.1-61.4c0.4-3.9-3.1-7.4-7.9-7.9l0,0
		c-4.7-0.5-8.9,2.3-9.3,6.2L217.9,175.3z"/>
	<path class="st3" d="M218.1,175.5l0-64c0.2-2.1,7.6-4.5,9.5-5.6l-5.8,70.6c-0.1,0.9-1.1,4-0.9,4.8
		C219,179.8,217.9,177.7,218.1,175.5z"/>
	<path class="st2" d="M201.7,185c-0.2,3.9,3.4,7.3,8.2,7.5l0,0c4.7,0.3,8.8-2.6,9-6.5l4-62.5c0.2-3.9-3.8-6.3-8.5-6.6l0,0
		c-4.7-0.3-8.8,2.6-9,6.5L201.7,185z"/>
	<path class="st3" d="M201.7,184.7l3.5-63.1c0.2-2.1,4.1-2.1,6-3.2l-6.9,69.6c-0.1,0.9,0,1.7,0.2,2.5
		C202.6,189,201.5,186.9,201.7,184.7z"/>
	<path class="st2" d="M184.3,186.4c-0.2,3.9,3.4,7.3,8.2,7.5l0,0c4.7,0.3,8.8-2.6,9-6.5l3.6-61.6c0.2-3.9-3.4-7.3-8.2-7.5l0,0
		c-4.7-0.3-8.8,2.6-9,6.5L184.3,186.4z"/>
	<path class="st4" d="M388.2,168.6c0.6-0.6,1.4-1,2.1-1.2l0.3-5.1c0.1-1,1-1.8,2-1.8c1,0.1,1.8,1,1.8,2l-0.3,5.1
		c0.7,0.3,1.3,0.7,1.8,1.3c2.1,2.2,1.9,5.7-0.3,7.7c-2.2,2.1-5.7,1.9-7.7-0.3C385.8,174.2,386,170.7,388.2,168.6z"/>
	<path class="st4" d="M406.5,167.2l0.3-5.1c0.1-1,1-1.8,2-1.8c1,0.1,1.8,1,1.8,2l-0.3,5.1c0.7,0.3,1.3,0.7,1.8,1.3
		c2.1,2.2,1.9,5.7-0.3,7.7c-2.2,2.1-5.7,1.9-7.7-0.3c-2.1-2.2-1.9-5.7,0.3-7.7C405,167.8,405.8,167.4,406.5,167.2z"/>
	<path class="st4" d="M423,166.9l0.3-5.1c0.1-1,1-1.8,2-1.8c1.1,0.1,1.8,1,1.8,2l-0.3,5.1c0.7,0.3,1.3,0.7,1.8,1.3
		c2.1,2.2,1.9,5.7-0.3,7.7c-2.2,2.1-5.7,1.9-7.7-0.3c-2.1-2.2-1.9-5.7,0.3-7.7C421.5,167.5,422.2,167.1,423,166.9z"/>
	<path class="st5" d="M411.5,169.3c2,2.2,1.9,5.6-0.3,7.6c-2.2,2-5.6,1.9-7.6-0.3c-2-2.2-1.9-5.6,0.3-7.6
		C406,167,409.4,167.1,411.5,169.3z"/>
	<path class="st5" d="M427.8,169.1c2,2.2,1.9,5.6-0.3,7.7c-2.2,2-5.6,1.9-7.6-0.3c-2-2.2-1.9-5.6,0.3-7.6
		C422.3,166.8,425.7,166.9,427.8,169.1z"/>
	<path class="st5" d="M395.3,169.5c2,2.2,1.9,5.6-0.3,7.6c-2.2,2-5.6,1.9-7.6-0.3c-2-2.2-1.9-5.6,0.3-7.6
		C389.9,167.2,393.3,167.3,395.3,169.5z"/>
	<path class="st6" d="M242.4,88.4c-4.8,1.7-61.1,32.1-62.7,40.2c-1.3,6.9-0.8,49.8-0.5,61.6c0,0.4,0,1.5,0,1.5
		c0,4.7,4.3,8.5,9.6,8.5c5.3,0,9.6-3.8,9.6-8.5v-49.3c0.6-1.6,1.1-2.7,1.6-3.2c3.3-2.8,30.7-15.7,43.8-16.5l16.3-18.2L243,88.3
		C242.7,88.3,242.5,88.3,242.4,88.4z"/>
	<path class="st7" d="M185.7,192.6c0,0-1.3,0.6-2.9,0.6l0,0c0,0,0,0,0,0c0,0,0,0,0,0l0,0c-1.7,0-3-0.6-3-0.6c-0.2-4-0.5-10,0.5-12.3
		c0.5-1,1.2-1.4,1.8-1.3l0,0c0,0,0,0,0,0c0,0,0,0,0,0v0c0.6,0,1.4,0.3,1.9,1.3C185.3,182.7,185.6,188.6,185.7,192.6z"/>
	<path class="st7" d="M181.4,126.7c-0.2,0.3-0.1,0.7,0.2,0.9l3.4,2.3c0.3,0.2,0.7,0.1,0.9-0.2l0,0c0.2-0.3,0.1-0.7-0.2-0.9l-3.4-2.3
		C181.9,126.4,181.6,126.4,181.4,126.7L181.4,126.7z"/>
	<path class="st7" d="M180,128.9c-0.2,0.3-0.1,0.7,0.2,0.9l3.4,2.3c0.3,0.2,0.7,0.1,0.9-0.2l0,0c0.2-0.3,0.1-0.7-0.2-0.9l-3.4-2.3
		C180.6,128.6,180.2,128.6,180,128.9L180,128.9z"/>
	
		<rect x="170.8" y="104.3" transform="matrix(0.1783 -0.984 0.984 0.1783 -17.7935 369.3626)" class="st8" width="82.9" height="182"/>
	<path class="st9" d="M287.9,244.8L124,215.1l12.6-69.3l163.9,29.7L287.9,244.8z M131.4,210l151.4,27.4l10.3-56.8l-151.4-27.4
		L131.4,210z"/>
	<path class="st9" d="M171.1,187.9c-1,5.8-6.6,9.6-12.4,8.6c-5.8-1-9.6-6.6-8.6-12.4c1-5.8,6.6-9.6,12.4-8.6
		C168.3,176.6,172.2,182.1,171.1,187.9z"/>
	<path class="st9" d="M274.3,206.6c-1,5.8-6.6,9.6-12.4,8.6c-5.8-1.1-9.6-6.6-8.6-12.4c1.1-5.8,6.6-9.6,12.4-8.6
		C271.5,195.3,275.4,200.8,274.3,206.6z"/>
	<path class="st9" d="M236.7,199.8c-2.4,13.5-15.4,22.4-28.9,20c-13.5-2.4-22.5-15.4-20-28.9c2.4-13.5,15.4-22.4,28.9-20
		C230.2,173.3,239.1,186.3,236.7,199.8z"/>
	<path class="st6" d="M243,88.3l0.8,34.4c2.7-0.2,4.8,0.1,6,1.2c8.8,8,7.8,14.5,1.5,24.7c-3.7,5.9-8.7,11.8-14.7,23
		c-13.2,24.7-4.2,25.6,0.4,28.6c8.3,5.3,22.1-25.4,33.5-33.9c15.5-11.4,36-25.6,36-25.6h49.5V88.4C355.9,88.4,252.7,86.8,243,88.3z"
		/>
	<path class="st7" d="M243,195.3c0,0-2.5-1.1-5.1-3.1l0,0c0,0,0,0,0,0c0,0,0,0,0,0l0,0c-2.6-2-4.3-4.1-4.3-4.1c2.4-3.2,6-8,9.2-8.4
		c1.4-0.2,2.8,0.4,3.8,1.2h0c0,0,0,0,0,0c0,0,0,0,0,0l0,0c1,0.7,2,1.9,2.2,3.3C249.1,187.5,245.4,192.2,243,195.3z"/>
	<path class="st7" d="M252.4,161.3c-0.2,0.3,0.1,0.8,0.8,1.2l7,4.5c0.6,0.4,1.2,0.5,1.4,0.2l0,0c0.2-0.3-0.2-0.8-0.8-1.2l-7-4.5
		C253.2,161.1,252.6,161.1,252.4,161.3L252.4,161.3z"/>
	<path class="st7" d="M251,163.5c-0.2,0.3,0.2,0.8,0.7,1.2l7,4.5c0.6,0.4,1.3,0.5,1.4,0.2l0,0c0.2-0.3-0.2-0.8-0.8-1.2l-7-4.5
		C251.8,163.3,251.1,163.2,251,163.5L251,163.5z"/>
	<rect x="328.9" y="78.5" class="st10" width="27.1" height="82.6"/>
	<path class="st2" d="M244.6,320.5c-2,3.4-6.4,4.4-9.8,2.4l0,0c-3.4-2-4.4-6.4-2.4-9.8l14.1-23.2c2-3.4,6.4-4.5,9.8-2.4l0,0
		c3.4,2,4.4,6.4,2.4,9.8L244.6,320.5z"/>
	<path class="st2" d="M215.3,334.7c-3.6,1.5-17,3.7-18.6,0l-3.2-3.4c-1.5-3.6-6.5-15.4-3.3-13.1c16.5,11.4,44.4-7.2,44.4-7.2
		c3.6-1.5,7.8,0.2,9.4,3.8l0,0c1.5,3.6-0.2,7.8-3.8,9.4L215.3,334.7z"/>
	<path class="st3" d="M223.3,328.4l23.5-13c0.8-0.4,1.5-1,2-1.7c0.7-0.6,1.3-1.4,1.8-2.3l8.3-20.9c0.6-1.2-11.7,19.1-11.7,19.1
		L211,331.8C215.5,331.3,221.2,329.5,223.3,328.4z"/>
	<path class="st2" d="M262.2,317.8c-1.6,3.6-5.9,5.2-9.5,3.5l0,0c-3.6-1.6-5.2-5.9-3.5-9.5l11.2-24.7c1.6-3.6,5.9-5.2,9.5-3.5l0,0
		c3.6,1.6,5.2,5.9,3.6,9.5L262.2,317.8z"/>
	<path class="st2" d="M234.8,335.4c-3.4,2-16.5,5.7-18.4,2.2l-3.5-3c-2-3.4,1.5-4.3,4.9-6.3l33.6-18.8c3.4-2,7.8-0.8,9.7,2.7l0,0
		c2,3.4,0.8,7.8-2.7,9.7L234.8,335.4z"/>
	<path class="st3" d="M235,329.1l23.5-13c0.8-0.4,1.5-1,2-1.7c0.7-0.6,1.3-1.4,1.8-2.3l11.3-23.7c0.6-1.2,0.7-2.4,0.6-3.6
		l-15.3,25.5l-36.2,22.3C227.2,332.1,232.9,330.3,235,329.1z"/>
	<path class="st2" d="M274.5,317.9c-1.6,3.6-5.9,5.2-9.5,3.5l0,0c-3.6-1.6-5.2-5.9-3.6-9.5l11.2-24.7c1.6-3.6,5.9-5.2,9.5-3.5l0,0
		c3.6,1.6,5.2,5.9,3.5,9.5L274.5,317.9z"/>
	<path class="st2" d="M247.2,335.5c-3.4,2-16.5,5.7-18.4,2.2l-3.5-3c-2-3.4,1.5-4.3,4.9-6.3l33.6-18.8c3.4-2,7.8-0.8,9.7,2.7l0,0
		c2,3.4,0.8,7.8-2.7,9.7L247.2,335.5z"/>
	<path class="st6" d="M267.8,337.6c-3.8,3.1-9.8,2-13.5-2.5l0,0c-3.7-4.5-2.8-10.1,1-13.1l31.3-24c4.7-3.1,11-5.2,14.2-1.1
		c4.1,5.3-0.6,11-5.9,16L267.8,337.6z"/>
	<path class="st6" d="M255.3,321.9c-4,2-40.8,9-45.1,2.5c-5.7-8.5-3.6-13.8,3.9-21.1c4.4-4.2,9.8-8.1,17.2-16.3
		c16.3-18,9.3-21.3,5.7-24.1c-6.7-5.2-23.9,16.8-35.3,21.5c-15.4,6.4-35.6,14-35.6,14l-35.3-8.3l-9.5,44c0,0,83.4,22.1,87.8,21.7
		c4-0.4,47.3-10.3,58.7-18.2L256.3,321C255.9,321.5,255.6,321.8,255.3,321.9z"/>
	
		<rect x="95.5" y="310.9" transform="matrix(0.223 -0.9748 0.9748 0.223 -211.3957 381.8716)" class="st10" width="76.8" height="25.2"/>
	<path class="st11" d="M95.1,357.3c-0.4-0.7-0.9-1.2-1.6-1.6l1.1-4.6c0.2-0.9-0.3-1.9-1.3-2.1c-0.9-0.2-1.9,0.4-2.1,1.3l-1.1,4.6
		c-0.7,0.1-1.3,0.3-2,0.7c-2.4,1.4-3.3,4.5-1.8,7c1.4,2.4,4.5,3.3,7,1.8C95.7,362.9,96.5,359.8,95.1,357.3z"/>
	<path class="st11" d="M79.2,351.1l1.1-4.6c0.2-0.9-0.4-1.9-1.3-2.1c-0.9-0.2-1.9,0.3-2.1,1.3l-1.1,4.6c-0.7,0.1-1.3,0.3-2,0.6
		c-2.4,1.4-3.3,4.5-1.8,7c1.4,2.4,4.5,3.3,7,1.8c2.4-1.4,3.3-4.5,1.8-6.9C80.3,352,79.8,351.5,79.2,351.1z"/>
	<path class="st11" d="M64.7,346.3l1.1-4.6c0.2-0.9-0.3-1.9-1.3-2.1c-1-0.2-1.9,0.4-2.1,1.3l-1.1,4.6c-0.7,0.1-1.3,0.3-2,0.6
		c-2.4,1.4-3.3,4.5-1.8,7c1.4,2.4,4.5,3.3,7,1.8c2.4-1.4,3.3-4.5,1.8-7C65.8,347.3,65.3,346.7,64.7,346.3z"/>
	<path class="st12" d="M74.2,351.6c-2.4,1.4-3.2,4.5-1.8,6.9c1.4,2.4,4.5,3.2,6.9,1.8c2.4-1.4,3.2-4.5,1.8-6.9
		C79.7,351,76.6,350.2,74.2,351.6z"/>
	<path class="st12" d="M59.8,347c-2.4,1.4-3.2,4.5-1.8,6.9c1.4,2.4,4.5,3.2,6.9,1.8c2.4-1.4,3.2-4.5,1.8-6.9
		C65.3,346.4,62.2,345.6,59.8,347z"/>
	<path class="st12" d="M88.5,356.1c-2.4,1.4-3.2,4.5-1.8,6.9c1.4,2.4,4.5,3.2,6.9,1.8c2.4-1.4,3.2-4.5,1.8-6.9
		C94,355.6,90.9,354.7,88.5,356.1z"/>
	<path class="st7" d="M237.7,272c0,0-1.1-1.7-3-3.5l0,0c0,0,0,0,0,0c0,0,0,0,0,0l0,0c-1.9-1.8-3.7-2.8-3.7-2.8
		c-2.1,2.2-5.4,5.6-5.3,8.1c0,1.1,0.7,2.1,1.4,2.7v0c0,0,0,0,0,0c0,0,0,0,0,0l0,0c0.7,0.7,1.7,1.3,2.8,1.2
		C232.4,277.7,235.6,274.3,237.7,272z"/>
	<path class="st7" d="M300.1,305.8c0,0-0.6-1.2-1.8-2.3l0,0c0,0,0,0,0,0c0,0,0,0,0,0l0,0c-1.2-1.1-2.5-1.6-2.5-1.6
		c-2.1,2.2-5.4,5.5-5.8,7.6c-0.2,0.9,0.1,1.6,0.6,2h0c0,0,0,0,0,0c0,0,0,0,0,0l0,0c0.4,0.4,1.1,0.7,2,0.5
		C294.8,311.4,298,308,300.1,305.8z"/>
	<path class="st7" d="M211.7,284.2c0.2-0.2,0.8,0,1.2,0.5l5.2,5.7c0.4,0.5,0.6,1.1,0.4,1.3l0,0c-0.2,0.2-0.8,0-1.2-0.5l-5.2-5.7
		C211.6,285,211.5,284.4,211.7,284.2L211.7,284.2z"/>
	<path class="st7" d="M213.5,282.6c0.2-0.2,0.8,0,1.2,0.5l5.2,5.7c0.4,0.5,0.6,1.1,0.4,1.3l0,0c-0.2,0.2-0.8,0-1.3-0.5l-5.2-5.7
		C213.4,283.3,213.2,282.8,213.5,282.6L213.5,282.6z"/>
	<path class="st7" d="M260.8,331.8c0.3-0.2,0.7,0,1,0.4l3.1,4.8c0.3,0.4,0.3,0.9,0,1.1l0,0c-0.3,0.2-0.7,0-1-0.4l-3.1-4.8
		C260.5,332.4,260.5,332,260.8,331.8L260.8,331.8z"/>
	<path class="st7" d="M262.9,330.5c0.3-0.2,0.7,0,1,0.4l3.1,4.8c0.3,0.4,0.3,0.9,0,1.1l0,0c-0.3,0.2-0.7,0-1-0.4l-3.1-4.8
		C262.6,331.1,262.6,330.7,262.9,330.5L262.9,330.5z"/>
</g>
</svg>
