<?xml version="1.0" encoding="utf-8"?>
<!-- Generator: Adobe Illustrator 28.1.0, SVG Export Plug-In . SVG Version: 6.00 Build 0)  -->
<svg version="1.1" id="Layer_1" xmlns="http://www.w3.org/2000/svg" xmlns:xlink="http://www.w3.org/1999/xlink" x="0px" y="0px"
	 viewBox="0 0 288.7 140" style="enable-background:new 0 0 288.7 140;" xml:space="preserve">
<style type="text/css">
	.Arched_x0020_Green{fill:url(#SVGID_1_);stroke:#FFFFFF;stroke-width:0.25;stroke-miterlimit:1;}
	.st0{fill:#ED1C24;}
</style>
<linearGradient id="SVGID_1_" gradientUnits="userSpaceOnUse" x1="-274" y1="366.2646" x2="-273.2929" y2="365.5575">
	<stop  offset="0" style="stop-color:#20AC4B"/>
	<stop  offset="0.9831" style="stop-color:#19361A"/>
</linearGradient>
<path class="st0" d="M261.2,102c-1.5,0-2.7-1.3-2.7-2.9V66.8l-7.3,1.1v30.9c0,4.5,3.5,8.1,7.8,8.1h4.1v-5H261.2z"/>
<polygon class="st0" points="176.7,107 184,107 184,76.3 176.7,77.4 "/>
<path class="st0" d="M188.6,81.7v2.2V107h7.3V86.9l0-2.4c0-3.8,8.4-3,8.4-3l2.6-5.7C195.3,72.4,188.6,81.7,188.6,81.7z"/>
<path class="st0" d="M216.5,99.1V81.3h4.4v-5.6h-4.4v-8.9l-7.3,1.1v30.9c0,4.5,3.5,8.1,7.8,8.1h4.1v-5h-1.8
	C217.8,102,216.5,100.7,216.5,99.1z"/>
<path class="st0" d="M180.3,64.1c-2.5,0-4.5,2-4.5,4.5c0,2.5,2,4.5,4.5,4.5c2.5,0,4.5-2,4.5-4.5C184.8,66.1,182.8,64.1,180.3,64.1z"
	/>
<path class="st0" d="M234.9,101.3c-4.8-1.9-4.5-9.1-4.5-9.1H248c0-9.1-2.2-17-11-17c-8.8,0-14.1,6.5-14.1,15.6
	c0,9.1,5.6,16.2,14.4,16.2c3.5,0,8.3-1.2,10.9-3.1l-2.5-4.3C245.8,99.5,239.8,103.2,234.9,101.3z M235.9,80.8c4.2,0,5,5.9,5,5.9
	h-0.2h-9.8C230.9,86.8,231.7,80.8,235.9,80.8z"/>
<path class="st0" d="M162.2,75.5c0,0-3.1,0-6.2,0.6c-2.9,0.6-5.9,2.6-5.9,2.6l2.3,4.8c0,0,3-2.8,7.7-2.8c6.2,0,5.3,6.2,5.3,6.2
	c-12.1-2.5-18.1,3.7-17.9,10.2c0.1,2.9,0.5,5.9,3.8,8.1c10.6,7,20.9-3.2,20.9-3.2V85C172.3,79.9,167.8,75.5,162.2,75.5z
	 M165.3,100.9c0,0-4.8,2.2-7.9,0.4c-3.1-1.8-2.7-6.9,0.2-8.4c2.9-1.6,7.7-0.6,7.7-0.6V100.9z"/>
<path class="st0" d="M47.6,43C14.6,73,26.5,82.9,34.4,86.8C42.3,90.6,52.9,85.3,66,75c13.2-10.3,43.7-30.2,50.8-20.3
	c7.2,9.9,7.3,29.5-23.5,55.4c-30.8,25.9-37.2,10.7-22-1.1c15.2-11.9,12.4-19,5.2-20c-7.5-1.1-14,0.7-20.8,13c0,0-10.3,19.8,2.9,24.9
	c9.1,3.5,36.2-7.4,56-27.3c14.6-14.7,25.3-32.3,20.8-55.8C129.7,13,80.7,13.1,47.6,43z"/>
</svg>
