<?xml version="1.0" encoding="utf-8"?>
<!-- Generator: Adobe Illustrator 28.1.0, SVG Export Plug-In . SVG Version: 6.00 Build 0)  -->
<svg version="1.1" id="Layer_1" xmlns="http://www.w3.org/2000/svg" xmlns:xlink="http://www.w3.org/1999/xlink" x="0px" y="0px"
	 viewBox="0 0 800 800" style="enable-background:new 0 0 800 800;" xml:space="preserve">
<style type="text/css">
	.st0{fill:#135C79;}
	.st1{fill:#FFFFFF;}
</style>
<path class="st0" d="M748.2,338.1l-50.9-51.6c-5-5-7-10-7-16.7v-72.7c0-59.6-27.5-87.7-87.7-87.7h-72.3c-7,0-11.7-1.7-17.1-6.7
	l-51.6-51.2c-42.2-42.5-81-42.2-123.5,0l-51.6,51.2c-5,5-10,6.7-16.7,6.7h-72.7c-59.9,0-87.7,27.5-87.7,87.7v72.7
	c0,6.7-1.7,11.7-6.7,16.7l-51.2,51.6c-42.5,42.5-42.2,81.4,0,123.5l51.2,51.6c5,5.4,6.7,10,6.7,17.1v72.3
	c0,59.9,27.8,87.7,87.7,87.7h72.7c6.7,0,11.7,2,16.7,7l51.6,51.2c42.5,42.5,81.4,42.2,123.5,0l51.6-51.2c5.4-5,10-7,17.1-7h72.3
	c59.9,0,87.7-27.5,87.7-87.7v-72.3c0-7,2-11.7,7-17.1l50.9-51.6C791.1,419.4,790.7,380.6,748.2,338.1z"/>
<path class="st1" d="M347.8,560.4c9.7,0,17.1-4,22.1-10l185.8-259.8c3.7-5.4,5.7-11.4,5.7-17.1c0-14.7-11.4-26.5-26.8-26.5
	c-11,0-17.1,3.7-23.8,13.4l-164.1,231L262.1,398c-5.7-6.4-12.1-9-20.4-9c-16.4,0-28.1,11-28.1,26.5c0,6.7,2.3,13.1,7,17.7L327,551.7
	C332,557,338.4,560.4,347.8,560.4z"/>
</svg>
