<?xml version="1.0" encoding="utf-8"?>
<!-- Generator: Adobe Illustrator 25.4.1, SVG Export Plug-In . SVG Version: 6.00 Build 0)  -->
<svg version="1.1" id="Layer_1" xmlns="http://www.w3.org/2000/svg" xmlns:xlink="http://www.w3.org/1999/xlink" x="0px" y="0px"
	 viewBox="0 0 1519 300.7" style="enable-background:new 0 0 1519 300.7;" xml:space="preserve">
<style type="text/css">
	.st0{fill:#115B78;}
	.st1{opacity:0.36;}
	.st2{fill:none;stroke:url(#SVGID_1_);stroke-miterlimit:10;}
	.st3{fill:none;stroke:url(#SVGID_00000004526271348569077220000000514631075803269016_);stroke-miterlimit:10;}
	.st4{fill:none;stroke:url(#SVGID_00000016793162726309667730000001867646686485037449_);stroke-miterlimit:10;}
	.st5{fill:none;stroke:url(#SVGID_00000178885591870916853460000000171390588970344083_);stroke-miterlimit:10;}
	.st6{fill:none;stroke:url(#SVGID_00000165235957396517458900000012755276370340089992_);stroke-miterlimit:10;}
	.st7{fill:none;stroke:url(#SVGID_00000007388544586335279580000004987478009778013327_);stroke-miterlimit:10;}
	.st8{fill:none;stroke:url(#SVGID_00000078730283424462111450000009242273512797413764_);stroke-miterlimit:10;}
	.st9{fill:none;stroke:url(#SVGID_00000169524671987477808200000014825341324862995584_);stroke-miterlimit:10;}
	.st10{fill:none;stroke:url(#SVGID_00000160875973627818361420000001026315793968868255_);stroke-miterlimit:10;}
	.st11{fill:none;stroke:url(#SVGID_00000168086591897051108540000008832895815417957000_);stroke-miterlimit:10;}
	.st12{fill:none;stroke:url(#SVGID_00000114041502991482410400000008961106982300924829_);stroke-miterlimit:10;}
	.st13{fill:none;stroke:url(#SVGID_00000041261818548119299590000013318438809323145397_);stroke-miterlimit:10;}
	.st14{fill:none;stroke:url(#SVGID_00000078767270018796841210000012877748430796055205_);stroke-miterlimit:10;}
	.st15{fill:none;stroke:url(#SVGID_00000065064479625232555290000003731596559314643866_);stroke-miterlimit:10;}
	.st16{fill:#009444;}
	.st17{fill:none;stroke:url(#SVGID_00000160896491504931366220000006623476707724526210_);stroke-miterlimit:10;}
	.st18{fill:none;stroke:url(#SVGID_00000125565234382942648690000009004404249840789930_);stroke-miterlimit:10;}
	.st19{fill:none;stroke:url(#SVGID_00000039093667165139183050000002679951078507725443_);stroke-miterlimit:10;}
	.st20{fill:none;stroke:url(#SVGID_00000016757828293895549850000001567125060151973310_);stroke-miterlimit:10;}
	.st21{fill:none;stroke:url(#SVGID_00000000905043266904789850000002166174719813262781_);stroke-miterlimit:10;}
	.st22{fill:none;stroke:url(#SVGID_00000120542957015933751830000018433621952132631964_);stroke-miterlimit:10;}
	.st23{fill:none;stroke:url(#SVGID_00000136375355881975563840000001812022040088384410_);stroke-miterlimit:10;}
	.st24{fill:none;stroke:url(#SVGID_00000027589919259116280430000011771547068220949388_);stroke-miterlimit:10;}
	.st25{fill:none;stroke:url(#SVGID_00000043429089113710499860000006402638161515195823_);stroke-miterlimit:10;}
	.st26{fill:none;stroke:url(#SVGID_00000105411201008704628820000012499670120565943957_);stroke-miterlimit:10;}
	.st27{fill:none;stroke:url(#SVGID_00000102539895324931694140000015880092079560723356_);stroke-miterlimit:10;}
	.st28{fill:none;stroke:url(#SVGID_00000007389589282865187940000000168246681386740649_);stroke-miterlimit:10;}
	.st29{fill:none;stroke:url(#SVGID_00000067217301559973353990000004667119325718356151_);stroke-miterlimit:10;}
	.st30{fill:none;stroke:url(#SVGID_00000036224691454944759430000001706716133786888354_);stroke-miterlimit:10;}
</style>
<g>
	<g id="Layer_1_00000044881087672741524520000018347908579524309665_">
		<rect x="-1.7" y="-3.8" class="st0" width="1522.5" height="308.2"/>
		<g class="st1">
			<g>
				
					<linearGradient id="SVGID_1_" gradientUnits="userSpaceOnUse" x1="1027.5228" y1="389.7285" x2="1714.0093" y2="389.7285" gradientTransform="matrix(1 0 0 1 0 -298)">
					<stop  offset="0.1341" style="stop-color:#999999;stop-opacity:0"/>
					<stop  offset="0.9976" style="stop-color:#009444"/>
				</linearGradient>
				<polyline class="st2" points="1193.9,262.5 1029.5,275.1 1203.2,354.1 1283.1,410.3 1184.4,394 1203.2,354.1 1335.9,345.8 
					1259.7,257.9 1321.2,261.4 1403.9,242.9 1337.8,200 1328.8,151.1 1387.2,129.2 1427.4,45.8 1615.9,7.2 1524,-17.1 1427.4,45.8 
					1560.7,115.3 1387.2,129.2 1348.9,78.4 1328.8,151.1 1400.7,143.5 1337.8,200 1477.1,139.8 1427.4,45.8 1446.1,-53.7 
					1568.3,-112.8 1713.7,-227.3 				"/>
				
					<linearGradient id="SVGID_00000118371960916395096170000004469650484799997872_" gradientUnits="userSpaceOnUse" x1="1032.3197" y1="424.4453" x2="1708.064" y2="424.4453" gradientTransform="matrix(1 0 0 1 0 -298)">
					<stop  offset="0.1341" style="stop-color:#999999;stop-opacity:0"/>
					<stop  offset="0.9976" style="stop-color:#009444"/>
				</linearGradient>
				
					<polyline style="fill:none;stroke:url(#SVGID_00000118371960916395096170000004469650484799997872_);stroke-miterlimit:10;" points="
					1131.5,213.9 1033.8,217.2 1081.6,178.7 1131.5,213.9 1277.1,212.4 1337.8,200 1193.9,262.5 1203.4,171.5 1321.2,261.4 
					1292.5,264 1335.9,345.8 1321.2,261.4 1337.8,200 1259.7,257.9 1193.9,262.5 1131.5,213.9 1203.4,171.5 1337.8,200 
					1328.8,151.1 1381.9,104.8 1348.9,78.4 1427.4,45.8 1446.1,-53.7 1704.2,-94.8 1524,-17.1 1387.2,129.2 				"/>
				
					<linearGradient id="SVGID_00000157299720775971082940000004465857762263757491_" gradientUnits="userSpaceOnUse" x1="1189.8936" y1="565.1993" x2="1551.5098" y2="565.1993" gradientTransform="matrix(1 0 0 1 0 -298)">
					<stop  offset="0.1341" style="stop-color:#999999;stop-opacity:0"/>
					<stop  offset="0.9976" style="stop-color:#009444"/>
				</linearGradient>
				
					<polyline style="fill:none;stroke:url(#SVGID_00000157299720775971082940000004465857762263757491_);stroke-miterlimit:10;" points="
					1203.2,354.1 1372,405 1335.9,345.8 1391.7,319.1 1403.9,242.9 1400.7,143.5 1387.2,129.2 1477.1,139.8 1550.5,214.3 
					1403.9,242.9 1418.9,286.1 1337.8,200 1292.5,264 1203.2,354.1 1190.4,330 1193.9,262.5 1277.1,212.4 1328.8,151.1 				"/>
				
					<linearGradient id="SVGID_00000133529961261130709850000007995474236437011372_" gradientUnits="userSpaceOnUse" x1="841.5117" y1="638.0066" x2="1204.7208" y2="638.0066" gradientTransform="matrix(1 0 0 1 0 -298)">
					<stop  offset="0.1341" style="stop-color:#999999;stop-opacity:0"/>
					<stop  offset="0.9976" style="stop-color:#009444"/>
				</linearGradient>
				
					<polyline style="fill:none;stroke:url(#SVGID_00000133529961261130709850000007995474236437011372_);stroke-miterlimit:10;" points="
					841.9,289.4 908.5,371.5 961.1,308.9 1203.2,354.1 1081,417.4 961.1,308.9 1193.9,262.5 				"/>
				
					<linearGradient id="SVGID_00000111899886370193495050000016456642077729228936_" gradientUnits="userSpaceOnUse" x1="811.5789" y1="619.189" x2="1392.0166" y2="619.189" gradientTransform="matrix(1 0 0 1 0 -298)">
					<stop  offset="0.1341" style="stop-color:#999999;stop-opacity:0"/>
					<stop  offset="0.9976" style="stop-color:#009444"/>
				</linearGradient>
				
					<polyline style="fill:none;stroke:url(#SVGID_00000111899886370193495050000016456642077729228936_);stroke-miterlimit:10;" points="
					1321.2,261.4 1391.7,319.1 1292.5,264 1203.4,171.5 1259.7,257.9 1292.5,264 1190.4,330 1029.5,275.1 961.1,308.9 841.9,289.4 
					812.5,352.3 961.1,308.9 1190.4,330 1081,417.4 841.9,289.4 933.3,471 				"/>
				
					<linearGradient id="SVGID_00000002346750837137827710000013843375718341128086_" gradientUnits="userSpaceOnUse" x1="1337.7665" y1="541.149" x2="1576.088" y2="541.149" gradientTransform="matrix(1 0 0 1 0 -298)">
					<stop  offset="0.1341" style="stop-color:#999999;stop-opacity:0"/>
					<stop  offset="0.9976" style="stop-color:#009444"/>
				</linearGradient>
				
					<polyline style="fill:none;stroke:url(#SVGID_00000002346750837137827710000013843375718341128086_);stroke-miterlimit:10;" points="
					1477.1,139.8 1575.1,345.8 1418.9,286.1 1550.5,214.3 1337.8,200 				"/>
				
					<linearGradient id="SVGID_00000075151383834872141620000004224571204581983635_" gradientUnits="userSpaceOnUse" x1="1381.504" y1="362.404" x2="1639.7506" y2="362.404" gradientTransform="matrix(1 0 0 1 0 -298)">
					<stop  offset="0.1341" style="stop-color:#999999;stop-opacity:0"/>
					<stop  offset="0.9976" style="stop-color:#009444"/>
				</linearGradient>
				
					<polyline style="fill:none;stroke:url(#SVGID_00000075151383834872141620000004224571204581983635_);stroke-miterlimit:10;" points="
					1381.9,104.8 1427.4,45.8 1639.7,24.2 				"/>
				
					<linearGradient id="SVGID_00000163780016929809666710000005730336339081279914_" gradientUnits="userSpaceOnUse" x1="1471.0117" y1="244.4815" x2="1616.2228" y2="244.4815" gradientTransform="matrix(1 0 0 1 0 -298)">
					<stop  offset="0.1341" style="stop-color:#999999;stop-opacity:0"/>
					<stop  offset="0.9976" style="stop-color:#009444"/>
				</linearGradient>
				
					<polyline style="fill:none;stroke:url(#SVGID_00000163780016929809666710000005730336339081279914_);stroke-miterlimit:10;" points="
					1568.3,-112.8 1472.4,-114.1 1615.9,7.2 				"/>
				
					<linearGradient id="SVGID_00000072991286075207054150000004898446263040682932_" gradientUnits="userSpaceOnUse" x1="1371.2467" y1="678.8302" x2="1575.7817" y2="678.8302" gradientTransform="matrix(1 0 0 1 0 -298)">
					<stop  offset="0.1341" style="stop-color:#999999;stop-opacity:0"/>
					<stop  offset="0.9976" style="stop-color:#009444"/>
				</linearGradient>
				
					<polyline style="fill:none;stroke:url(#SVGID_00000072991286075207054150000004898446263040682932_);stroke-miterlimit:10;" points="
					1391.7,319.1 1372,405 1466.2,347.3 1527.8,474.6 1575.1,345.8 1391.7,319.1 1418.9,286.1 				"/>
				
					<linearGradient id="SVGID_00000158029794527713151930000007335587668980455817_" gradientUnits="userSpaceOnUse" x1="761.4902" y1="685.3457" x2="1081.5297" y2="685.3457" gradientTransform="matrix(1 0 0 1 0 -298)">
					<stop  offset="0.1341" style="stop-color:#999999;stop-opacity:0"/>
					<stop  offset="0.9976" style="stop-color:#009444"/>
				</linearGradient>
				
					<polyline style="fill:none;stroke:url(#SVGID_00000158029794527713151930000007335587668980455817_);stroke-miterlimit:10;" points="
					908.5,371.5 1029.5,275.1 1081,417.4 1053.4,499.1 961.1,308.9 933.3,471 908.5,371.5 762.6,474.6 812.5,352.3 				"/>
				
					<linearGradient id="SVGID_00000133510127918410118990000013170716348247213971_" gradientUnits="userSpaceOnUse" x1="1105.8661" y1="506.0051" x2="1169.3958" y2="506.0051" gradientTransform="matrix(1 0 0 1 0 -298)">
					<stop  offset="0.1341" style="stop-color:#999999;stop-opacity:0"/>
					<stop  offset="0.9976" style="stop-color:#009444"/>
				</linearGradient>
				
					<polygon style="fill:none;stroke:url(#SVGID_00000133510127918410118990000013170716348247213971_);stroke-miterlimit:10;" points="
					1107.5,242.8 1131.8,182.8 1167.9,171.5 				"/>
				
					<linearGradient id="SVGID_00000042732725031118606580000009213561190266235310_" gradientUnits="userSpaceOnUse" x1="904.9084" y1="547.3164" x2="1089.9757" y2="547.3164" gradientTransform="matrix(1 0 0 1 0 -298)">
					<stop  offset="0.1341" style="stop-color:#999999;stop-opacity:0"/>
					<stop  offset="0.9976" style="stop-color:#009444"/>
				</linearGradient>
				
					<polygon style="fill:none;stroke:url(#SVGID_00000042732725031118606580000009213561190266235310_);stroke-miterlimit:10;" points="
					905.1,223.5 1029.5,275.1 1087.6,262.5 				"/>
				
					<linearGradient id="SVGID_00000098939225624567096580000018049603038585749142_" gradientUnits="userSpaceOnUse" x1="1315.2919" y1="327.9621" x2="1369.9749" y2="327.9621" gradientTransform="matrix(1 0 0 1 0 -298)">
					<stop  offset="0.1341" style="stop-color:#999999;stop-opacity:0"/>
					<stop  offset="0.9976" style="stop-color:#009444"/>
				</linearGradient>
				
					<polygon style="fill:none;stroke:url(#SVGID_00000098939225624567096580000018049603038585749142_);stroke-miterlimit:10;" points="
					1369,-17.1 1316,56.3 1348.9,78.4 				"/>
				
					<linearGradient id="SVGID_00000172441938560463759790000017653873521055785900_" gradientUnits="userSpaceOnUse" x1="1339.4447" y1="312.0114" x2="1456.7852" y2="312.0114" gradientTransform="matrix(1 0 0 1 0 -298)">
					<stop  offset="0.1341" style="stop-color:#999999;stop-opacity:0"/>
					<stop  offset="0.9976" style="stop-color:#009444"/>
				</linearGradient>
				
					<polygon style="fill:none;stroke:url(#SVGID_00000172441938560463759790000017653873521055785900_);stroke-miterlimit:10;" points="
					1342.5,38.6 1456.5,-10.9 1391.7,34.1 				"/>
			</g>
			
				<image style="overflow:visible;enable-background:new    ;" width="641" height="445" xlink:href="5516F7BC.png"  transform="matrix(1 0 0 1 894.107 -28.5745)">
			</image>
			<path class="st16" d="M1339.6,200c0,1-0.8,1.8-1.8,1.8s-1.8-0.8-1.8-1.8s0.8-1.8,1.8-1.8S1339.6,199,1339.6,200L1339.6,200z"/>
			<circle class="st16" cx="1403.9" cy="242.9" r="1.8"/>
			<circle class="st16" cx="1419.1" cy="286.1" r="1.8"/>
			<circle class="st16" cx="1328.4" cy="151.1" r="1.8"/>
			<circle class="st16" cx="1387.3" cy="129.3" r="1.8"/>
			<circle class="st16" cx="1400.7" cy="143.5" r="1.8"/>
			<circle class="st16" cx="1477.4" cy="139.8" r="1.8"/>
			<circle class="st16" cx="1381.9" cy="104.8" r="1.8"/>
			<path class="st16" d="M1350.7,78.4c0,1-0.8,1.8-1.8,1.8s-1.8-0.8-1.8-1.8s0.8-1.8,1.8-1.8l0,0
				C1349.9,76.6,1350.7,77.4,1350.7,78.4z"/>
			<circle class="st16" cx="1316" cy="56.3" r="1.8"/>
			<circle class="st16" cx="1427.4" cy="45.4" r="1.8"/>
			<circle class="st16" cx="1391.7" cy="34.1" r="1.8"/>
			<circle class="st16" cx="1342.5" cy="38.6" r="1.8"/>
			<circle class="st16" cx="1321.2" cy="261.4" r="1.8"/>
			<circle class="st16" cx="1292.2" cy="264.1" r="1.8"/>
			<circle class="st16" cx="1193.9" cy="262.5" r="1.8"/>
			<circle class="st16" cx="1131.5" cy="213.9" r="1.8"/>
			<circle class="st16" cx="1167.9" cy="171.5" r="1.8"/>
			<circle class="st16" cx="1131.8" cy="182.8" r="1.8"/>
			<circle class="st16" cx="1081.6" cy="178.7" r="1.8"/>
			<circle class="st16" cx="1033.8" cy="217.2" r="1.8"/>
			<circle class="st16" cx="1107.5" cy="242.8" r="1.8"/>
			<circle class="st16" cx="1029.5" cy="275.1" r="1.8"/>
			<circle class="st16" cx="1087.6" cy="262.5" r="1.8"/>
			<circle class="st16" cx="905.1" cy="223.5" r="1.8"/>
			<path class="st16" d="M1261.2,258c0,1-0.8,1.8-1.8,1.8s-1.8-0.8-1.8-1.8s0.8-1.8,1.8-1.8C1260.4,256.2,1261.2,257,1261.2,258z"/>
			<circle class="st16" cx="1277.2" cy="212.5" r="1.8"/>
			<circle class="st16" cx="1203.4" cy="171.5" r="1.8"/>
		</g>
		<g class="st1">
			<g>
				
					<linearGradient id="SVGID_00000078756693604009726550000012037416559053886909_" gradientUnits="userSpaceOnUse" x1="1167.8016" y1="389.7285" x2="1854.2883" y2="389.7285" gradientTransform="matrix(-1 0 0 1 1659.479 -298)">
					<stop  offset="0.1341" style="stop-color:#999999;stop-opacity:0"/>
					<stop  offset="0.9976" style="stop-color:#009444"/>
				</linearGradient>
				
					<polyline style="fill:none;stroke:url(#SVGID_00000078756693604009726550000012037416559053886909_);stroke-miterlimit:10;" points="
					325.2,262.5 489.7,275.1 316,354.1 236.1,410.3 334.8,394 316,354.1 183.3,345.8 259.5,257.9 198,261.4 115.3,242.9 181.4,200 
					190.4,151.1 132,129.2 91.8,45.7 -96.8,7.2 -4.8,-17.1 91.8,45.7 -41.5,115.3 132,129.2 170.3,78.4 190.4,151.1 118.5,143.5 
					181.4,200 42.1,139.8 91.8,45.7 73.1,-53.7 -49.1,-112.8 -194.5,-227.3 				"/>
				
					<linearGradient id="SVGID_00000034796105689767717760000005903952338064398778_" gradientUnits="userSpaceOnUse" x1="1172.5967" y1="424.4453" x2="1848.343" y2="424.4453" gradientTransform="matrix(-1 0 0 1 1659.479 -298)">
					<stop  offset="0.1341" style="stop-color:#999999;stop-opacity:0"/>
					<stop  offset="0.9976" style="stop-color:#009444"/>
				</linearGradient>
				
					<polyline style="fill:none;stroke:url(#SVGID_00000034796105689767717760000005903952338064398778_);stroke-miterlimit:10;" points="
					387.7,213.8 485.4,217.2 437.6,178.7 387.7,213.8 242.1,212.4 181.4,200 325.2,262.5 315.8,171.5 198,261.4 226.7,264 
					183.3,345.8 198,261.4 181.4,200 259.5,257.9 325.2,262.5 387.7,213.8 315.8,171.5 181.4,200 190.4,151.1 137.3,104.8 
					170.3,78.4 91.8,45.7 73.1,-53.7 -185,-94.8 -4.8,-17.1 132,129.2 				"/>
				
					<linearGradient id="SVGID_00000041988051259213767070000009940833253296475838_" gradientUnits="userSpaceOnUse" x1="1330.1724" y1="565.1993" x2="1691.7887" y2="565.1993" gradientTransform="matrix(-1 0 0 1 1659.479 -298)">
					<stop  offset="0.1341" style="stop-color:#999999;stop-opacity:0"/>
					<stop  offset="0.9976" style="stop-color:#009444"/>
				</linearGradient>
				
					<polyline style="fill:none;stroke:url(#SVGID_00000041988051259213767070000009940833253296475838_);stroke-miterlimit:10;" points="
					316,354.1 147.2,405 183.3,345.8 127.5,319.1 115.3,242.9 118.5,143.5 132,129.2 42.1,139.8 -31.3,214.3 115.3,242.9 
					100.3,286.1 181.4,200 226.7,264 316,354.1 328.8,330 325.2,262.5 242.1,212.4 190.4,151.1 				"/>
				
					<linearGradient id="SVGID_00000087413841188418172580000012428113805764733593_" gradientUnits="userSpaceOnUse" x1="981.7907" y1="638.0066" x2="1344.9999" y2="638.0066" gradientTransform="matrix(-1 0 0 1 1659.479 -298)">
					<stop  offset="0.1341" style="stop-color:#999999;stop-opacity:0"/>
					<stop  offset="0.9976" style="stop-color:#009444"/>
				</linearGradient>
				
					<polyline style="fill:none;stroke:url(#SVGID_00000087413841188418172580000012428113805764733593_);stroke-miterlimit:10;" points="
					677.3,289.4 610.7,371.5 558.1,308.9 316,354.1 438.2,417.4 558.1,308.9 325.2,262.5 				"/>
				
					<linearGradient id="SVGID_00000108274855145904629060000014413115086942520501_" gradientUnits="userSpaceOnUse" x1="951.8578" y1="619.189" x2="1532.2957" y2="619.189" gradientTransform="matrix(-1 0 0 1 1659.479 -298)">
					<stop  offset="0.1341" style="stop-color:#999999;stop-opacity:0"/>
					<stop  offset="0.9976" style="stop-color:#009444"/>
				</linearGradient>
				
					<polyline style="fill:none;stroke:url(#SVGID_00000108274855145904629060000014413115086942520501_);stroke-miterlimit:10;" points="
					198,261.4 127.5,319.1 226.7,264 315.8,171.5 259.5,257.9 226.7,264 328.8,330 489.7,275.1 558.1,308.9 677.3,289.4 
					706.7,352.3 558.1,308.9 328.8,330 438.2,417.4 677.3,289.4 585.9,471 				"/>
				
					<linearGradient id="SVGID_00000075874844038838113480000018220430826725686443_" gradientUnits="userSpaceOnUse" x1="1478.0454" y1="541.149" x2="1716.3669" y2="541.149" gradientTransform="matrix(-1 0 0 1 1659.479 -298)">
					<stop  offset="0.1341" style="stop-color:#999999;stop-opacity:0"/>
					<stop  offset="0.9976" style="stop-color:#009444"/>
				</linearGradient>
				
					<polyline style="fill:none;stroke:url(#SVGID_00000075874844038838113480000018220430826725686443_);stroke-miterlimit:10;" points="
					42.1,139.8 -55.9,345.8 100.3,286.1 -31.3,214.3 181.4,200 				"/>
				
					<linearGradient id="SVGID_00000183937025634440010340000017082583550642316735_" gradientUnits="userSpaceOnUse" x1="1521.7828" y1="362.4038" x2="1780.0294" y2="362.4038" gradientTransform="matrix(-1 0 0 1 1659.479 -298)">
					<stop  offset="0.1341" style="stop-color:#999999;stop-opacity:0"/>
					<stop  offset="0.9976" style="stop-color:#009444"/>
				</linearGradient>
				
					<polyline style="fill:none;stroke:url(#SVGID_00000183937025634440010340000017082583550642316735_);stroke-miterlimit:10;" points="
					137.3,104.8 91.8,45.7 -120.5,24.2 				"/>
				
					<linearGradient id="SVGID_00000001627940274611369260000013915273944979892138_" gradientUnits="userSpaceOnUse" x1="1611.3906" y1="244.4815" x2="1756.6018" y2="244.4815" gradientTransform="matrix(-1 0 0 1 1659.479 -298)">
					<stop  offset="0.1341" style="stop-color:#999999;stop-opacity:0"/>
					<stop  offset="0.9976" style="stop-color:#009444"/>
				</linearGradient>
				
					<polyline style="fill:none;stroke:url(#SVGID_00000001627940274611369260000013915273944979892138_);stroke-miterlimit:10;" points="
					-49.1,-112.8 46.7,-114.1 -96.8,7.2 				"/>
				
					<linearGradient id="SVGID_00000056399245581557716850000004394077500728740233_" gradientUnits="userSpaceOnUse" x1="1511.5258" y1="678.7798" x2="1716.0609" y2="678.7798" gradientTransform="matrix(-1 0 0 1 1659.479 -298)">
					<stop  offset="0.1341" style="stop-color:#999999;stop-opacity:0"/>
					<stop  offset="0.9976" style="stop-color:#009444"/>
				</linearGradient>
				
					<polyline style="fill:none;stroke:url(#SVGID_00000056399245581557716850000004394077500728740233_);stroke-miterlimit:10;" points="
					127.5,319.1 147.2,405 53,347.3 -8.6,474.5 -55.9,345.8 127.5,319.1 100.3,286.1 				"/>
				
					<linearGradient id="SVGID_00000098912608985309789560000008186428938508381882_" gradientUnits="userSpaceOnUse" x1="901.769" y1="685.2957" x2="1221.8086" y2="685.2957" gradientTransform="matrix(-1 0 0 1 1659.479 -298)">
					<stop  offset="0.1341" style="stop-color:#999999;stop-opacity:0"/>
					<stop  offset="0.9976" style="stop-color:#009444"/>
				</linearGradient>
				
					<polyline style="fill:none;stroke:url(#SVGID_00000098912608985309789560000008186428938508381882_);stroke-miterlimit:10;" points="
					610.7,371.5 489.7,275.1 438.2,417.4 465.7,499 558.1,308.9 585.9,471 610.7,371.5 756.6,474.5 706.7,352.3 				"/>
				
					<linearGradient id="SVGID_00000114779480459857391490000015115379924363436171_" gradientUnits="userSpaceOnUse" x1="1246.1451" y1="506.0051" x2="1309.6748" y2="506.0051" gradientTransform="matrix(-1 0 0 1 1659.479 -298)">
					<stop  offset="0.1341" style="stop-color:#999999;stop-opacity:0"/>
					<stop  offset="0.9976" style="stop-color:#009444"/>
				</linearGradient>
				
					<polygon style="fill:none;stroke:url(#SVGID_00000114779480459857391490000015115379924363436171_);stroke-miterlimit:10;" points="
					411.7,242.8 387.4,182.8 351.3,171.5 				"/>
				
					<linearGradient id="SVGID_00000065064208644480272860000004523630674466720910_" gradientUnits="userSpaceOnUse" x1="1045.1875" y1="547.3164" x2="1230.2548" y2="547.3164" gradientTransform="matrix(-1 0 0 1 1659.479 -298)">
					<stop  offset="0.1341" style="stop-color:#999999;stop-opacity:0"/>
					<stop  offset="0.9976" style="stop-color:#009444"/>
				</linearGradient>
				
					<polygon style="fill:none;stroke:url(#SVGID_00000065064208644480272860000004523630674466720910_);stroke-miterlimit:10;" points="
					614.1,223.5 489.7,275.1 431.6,262.5 				"/>
				
					<linearGradient id="SVGID_00000116202541578852151830000003020045071641116085_" gradientUnits="userSpaceOnUse" x1="1455.6716" y1="327.9601" x2="1510.255" y2="327.9601" gradientTransform="matrix(-1 0 0 1 1659.479 -298)">
					<stop  offset="0.1341" style="stop-color:#999999;stop-opacity:0"/>
					<stop  offset="0.9976" style="stop-color:#009444"/>
				</linearGradient>
				
					<polygon style="fill:none;stroke:url(#SVGID_00000116202541578852151830000003020045071641116085_);stroke-miterlimit:10;" points="
					150.2,-17.1 203.1,56.3 170.3,78.4 				"/>
				
					<linearGradient id="SVGID_00000013904317840984325150000016802936618517448096_" gradientUnits="userSpaceOnUse" x1="1479.7238" y1="312.0114" x2="1597.0642" y2="312.0114" gradientTransform="matrix(-1 0 0 1 1659.479 -298)">
					<stop  offset="0.1341" style="stop-color:#999999;stop-opacity:0"/>
					<stop  offset="0.9976" style="stop-color:#009444"/>
				</linearGradient>
				
					<polygon style="fill:none;stroke:url(#SVGID_00000013904317840984325150000016802936618517448096_);stroke-miterlimit:10;" points="
					176.7,38.6 62.7,-10.9 127.5,34.1 				"/>
			</g>
			
				<image style="overflow:visible;enable-background:new    ;" width="641" height="445" xlink:href="5516F7BD.png"  transform="matrix(1 0 0 1 -15.893 -28.5745)">
			</image>
			<path class="st16" d="M179.6,200c0,1,0.8,1.8,1.8,1.8s1.8-0.8,1.8-1.8s-0.8-1.8-1.8-1.8l0,0C180.4,198.1,179.6,199,179.6,200z"/>
			<circle class="st16" cx="115.3" cy="242.9" r="1.8"/>
			<circle class="st16" cx="100.1" cy="286.1" r="1.8"/>
			<circle class="st16" cx="190.8" cy="151.1" r="1.8"/>
			<circle class="st16" cx="131.9" cy="129.2" r="1.8"/>
			<circle class="st16" cx="118.5" cy="143.5" r="1.8"/>
			<circle class="st16" cx="41.8" cy="139.8" r="1.8"/>
			<circle class="st16" cx="137.3" cy="104.8" r="1.8"/>
			<path class="st16" d="M168.5,78.4c0,1,0.8,1.8,1.8,1.8s1.8-0.8,1.8-1.8s-0.8-1.8-1.8-1.8l0,0C169.3,76.6,168.5,77.4,168.5,78.4z"
				/>
			<circle class="st16" cx="203.1" cy="56.3" r="1.8"/>
			<circle class="st16" cx="91.8" cy="45.4" r="1.8"/>
			<circle class="st16" cx="127.5" cy="34.1" r="1.8"/>
			<circle class="st16" cx="176.7" cy="38.6" r="1.8"/>
			<circle class="st16" cx="198" cy="261.4" r="1.8"/>
			<circle class="st16" cx="226.9" cy="264.1" r="1.8"/>
			<circle class="st16" cx="325.2" cy="262.5" r="1.8"/>
			<circle class="st16" cx="387.7" cy="213.8" r="1.8"/>
			<circle class="st16" cx="351.3" cy="171.5" r="1.8"/>
			<circle class="st16" cx="387.4" cy="182.8" r="1.8"/>
			<circle class="st16" cx="437.6" cy="178.7" r="1.8"/>
			<circle class="st16" cx="485.4" cy="217.2" r="1.8"/>
			<circle class="st16" cx="411.7" cy="242.8" r="1.8"/>
			<circle class="st16" cx="489.7" cy="275.1" r="1.8"/>
			<circle class="st16" cx="431.6" cy="262.5" r="1.8"/>
			<circle class="st16" cx="614.1" cy="223.5" r="1.8"/>
			<path class="st16" d="M257.9,258c0,1,0.8,1.8,1.8,1.8s1.8-0.8,1.8-1.8s-0.8-1.8-1.8-1.8l0,0C258.7,256.2,257.9,257,257.9,258z"/>
			<circle class="st16" cx="242" cy="212.5" r="1.8"/>
			<circle class="st16" cx="315.8" cy="171.5" r="1.8"/>
		</g>
	</g>
</g>
</svg>
