<?xml version="1.0" encoding="utf-8"?>
<!-- Generator: Adobe Illustrator 28.1.0, SVG Export Plug-In . SVG Version: 6.00 Build 0)  -->
<svg version="1.1" id="Layer_1" xmlns="http://www.w3.org/2000/svg" xmlns:xlink="http://www.w3.org/1999/xlink" x="0px" y="0px"
	 viewBox="0 0 349 349" style="enable-background:new 0 0 349 349;" xml:space="preserve">
<style type="text/css">
	.st0{fill-rule:evenodd;clip-rule:evenodd;fill:#FFFFFF;}
	.st1{fill-rule:evenodd;clip-rule:evenodd;fill:#FFC425;}
	.st2{fill:#006892;}
	.st3{fill:none;stroke:#006892;stroke-width:4.856800e-02;stroke-miterlimit:3.8636;}
	.st4{fill-rule:evenodd;clip-rule:evenodd;fill:#EF4135;}
</style>
<rect x="-8" y="-7.8" class="st0" width="364.8" height="364.9"/>
<rect class="st1" width="349" height="349"/>
<path class="st2" d="M5.3,174.5c0-36.5,75.8-66,169.2-66c93.5,0,169.2,29.6,169.2,66c0,36.4-75.8,66-169.2,66
	C81.1,240.5,5.3,211,5.3,174.5z"/>
<path class="st3" d="M5.3,174.5c0-36.5,75.8-66,169.2-66c93.5,0,169.2,29.6,169.2,66c0,36.4-75.8,66-169.2,66
	C81.1,240.5,5.3,211,5.3,174.5z"/>
<polygon class="st0" points="67.3,206.6 84.9,141 112.6,141 112.6,179.6 112.8,179.6 131.6,141 159.7,141 142.2,206.6 123.9,206.6 
	135.1,164.5 135,164.5 112.6,206.6 97.9,206.6 97.9,164.5 97.6,164.5 86.4,206.6 "/>
<polygon class="st4" points="164.7,207.9 167.2,198.6 187.4,198.6 184.9,207.9 "/>
<polygon class="st1" points="167.9,196 178.1,157.8 159.7,157.8 164.2,141 221.2,141 216.7,157.8 198.3,157.8 188.1,195.9 "/>
<polygon class="st0" points="208.1,206.6 225.7,141 245.5,141 254.5,176.1 254.6,176.1 264,141 282.4,141 264.8,206.6 245.9,206.6 
	236.2,170.8 236,170.8 226.5,206.6 "/>
</svg>
