<?xml version="1.0" encoding="utf-8"?>
<!-- Generator: Adobe Illustrator 28.1.0, SVG Export Plug-In . SVG Version: 6.00 Build 0)  -->
<svg version="1.1" id="Layer_1" xmlns="http://www.w3.org/2000/svg" xmlns:xlink="http://www.w3.org/1999/xlink" x="0px" y="0px"
	 viewBox="0 0 500 500" style="enable-background:new 0 0 500 500;" xml:space="preserve">
<style type="text/css">
	.st0{display:none;}
	.st1{display:inline;}
	.st2{fill:#F5F5F5;}
	.st3{fill:#263238;}
	.st4{fill:#135C79;}
	.st5{fill:#455A64;}
	.st6{fill:#FFFFFF;}
	.st7{fill:#E0E0E0;}
	.st8{fill:none;}
	.st9{fill:#F89F1E;}
	.st10{fill:#AE7461;}
	.st11{fill:#6F4439;}
	.st12{opacity:0.3;}
</style>
<g id="Background_Simple" class="st0">
	<g class="st1">
		<path class="st2" d="M408.1,151.7l-2.1-3.5c-17.7-29.1-49.6-46.6-83.2-44.5c-4.3,0.3-8.6,0.9-12.9,1.8
			c-30.6,6.6-57.2,29.7-68.3,59.3c-6.5,17.4-8.3,37.5-20.6,51.3c-16,18-43.2,18.6-67.2,17.8c-23.9-0.7-51.2-0.1-67.1,18
			c-10,11.3-13.2,27.4-12.4,42.6c2.1,40.1,30.1,76,65.7,93.9s77.5,19.4,116.4,11.6c54.5-11,106.4-41.2,137.6-87.8
			C425.1,265.6,433,202.1,408.1,151.7z"/>
	</g>
	<g class="st1">
		
			<ellipse transform="matrix(0.2658 -0.964 0.964 0.2658 197.0848 419.886)" class="st2" cx="374.2" cy="80.6" rx="18.7" ry="18.7"/>
	</g>
	<g class="st1">
		
			<ellipse transform="matrix(0.7071 -0.7071 0.7071 0.7071 -265.8474 192.3801)" class="st2" cx="99.3" cy="417.1" rx="18.7" ry="18.7"/>
	</g>
</g>
<g id="Desk">
	<g>
		<g>
			<path class="st3" d="M445.4,463c0,0.1-92.4,0.3-206.3,0.3c-114,0-206.4-0.1-206.4-0.3c0-0.1,92.4-0.3,206.4-0.3
				C353,462.7,445.4,462.8,445.4,463z"/>
		</g>
	</g>
</g>
<g id="Plant">
	<g>
		<g>
			<g>
				<g>
					<path class="st4" d="M381.6,395.8c3.1,1.3,5.4,4.2,6.5,7.4c1.1,3.2,1.3,6.7,0.9,10c-0.7,6.5-4.4,13.1-8.4,18.3
						c-5.5-4.8-6.7-13.1-7.1-17.4C372.8,407.3,375.9,394.7,381.6,395.8"/>
				</g>
			</g>
		</g>
		<g>
			<g>
				<g>
					<path class="st4" d="M386.9,442.2c-0.9-3.7,0.7-7.7,3.5-10.2s6.8-3.6,10.5-3.3c1.7,0.1,3.6,0.6,4.6,2.1
						c0.9,1.3,0.8,3.2,0.1,4.7c-0.8,1.4-2.1,2.5-3.5,3.4C397.4,441.8,392.3,443.9,386.9,442.2"/>
				</g>
			</g>
		</g>
		<g>
			<g>
				<g>
					<g>
						<path class="st4" d="M379.9,462.2c0,0,0-0.5,0.2-1.3c0.2-0.9,0.4-2.2,0.7-3.6c0.6-3,1.4-7.4,3.7-11.6c2.3-4.2,5.6-7.3,8.3-8.8
							c1.4-0.8,2.5-1.3,3.4-1.5c0.4-0.1,0.8-0.2,1-0.2s0.3-0.1,0.3,0s-1.9,0.5-4.5,2.1s-5.8,4.6-8.1,8.8c-2.3,4.1-3.1,8.4-3.8,11.4
							c-0.3,1.5-0.6,2.7-0.8,3.6C380.1,461.8,379.9,462.2,379.9,462.2z"/>
					</g>
				</g>
			</g>
		</g>
		<g>
			<g>
				<g>
					<g>
						<path class="st4" d="M380.1,405.5c0,0,0,0.2,0.1,0.6c0,0.4,0.1,1,0.1,1.7c0.1,1.5,0.2,3.6,0.2,6.2c0.2,5.2,0.3,12.4,0.3,20.4
							s-0.2,15.2-0.4,20.4c-0.1,2.6-0.2,4.7-0.3,6.2c0,0.7-0.1,1.2-0.1,1.7c0,0.4-0.1,0.6-0.1,0.6s0-0.2,0-0.6s0-1,0-1.7
							c0-1.5,0.1-3.6,0.2-6.2c0.1-5.2,0.3-12.4,0.3-20.4s0-15.2-0.1-20.4c0-2.6-0.1-4.7-0.1-6.2c0-0.7,0-1.2,0-1.7
							C380.1,405.7,380.1,405.5,380.1,405.5z"/>
					</g>
				</g>
			</g>
		</g>
		<g>
			<g>
				<g>
					<path class="st4" d="M377.4,446.2c-1.2-7.9-6.6-15-13.8-18.5c-1.8-0.9-4.2-1.5-5.7-0.1s-1.2,3.8-0.4,5.7
						c3.1,7.9,11.3,13.5,19.8,13.4"/>
				</g>
			</g>
		</g>
		<g>
			<g>
				<g>
					<g>
						<path class="st4" d="M364.6,433.9c0,0,0.4,0.2,1.2,0.5c0.4,0.2,0.8,0.4,1.3,0.7c0.5,0.3,1.1,0.6,1.7,1s1.3,0.9,1.9,1.4
							c0.7,0.5,1.3,1.2,2,1.9c1.4,1.4,2.7,3.1,3.9,5c1.1,1.9,2,3.9,2.6,5.8c0.3,0.9,0.5,1.8,0.6,2.7c0.2,0.8,0.3,1.6,0.3,2.4
							c0.1,0.7,0.1,1.4,0.1,2s0,1.1,0,1.5c-0.1,0.8-0.1,1.3-0.1,1.3c-0.1,0,0.1-1.8-0.2-4.7c-0.1-0.7-0.2-1.5-0.4-2.3
							c-0.1-0.8-0.4-1.7-0.7-2.6c-0.6-1.8-1.4-3.8-2.5-5.7c-1.1-1.9-2.5-3.5-3.8-4.9c-0.7-0.7-1.3-1.3-2-1.9c-0.6-0.6-1.3-1-1.9-1.5
							C366.2,434.8,364.5,434,364.6,433.9z"/>
					</g>
				</g>
			</g>
		</g>
	</g>
</g>
<g>
	<g>
		<g>
			<g>
				<g>
					<g>
						<g>
							<g>
								<g>
									<g>
										<path class="st5" d="M182,372.3l-113.3-0.1c-13.6,0-24.7-11-24.7-24.6l0.1-283.2c0-13.6,11.1-24.6,24.7-24.6L182,39.9
											c13.6,0,24.7,11,24.7,24.6l-0.1,283.2C206.6,361.3,195.6,372.3,182,372.3z"/>
									</g>
								</g>
							</g>
						</g>
					</g>
				</g>
			</g>
		</g>
	</g>
</g>
<g>
	<g>
		<g>
			<g>
				<g>
					<g>
						<g>
							<g>
								<g>
									<g>
										<path class="st6" d="M182.8,48.3l-22-0.1c-3,0-5.4,2.5-5.4,5.6v4c0,3.1-2.4,5.6-5.4,5.6l-43-0.2c-3,0-5.3-2.5-5.3-5.6v-4
											c0-3.1-2.4-5.6-5.3-5.6h-7.8l-19.3-0.1c-9.6,0-17.4,7.7-17.4,17.3l-1.2,278.2c0,9.6,7.7,17.4,17.3,17.4l113.4,0.5
											c9.6,0,17.4-7.7,17.4-17.3L200,65.7C200.1,56.2,192.3,48.4,182.8,48.3z"/>
									</g>
								</g>
							</g>
						</g>
					</g>
				</g>
			</g>
		</g>
	</g>
</g>
<g>
	<path class="st4" d="M95.5,93.3v2.1h-1.7v-2.2l-2.3-3.8h1.8l1.4,2.4l1.4-2.4h1.6L95.5,93.3z"/>
	<path class="st4" d="M97.7,92.5c0-1.8,1.4-3.1,3.3-3.1s3.3,1.3,3.3,3.1c0,1.8-1.4,3.1-3.3,3.1S97.7,94.3,97.7,92.5z M102.7,92.5
		c0-1-0.7-1.7-1.6-1.7s-1.6,0.7-1.6,1.7s0.7,1.7,1.6,1.7C101.9,94.2,102.7,93.5,102.7,92.5z"/>
	<path class="st4" d="M105.2,92.8v-3.3h1.7v3.3c0,1,0.4,1.4,1.1,1.4s1.1-0.4,1.1-1.4v-3.3h1.7v3.3c0,1.8-1,2.8-2.8,2.8
		C106.2,95.6,105.2,94.6,105.2,92.8z"/>
	<path class="st4" d="M114.6,93.9h-0.9v1.6H112v-6h2.7c1.6,0,2.7,0.8,2.7,2.2c0,0.9-0.4,1.5-1.2,1.9l1.3,1.9h-1.8L114.6,93.9z
		 M114.6,90.8h-0.9v1.8h0.9c0.7,0,1.1-0.3,1.1-0.9C115.7,91.2,115.3,90.8,114.6,90.8z"/>
	<path class="st4" d="M120.5,92.5c0-1.8,1.4-3.1,3.3-3.1s3.3,1.3,3.3,3.1c0,1.8-1.4,3.1-3.3,3.1S120.5,94.3,120.5,92.5z M125.4,92.5
		c0-1-0.7-1.7-1.6-1.7s-1.6,0.7-1.6,1.7s0.7,1.7,1.6,1.7C124.7,94.2,125.4,93.5,125.4,92.5z"/>
	<path class="st4" d="M130.7,93.9h-0.9v1.6H128v-6h2.7c1.6,0,2.7,0.8,2.7,2.2c0,0.9-0.4,1.5-1.2,1.9l1.3,1.9h-1.8L130.7,93.9z
		 M130.7,90.8h-0.9v1.8h0.9c0.7,0,1.1-0.3,1.1-0.9C131.7,91.2,131.4,90.8,130.7,90.8z"/>
	<path class="st4" d="M134.4,89.5h2.8c2,0,3.3,1.2,3.3,3s-1.4,3-3.3,3h-2.8V89.5z M137.1,94.1c1,0,1.7-0.6,1.7-1.6s-0.7-1.6-1.7-1.6
		H136v3.3h1.1V94.1z"/>
	<path class="st4" d="M146.2,94.2v1.3h-4.8v-6h4.7v1.3h-3v1h2.7v1.3h-2.7v1.1C143.1,94.2,146.2,94.2,146.2,94.2z"/>
	<path class="st4" d="M149.8,93.9h-0.9v1.6h-1.7v-6h2.7c1.6,0,2.7,0.8,2.7,2.2c0,0.9-0.4,1.5-1.2,1.9l1.3,1.9h-1.8L149.8,93.9z
		 M149.8,90.8h-0.9v1.8h0.9c0.7,0,1.1-0.3,1.1-0.9C150.9,91.2,150.5,90.8,149.8,90.8z"/>
</g>
<g>
	<path class="st3" d="M89,209h-1.8v-1.3h5.4v1.3h-1.8v4.6H89V209z"/>
	<path class="st3" d="M92.8,210.6c0-1.8,1.4-3.1,3.3-3.1s3.3,1.3,3.3,3.1s-1.4,3.1-3.3,3.1C94.2,213.7,92.8,212.4,92.8,210.6z
		 M97.8,210.6c0-1-0.7-1.7-1.6-1.7s-1.6,0.7-1.6,1.7s0.7,1.7,1.6,1.7C97,212.3,97.8,211.7,97.8,210.6z"/>
	<path class="st3" d="M101.5,209h-1.8v-1.3h5.4v1.3h-1.8v4.6h-1.7L101.5,209L101.5,209z"/>
	<path class="st3" d="M109.4,212.5h-2.5l-0.5,1.2h-1.7l2.6-6h1.7l2.7,6h-1.8L109.4,212.5z M108.9,211.2l-0.8-1.9l-0.8,1.9H108.9z"/>
	<path class="st3" d="M112.1,207.6h1.7v4.6h2.9v1.3h-4.6V207.6z"/>
	<path class="st3" d="M117.2,209.9c0-0.6,0.4-1,1-1s1,0.4,1,1s-0.4,1-1,1C117.6,210.8,117.2,210.4,117.2,209.9z M117.2,212.7
		c0-0.6,0.4-1,1-1s1,0.4,1,1s-0.4,1-1,1S117.2,213.3,117.2,212.7z"/>
</g>
<g>
	<path class="st3" d="M168.8,215.8v1.6H167v-1.6c-1.5-0.1-2.9-0.5-3.7-1.1l1-2.1c0.9,0.6,2.2,1,3.4,1s1.7-0.3,1.7-0.8
		c0-1.6-5.9-0.4-5.9-4.3c0-1.6,1.2-3,3.5-3.3v-1.6h1.8v1.6c1.1,0.1,2.2,0.4,3,0.9l-0.9,2.2c-1-0.5-2-0.8-2.9-0.8
		c-1.2,0-1.7,0.4-1.7,0.9c0,1.6,5.8,0.4,5.8,4.2C172.2,214.1,171.1,215.4,168.8,215.8z"/>
	<path class="st3" d="M178.3,215.8v1.6h-1.8v-1.6c-1.5-0.1-2.9-0.5-3.7-1.1l1-2.1c0.9,0.6,2.2,1,3.4,1s1.7-0.3,1.7-0.8
		c0-1.6-5.9-0.4-5.9-4.3c0-1.6,1.2-3,3.5-3.3v-1.6h1.8v1.6c1.1,0.1,2.2,0.4,3,0.9l-0.9,2.2c-1-0.5-2-0.8-2.9-0.8
		c-1.2,0-1.7,0.4-1.7,0.9c0,1.6,5.8,0.4,5.8,4.2C181.7,214.1,180.6,215.4,178.3,215.8z"/>
</g>
<g>
	<circle class="st4" cx="72.7" cy="92" r="11.4"/>
</g>
<g>
	<circle class="st4" cx="72.7" cy="178.1" r="11.4"/>
</g>
<g>
	<path class="st4" d="M97.7,176.5c0,1.4-1,2.2-2.7,2.2h-1v1.6h-1.7v-6H95C96.7,174.3,97.7,175.2,97.7,176.5z M96,176.5
		c0-0.6-0.4-0.9-1.1-0.9H94v1.8h1C95.7,177.4,96,177.1,96,176.5z"/>
	<path class="st4" d="M102.3,179.2h-2.5l-0.5,1.2h-1.7l2.6-6h1.7l2.7,6h-1.8L102.3,179.2z M101.8,177.9L101,176l-0.8,1.9H101.8z"/>
	<path class="st4" d="M107.8,178.2v2.1h-1.7v-2.2l-2.3-3.8h1.8l1.4,2.4l1.4-2.4h1.6L107.8,178.2z"/>
</g>
<g>
	<path class="st7" d="M92.2,264.4c0,1.4-1,2.2-2.7,2.2h-1v1.6h-1.7v-6h2.7C91.1,262.2,92.2,263,92.2,264.4z M90.4,264.4
		c0-0.6-0.4-0.9-1.1-0.9h-0.9v1.8h0.9C90.1,265.3,90.4,264.9,90.4,264.4z"/>
	<path class="st7" d="M93,262.2h1.7v6H93V262.2z"/>
	<path class="st7" d="M95.6,265.2c0-1.8,1.4-3.1,3.3-3.1c1.1,0,2,0.4,2.6,1.1l-1.1,1c-0.4-0.5-0.8-0.7-1.4-0.7c-1,0-1.7,0.7-1.7,1.7
		s0.7,1.7,1.7,1.7c0.6,0,1-0.2,1.4-0.7l1.1,1c-0.6,0.7-1.5,1.1-2.6,1.1C97,268.3,95.6,267,95.6,265.2z"/>
	<path class="st7" d="M104.5,266l-0.6,0.7v1.5h-1.7v-6h1.7v2.5l2.3-2.5h1.9l-2.4,2.7l2.6,3.3h-2L104.5,266z"/>
	<path class="st7" d="M111.1,265.5v-3.3h1.7v3.3c0,1,0.4,1.4,1.1,1.4s1.1-0.4,1.1-1.4v-3.3h1.7v3.3c0,1.8-1,2.8-2.8,2.8
		C112.1,268.3,111.1,267.3,111.1,265.5z"/>
	<path class="st7" d="M123.2,264.4c0,1.4-1,2.2-2.7,2.2h-1v1.6h-1.7v-6h2.7C122.2,262.2,123.2,263,123.2,264.4z M121.5,264.4
		c0-0.6-0.4-0.9-1.1-0.9h-0.9v1.8h0.9C121.2,265.3,121.5,264.9,121.5,264.4z"/>
	<path class="st7" d="M126.6,262.2h1.7v6h-1.7C126.6,268.2,126.6,262.2,126.6,262.2z"/>
	<path class="st7" d="M135.2,262.2v6h-1.4l-2.6-3.2v3.2h-1.7v-6h1.4l2.6,3.2v-3.2H135.2z"/>
	<path class="st7" d="M136.1,264.4c0-0.6,0.4-1,1-1s1,0.4,1,1s-0.4,1-1,1S136.1,265,136.1,264.4z M136.1,267.3c0-0.6,0.4-1,1-1
		s1,0.4,1,1s-0.4,1-1,1S136.1,267.8,136.1,267.3z"/>
</g>
<g>
	<g>
		<path class="st3" d="M153.5,116.7c0,0.1-6,0.3-13.4,0.3s-13.4-0.1-13.4-0.3s6-0.3,13.4-0.3C147.6,116.4,153.5,116.5,153.5,116.7z"
			/>
	</g>
</g>
<g>
	<g>
		<path class="st3" d="M147.9,123.9c0,0.1-4.7,0.3-10.5,0.3s-10.5-0.1-10.5-0.3c0-0.1,4.7-0.3,10.5-0.3S147.9,123.7,147.9,123.9z"/>
	</g>
</g>
<g>
	<path class="st3" d="M168.8,126.8v1.6H167v-1.6c-1.5-0.1-2.9-0.5-3.7-1.1l1-2.1c0.9,0.6,2.2,1,3.4,1s1.7-0.3,1.7-0.8
		c0-1.6-5.9-0.4-5.9-4.3c0-1.6,1.2-3,3.5-3.3v-1.6h1.8v1.6c1.1,0.1,2.2,0.4,3,0.9l-0.9,2.2c-1-0.5-2-0.8-2.9-0.8
		c-1.2,0-1.7,0.4-1.7,0.9c0,1.6,5.8,0.4,5.8,4.2C172.2,125.1,171.1,126.5,168.8,126.8z"/>
	<path class="st3" d="M178.3,126.8v1.6h-1.8v-1.6c-1.5-0.1-2.9-0.5-3.7-1.1l1-2.1c0.9,0.6,2.2,1,3.4,1s1.7-0.3,1.7-0.8
		c0-1.6-5.9-0.4-5.9-4.3c0-1.6,1.2-3,3.5-3.3v-1.6h1.8v1.6c1.1,0.1,2.2,0.4,3,0.9l-0.9,2.2c-1-0.5-2-0.8-2.9-0.8
		c-1.2,0-1.7,0.4-1.7,0.9c0,1.6,5.8,0.4,5.8,4.2C181.8,125.1,180.6,126.5,178.3,126.8z"/>
</g>
<g>
	<polygon class="st4" points="109.6,118.6 102.7,117.5 101.8,119.8 110.1,119.8 	"/>
	<path class="st4" d="M103.8,129.3h5.2l1.6-8.3h-8.3L103.8,129.3z M105.6,125.3c0-0.4,0.2-0.7,0.5-1c0.2-0.3,0.5-0.5,0.9-0.6
		c0.3-0.1,0.7,0.1,0.9,0.4c0.2,0.3,0.2,0.7,0.1,1s-0.3,0.6-0.6,0.8c-0.4,0.3-0.9,0.5-1.3,0.3c-0.1,0-0.2-0.1-0.2-0.2
		c-0.1,0.1-0.1,0.1-0.2,0.2c-0.1-0.1-0.1-0.2-0.1-0.2c0,0,0.1-0.1,0.1-0.1C105.7,125.7,105.6,125.5,105.6,125.3z"/>
	<path class="st4" d="M115,110.2H97.9c-2.5,0-4.6,2-4.6,4.6v17.1c0,2.5,2,4.6,4.6,4.6H115c2.6,0,4.7-2,4.6-4.6v-17.1
		C119.6,112.3,117.6,110.2,115,110.2z M112.6,120.8h-0.9l-1.7,9.1c-0.1,0.2-0.3,0.4-0.5,0.4h-6.1c-0.2,0-0.4-0.2-0.5-0.4l-1.7-9.1h0
		H101h-1.1c-0.3,0-0.5-0.2-0.5-0.5s0.2-0.5,0.5-0.5h1l1.1-3c0.1-0.2,0.3-0.4,0.5-0.3l7.6,1.2c0.2,0,0.3,0.1,0.4,0.3l0.8,1.8h1.3
		c0.3,0,0.5,0.2,0.5,0.5S112.9,120.8,112.6,120.8z"/>
</g>
<g>
	<rect x="71.3" y="92" class="st4" width="2" height="148.7"/>
</g>
<g>
	<g>
		<path class="st6" d="M71.8,96.1l-4.7-3.9C67,92.1,67,92,67.1,92l1.2-1.5c0.1-0.1,0.2-0.1,0.2,0l3.1,2.6c0.1,0.1,0.2,0,0.2,0
			l4.8-5.1c0.1-0.1,0.2-0.1,0.2,0l1.4,1.3c0.1,0.1,0.1,0.2,0,0.2L72,96.1C71.9,96.1,71.8,96.1,71.8,96.1z"/>
	</g>
</g>
<g>
	<g>
		<path class="st6" d="M71.8,182.2l-4.7-3.9c-0.1-0.1-0.1-0.2,0-0.2l1.2-1.5c0.1-0.1,0.2-0.1,0.2,0l3.1,2.6c0.1,0.1,0.2,0,0.2,0
			l4.8-5.1c0.1-0.1,0.2-0.1,0.2,0l1.4,1.3c0.1,0.1,0.1,0.2,0,0.2l-6.3,6.7C71.9,182.2,71.8,182.2,71.8,182.2z"/>
	</g>
</g>
<g>
	<rect x="71.3" y="236" class="st7" width="2" height="30.6"/>
</g>
<g>
	<path class="st7" d="M78.4,264c0,3.3-2.7,6-6,6s-6-2.7-6-6s2.7-6,6-6C75.7,258,78.4,260.7,78.4,264z"/>
</g>
<g>
	<path class="st8" d="M354.4,124.8c-19.9,15.3-23.5,43.7-8.2,63.5c7.8,10.1,19,16,30.8,17.3l8,12.8l7.7-13.8c6-1.5,11.8-4.1,17-8.2
		c19.9-15.3,23.5-43.7,8.2-63.5C402.6,113.2,374.2,109.6,354.4,124.8z"/>
</g>
<g>
	<g>
		<g>
			<path class="st9" d="M354.4,124.8c0,0,0.3-0.1,0.6-0.5c0.4-0.3,1-0.8,1.9-1.4c0.4-0.3,0.9-0.6,1.4-1c0.5-0.3,1.1-0.6,1.8-1
				c0.6-0.4,1.4-0.8,2-1.1c0.8-0.4,1.6-0.8,2.5-1.1c1.8-0.9,3.8-1.4,5.9-2.1c1.1-0.3,2.3-0.5,3.5-0.8c0.6-0.1,1.3-0.3,1.9-0.3
				c0.6-0.1,1.3-0.1,2-0.3c5.4-0.5,11.7-0.1,18.1,1.9c6.5,2,13.1,5.9,18.7,11.7c2.6,2.9,5.4,6.2,7.3,10.1c0.5,0.9,1,1.9,1.5,2.9
				c0.4,1,0.9,2,1.3,3c0.6,2.1,1.4,4.1,1.8,6.4c2,8.8,1,18.7-2.9,27.8c-4,8.9-11.1,17-20.4,21.9c-3.4,1.8-7,3.1-10.7,4l0.3-0.1
				c-2.6,4.7-5.2,9.3-7.7,13.8l-0.3,0.5l-0.3-0.5c-2.8-4.4-5.4-8.7-8-12.8l0.3,0.1c-7.8-0.9-15.1-3.8-21-7.9c-3-2.1-5.7-4.5-7.9-7
				c-1.1-1.3-2.3-2.6-3.1-4c-0.5-0.6-1-1.4-1.4-2c-0.5-0.6-0.8-1.4-1.3-2.1c-3.1-5.7-4.9-11.7-5.5-17.5c-0.6-5.7,0-11.1,1.1-15.7
				c0.4-1.1,0.6-2.3,1-3.4c0.4-1,0.8-2.1,1.3-3.1c0.4-1,0.9-1.9,1.3-2.8c0.5-0.9,0.9-1.8,1.4-2.6c1.9-3.3,3.9-5.8,5.7-7.7
				c0.9-0.9,1.8-1.8,2.4-2.5c0.8-0.6,1.4-1.1,1.9-1.6c0.5-0.4,0.9-0.8,1.1-1C354.2,124.9,354.4,124.8,354.4,124.8s-0.1,0.1-0.4,0.4
				c-0.3,0.3-0.6,0.6-1.1,1c-0.5,0.5-1.1,1-1.9,1.6c-0.6,0.8-1.5,1.5-2.4,2.5c-1.8,1.9-3.6,4.5-5.5,7.7c-0.5,0.8-0.9,1.6-1.4,2.5
				c-0.4,0.9-0.9,1.8-1.3,2.8c-0.4,1-0.8,2-1.1,3c-0.3,1.1-0.6,2.3-0.9,3.4c-1.1,4.7-1.6,9.9-1,15.5c0.6,5.7,2.3,11.6,5.5,17.2
				c0.4,0.8,0.8,1.4,1.3,2.1c0.5,0.6,0.9,1.4,1.4,2c0.9,1.4,2,2.6,3.1,4c2.3,2.5,4.9,4.9,7.8,6.9c5.9,4,13.1,6.9,20.7,7.8h0.1
				l0.1,0.1c2.6,4.1,5.3,8.4,8,12.8H385c2.5-4.5,5.2-9.2,7.7-13.8l0.1-0.1h0.1c3.6-0.9,7.2-2.3,10.6-4c9-4.8,16.1-12.7,20-21.6
				c3.8-8.9,4.8-18.6,2.9-27.3c-0.4-2.3-1.1-4.3-1.8-6.3c-0.4-1-0.9-2-1.3-3c-0.4-1-0.9-1.9-1.4-2.9c-1.9-3.8-4.5-7-7.2-9.9
				c-5.5-5.7-12.1-9.6-18.5-11.6c-6.4-2-12.7-2.5-18-2c-0.6,0.1-1.4,0.1-2,0.3c-0.6,0-1.3,0.1-1.9,0.3c-1.3,0.3-2.4,0.5-3.5,0.8
				c-2.1,0.8-4.3,1.3-5.9,2c-0.9,0.4-1.6,0.8-2.5,1c-0.8,0.4-1.4,0.8-2,1.1c-0.6,0.4-1.3,0.6-1.8,1c-0.5,0.4-1,0.6-1.4,0.9
				c-0.8,0.5-1.4,1-1.9,1.3C354.6,124.6,354.4,124.8,354.4,124.8z"/>
		</g>
	</g>
</g>
<g>
	<g>
		<path class="st4" d="M383.1,188.5c-14.5,0-26.3-11.8-26.3-26.4s11.8-26.4,26.3-26.4c7.3,0,14,2.9,19,8.2c0.5,0.5,0.5,1.3,0,1.8
			c-0.5,0.5-1.3,0.5-1.8,0c-4.5-4.8-10.7-7.4-17.2-7.4c-13.1,0-23.8,10.7-23.8,23.9c0,13.1,10.7,23.9,23.8,23.9
			c13.1,0,23.8-10.7,23.8-23.9c0-2.6-0.4-5.2-1.3-7.7c-0.3-0.6,0.1-1.4,0.8-1.6c0.6-0.3,1.4,0.1,1.6,0.8c0.9,2.8,1.4,5.5,1.4,8.4
			C409.4,176.7,397.6,188.5,383.1,188.5z"/>
	</g>
	<g>
		<path class="st4" d="M410.3,154.3c0,2-1.6,3.8-3.8,3.8s-3.8-1.6-3.8-3.8c0-2,1.6-3.8,3.8-3.8S410.3,152.2,410.3,154.3z"/>
	</g>
	<g>
		<g>
			<path class="st4" d="M382,171.5l-10.6-8.8c-0.1-0.1-0.1-0.4,0-0.5l2.8-3.3c0.1-0.1,0.4-0.1,0.5,0l6.9,5.8c0.1,0.1,0.4,0.1,0.5,0
				l10.9-11.6c0.1-0.1,0.4-0.1,0.5,0l3.1,3c0.1,0.1,0.1,0.4,0,0.5l-14.2,15.1C382.4,171.6,382.1,171.6,382,171.5z"/>
		</g>
	</g>
</g>
<g>
	<g>
		<g>
			<g>
				<path class="st10" d="M195.2,399.3c-0.5,1.6,14.8,63.6,14.8,63.6h37.3l1.5-59L195.2,399.3z"/>
			</g>
		</g>
	</g>
</g>
<g>
	<g>
		<g>
			<g>
				<path class="st10" d="M263,404c0.5,3.1,20.3,59,20.3,59l41.7-0.1l-11.8-63.6L263,404z"/>
			</g>
		</g>
	</g>
</g>
<g>
	<g>
		<g>
			<g>
				<g>
					<path class="st4" d="M203.7,276.4c0,0-10,9.6-13.2,26.4c-1,5.3-4.7,16.5-4.4,36.7c0.4,32.9,1.8,80.1,1.8,80.1
						c44.4,2.5,89.1,2.6,134,0c0,0-24.5-119.4-34.5-134.5l-4.3-10.5L203.7,276.4z"/>
				</g>
				<g>
					<g>
						<path class="st4" d="M203.7,276.4c0,0,0.5,0,1.4-0.1c0.9,0,2.3-0.1,4.1-0.1c3.6-0.1,8.9-0.2,15.8-0.4
							c13.7-0.3,33.6-0.8,58.3-1.4h0.1v0.1c1.3,3.2,2.8,6.8,4.3,10.5l0,0c1.3,2,2.2,4.3,3.1,6.6c0.4,1.2,0.8,2.3,1.3,3.5
							c0.4,1.2,0.8,2.4,1.2,3.6c1.5,4.8,3,9.8,4.4,14.9c2.8,10.3,5.6,21.2,8.3,32.6c5.4,22.8,10.9,47.5,16.3,73.5l0.1,0.3h-0.3
							c-8.2,0.5-16.9,0.9-25.7,1.2c-38.9,1.4-75.8,0.7-108.4-1.2h-0.2v-0.2c-0.5-21.8-0.9-41.9-1.3-59.8c-0.1-4.5-0.2-8.8-0.3-13
							s-0.2-8.2-0.1-12.1c0.1-7.8,0.9-14.9,2.1-21.3c0.6-3.2,1.3-6.2,2-9c0.3-1.4,0.6-2.8,0.9-4.1c0.3-1.3,0.7-2.6,1-3.8
							c1.6-4.8,3.5-8.7,5.3-11.7s3.5-5.1,4.6-6.5C203,277.1,203.7,276.4,203.7,276.4s-0.2,0.2-0.5,0.5s-0.8,0.9-1.3,1.6
							c-1.1,1.4-2.8,3.5-4.6,6.5s-3.7,6.9-5.2,11.7c-0.3,1.2-0.7,2.5-1,3.8s-0.6,2.7-0.9,4.1c-0.6,2.8-1.4,5.8-1.9,9
							c-1.2,6.4-1.9,13.5-2.1,21.3c-0.1,3.9,0.1,7.9,0.2,12.1c0.1,4.2,0.2,8.5,0.3,13c0.4,17.9,0.9,38,1.4,59.7l-0.2-0.2
							c32.6,1.8,69.5,2.5,108.4,1.2c8.8-0.3,17.5-0.7,25.6-1.2l-0.2,0.3c-5.4-26-10.8-50.7-16.3-73.5c-2.7-11.4-5.4-22.3-8.3-32.6
							c-1.4-5.1-2.9-10.1-4.4-14.9c-0.4-1.2-0.8-2.4-1.2-3.6c-0.4-1.2-0.8-2.3-1.3-3.5c-0.9-2.3-1.8-4.5-3-6.5l0,0l0,0
							c-1.5-3.7-2.9-7.2-4.3-10.5l0.2,0.1c-24.6,0.5-44.5,0.9-58.2,1.2c-6.9,0.1-12.2,0.2-15.8,0.3c-1.8,0-3.2,0-4.1,0.1
							C204.1,276.4,203.7,276.4,203.7,276.4z"/>
					</g>
				</g>
			</g>
		</g>
	</g>
</g>
<g>
	<g>
		<path class="st5" d="M258.4,409.9c0,0-0.1-0.2-0.3-0.7c-0.2-0.5-0.4-1.3-0.7-2.2c-0.6-1.9-1.5-4.6-2.7-7.9
			c-2.3-6.7-5.8-15.8-10.1-25.6c-4.3-9.9-8.7-18.6-12-24.8c-1.7-3.1-3-5.6-4-7.3c-0.5-0.8-0.8-1.5-1.1-2c-0.2-0.5-0.4-0.7-0.3-0.7
			c0,0,0.2,0.2,0.4,0.7c0.3,0.5,0.7,1.1,1.2,1.9c1,1.7,2.4,4.2,4.1,7.3c3.4,6.2,7.8,14.9,12.1,24.8s7.7,19,9.9,25.7
			c1.1,3.3,2,6.1,2.5,8c0.3,0.9,0.5,1.6,0.6,2.2C258.3,409.6,258.4,409.9,258.4,409.9z"/>
	</g>
</g>
<g>
	<g>
		<path class="st5" d="M260.8,332.1c0.1,0.1-2,5-4.7,11.1c-2.8,6.1-5.1,10.9-5.2,10.9c-0.1-0.1,2-5,4.7-11.1
			C258.4,336.9,260.7,332,260.8,332.1z"/>
	</g>
</g>
<g>
	<g>
		<path class="st3" d="M207.7,98.1c-5.3,5.2-7.8,13-6.5,20.3c0.6,3.5,2,7.5,0,10.5c-2,2.9-6.5,3.3-8.4,6.3
			c-2.3,3.5,0.4,8.2-0.1,12.3c-0.5,3.9-4.2,7.1-8.1,7c4.9,3.2,10.8,5.1,16.7,5.3c1.3-2.1,2.6-4.1,3.9-6.2c-1.5,2.2-0.7,5.3,1.1,7.2
			c1.9,1.9,4.5,2.7,7.1,3.3c12.3,2.6,25.8-1.1,35.2-9.5"/>
	</g>
	<g>
		<path class="st3" d="M278,122.6c-1.2-2.6-2.9-5-3.8-7.8c-1.9-5.9,0.3-13-3.2-18.1c-2.5-3.7-7.1-5.1-11.5-5.9
			c-4.3-0.9-9-1.5-12.4-4.2c-2.5-2-4.2-5-6.7-7c-3.6-2.9-8.5-3.5-13.1-3.3c-4.7,0.2-9.6,1.2-13.6,3.7s-7.1,6.8-7.4,11.5
			c-0.1,2.3,0.4,4.7-0.1,6.9c-0.5,2.5-2.2,4.6-3.2,6.9c-2,5,0,11.3,4.5,14.2l36.7,38.4c7.1,1.9,23.2-2.9,27.9-8.5
			C276.9,143.7,281,129.3,278,122.6z"/>
	</g>
	<g>
		<path class="st10" d="M207.9,114c0.4-9.6,6.4-21.6,16-20.8L254,100c2.9,0.2,5.2,2.7,5.2,5.6l2.2,70.4c0,0-1.3,0.7,0,0
			c0.3-0.2,0.7,0.2,0.5,0.5c-3,5.4-17.1,29.3-34.8,24.3c-4-1.1-1-13.5-1.9-17.9l-0.7-11.4c-0.2-5.8-0.3-8.2-0.3-8.1
			c0,0-12.3-1.7-15.3-17.7C207.4,137.7,207.5,124.7,207.9,114z"/>
	</g>
	<g>
		<g>
			<g>
				<g>
					<g>
						<g>
							<g>
								<g>
									<g>
										<g>
											<g>
												<g>
													<g>
														<g>
															<path class="st3" d="M213.5,127.6c0,1.1,0.9,2,2,2s2.1-0.8,2.1-1.9s-0.9-2-2-2C214.4,125.7,213.5,126.5,213.5,127.6z
																"/>
														</g>
													</g>
												</g>
											</g>
										</g>
									</g>
								</g>
							</g>
						</g>
					</g>
				</g>
			</g>
		</g>
	</g>
	<g>
		<g>
			<g>
				<g>
					<g>
						<g>
							<g>
								<g>
									<g>
										<g>
											<g>
												<g>
													<g>
														<g>
															<path class="st3" d="M233.7,128.3c0,1.1,0.9,2,2,2s2.1-0.8,2.1-1.9c0-1.1-0.9-2-2-2
																C234.6,126.3,233.7,127.2,233.7,128.3z"/>
														</g>
													</g>
												</g>
											</g>
										</g>
									</g>
								</g>
							</g>
						</g>
					</g>
				</g>
			</g>
		</g>
	</g>
	<g>
		<g>
			<g>
				<g>
					<g>
						<g>
							<g>
								<g>
									<g>
										<g>
											<g>
												<g>
													<g>
														<g>
															<g>
																<path class="st3" d="M210.1,121c0.3,0.4,2-1,4.4-0.9s4.1,1.6,4.4,1.2c0.1-0.1-0.1-0.8-0.8-1.5s-2-1.4-3.5-1.4
																	s-2.8,0.5-3.6,1.2C210.2,120.2,209.9,120.8,210.1,121z"/>
															</g>
														</g>
													</g>
												</g>
											</g>
										</g>
									</g>
								</g>
							</g>
						</g>
					</g>
				</g>
			</g>
		</g>
	</g>
	<g>
		<g>
			<g>
				<g>
					<g>
						<g>
							<g>
								<g>
									<g>
										<g>
											<g>
												<g>
													<g>
														<g>
															<g>
																<path class="st3" d="M231.5,121.3c0.3,0.3,2-1.2,4.6-1.4c2.6-0.2,4.5,1.1,4.8,0.7c0.1-0.2-0.2-0.7-1.1-1.3
																	c-0.8-0.6-2.3-1.1-3.8-1c-1.6,0.1-2.9,0.8-3.6,1.5C231.6,120.5,231.3,121.2,231.5,121.3z"/>
															</g>
														</g>
													</g>
												</g>
											</g>
										</g>
									</g>
								</g>
							</g>
						</g>
					</g>
				</g>
			</g>
		</g>
	</g>
	<g>
		<g>
			<g>
				<g>
					<g>
						<g>
							<g>
								<g>
									<g>
										<g>
											<g>
												<g>
													<g>
														<g>
															<g>
																<path class="st3" d="M225,137.1c0-0.1-1.4-0.3-3.6-0.6c-0.6,0-1.1-0.1-1.2-0.5c-0.1-0.4,0.1-1,0.3-1.7
																	c0.5-1.4,1-2.8,1.6-4.3c2.2-6.2,3.7-11.3,3.4-11.3c-0.2-0.1-2.2,4.9-4.4,11c-0.5,1.5-1,3-1.5,4.4
																	c-0.2,0.6-0.5,1.4-0.2,2.2c0.2,0.4,0.6,0.7,0.9,0.8c0.4,0.1,0.7,0.1,1,0.1C223.6,137.3,225,137.3,225,137.1z"/>
															</g>
														</g>
													</g>
												</g>
											</g>
										</g>
									</g>
								</g>
							</g>
						</g>
					</g>
				</g>
			</g>
		</g>
	</g>
	<g>
		<g>
			<g>
				<g>
					<g>
						<g>
							<g>
								<g>
									<g>
										<g>
											<g>
												<g>
													<g>
														<g>
															<path class="st11" d="M224.2,163.3c0,0,10.8,0.4,21.3-6.3c0,0-5.1,11.4-21.2,10.3L224.2,163.3z"/>
														</g>
													</g>
												</g>
											</g>
										</g>
									</g>
								</g>
							</g>
						</g>
					</g>
				</g>
			</g>
		</g>
	</g>
	<g>
		<path class="st11" d="M232.4,142.8c-0.3-0.5-0.7-1-1.3-1.2c-0.6-0.3-1.3-0.2-1.9,0c-0.9,0.3-1.8,0.8-2.4,1.5
			c-0.6,0.8-0.8,1.8-0.4,2.7l0,0c0.3,0.9,1.8,1.3,2.7,1.3c1,0.1,1.9-0.3,2.7-0.9c0.7-0.5,1.3-1.2,1.2-2
			C233.1,143.8,232.7,143.3,232.4,142.8z"/>
	</g>
	<g>
		<g>
			<g>
				<g>
					<g>
						<g>
							<g>
								<g>
									<g>
										<g>
											<g>
												<g>
													<g>
														<g>
															<g>
																<path class="st3" d="M231.6,139.8c-0.4,0-0.3,2.4-2.3,4.1c-2,1.8-4.6,1.6-4.6,1.9c0,0.2,0.6,0.5,1.7,0.5
																	c1.1,0,2.6-0.4,3.8-1.4c1.2-1.1,1.7-2.5,1.8-3.5C232.1,140.4,231.8,139.8,231.6,139.8z"/>
															</g>
														</g>
													</g>
												</g>
											</g>
										</g>
									</g>
								</g>
							</g>
						</g>
					</g>
				</g>
			</g>
		</g>
	</g>
	<g>
		<g>
			<g>
				<g>
					<g>
						<g>
							<g>
								<g>
									<g>
										<g>
											<g>
												<path class="st3" d="M231,115.4c0.2,0.6,2.4,0.3,5,0.5s4.7,0.9,5,0.3c0.1-0.3-0.2-0.8-1.1-1.4c-0.9-0.6-2.2-1.1-3.8-1.2
													s-3,0.2-3.9,0.6C231.3,114.6,230.9,115.1,231,115.4z"/>
											</g>
										</g>
									</g>
								</g>
							</g>
						</g>
					</g>
				</g>
			</g>
		</g>
	</g>
	<g>
		<g>
			<g>
				<g>
					<g>
						<g>
							<g>
								<g>
									<g>
										<g>
											<g>
												<path class="st3" d="M211.4,111.9c0.5,0.5,2.2-0.1,4.3-0.2s3.9,0.2,4.3-0.3c0.2-0.3-0.1-0.8-0.9-1.2
													c-0.8-0.5-2.1-0.8-3.5-0.7c-1.4,0.1-2.7,0.6-3.4,1.1C211.4,111.2,211.2,111.7,211.4,111.9z"/>
											</g>
										</g>
									</g>
								</g>
							</g>
						</g>
					</g>
				</g>
			</g>
		</g>
	</g>
	<g>
		<path class="st3" d="M260.6,101.6c-1.7-2.1-4.5-3-7.1-3.7c-11.3-3.1-22.9-4.8-34.6-5.1c-1.2,2.5,0.5,5.6,2.8,7.1s5.2,1.9,7.9,2.6
			s5.5,1.9,6.8,4.4c1.4,2.6,0.8,5.9,2.1,8.6c2.2,4.6,9,5.4,11.2,10c1.6,3.5,0,7.5-0.2,11.4c-0.1,4.4,1.9,8.7,5.4,11.4
			c2.7,2.1,6.3,3.1,9.7,2.8c-0.6-13.7-1.3-27.5-1.9-41.2C262.6,106.9,262.4,103.8,260.6,101.6z"/>
	</g>
	<g>
		<path class="st3" d="M291.7,133.2c-2.4-1.7-5.2-3.1-6.4-5.8c-1.7-3.9,1.1-9-1.4-12.4c-2.2-3.1-7.8-2.4-9.9-5.6
			c-1.7-2.5-0.3-5.1-1.1-7.3c-0.8-2.3-4.3-4-6.7-3.5l-15.8,29c-0.8,9.2-2,14.2,0.5,19.3c1.4,2.8,3.1,5.5,3.8,8.5s0.3,6.6-2,8.7
			c11.2-0.3,21.1-7.2,30.1-13.8c3.2-2.3,6.4-4.7,9.6-7c1-0.7,2-1.5,2.6-2.6C296.2,137.9,294,134.9,291.7,133.2z"/>
	</g>
	<g>
		<path class="st5" d="M282.8,147.4c0,0-0.4,0.2-1.2,0.4c-0.8,0.2-2,0.3-3.5,0.1s-3.4-0.8-5.1-2.1s-3.3-3.5-3.9-6.2
			c-0.3-1.3-0.4-2.8-0.1-4.3s0.9-2.9,1.6-4.4c0.7-1.4,1.4-2.9,1.7-4.5c0.2-1.6,0.1-3.4-1.1-4.7c-1.2-1.3-3.1-1.4-4.9-1.9
			c-0.9-0.3-1.9-0.7-2.6-1.5s-1-1.8-1.1-2.8c-0.2-2,0.5-4,0.7-5.9c0.1-1,0.1-2-0.3-2.8c-0.3-0.9-1-1.6-1.8-2.1c-1.7-1-3.8-1-5.8-0.9
			c-2,0.1-4.1-0.2-5.9-1.1c-1.8-0.9-3.3-2.2-4.4-3.9c-1-1.6-1.5-3.5-2-5.2s-0.9-3.4-1.6-4.9c-0.7-1.5-1.8-2.7-3-3.7
			c-2.5-1.9-5.4-2.8-8.1-2.7c-2.7,0.1-5,1-6.8,2.2s-3.1,2.5-4,3.7c-1.8,2.4-2.2,4.1-2.3,4.1c0,0,0-0.1,0.1-0.3
			c0.1-0.2,0.1-0.5,0.3-0.9c0.3-0.7,0.8-1.8,1.7-3.1c0.9-1.2,2.2-2.7,4-3.9c1.8-1.2,4.2-2.2,6.9-2.3c2.7-0.1,5.8,0.8,8.4,2.7
			c1.3,1,2.4,2.3,3.2,3.8c0.8,1.6,1.2,3.3,1.7,5s1,3.5,1.9,5c1,1.5,2.4,2.8,4.1,3.6c1.7,0.9,3.6,1.1,5.6,1c2,0,4.2-0.1,6.1,1
			c1,0.5,1.8,1.4,2.1,2.4c0.4,1,0.4,2.1,0.3,3.1c-0.2,2.1-0.9,3.9-0.7,5.8c0.1,0.9,0.4,1.8,0.9,2.5c0.6,0.7,1.4,1.1,2.3,1.3
			c0.9,0.3,1.8,0.4,2.7,0.7c0.9,0.3,1.8,0.7,2.5,1.4c1.3,1.5,1.5,3.5,1.2,5.2s-1.1,3.2-1.8,4.7c-0.7,1.4-1.4,2.8-1.6,4.2
			c-0.3,1.4-0.2,2.8,0,4.1c0.5,2.6,2,4.7,3.6,6c1.7,1.3,3.5,1.9,4.9,2.1C281.1,148.1,282.8,147.3,282.8,147.4z"/>
	</g>
	<g>
		<path class="st3" d="M295.7,126.7c0,0,0.3,0.2,0.5,0.9c0.2,0.6,0.3,1.6-0.2,2.8c-0.3,0.6-0.7,1.2-1.3,1.6
			c-0.6,0.5-1.4,0.8-2.3,0.9c-1.8,0.2-4-0.6-5.2-2.6c-0.6-0.9-1-2.1-1.1-3.3s0.1-2.5,0.4-3.8c0.6-2.5,2-5,1.7-7.8
			c-0.1-1.4-0.6-2.8-1.7-3.7c-1.1-0.9-2.7-1-4.2-0.8c-1.5,0.1-3.2,0.5-4.9,0c-0.8-0.2-1.6-0.8-2.2-1.5c-0.5-0.7-0.9-1.5-1.1-2.4
			c-0.4-1.7-0.1-3.4-0.1-5c0.1-1.6-0.2-3.1-0.7-4.6c-1.1-2.8-3.3-5.1-5.9-6.3c-2.6-1.2-5.4-1.1-7.9-1s-5,0.2-7.2-0.4
			s-3.9-1.6-5.3-2.6c-1.4-1.1-2.4-2.2-3.1-3.2c-1.4-2-1.7-3.4-1.7-3.4c0.1,0,0.5,1.3,1.9,3.3c0.7,1,1.7,2.1,3.1,3.1
			c1.4,1,3.1,2,5.2,2.5c2.1,0.6,4.5,0.4,7,0.3s5.4-0.3,8.2,1c2.7,1.2,5,3.6,6.2,6.6c0.6,1.5,0.9,3.2,0.8,4.8c0,1.6-0.3,3.3,0.1,4.8
			c0.3,1.6,1.3,3,2.8,3.4s3.1,0.1,4.6,0s3.3-0.1,4.6,1c1.3,1,1.8,2.7,1.9,4.1c0.1,1.5-0.2,3-0.6,4.3s-0.9,2.6-1.2,3.8
			c-0.3,1.2-0.5,2.4-0.4,3.6c0.1,1.1,0.5,2.2,1,3.1c1.1,1.8,3.1,2.6,4.8,2.5c0.8-0.1,1.6-0.3,2.2-0.8c0.6-0.4,1-1,1.2-1.5
			c0.5-1.1,0.5-2.1,0.3-2.7C295.8,127,295.6,126.7,295.7,126.7z"/>
	</g>
	<g>
		<path class="st3" d="M178.9,145.5c0.1,0-0.5,1.1,0.3,2.9c0.4,0.8,1.2,1.8,2.6,2.1c1.3,0.3,3-0.2,4-1.5c0.5-0.7,0.8-1.5,0.7-2.4
			c0-0.9-0.3-1.9-0.7-2.8c-0.8-1.8-2.2-3.8-2.3-6.2s0.8-5,2.7-6.8c0.9-0.9,2-1.7,3.3-2.2c1.2-0.5,2.6-0.8,3.9-1
			c1.3-0.2,2.6-0.4,3.8-0.8s2.2-1.1,2.8-2.2c0.6-1,0.8-2.2,0.7-3.4c0-1.2-0.3-2.3-0.6-3.4c-0.7-2.2-1.6-4.3-1.7-6.4
			c-0.1-2.1,0.5-4.1,1.4-5.6c0.9-1.6,2.2-2.6,3.3-3.4c1.1-0.9,2-1.6,2.7-2.3c1.4-1.4,1.5-2.6,1.6-2.5c0,0,0,0.1,0,0.2
			s-0.1,0.3-0.2,0.6c-0.2,0.5-0.5,1.2-1.2,1.9c-0.6,0.8-1.6,1.5-2.7,2.4c-1.1,0.9-2.3,1.9-3.1,3.4c-0.9,1.5-1.4,3.3-1.3,5.4
			c0.1,2,1,4,1.7,6.3c0.4,1.1,0.6,2.3,0.7,3.6c0,1.2-0.1,2.6-0.8,3.8c-0.7,1.2-1.9,2-3.1,2.5c-1.3,0.5-2.6,0.6-3.9,0.8
			c-1.3,0.2-2.6,0.4-3.8,0.9s-2.2,1.2-3.1,2c-1.8,1.7-2.7,4.1-2.6,6.3c0,2.3,1.4,4.1,2.2,6c0.4,1,0.7,2,0.7,3s-0.3,2-0.9,2.7
			c-1.2,1.5-3,2-4.4,1.6c-1.5-0.4-2.3-1.5-2.7-2.4s-0.4-1.7-0.3-2.3C178.7,145.8,178.9,145.5,178.9,145.5z"/>
	</g>
</g>
<g>
	<g>
		<path class="st9" d="M284.8,175.1l-23.3-4.6c0,0-9.6,13.9-24.5,12.7c-8.7-0.7-12.4-9-12.4-9l-24.6,6.9l-0.4,49.7l5.6,27l-14.9,45
			c0,0,39.9,25.4,104.7-0.8l-11.3-27.4l3.1-16.2c0,0,4.1-30.5,2.5-40s-4.6-20.7-4.6-20.7L284.8,175.1z"/>
	</g>
</g>
<g>
	<g>
		<path class="st3" d="M220,253.8c0,0,0.5,0.5,1.6,1.2c1,0.7,2.6,1.7,4.5,2.8c3.9,2.2,9.5,5,15.9,7.2c6.5,2.2,12.6,3.4,17,4
			c2.2,0.3,4,0.5,5.3,0.5c1.3,0.1,1.9,0.1,1.9,0s-0.7-0.2-1.9-0.3c-1.2-0.1-3-0.4-5.2-0.8c-4.4-0.7-10.4-2-16.9-4.2
			c-6.4-2.2-12-4.8-15.9-7c-2-1.1-3.5-1.9-4.6-2.6C220.6,254,220,253.7,220,253.8z"/>
	</g>
</g>
<g class="st12">
	<g>
		<path d="M199.2,276.3c3.3,0.8,7.4-0.8,9.4-3.5s2.9-6,3.8-9.3c1.9-7.5,3.9-14.9,5.8-22.4c11.1-6.2,24.4-8.4,36.9-6.1
			c1.9,0.4,3.9,0.8,5.4,2c2.1,1.6,3.2,4.3,4.1,6.8c2.2,6.2,4.3,12.5,8.1,17.8c3.8,5.3,5.3,9.3,11.8,9.6l5.5-26.3l-18.5-23.3
			l-46.7,1.6l-17,11.1l-5.8,33.5L199.2,276.3z"/>
	</g>
</g>
<g>
	<path class="st9" d="M282.1,175c0,0,10.8-1.2,18.2,11.8c5.4,9.6,12.1,28.8,12.1,28.8l-25.7,7.1l-5.6-25.1L282.1,175z"/>
</g>
<g>
	<path class="st9" d="M200.1,181.1c0,0-7.9,1.4-12.4,8.1c-4.5,6.6-12.2,30-12.2,30l27,2.9l2.5-26.8L200.1,181.1z"/>
</g>
<g>
	<g>
		<path class="st3" d="M289.2,201.2c-0.1,0-0.3,1.2-0.6,3.3c-0.4,2.3-0.8,4.9-1.2,7.9c-0.5,2.9-0.9,5.6-1.3,7.9
			c-0.3,2-0.5,3.3-0.4,3.3s0.5-1.2,0.9-3.2c0.5-2,1-4.8,1.5-7.8c0.5-3.1,0.8-5.9,1-7.9C289.3,202.4,289.3,201.2,289.2,201.2z"/>
	</g>
</g>
<g>
	<g>
		<path class="st3" d="M201.3,201.4c-0.2,0-0.6,5.7-0.9,12.8c-0.3,7.1-0.4,12.8-0.2,12.8s0.6-5.7,0.9-12.8
			C201.4,207.1,201.5,201.4,201.3,201.4z"/>
	</g>
</g>
<g>
	<g>
		<g>
			<g>
				<g>
					<path class="st3" d="M249.8,176l4.9,38.5c0.2,1.3-0.8,2.5-2.1,2.7l-24.7,3.5c-1.4,0.2-2.6-0.7-2.9-2l-6.5-40.2
						c-0.2-1.4,0.8-2.7,2.3-2.8l26.3-1.9C248.5,173.8,249.7,174.7,249.8,176z"/>
				</g>
			</g>
		</g>
	</g>
	<g>
		<g>
			<g>
				<g>
					<path class="st10" d="M239.3,197.1c0.7,0,15.4,1.9,15.4,1.9l21.2,9.7l10.7,14l-9.7,19.1l-6.3-15.9c0,0-5,1.9-9.5,1.7
						s-18.7-0.7-18.7-0.7l-7.5-3.6c0,0-2.5-3.6-2.5-4.6s1-2.3,2.5-1.5s11.8,0.6,14.3-0.6c0,0-15-0.4-17-2.7s-1.4-4.1,0.9-4.2
						c2.3-0.1,10.9,0.8,13.5,0.5c2.5-0.3,5.7-0.4,6.3-1.7s-1.4-2.2-1.4-2.2l-2.9-1.9c0,0-10.9-1.4-11.7-3.6
						C236.4,198.4,238.3,197,239.3,197.1z"/>
				</g>
			</g>
		</g>
	</g>
	<g>
		<g>
			<g>
				<g>
					<path class="st10" d="M234.3,196.5c0,0-12.4,2.4-13.1,3.2c-0.8,0.8-15.7,19.9-15.7,19.9l-3.7,3.7l10.3,12.4l1.9-1.2
						c0,0,12.3-7.1,13.7-7.9c1.4-0.8,4.4-1.6,4.4-1.6s14.1-2.7,14.9-4.4c0.9-1.7,0.3-2-0.7-2.2c-1.1-0.2-9.5,1.1-11.4,1.5
						s-5.6,0.2-5.6,0.2s5.8-1.6,7.1-2.1s14.4-3.9,14.1-6.1c-0.3-2.3-2-3-10.1-0.5c-8.2,2.5-13.8,2.7-13.8,2.7l18-6.9
						c0,0,7.3-2.6,4.8-4.5c-2.4-1.9-18,2.9-18,2.9l-6.8,2.8l1.8-4.1c0,0,9.8-3.2,11-4.2c1.5-1.2,1.7-2.3,0.5-3.3
						C236.7,195.9,234.3,196.5,234.3,196.5z"/>
				</g>
			</g>
		</g>
	</g>
	<g>
		<g>
			<g>
				<g>
					<path class="st10" d="M177.8,219.4l22,2.4v5l3.2-4.7l9.2,13.6c0,0-2.7,9.6-4.1,15c-3.9,14.3-10.4,30.3-19.3,29.9
						c-10.6-0.5-16.2-11.4-16.3-19.2C172.2,254.3,177.8,219.4,177.8,219.4z"/>
				</g>
			</g>
		</g>
	</g>
	<g>
		<g>
			<g>
				<g>
					<path class="st10" d="M310.9,216l-18.5,5.3l-5.7,1.4l-5.5-7.3l-7.8,16.4c0,0,3.4,9.4,5.3,14.6c5,13.9,12.8,29.4,21.6,28.3
						c10.6-1.4,17.9-13.8,17.4-21.6C317.1,245.9,310.9,216,310.9,216z"/>
				</g>
			</g>
		</g>
	</g>
	<g>
		<g>
			<g>
				<g>
					<g>
						<path class="st11" d="M205.5,219.7c0,0,0.1-0.2,0.4-0.6c0.3-0.4,0.7-0.9,1.2-1.6c1.1-1.4,2.7-3.5,4.7-6.1
							c2.1-2.6,4.6-5.9,7.5-9.6c0.4-0.5,0.7-0.9,1.1-1.4c0.2-0.2,0.4-0.5,0.6-0.7c0.3-0.3,0.6-0.3,0.9-0.5c1.2-0.4,2.5-0.7,3.9-1
							c2.7-0.6,5.5-1.2,8.5-1.8l0,0c0.7-0.2,1.5-0.3,2.3-0.2c0.4,0,0.8,0.1,1.2,0.3s0.7,0.5,0.9,0.8c0.2,0.4,0.3,0.8,0.2,1.2
							s-0.4,0.8-0.7,1.1s-0.6,0.6-1,0.8s-0.7,0.4-1.1,0.5c-3,1.3-6.3,2.4-9.6,3.5l0.1-0.1c-0.6,1.3-1.2,2.7-1.8,4.1l-0.3-0.3
							c2.1-0.9,4.5-1.8,6.9-2.8l0,0c2.9-0.9,6-1.7,9.1-2.4c1.6-0.3,3.2-0.6,4.8-0.8c0.8-0.1,1.7-0.1,2.5-0.1c0.4,0,0.9,0.1,1.3,0.2
							c0.4,0.2,0.8,0.5,1,1s-0.1,1-0.4,1.3c-0.3,0.3-0.6,0.6-1,0.9c-0.7,0.5-1.5,0.9-2.2,1.2c-1.6,0.7-3.2,1.2-4.8,1.9
							c-3.2,1.2-6.5,2.5-9.7,3.7c-1.8,0.7-3.5,1.3-5.3,2l-0.1-0.5c4.4-0.3,8.7-1.2,12.8-2.4c2.1-0.6,4.1-1.2,6.2-1.6
							c1-0.2,2.1-0.3,3.2-0.1c0.5,0.1,1.1,0.3,1.5,0.8s0.5,1,0.5,1.5c0,0.4-0.2,0.6-0.4,0.8s-0.4,0.4-0.6,0.5
							c-0.4,0.3-0.9,0.6-1.3,0.8c-0.9,0.5-1.8,0.8-2.8,1.2c-1.9,0.7-3.7,1.3-5.6,1.9c-0.9,0.3-1.8,0.5-2.8,0.8
							c-0.9,0.3-1.8,0.6-2.7,0.8c-1.8,0.5-3.6,1-5.3,1.5v-0.4c2.1,0.1,4.2,0.1,6.1-0.3c2-0.4,4-0.6,5.9-0.9c1-0.1,1.9-0.2,2.9-0.3
							c0.5,0,0.9-0.1,1.4-0.1c0.2,0,0.5,0,0.7,0s0.5,0.1,0.7,0.2c0.2,0.1,0.5,0.3,0.6,0.6s0.1,0.5,0,0.7s-0.1,0.4-0.2,0.6l-0.1,0.3
							c-0.1,0.1-0.1,0.2-0.2,0.3c-0.8,0.6-1.6,0.8-2.4,1.2c-3.3,1.1-6.4,1.8-9.4,2.4c-0.7,0.2-1.4,0.3-2.2,0.4
							c-0.7,0.1-1.4,0.3-2,0.5c-1.3,0.4-2.5,0.8-3.6,1.4c-4.3,2.4-7.6,4.3-9.9,5.6c-1.1,0.6-2,1.1-2.6,1.5c-0.3,0.2-0.5,0.3-0.7,0.4
							c-0.2,0.1-0.2,0.1-0.2,0.1s0.1-0.1,0.2-0.1c0.2-0.1,0.4-0.2,0.7-0.4c0.6-0.4,1.5-0.9,2.6-1.5c2.3-1.3,5.6-3.3,9.9-5.7
							c2.2-1.3,4.9-1.8,7.8-2.4c2.9-0.6,6.1-1.3,9.3-2.4c0.8-0.3,1.7-0.6,2.3-1.1c0.1-0.1,0.1-0.1,0.2-0.2l0.1-0.3
							c0.1-0.2,0.2-0.4,0.2-0.6c0.1-0.4,0-0.7-0.4-0.9c-0.2-0.1-0.4-0.1-0.6-0.2c-0.2,0-0.4,0-0.6,0c-0.5,0-0.9,0.1-1.4,0.1
							c-0.9,0.1-1.9,0.2-2.8,0.3c-1.9,0.3-3.9,0.6-5.9,0.9c-2,0.5-4.1,0.4-6.3,0.3c-0.1,0-0.2-0.1-0.2-0.2c0-0.1,0.1-0.2,0.2-0.2
							l0,0c1.7-0.5,3.5-0.9,5.3-1.5c0.9-0.2,1.8-0.6,2.7-0.9c0.9-0.3,1.8-0.5,2.7-0.8c1.8-0.6,3.7-1.2,5.6-1.9
							c0.9-0.4,1.8-0.7,2.7-1.2c0.4-0.2,0.9-0.5,1.3-0.7c0.4-0.3,0.8-0.6,0.8-1s-0.2-0.9-0.4-1.2c-0.3-0.3-0.7-0.5-1.2-0.6
							c-1-0.2-2,0-3,0.1c-2,0.4-4.1,1-6.1,1.6c-4.1,1.2-8.4,2.1-12.9,2.4c-0.1,0-0.3-0.1-0.3-0.2c0-0.1,0.1-0.2,0.2-0.2l0,0
							c1.7-0.7,3.5-1.3,5.3-2c3.3-1.2,6.5-2.5,9.8-3.7c1.6-0.6,3.2-1.2,4.7-1.9c0.8-0.3,1.5-0.7,2.2-1.2c0.3-0.2,0.6-0.5,0.9-0.8
							c0.2-0.3,0.4-0.6,0.3-0.9c-0.2-0.6-1.1-0.8-1.9-0.9c-0.8,0-1.6,0-2.4,0.1c-1.6,0.2-3.2,0.5-4.8,0.8c-3.1,0.7-6.2,1.5-9.1,2.4
							l0,0c-2.4,1-4.7,1.9-6.9,2.8c-0.1,0-0.3,0-0.3-0.1s0-0.1,0-0.2c0.6-1.4,1.3-2.8,1.8-4.1c0-0.1,0.1-0.1,0.1-0.1
							c3.4-1.1,6.6-2.2,9.6-3.5c0.4-0.2,0.7-0.3,1.1-0.5c0.3-0.2,0.6-0.5,0.9-0.7c0.5-0.5,0.8-1.3,0.4-1.8c-0.4-0.6-1-0.9-1.8-1
							c-0.7-0.1-1.5,0-2.2,0.2l0,0l0,0c-3,0.6-5.8,1.2-8.5,1.8c-1.3,0.3-2.6,0.6-3.8,1c-0.3,0.1-0.6,0.2-0.8,0.4s-0.4,0.5-0.6,0.7
							c-0.4,0.5-0.8,0.9-1.1,1.4c-2.9,3.7-5.5,6.9-7.6,9.5s-3.7,4.6-4.8,6c-0.5,0.7-1,1.2-1.3,1.6
							C205.6,219.5,205.5,219.7,205.5,219.7z"/>
					</g>
				</g>
			</g>
		</g>
	</g>
	<g>
		<g>
			<g>
				<g>
					<path class="st11" d="M202.4,223.1c0.2,0.1-6,8.1-13.7,17.9c-7.7,9.8-14.1,17.6-14.3,17.5s6-8.1,13.7-17.9
						C195.9,230.8,202.3,223,202.4,223.1z"/>
				</g>
			</g>
		</g>
	</g>
	<g>
		<g>
			<g>
				<g>
					<path class="st11" d="M305.5,247.3c-0.1,0-0.9-1.7-2.5-4.3s-4.1-6-7.2-9.6c-3-3.6-5.9-6.8-7.9-9.2c-1-1.2-1.8-2.2-2.3-2.8
						c-0.5-0.7-0.8-1.1-0.8-1.1s0.4,0.3,1,1c0.7,0.7,1.5,1.6,2.5,2.7c2.1,2.3,5,5.4,8.1,9s5.5,7.1,7.1,9.8c0.8,1.3,1.3,2.5,1.7,3.2
						C305.4,246.8,305.5,247.3,305.5,247.3z"/>
				</g>
			</g>
		</g>
	</g>
</g>
<g>
	<path class="st4" d="M95.5,346.5v-7.2h3.3c0.3,0,0.7,0.1,0.9,0.2c0.3,0.1,0.5,0.3,0.7,0.6c0.2,0.2,0.4,0.5,0.5,0.8
		c0.1,0.3,0.2,0.6,0.2,0.9c0,0.3,0,0.6-0.1,0.9c-0.1,0.3-0.2,0.5-0.4,0.7c-0.2,0.2-0.4,0.4-0.6,0.5l1.6,2.7h-1.8l-1.4-2.3h-1.1v2.3
		H95.5z M97.2,342.7h1.5c0.1,0,0.3,0,0.4-0.1c0.1-0.1,0.2-0.2,0.3-0.4c0.1-0.1,0.1-0.3,0.1-0.5c0-0.2,0-0.4-0.1-0.5
		c-0.1-0.1-0.2-0.3-0.3-0.3c-0.1-0.1-0.2-0.1-0.4-0.1h-1.5V342.7z"/>
	<path class="st4" d="M104.5,346.6c-0.5,0-0.9-0.1-1.2-0.2c-0.4-0.1-0.7-0.3-0.9-0.6c-0.2-0.2-0.4-0.5-0.6-0.9
		c-0.1-0.3-0.2-0.7-0.2-1c0-0.5,0.1-1,0.3-1.4c0.2-0.4,0.6-0.8,1-1c0.4-0.3,0.9-0.4,1.6-0.4c0.6,0,1.1,0.1,1.5,0.4
		c0.4,0.3,0.7,0.6,1,1c0.2,0.4,0.3,0.9,0.3,1.3c0,0.1,0,0.2,0,0.3c0,0.1,0,0.2,0,0.2h-4c0,0.2,0.1,0.4,0.2,0.6
		c0.1,0.2,0.3,0.3,0.4,0.4c0.2,0.1,0.4,0.1,0.6,0.1c0.2,0,0.5-0.1,0.7-0.2c0.2-0.1,0.4-0.3,0.4-0.5l1.4,0.4
		c-0.1,0.3-0.3,0.5-0.6,0.7c-0.2,0.2-0.5,0.4-0.9,0.5C105.2,346.6,104.9,346.6,104.5,346.6z M103.3,343.4h2.3c0-0.2-0.1-0.4-0.2-0.6
		c-0.1-0.2-0.2-0.3-0.4-0.4c-0.2-0.1-0.4-0.1-0.6-0.1c-0.2,0-0.4,0-0.6,0.1c-0.2,0.1-0.3,0.2-0.4,0.4
		C103.4,343,103.3,343.2,103.3,343.4z"/>
	<path class="st4" d="M116.4,346.5h-1.6v-2.9c0-0.3-0.1-0.6-0.2-0.7c-0.1-0.2-0.3-0.2-0.5-0.2c-0.2,0-0.4,0.1-0.6,0.3
		c-0.2,0.2-0.4,0.4-0.4,0.7v3h-1.6v-2.9c0-0.3-0.1-0.6-0.2-0.8c-0.1-0.2-0.3-0.2-0.5-0.2c-0.2,0-0.4,0.1-0.6,0.3
		c-0.2,0.2-0.4,0.4-0.5,0.7v3h-1.6v-5.3h1.5v0.9c0.2-0.3,0.5-0.6,0.8-0.7c0.3-0.2,0.7-0.3,1.2-0.3c0.4,0,0.8,0.1,1,0.3
		c0.2,0.2,0.4,0.4,0.5,0.7c0.2-0.3,0.5-0.6,0.8-0.8c0.3-0.2,0.7-0.3,1.1-0.3c0.3,0,0.6,0.1,0.8,0.2c0.2,0.1,0.4,0.3,0.5,0.5
		c0.1,0.2,0.2,0.4,0.2,0.6c0,0.2,0.1,0.5,0.1,0.7V346.5z"/>
	<path class="st4" d="M119.8,346.6c-0.5,0-0.9-0.1-1.2-0.2c-0.4-0.1-0.7-0.3-0.9-0.6c-0.2-0.2-0.4-0.5-0.6-0.9
		c-0.1-0.3-0.2-0.7-0.2-1c0-0.5,0.1-1,0.3-1.4c0.2-0.4,0.6-0.8,1-1c0.4-0.3,0.9-0.4,1.6-0.4c0.6,0,1.1,0.1,1.5,0.4
		c0.4,0.3,0.7,0.6,1,1c0.2,0.4,0.3,0.9,0.3,1.3c0,0.1,0,0.2,0,0.3c0,0.1,0,0.2,0,0.2h-4c0,0.2,0.1,0.4,0.2,0.6
		c0.1,0.2,0.3,0.3,0.4,0.4c0.2,0.1,0.4,0.1,0.6,0.1c0.2,0,0.5-0.1,0.7-0.2c0.2-0.1,0.4-0.3,0.4-0.5l1.4,0.4
		c-0.1,0.3-0.3,0.5-0.6,0.7c-0.2,0.2-0.5,0.4-0.9,0.5C120.6,346.6,120.2,346.6,119.8,346.6z M118.6,343.4h2.3c0-0.2-0.1-0.4-0.2-0.6
		c-0.1-0.2-0.2-0.3-0.4-0.4c-0.2-0.1-0.4-0.1-0.6-0.1c-0.2,0-0.4,0-0.6,0.1c-0.2,0.1-0.3,0.2-0.4,0.4
		C118.7,343,118.7,343.2,118.6,343.4z"/>
	<path class="st4" d="M123,343.9c0-0.5,0.1-1,0.3-1.4c0.2-0.4,0.5-0.7,0.8-1c0.4-0.2,0.8-0.4,1.2-0.4c0.4,0,0.7,0.1,1,0.3
		c0.3,0.2,0.5,0.4,0.7,0.7v-3h1.6v5.6c0,0.2,0,0.3,0.1,0.3c0.1,0.1,0.1,0.1,0.3,0.1v1.4c-0.3,0.1-0.5,0.1-0.7,0.1
		c-0.3,0-0.5-0.1-0.7-0.2s-0.3-0.3-0.3-0.5l0-0.3c-0.2,0.3-0.4,0.6-0.8,0.7c-0.3,0.2-0.7,0.2-1,0.2c-0.4,0-0.7-0.1-1-0.2
		c-0.3-0.1-0.6-0.3-0.8-0.6c-0.2-0.2-0.4-0.5-0.5-0.9C123,344.6,123,344.3,123,343.9z M127.1,344.5v-1.1c-0.1-0.2-0.2-0.3-0.3-0.5
		c-0.1-0.1-0.3-0.2-0.4-0.3c-0.2-0.1-0.3-0.1-0.5-0.1c-0.2,0-0.3,0-0.5,0.1c-0.1,0.1-0.3,0.2-0.4,0.3c-0.1,0.1-0.2,0.3-0.2,0.4
		c-0.1,0.2-0.1,0.3-0.1,0.5c0,0.2,0,0.4,0.1,0.5c0.1,0.2,0.2,0.3,0.3,0.4c0.1,0.1,0.3,0.2,0.4,0.3c0.2,0.1,0.3,0.1,0.5,0.1
		c0.1,0,0.2,0,0.3-0.1c0.1,0,0.2-0.1,0.3-0.1c0.1-0.1,0.2-0.1,0.3-0.2C126.9,344.7,127,344.6,127.1,344.5z"/>
	<path class="st4" d="M129.8,340.6v-1.5h1.6v1.5H129.8z M129.8,346.5v-5.4h1.6v5.4H129.8z"/>
	<path class="st4" d="M132.3,344.6v-3.4h1.6v3c0,0.3,0.1,0.6,0.2,0.7c0.1,0.2,0.3,0.3,0.6,0.3c0.1,0,0.3,0,0.4-0.1
		c0.1,0,0.3-0.1,0.4-0.2c0.1-0.1,0.2-0.3,0.3-0.4v-3.3h1.6v3.5c0,0.2,0,0.3,0.1,0.3c0.1,0.1,0.1,0.1,0.3,0.1v1.4
		c-0.1,0-0.3,0-0.4,0.1c-0.1,0-0.2,0-0.3,0c-0.3,0-0.5-0.1-0.7-0.2c-0.2-0.1-0.3-0.3-0.3-0.5l0-0.3c-0.2,0.3-0.5,0.6-0.9,0.8
		c-0.4,0.2-0.8,0.2-1.2,0.2c-0.5,0-1-0.2-1.2-0.5C132.5,345.8,132.3,345.3,132.3,344.6z"/>
	<path class="st4" d="M140.6,346.6c-0.5,0-0.9-0.1-1.3-0.2c-0.4-0.1-0.8-0.4-1.1-0.7l0.6-1c0.3,0.2,0.6,0.4,1,0.5
		c0.3,0.1,0.6,0.2,0.9,0.2c0.2,0,0.4,0,0.5-0.1c0.1-0.1,0.2-0.2,0.2-0.3c0-0.1,0-0.2-0.1-0.2c-0.1-0.1-0.2-0.1-0.3-0.2
		c-0.1,0-0.3-0.1-0.5-0.2c-0.4-0.1-0.7-0.3-1-0.4c-0.3-0.1-0.5-0.3-0.6-0.5c-0.1-0.2-0.2-0.4-0.2-0.7c0-0.4,0.1-0.7,0.3-0.9
		c0.2-0.3,0.4-0.5,0.8-0.6c0.3-0.1,0.7-0.2,1.2-0.2c0.4,0,0.7,0.1,1.1,0.2c0.4,0.1,0.7,0.3,1,0.6l-0.6,1c-0.3-0.2-0.6-0.4-0.8-0.5
		c-0.2-0.1-0.5-0.1-0.7-0.1c-0.1,0-0.2,0-0.3,0c-0.1,0-0.2,0.1-0.2,0.1c-0.1,0.1-0.1,0.1-0.1,0.2s0,0.2,0.1,0.2
		c0.1,0.1,0.1,0.1,0.3,0.2c0.1,0,0.3,0.1,0.5,0.2c0.4,0.1,0.8,0.3,1.1,0.4c0.3,0.1,0.5,0.3,0.7,0.5c0.1,0.2,0.2,0.4,0.2,0.8
		c0,0.5-0.2,1-0.6,1.3C141.9,346.5,141.3,346.6,140.6,346.6z"/>
</g>
<g>
	<path class="st9" d="M150.8,340.9c-0.1-0.1-0.2-0.1-0.4-0.1H149v2h1.6c0.1,0,0.3,0,0.4-0.1c0.1-0.1,0.2-0.2,0.3-0.4
		c0.1-0.2,0.1-0.3,0.1-0.5c0-0.2,0-0.4-0.1-0.5C151.1,341.1,151,341,150.8,340.9z"/>
	<path class="st9" d="M161,341.9c-0.6-4.1-4.4-7.2-8.7-7.1c-4.1,0.2-7.7,3.6-7.9,7.7c-0.1,2.9,0,5.9,0,8.8c0.2,0.2,0.5,0.1,0.8,0.1
		c2.7,0,5.4,0,8.1,0c0.3,0,0.5,0,0.8-0.1C158.6,350.5,161.6,346.4,161,341.9z M151.5,346.6l-1.4-2.4H149v2.4h-1.7v-7.4h3.3
		c0.3,0,0.7,0.1,1,0.2c0.3,0.1,0.5,0.3,0.8,0.6c0.2,0.2,0.4,0.5,0.5,0.8c0.1,0.3,0.2,0.6,0.2,0.9c0,0.3,0,0.6-0.1,0.9
		c-0.1,0.3-0.2,0.5-0.4,0.7c-0.2,0.2-0.4,0.4-0.6,0.5l1.6,2.7H151.5z M157.4,346.6l-1-1.5l-0.1-0.2l-0.1,0.2l-1,1.5h-1.7l1.9-2.7
		l-1.8-2.7h1.7l1,1.5l0.1,0.2l0.1-0.2l1-1.5h1.7l-1.8,2.7l1.9,2.7H157.4z"/>
</g>
<g>
	<path class="st4" d="M116.6,349.8v-0.4h0.3v0.4H116.6z"/>
	<path class="st4" d="M117.3,349.8v-0.4h0.3v0.4H117.3z"/>
	<path class="st4" d="M117.9,349.8v-0.4h0.3v0.4H117.9z"/>
	<path class="st4" d="M119.2,349.8c-0.1,0-0.2,0-0.3-0.1c-0.1,0-0.2-0.1-0.3-0.2c-0.1-0.1-0.1-0.2-0.2-0.3c0-0.1-0.1-0.2-0.1-0.3
		c0-0.1,0-0.2,0.1-0.3c0-0.1,0.1-0.2,0.2-0.3c0.1-0.1,0.2-0.1,0.3-0.2c0.1,0,0.2-0.1,0.3-0.1s0.2,0,0.3,0.1c0.1,0,0.2,0.1,0.3,0.2
		c0.1,0.1,0.1,0.2,0.2,0.3c0,0.1,0.1,0.2,0.1,0.3c0,0.1,0,0.2-0.1,0.3c0,0.1-0.1,0.2-0.2,0.3c-0.1,0.1-0.2,0.1-0.3,0.2
		C119.4,349.8,119.3,349.8,119.2,349.8z M118.7,349c0,0.1,0,0.2,0.1,0.3c0,0.1,0.1,0.1,0.2,0.2c0.1,0,0.2,0.1,0.2,0.1
		c0.1,0,0.2,0,0.2-0.1c0.1,0,0.1-0.1,0.2-0.2c0-0.1,0.1-0.2,0.1-0.3c0-0.1,0-0.2-0.1-0.3c0-0.1-0.1-0.1-0.2-0.2
		c-0.1,0-0.2-0.1-0.2-0.1c-0.1,0-0.2,0-0.2,0.1c-0.1,0-0.1,0.1-0.2,0.2C118.7,348.8,118.7,348.9,118.7,349z"/>
	<path class="st4" d="M121.8,349.8h-0.3v-0.9c0-0.2,0-0.3-0.1-0.3c0-0.1-0.1-0.1-0.2-0.1c-0.1,0-0.1,0-0.2,0c-0.1,0-0.1,0.1-0.2,0.1
		c-0.1,0.1-0.1,0.1-0.1,0.2v1h-0.3v-1.6h0.3v0.3c0-0.1,0.1-0.1,0.2-0.2c0.1-0.1,0.1-0.1,0.2-0.1c0.1,0,0.2,0,0.3,0
		c0.1,0,0.2,0,0.2,0.1c0.1,0,0.1,0.1,0.2,0.1c0,0.1,0.1,0.1,0.1,0.2c0,0.1,0,0.2,0,0.3V349.8z"/>
	<path class="st4" d="M122.1,347.5h0.3v1.8c0,0.1,0,0.1,0,0.2c0,0,0.1,0,0.1,0c0,0,0.1,0,0.1,0c0,0,0.1,0,0.1,0l0.1,0.3
		c-0.1,0-0.1,0-0.2,0.1c-0.1,0-0.1,0-0.2,0c-0.1,0-0.2,0-0.3-0.1c-0.1-0.1-0.1-0.2-0.1-0.3V347.5z"/>
	<path class="st4" d="M123,347.9v-0.4h0.3v0.4H123z M123,349.8v-1.6h0.3v1.6H123z"/>
	<path class="st4" d="M125.2,349.8h-0.3v-0.9c0-0.2,0-0.3-0.1-0.3c0-0.1-0.1-0.1-0.2-0.1c-0.1,0-0.1,0-0.2,0c-0.1,0-0.1,0.1-0.2,0.1
		c-0.1,0.1-0.1,0.1-0.1,0.2v1h-0.3v-1.6h0.3v0.3c0-0.1,0.1-0.1,0.2-0.2c0.1-0.1,0.1-0.1,0.2-0.1c0.1,0,0.2,0,0.3,0
		c0.1,0,0.2,0,0.2,0.1c0.1,0,0.1,0.1,0.2,0.1c0,0.1,0.1,0.1,0.1,0.2c0,0.1,0,0.2,0,0.3V349.8z"/>
	<path class="st4" d="M126.3,349.8c-0.1,0-0.2,0-0.3-0.1c-0.1,0-0.2-0.1-0.3-0.2c-0.1-0.1-0.1-0.2-0.2-0.3s-0.1-0.2-0.1-0.3
		c0-0.2,0-0.3,0.1-0.4c0.1-0.1,0.2-0.2,0.3-0.3c0.1-0.1,0.3-0.1,0.4-0.1c0.2,0,0.3,0,0.4,0.1c0.1,0.1,0.2,0.2,0.3,0.3
		c0.1,0.1,0.1,0.3,0.1,0.4c0,0,0,0,0,0.1c0,0,0,0,0,0.1h-1.3c0,0.1,0,0.2,0.1,0.2c0,0.1,0.1,0.1,0.2,0.2c0.1,0,0.2,0.1,0.2,0.1
		c0.1,0,0.2,0,0.3-0.1c0.1,0,0.1-0.1,0.2-0.2l0.3,0.1c0,0.1-0.1,0.2-0.2,0.2c-0.1,0.1-0.2,0.1-0.3,0.2
		C126.5,349.8,126.4,349.8,126.3,349.8z M125.8,348.9h1c0-0.1,0-0.2-0.1-0.2c0-0.1-0.1-0.1-0.2-0.2c-0.1,0-0.2-0.1-0.2-0.1
		c-0.1,0-0.2,0-0.2,0.1c-0.1,0-0.1,0.1-0.2,0.2C125.8,348.7,125.8,348.8,125.8,348.9z"/>
	<path class="st4" d="M129,349.8c-0.1,0-0.2,0-0.3-0.1c-0.1-0.1-0.2-0.1-0.2-0.2v1h-0.3v-2.3h0.3v0.3c0.1-0.1,0.1-0.2,0.2-0.2
		s0.2-0.1,0.3-0.1c0.1,0,0.2,0,0.3,0.1c0.1,0,0.2,0.1,0.2,0.2c0.1,0.1,0.1,0.2,0.2,0.3c0,0.1,0.1,0.2,0.1,0.3c0,0.2,0,0.3-0.1,0.4
		c-0.1,0.1-0.1,0.2-0.3,0.3C129.3,349.8,129.2,349.8,129,349.8z M128.9,349.6c0.1,0,0.1,0,0.2,0c0.1,0,0.1-0.1,0.2-0.1
		c0-0.1,0.1-0.1,0.1-0.2c0-0.1,0-0.1,0-0.2c0-0.1,0-0.1,0-0.2s-0.1-0.1-0.1-0.2c0,0-0.1-0.1-0.2-0.1c-0.1,0-0.1,0-0.2,0
		c0,0-0.1,0-0.1,0c0,0-0.1,0-0.1,0.1c0,0-0.1,0.1-0.1,0.1c0,0-0.1,0.1-0.1,0.1v0.4c0,0.1,0.1,0.1,0.1,0.2c0,0.1,0.1,0.1,0.2,0.1
		C128.8,349.5,128.8,349.6,128.9,349.6z"/>
	<path class="st4" d="M131.5,349.8h-0.3v-0.9c0-0.1,0-0.3-0.1-0.3c-0.1-0.1-0.1-0.1-0.2-0.1c-0.1,0-0.1,0-0.2,0s-0.1,0.1-0.2,0.1
		c-0.1,0.1-0.1,0.1-0.1,0.2v1H130v-2.3h0.3v1c0.1-0.1,0.1-0.2,0.3-0.3c0.1-0.1,0.2-0.1,0.4-0.1c0.1,0,0.2,0,0.3,0.1
		c0.1,0,0.1,0.1,0.2,0.1c0,0.1,0.1,0.1,0.1,0.2c0,0.1,0,0.2,0,0.3V349.8z"/>
	<path class="st4" d="M131.7,349.3c0-0.1,0-0.2,0.1-0.3c0.1-0.1,0.1-0.1,0.2-0.2c0.1,0,0.2-0.1,0.4-0.1c0.1,0,0.1,0,0.2,0
		c0.1,0,0.1,0,0.2,0.1v-0.1c0-0.1,0-0.2-0.1-0.3c-0.1-0.1-0.2-0.1-0.3-0.1c-0.1,0-0.2,0-0.3,0c-0.1,0-0.2,0.1-0.3,0.1l-0.1-0.2
		c0.1-0.1,0.2-0.1,0.3-0.2c0.1,0,0.2-0.1,0.3-0.1c0.2,0,0.4,0.1,0.5,0.2c0.1,0.1,0.2,0.3,0.2,0.5v0.6c0,0,0,0.1,0,0.1c0,0,0,0,0.1,0
		v0.3c0,0-0.1,0-0.1,0c0,0,0,0-0.1,0c-0.1,0-0.1,0-0.2-0.1c0,0-0.1-0.1-0.1-0.1l0-0.1c-0.1,0.1-0.2,0.2-0.3,0.2
		c-0.1,0.1-0.2,0.1-0.3,0.1c-0.1,0-0.2,0-0.3-0.1c-0.1,0-0.2-0.1-0.2-0.2C131.7,349.5,131.7,349.4,131.7,349.3z M132.8,349.4
		C132.8,349.4,132.8,349.4,132.8,349.4c0.1-0.1,0.1-0.1,0.1-0.2v-0.2c-0.1,0-0.1,0-0.2-0.1c-0.1,0-0.1,0-0.2,0c-0.1,0-0.2,0-0.3,0.1
		c-0.1,0-0.1,0.1-0.1,0.2c0,0,0,0.1,0,0.1c0,0,0.1,0.1,0.1,0.1c0,0,0.1,0,0.2,0c0.1,0,0.1,0,0.2,0
		C132.7,349.5,132.7,349.5,132.8,349.4z"/>
	<path class="st4" d="M134.5,348.5c-0.1,0-0.3,0-0.4,0.1c-0.1,0.1-0.2,0.1-0.2,0.2v1h-0.3v-1.6h0.3v0.4c0.1-0.1,0.1-0.2,0.2-0.3
		c0.1-0.1,0.2-0.1,0.3-0.1c0,0,0,0,0.1,0c0,0,0,0,0,0V348.5z"/>
	<path class="st4" d="M137.2,349.8h-0.3v-0.9c0-0.2,0-0.3-0.1-0.3c-0.1-0.1-0.1-0.1-0.2-0.1c-0.1,0-0.2,0-0.3,0.1
		c-0.1,0.1-0.1,0.2-0.2,0.3v1h-0.3v-0.9c0-0.2,0-0.3-0.1-0.3c-0.1-0.1-0.1-0.1-0.2-0.1c-0.1,0-0.2,0-0.3,0.1
		c-0.1,0.1-0.1,0.2-0.2,0.3v1h-0.3v-1.6h0.3v0.3c0.1-0.1,0.2-0.2,0.3-0.3c0.1-0.1,0.2-0.1,0.4-0.1c0.1,0,0.2,0,0.3,0.1
		c0.1,0.1,0.1,0.2,0.1,0.3c0.1-0.1,0.2-0.2,0.3-0.3c0.1-0.1,0.2-0.1,0.4-0.1c0.1,0,0.2,0,0.2,0.1c0.1,0,0.1,0.1,0.2,0.1
		c0,0.1,0.1,0.1,0.1,0.2c0,0.1,0,0.2,0,0.3V349.8z"/>
	<path class="st4" d="M137.4,349.3c0-0.1,0-0.2,0.1-0.3c0.1-0.1,0.1-0.1,0.2-0.2c0.1,0,0.2-0.1,0.4-0.1c0.1,0,0.1,0,0.2,0
		c0.1,0,0.1,0,0.2,0.1v-0.1c0-0.1,0-0.2-0.1-0.3c-0.1-0.1-0.2-0.1-0.3-0.1c-0.1,0-0.2,0-0.3,0c-0.1,0-0.2,0.1-0.3,0.1l-0.1-0.2
		c0.1-0.1,0.2-0.1,0.3-0.2c0.1,0,0.2-0.1,0.3-0.1c0.2,0,0.4,0.1,0.5,0.2c0.1,0.1,0.2,0.3,0.2,0.5v0.6c0,0,0,0.1,0,0.1c0,0,0,0,0.1,0
		v0.3c0,0-0.1,0-0.1,0c0,0,0,0-0.1,0c-0.1,0-0.1,0-0.2-0.1c0,0-0.1-0.1-0.1-0.1l0-0.1c-0.1,0.1-0.2,0.2-0.3,0.2
		c-0.1,0.1-0.2,0.1-0.3,0.1c-0.1,0-0.2,0-0.3-0.1c-0.1,0-0.2-0.1-0.2-0.2C137.4,349.5,137.4,349.4,137.4,349.3z M138.5,349.4
		C138.5,349.4,138.5,349.4,138.5,349.4c0.1-0.1,0.1-0.1,0.1-0.2v-0.2c-0.1,0-0.1,0-0.2-0.1c-0.1,0-0.1,0-0.2,0c-0.1,0-0.2,0-0.3,0.1
		c-0.1,0-0.1,0.1-0.1,0.2c0,0,0,0.1,0,0.1c0,0,0.1,0.1,0.1,0.1c0,0,0.1,0,0.2,0c0.1,0,0.1,0,0.2,0
		C138.4,349.5,138.4,349.5,138.5,349.4z"/>
	<path class="st4" d="M140,349.8c-0.1,0-0.2,0-0.3-0.1c-0.1,0-0.2-0.1-0.3-0.2s-0.1-0.2-0.2-0.3c0-0.1-0.1-0.2-0.1-0.3
		c0-0.2,0-0.3,0.1-0.4c0.1-0.1,0.2-0.2,0.3-0.3s0.3-0.1,0.5-0.1c0.2,0,0.3,0,0.4,0.1c0.1,0.1,0.2,0.2,0.3,0.3l-0.3,0.1
		c0-0.1-0.1-0.1-0.2-0.2c-0.1,0-0.1-0.1-0.2-0.1c-0.1,0-0.2,0-0.2,0.1c-0.1,0-0.1,0.1-0.2,0.2c0,0.1-0.1,0.2-0.1,0.3
		c0,0.1,0,0.2,0.1,0.3c0,0.1,0.1,0.1,0.2,0.2c0.1,0,0.2,0.1,0.2,0.1c0.1,0,0.1,0,0.2,0c0.1,0,0.1,0,0.1-0.1s0.1-0.1,0.1-0.1l0.3,0.1
		c0,0.1-0.1,0.2-0.2,0.2c-0.1,0.1-0.2,0.1-0.2,0.1C140.2,349.8,140.1,349.8,140,349.8z"/>
	<path class="st4" d="M141,350.2C141,350.2,141.1,350.2,141,350.2c0.1,0,0.1,0,0.2,0c0,0,0.1,0,0.1,0c0,0,0.1-0.1,0.1-0.1
		c0-0.1,0.1-0.1,0.1-0.3l-0.7-1.6h0.4l0.5,1.3l0.4-1.3h0.3l-0.7,2c0,0.1-0.1,0.1-0.1,0.2c0,0.1-0.1,0.1-0.2,0.1c-0.1,0-0.1,0-0.2,0
		c0,0-0.1,0-0.1,0c0,0-0.1,0-0.1,0V350.2z"/>
</g>
</svg>
