<?xml version="1.0" encoding="utf-8"?>
<!-- Generator: Adobe Illustrator 28.1.0, SVG Export Plug-In . SVG Version: 6.00 Build 0)  -->
<svg version="1.1" id="Layer_1" xmlns="http://www.w3.org/2000/svg" xmlns:xlink="http://www.w3.org/1999/xlink" x="0px" y="0px"
	 viewBox="0 0 595.3 210.4" style="enable-background:new 0 0 595.3 210.4;" xml:space="preserve">
<style type="text/css">
	.st0{fill:#155C79;}
	.st1{fill:#F59D1E;}
</style>
<g>
	<g>
		<path class="st0" d="M168.3,31h-2.6c-13.3,0-24,10.8-24,24v22.9h-24.8c-13.3,0-24,10.8-24,24v2.6c0,13.3,10.8,24,24,24h48.8h0.7
			h1.9c13.3,0,24-10.8,24-24V55C192.3,41.8,181.6,31,168.3,31z"/>
		<g>
			<path class="st1" d="M217.7,76.6h-20.7v2.8h20.7c12.5,0,22.6,10.1,22.6,22.6v2.6c0,12.5-10.1,22.6-22.6,22.6h-26.2v24.3
				c0,12.5-10.1,22.6-22.6,22.6h-2.6c-12.5,0-22.6-10.1-22.6-22.6v-18.4h-2.8v18.4c0,14,11.4,25.4,25.4,25.4h2.6
				c14,0,25.4-11.4,25.4-25.4v-21.5h23.3c14,0,25.4-11.4,25.4-25.4V102C243.1,88,231.7,76.6,217.7,76.6z"/>
			<path class="st1" d="M168.9,178.1h-2.6c-14.6,0-26.6-11.9-26.6-26.6V132h5v19.5c0,11.9,9.6,21.5,21.5,21.5h2.6
				c11.9,0,21.5-9.6,21.5-21.5v-25.4h27.3c11.9,0,21.5-9.6,21.5-21.5V102c0-11.9-9.6-21.5-21.5-21.5h-21.9v-5h21.9
				c14.6,0,26.6,11.9,26.6,26.6v2.6c0,14.6-11.9,26.6-26.6,26.6h-22.2v20.4C195.5,166.2,183.5,178.1,168.9,178.1z M142,134.2v17.3
				c0,13.4,10.9,24.3,24.3,24.3h2.6c13.4,0,24.3-10.9,24.3-24.3v-22.6h24.4c13.4,0,24.3-10.9,24.3-24.3V102
				c0-13.4-10.9-24.3-24.3-24.3H198v0.6h19.6c13.1,0,23.7,10.6,23.7,23.7v2.6c0,13.1-10.6,23.7-23.7,23.7h-25.1v23.2
				c0,13.1-10.6,23.7-23.7,23.7h-2.6c-13.1,0-23.7-10.6-23.7-23.7v-17.3H142z"/>
		</g>
		<g>
			<g>
				<g>
					<g>
						<path class="st0" d="M130.7,45.2c-0.5,0.5-1.2,0.8-1.9,0.7c-10.4-0.2-19,8-19.2,18.4c0,1.5-1.3,2.7-2.8,2.7
							c-1.5,0-2.7-1.3-2.7-2.8c0.3-13.4,11.4-24,24.8-23.7c1.5,0,2.7,1.3,2.7,2.8C131.5,44,131.2,44.7,130.7,45.2z"/>
					</g>
					<g>
						<path class="st0" d="M130.4,55.6c-0.5,0.5-1.2,0.8-1.9,0.7c-2.2,0-4.4,0.8-6,2.3c-1.6,1.5-2.5,3.6-2.6,5.9
							c0,1.5-1.3,2.7-2.8,2.7c-1.5,0-2.7-1.3-2.7-2.8c0.1-3.7,1.6-7.1,4.3-9.7s6.2-3.9,9.9-3.8c1.5,0,2.7,1.3,2.7,2.8
							C131.3,54.4,131,55.1,130.4,55.6z"/>
					</g>
					<g>
						<circle class="st0" cx="128.3" cy="64.7" r="3.6"/>
					</g>
					<g>
						<path class="st0" d="M130.9,34.6c-0.5,0.5-1.2,0.8-1.9,0.7C112.8,35,99.3,47.9,99,64.1c0,1.5-1.3,2.7-2.8,2.7
							c-1.5,0-2.7-1.3-2.7-2.8c0.2-9.3,4-17.9,10.7-24.4c6.7-6.4,15.5-9.8,24.8-9.6c1.5,0,2.7,1.3,2.7,2.8
							C131.7,33.5,131.4,34.2,130.9,34.6z"/>
					</g>
				</g>
			</g>
		</g>
	</g>
	<g>
		<g>
			<path class="st0" d="M283.7,133.1v-86h17.8v87.8c0,6.5,3.3,10,10,10.6v15.3C292.9,160.9,283.7,151.6,283.7,133.1z"/>
			<path class="st0" d="M328.3,66.2V48.3h18.4v17.9H328.3z M328.6,159.5V79.8h17.8v79.8H328.6z"/>
			<path class="st0" d="M360.5,82.5l1.8-2.7h15.2l20.2,64.3h2.1l20.2-64.3h15.3l1.8,2.7l-25.1,77h-26.6L360.5,82.5z"/>
			<path class="st0" d="M450.3,135.5v-31.8c0-16,8-24,24-24h19.8c15.9,0,23.9,8,23.9,24v22.8h-49.8v10.5c0,4.7,2.3,7,7,7h39.8v9.6
				l-8.1,5.9h-32.5C458.3,159.5,450.3,151.5,450.3,135.5z M468.1,112.3h32.2v-10c0-4.8-2.4-7.1-7.1-7.1h-18.1c-4.7,0-7,2.4-7,7.1
				V112.3z"/>
		</g>
	</g>
</g>
</svg>
