<?xml version="1.0" encoding="utf-8"?>
<!-- Generator: Adobe Illustrator 28.1.0, SVG Export Plug-In . SVG Version: 6.00 Build 0)  -->
<svg version="1.1" id="Layer_1" xmlns="http://www.w3.org/2000/svg" xmlns:xlink="http://www.w3.org/1999/xlink" x="0px" y="0px"
	 viewBox="0 0 595.3 419.5" style="enable-background:new 0 0 595.3 419.5;" xml:space="preserve">
<style type="text/css">
	.st0{fill:#FFFFFF;}
	.st1{fill:#F9A01F;}
</style>
<g>
	<g>
		<g>
			<path class="st0" d="M69.7,234.1v-49h22.1c2.3,0,4.4,0.5,6.4,1.4c2,0.9,3.6,2.2,5.1,3.8c1.4,1.6,2.5,3.4,3.3,5.3
				c0.8,2,1.2,4,1.2,6c0,2-0.3,3.9-1,5.8c-0.6,1.8-1.6,3.4-2.8,4.9c-1.2,1.4-2.6,2.6-4.3,3.6l10.8,18.2H98.1l-9.4-15.8H81v15.8H69.7
				z M81,208.4h10.3c0.9,0,1.7-0.3,2.4-0.9c0.7-0.6,1.3-1.4,1.8-2.4c0.5-1,0.7-2.2,0.7-3.5c0-1.3-0.3-2.5-0.8-3.5
				c-0.5-1-1.2-1.8-2-2.3c-0.8-0.6-1.6-0.8-2.5-0.8H81V208.4z"/>
			<path class="st0" d="M130,234.7c-3.1,0-5.8-0.5-8.2-1.5c-2.4-1-4.4-2.3-6.1-4c-1.7-1.7-3-3.6-3.8-5.8c-0.9-2.2-1.3-4.5-1.3-6.9
				c0-3.4,0.8-6.6,2.3-9.4c1.5-2.8,3.8-5.1,6.7-6.8c2.9-1.7,6.4-2.6,10.5-2.6c4.1,0,7.6,0.9,10.4,2.6c2.9,1.7,5.1,4,6.6,6.8
				c1.5,2.8,2.3,5.8,2.3,9.1c0,0.6,0,1.3-0.1,1.9c-0.1,0.6-0.1,1.1-0.2,1.6h-26.8c0.1,1.6,0.6,2.9,1.3,4c0.8,1.1,1.7,1.9,2.9,2.4
				c1.2,0.6,2.5,0.8,3.8,0.8c1.7,0,3.2-0.4,4.7-1.2c1.4-0.8,2.4-1.8,3-3.2l9.4,2.6c-0.9,1.9-2.2,3.6-3.9,5c-1.7,1.4-3.7,2.6-5.9,3.4
				C135.3,234.3,132.7,234.7,130,234.7z M122,212.8h15.7c-0.2-1.4-0.6-2.7-1.3-3.8c-0.7-1.1-1.6-1.9-2.8-2.5
				c-1.1-0.6-2.4-0.9-3.8-0.9c-1.4,0-2.7,0.3-3.8,0.9c-1.1,0.6-2,1.4-2.7,2.5C122.6,210.1,122.2,211.4,122,212.8z"/>
			<path class="st0" d="M210.5,234.1h-11v-19.9c0-2.3-0.4-4-1.3-5.1c-0.9-1.1-2-1.6-3.4-1.6c-1.5,0-2.9,0.6-4.3,1.8
				c-1.4,1.2-2.4,2.7-3,4.5v20.3h-11v-19.9c0-2.3-0.4-4-1.3-5.1c-0.9-1.1-2-1.6-3.4-1.6c-1.4,0-2.9,0.6-4.3,1.7
				c-1.4,1.2-2.5,2.6-3.1,4.4v20.4h-11v-35.8h9.9v6.1c1.3-2.1,3.1-3.8,5.4-4.9c2.3-1.2,4.9-1.7,8-1.7c3,0,5.3,0.7,6.9,2.1
				c1.6,1.4,2.6,3,3.1,4.9c1.4-2.2,3.2-3.9,5.5-5.1c2.3-1.2,4.8-1.8,7.7-1.8c2.3,0,4.2,0.4,5.6,1.3c1.4,0.8,2.5,1.9,3.2,3.3
				c0.7,1.4,1.2,2.8,1.5,4.4c0.3,1.6,0.4,3.1,0.4,4.6V234.1z"/>
			<path class="st0" d="M233.9,234.7c-3.1,0-5.8-0.5-8.2-1.5c-2.4-1-4.4-2.3-6.1-4c-1.7-1.7-3-3.6-3.8-5.8c-0.9-2.2-1.3-4.5-1.3-6.9
				c0-3.4,0.8-6.6,2.3-9.4c1.5-2.8,3.8-5.1,6.7-6.8c2.9-1.7,6.4-2.6,10.5-2.6c4.1,0,7.6,0.9,10.4,2.6c2.9,1.7,5.1,4,6.6,6.8
				c1.5,2.8,2.3,5.8,2.3,9.1c0,0.6,0,1.3-0.1,1.9c-0.1,0.6-0.1,1.1-0.2,1.6h-26.8c0.1,1.6,0.6,2.9,1.3,4c0.8,1.1,1.7,1.9,2.9,2.4
				c1.2,0.6,2.5,0.8,3.8,0.8c1.7,0,3.2-0.4,4.7-1.2c1.4-0.8,2.4-1.8,3-3.2l9.4,2.6c-0.9,1.9-2.2,3.6-3.9,5c-1.7,1.4-3.7,2.6-5.9,3.4
				C239.2,234.3,236.7,234.7,233.9,234.7z M225.9,212.8h15.7c-0.2-1.4-0.6-2.7-1.3-3.8c-0.7-1.1-1.6-1.9-2.8-2.5
				c-1.1-0.6-2.4-0.9-3.8-0.9c-1.4,0-2.7,0.3-3.8,0.9c-1.1,0.6-2,1.4-2.7,2.5C226.5,210.1,226.1,211.4,225.9,212.8z"/>
			<path class="st0" d="M255.1,216.2c0-3.5,0.7-6.6,2.1-9.4c1.4-2.8,3.3-5,5.7-6.6c2.4-1.6,5.1-2.4,8.3-2.4c2.5,0,4.8,0.6,6.9,1.8
				c2.1,1.2,3.6,2.8,4.7,4.8v-20.6h11v38.1c0,1.1,0.2,1.9,0.6,2.3c0.4,0.4,1,0.7,1.8,0.8v9.2c-1.9,0.4-3.5,0.6-4.7,0.6
				c-1.9,0-3.4-0.4-4.6-1.2c-1.2-0.8-1.9-2-2.2-3.4l-0.2-1.9c-1.3,2.3-3,3.9-5.2,5c-2.2,1.1-4.5,1.7-7,1.7c-2.5,0-4.8-0.5-6.9-1.4
				c-2.1-0.9-3.9-2.2-5.4-3.9c-1.5-1.7-2.7-3.6-3.6-5.9C255.5,221.3,255.1,218.8,255.1,216.2z M282.7,220.5v-7.4
				c-0.5-1.2-1.1-2.3-2-3.1c-0.9-0.9-1.8-1.6-2.9-2.1c-1.1-0.5-2.2-0.8-3.3-0.8c-1.2,0-2.3,0.2-3.3,0.7c-1,0.5-1.9,1.2-2.6,2
				c-0.7,0.9-1.3,1.9-1.7,3c-0.4,1.1-0.6,2.3-0.6,3.5c0,1.3,0.2,2.5,0.7,3.6c0.4,1.1,1,2.1,1.8,2.9c0.8,0.8,1.7,1.5,2.8,1.9
				c1.1,0.4,2.2,0.7,3.4,0.7c0.8,0,1.5-0.1,2.3-0.4c0.7-0.2,1.4-0.6,2.1-1c0.7-0.4,1.3-0.9,1.8-1.5
				C281.9,221.9,282.4,221.3,282.7,220.5z"/>
			<path class="st0" d="M301.1,193.7v-10h11v10H301.1z M301.1,234.1v-36.2h11v36.2H301.1z"/>
			<path class="st0" d="M318.3,221.2v-22.9h11v20.4c0,2.2,0.4,3.8,1.3,5c0.9,1.2,2.1,1.7,3.7,1.7c1,0,2-0.2,2.9-0.5
				c0.9-0.3,1.8-0.9,2.7-1.6c0.9-0.8,1.7-1.7,2.3-2.9v-22.1h11v23.6c0,1.1,0.2,1.8,0.5,2.3c0.3,0.4,1,0.7,1.8,0.8v9.2
				c-1,0.2-1.9,0.3-2.7,0.4c-0.8,0.1-1.4,0.1-2,0.1c-1.9,0-3.5-0.4-4.6-1.2c-1.1-0.8-1.9-1.9-2.1-3.4l-0.2-2.2
				c-1.7,2.4-3.7,4.1-6.2,5.2c-2.5,1.1-5.2,1.7-8.2,1.7c-3.7,0-6.5-1.2-8.4-3.5C319.3,229,318.3,225.6,318.3,221.2z"/>
			<path class="st0" d="M374.6,234.7c-3.1,0-6.1-0.5-9-1.5c-2.9-1-5.4-2.5-7.4-4.5l3.8-7c2.2,1.6,4.4,2.8,6.4,3.7
				c2.1,0.8,4.1,1.2,5.9,1.2c1.4,0,2.5-0.2,3.3-0.7c0.8-0.4,1.2-1.1,1.2-2c0-0.7-0.2-1.2-0.7-1.6c-0.5-0.4-1.2-0.7-2.1-1.1
				c-0.9-0.3-2.1-0.7-3.5-1c-2.8-0.9-5.1-1.8-6.9-2.6c-1.8-0.9-3.2-1.9-4.1-3.2c-0.9-1.2-1.4-2.9-1.4-4.9c0-2.4,0.6-4.5,1.8-6.3
				c1.2-1.8,3-3.2,5.2-4.2c2.3-1,4.9-1.5,8.1-1.5c2.5,0,4.9,0.4,7.3,1.2c2.4,0.8,4.6,2.1,6.7,3.9l-4.3,6.9c-2.1-1.4-3.9-2.5-5.5-3.1
				c-1.6-0.6-3.2-1-4.7-1c-0.8,0-1.5,0.1-2.1,0.3c-0.6,0.2-1.2,0.5-1.6,0.9c-0.4,0.4-0.6,1-0.6,1.7c0,0.7,0.2,1.2,0.6,1.6
				c0.4,0.4,1,0.8,1.9,1c0.9,0.3,1.9,0.6,3.2,1c3,0.9,5.5,1.7,7.4,2.6c2,0.9,3.5,2,4.4,3.2c1,1.3,1.5,3,1.5,5.1c0,3.6-1.3,6.4-4,8.5
				C382.8,233.7,379.2,234.7,374.6,234.7z"/>
		</g>
	</g>
	<g>
		<path class="st1" d="M443.6,195.9c-0.8-0.6-1.6-0.8-2.5-0.8h-10.2v13.6h10.5c0.9,0,1.8-0.3,2.5-0.9c0.7-0.6,1.3-1.4,1.8-2.4
			c0.5-1,0.7-2.2,0.7-3.6c0-1.4-0.3-2.5-0.8-3.5C445.1,197.3,444.4,196.5,443.6,195.9z"/>
		<path class="st1" d="M512,202.4c-3.9-28.1-29.6-48.8-58.9-47.7c-28,1.1-52.1,24.1-53.2,51.8c-0.8,19.8-0.1,39.7-0.1,59.5
			c1.6,1.3,3.5,0.8,5.3,0.8c18.2,0.1,36.4-0.1,54.6,0.1c1.8-0.1,3.7,0,5.5-0.4C496.2,261.2,516.4,233.4,512,202.4z M448.2,234.7
			l-9.5-16.1h-7.8v16.1h-11.5V185h22.4c2.3,0,4.5,0.5,6.5,1.4c2,1,3.7,2.2,5.2,3.9c1.4,1.6,2.6,3.4,3.4,5.4c0.8,2,1.2,4,1.2,6.1
			c0,2.1-0.3,4-1,5.9c-0.7,1.8-1.6,3.5-2.8,5c-1.2,1.5-2.7,2.7-4.3,3.6l10.9,18.5H448.2z M488.1,234.7l-6.9-10.2l-0.6-1.3l-0.6,1.3
			l-6.9,10.2h-11.6l12.6-18.1l-12.3-18.3h11.6l6.5,10.3l0.7,1.3l0.7-1.3l6.5-10.3h11.6l-12.3,18.1l12.6,18.3H488.1z"/>
	</g>
	<g>
		<g>
			<path class="st0" d="M212.3,256.2v-2.7h1.9v2.7H212.3z"/>
			<path class="st0" d="M216.5,256.2v-2.7h1.9v2.7H216.5z"/>
			<path class="st0" d="M220.7,256.2v-2.7h1.9v2.7H220.7z"/>
			<path class="st0" d="M229.6,256.4c-0.9,0-1.7-0.2-2.4-0.5c-0.7-0.3-1.3-0.7-1.8-1.3c-0.5-0.5-0.9-1.1-1.2-1.8
				c-0.3-0.7-0.4-1.4-0.4-2.2c0-0.8,0.1-1.5,0.4-2.2c0.3-0.7,0.7-1.3,1.2-1.8c0.5-0.5,1.1-0.9,1.8-1.2c0.7-0.3,1.5-0.5,2.3-0.5
				s1.6,0.2,2.3,0.5c0.7,0.3,1.3,0.7,1.8,1.2c0.5,0.5,0.9,1.1,1.2,1.8c0.3,0.7,0.4,1.4,0.4,2.2c0,0.8-0.1,1.5-0.4,2.2
				c-0.3,0.7-0.7,1.3-1.2,1.8c-0.5,0.5-1.1,1-1.8,1.3C231.3,256.3,230.5,256.4,229.6,256.4z M226.3,250.8c0,0.7,0.1,1.3,0.4,1.9
				c0.3,0.6,0.7,1,1.2,1.3c0.5,0.3,1.1,0.5,1.7,0.5c0.6,0,1.2-0.2,1.7-0.5c0.5-0.3,0.9-0.8,1.2-1.3c0.3-0.6,0.4-1.2,0.4-1.9
				c0-0.7-0.1-1.3-0.4-1.9c-0.3-0.6-0.7-1-1.2-1.3c-0.5-0.3-1.1-0.5-1.7-0.5c-0.6,0-1.2,0.2-1.7,0.5c-0.5,0.3-0.9,0.8-1.2,1.3
				C226.5,249.4,226.3,250,226.3,250.8z"/>
			<path class="st0" d="M247,256.2h-2.3v-6.1c0-1-0.2-1.8-0.5-2.2c-0.3-0.5-0.8-0.7-1.5-0.7c-0.5,0-0.9,0.1-1.3,0.3
				c-0.4,0.2-0.8,0.5-1.2,0.9c-0.4,0.4-0.6,0.8-0.8,1.3v6.5h-2.3v-11h2.1v2.2c0.3-0.5,0.7-0.9,1.1-1.3c0.5-0.4,1-0.6,1.6-0.8
				c0.6-0.2,1.2-0.3,1.8-0.3c0.7,0,1.2,0.1,1.6,0.4c0.4,0.2,0.8,0.6,1,1c0.2,0.4,0.4,0.9,0.5,1.4c0.1,0.5,0.1,1.1,0.1,1.7V256.2z"/>
			<path class="st0" d="M249.4,240.7h2.3v12.3c0,0.6,0.1,0.9,0.3,1.1c0.2,0.2,0.4,0.2,0.6,0.2c0.3,0,0.5,0,0.8-0.1
				c0.2-0.1,0.5-0.1,0.6-0.2l0.3,1.8c-0.3,0.1-0.7,0.3-1.2,0.4s-0.9,0.1-1.3,0.1c-0.8,0-1.4-0.2-1.9-0.7c-0.5-0.4-0.7-1.1-0.7-1.9
				V240.7z"/>
			<path class="st0" d="M255.5,243.3v-2.6h2.3v2.6H255.5z M255.5,256.2v-11.1h2.3v11.1H255.5z"/>
			<path class="st0" d="M270.2,256.2h-2.3v-6.1c0-1-0.2-1.8-0.5-2.2c-0.3-0.5-0.8-0.7-1.5-0.7c-0.5,0-0.9,0.1-1.3,0.3
				c-0.4,0.2-0.8,0.5-1.2,0.9c-0.4,0.4-0.6,0.8-0.8,1.3v6.5h-2.3v-11h2.1v2.2c0.3-0.5,0.7-0.9,1.1-1.3c0.5-0.4,1-0.6,1.6-0.8
				c0.6-0.2,1.2-0.3,1.8-0.3c0.7,0,1.2,0.1,1.6,0.4c0.4,0.2,0.8,0.6,1,1c0.2,0.4,0.4,0.9,0.5,1.4c0.1,0.5,0.1,1.1,0.1,1.7V256.2z"/>
			<path class="st0" d="M277.6,256.4c-0.9,0-1.6-0.2-2.3-0.5c-0.7-0.3-1.3-0.7-1.8-1.2c-0.5-0.5-0.9-1.1-1.2-1.8
				c-0.3-0.7-0.4-1.4-0.4-2.2c0-1,0.2-2,0.7-2.8c0.5-0.9,1.2-1.6,2-2.1c0.9-0.5,1.9-0.8,3-0.8c1.2,0,2.2,0.3,3,0.8
				c0.8,0.5,1.5,1.2,2,2.1c0.5,0.9,0.7,1.8,0.7,2.8c0,0.2,0,0.3,0,0.5c0,0.1,0,0.3,0,0.4h-8.9c0,0.6,0.2,1.2,0.5,1.7
				c0.3,0.5,0.7,0.9,1.2,1.1c0.5,0.3,1,0.4,1.6,0.4c0.6,0,1.2-0.2,1.8-0.5c0.6-0.3,0.9-0.7,1.1-1.2l2,0.6c-0.2,0.5-0.6,1-1.1,1.5
				c-0.5,0.4-1.1,0.8-1.7,1C279.1,256.3,278.4,256.4,277.6,256.4z M274.3,249.9h6.7c0-0.6-0.2-1.2-0.5-1.7c-0.3-0.5-0.7-0.9-1.2-1.1
				c-0.5-0.3-1-0.4-1.6-0.4c-0.6,0-1.1,0.1-1.6,0.4c-0.5,0.3-0.9,0.6-1.2,1.1C274.5,248.8,274.3,249.3,274.3,249.9z"/>
			<path class="st0" d="M296.1,256.4c-0.9,0-1.7-0.2-2.4-0.6c-0.7-0.4-1.2-1-1.6-1.6v6.6h-2.3v-15.5h2.1v2c0.4-0.7,1-1.2,1.7-1.6
				c0.7-0.4,1.4-0.6,2.3-0.6c0.8,0,1.5,0.2,2.1,0.5c0.6,0.3,1.2,0.7,1.7,1.3c0.5,0.5,0.8,1.1,1.1,1.8c0.3,0.7,0.4,1.4,0.4,2.2
				c0,1.1-0.2,2-0.6,2.9c-0.4,0.9-1,1.6-1.7,2.1C297.9,256.2,297,256.4,296.1,256.4z M295.3,254.4c0.5,0,0.9-0.1,1.3-0.3
				c0.4-0.2,0.7-0.5,1-0.8c0.3-0.3,0.5-0.7,0.7-1.2c0.2-0.4,0.2-0.9,0.2-1.4c0-0.5-0.1-1-0.3-1.4c-0.2-0.4-0.4-0.8-0.7-1.2
				c-0.3-0.3-0.7-0.6-1.1-0.8c-0.4-0.2-0.9-0.3-1.4-0.3c-0.3,0-0.6,0.1-0.9,0.2c-0.3,0.1-0.6,0.3-0.9,0.5c-0.3,0.2-0.5,0.4-0.7,0.7
				c-0.2,0.3-0.4,0.5-0.4,0.8v2.9c0.2,0.4,0.5,0.8,0.8,1.2c0.3,0.4,0.7,0.6,1.1,0.9C294.4,254.3,294.9,254.4,295.3,254.4z"/>
			<path class="st0" d="M312.7,256.2h-2.3v-6.1c0-1-0.2-1.7-0.6-2.2c-0.4-0.5-0.9-0.7-1.5-0.7c-0.4,0-0.8,0.1-1.3,0.3
				c-0.4,0.2-0.8,0.5-1.2,0.9c-0.3,0.4-0.6,0.8-0.7,1.3v6.5h-2.3v-15.5h2.3v6.7c0.4-0.7,1-1.3,1.7-1.8c0.7-0.4,1.5-0.6,2.4-0.6
				c0.7,0,1.3,0.1,1.7,0.4c0.5,0.2,0.8,0.6,1.1,1c0.3,0.4,0.4,0.9,0.6,1.4c0.1,0.5,0.2,1.1,0.2,1.7V256.2z"/>
			<path class="st0" d="M314.3,253c0-0.7,0.2-1.3,0.6-1.8c0.4-0.5,1-0.9,1.7-1.2c0.7-0.3,1.5-0.4,2.5-0.4c0.5,0,1,0,1.5,0.1
				c0.5,0.1,1,0.2,1.4,0.3v-0.7c0-0.8-0.2-1.4-0.7-1.8c-0.5-0.4-1.1-0.6-2-0.6c-0.6,0-1.2,0.1-1.8,0.3c-0.6,0.2-1.1,0.5-1.8,0.9
				l-0.8-1.6c0.7-0.5,1.5-0.9,2.2-1.1c0.7-0.2,1.5-0.4,2.3-0.4c1.5,0,2.7,0.4,3.5,1.2c0.9,0.8,1.3,1.9,1.3,3.3v4.1
				c0,0.3,0,0.5,0.1,0.6c0.1,0.1,0.3,0.2,0.5,0.2v1.9c-0.2,0-0.4,0.1-0.6,0.1c-0.2,0-0.3,0-0.4,0c-0.5,0-0.9-0.1-1.1-0.4
				c-0.3-0.2-0.4-0.5-0.4-0.8l-0.1-0.6c-0.5,0.6-1.1,1.1-1.8,1.4c-0.8,0.3-1.5,0.5-2.3,0.5c-0.7,0-1.4-0.2-2-0.5
				c-0.6-0.3-1-0.7-1.4-1.2C314.5,254.2,314.3,253.7,314.3,253z M321.4,253.7c0.2-0.2,0.3-0.4,0.4-0.5c0.1-0.2,0.1-0.3,0.1-0.5v-1.3
				c-0.4-0.2-0.8-0.3-1.3-0.3c-0.4-0.1-0.9-0.1-1.3-0.1c-0.8,0-1.5,0.2-2.1,0.5c-0.5,0.3-0.8,0.8-0.8,1.4c0,0.3,0.1,0.6,0.3,0.9
				c0.2,0.3,0.4,0.5,0.8,0.7c0.3,0.2,0.7,0.3,1.2,0.3c0.5,0,1-0.1,1.5-0.3C320.7,254.2,321.1,254,321.4,253.7z"/>
			<path class="st0" d="M333,247.1c-0.9,0-1.7,0.2-2.4,0.6c-0.7,0.4-1.2,1-1.5,1.7v6.8h-2.3v-11h2.2v2.4c0.4-0.8,0.9-1.4,1.5-1.8
				c0.6-0.5,1.3-0.7,2-0.8c0.1,0,0.3,0,0.4,0c0.1,0,0.2,0,0.2,0V247.1z"/>
			<path class="st0" d="M351.3,256.2H349v-6.1c0-1-0.2-1.8-0.5-2.2c-0.3-0.5-0.8-0.7-1.5-0.7c-0.7,0-1.3,0.2-1.8,0.7
				c-0.6,0.5-1,1.1-1.2,1.9v6.5h-2.3v-6.1c0-1-0.2-1.8-0.5-2.2c-0.3-0.5-0.8-0.7-1.5-0.7c-0.7,0-1.3,0.2-1.8,0.7
				c-0.6,0.5-1,1.1-1.2,1.9v6.5h-2.3v-11h2.1v2.2c0.4-0.8,1-1.4,1.7-1.8c0.7-0.4,1.5-0.6,2.5-0.6c0.9,0,1.6,0.2,2.2,0.7
				c0.5,0.5,0.9,1.1,1,1.8c0.5-0.8,1.1-1.4,1.8-1.9s1.5-0.6,2.4-0.6c0.7,0,1.2,0.1,1.6,0.4c0.4,0.2,0.8,0.6,1,1
				c0.2,0.4,0.4,0.9,0.5,1.4c0.1,0.5,0.2,1.1,0.2,1.7V256.2z"/>
			<path class="st0" d="M352.9,253c0-0.7,0.2-1.3,0.6-1.8c0.4-0.5,1-0.9,1.7-1.2c0.7-0.3,1.5-0.4,2.5-0.4c0.5,0,1,0,1.5,0.1
				c0.5,0.1,1,0.2,1.4,0.3v-0.7c0-0.8-0.2-1.4-0.7-1.8c-0.5-0.4-1.1-0.6-2-0.6c-0.6,0-1.2,0.1-1.8,0.3c-0.6,0.2-1.1,0.5-1.8,0.9
				l-0.8-1.6c0.7-0.5,1.5-0.9,2.2-1.1c0.7-0.2,1.5-0.4,2.3-0.4c1.5,0,2.7,0.4,3.5,1.2c0.9,0.8,1.3,1.9,1.3,3.3v4.1
				c0,0.3,0,0.5,0.1,0.6c0.1,0.1,0.3,0.2,0.5,0.2v1.9c-0.2,0-0.4,0.1-0.6,0.1c-0.2,0-0.3,0-0.4,0c-0.5,0-0.9-0.1-1.1-0.4
				c-0.3-0.2-0.4-0.5-0.4-0.8l-0.1-0.6c-0.5,0.6-1.1,1.1-1.8,1.4c-0.8,0.3-1.5,0.5-2.3,0.5c-0.7,0-1.4-0.2-2-0.5
				c-0.6-0.3-1-0.7-1.4-1.2C353,254.2,352.9,253.7,352.9,253z M359.9,253.7c0.2-0.2,0.3-0.4,0.4-0.5c0.1-0.2,0.1-0.3,0.1-0.5v-1.3
				c-0.4-0.2-0.8-0.3-1.3-0.3c-0.4-0.1-0.9-0.1-1.3-0.1c-0.8,0-1.5,0.2-2.1,0.5c-0.5,0.3-0.8,0.8-0.8,1.4c0,0.3,0.1,0.6,0.3,0.9
				c0.2,0.3,0.4,0.5,0.8,0.7c0.3,0.2,0.7,0.3,1.2,0.3c0.5,0,1-0.1,1.5-0.3C359.3,254.2,359.7,254,359.9,253.7z"/>
			<path class="st0" d="M370.3,256.4c-0.9,0-1.6-0.2-2.3-0.5c-0.7-0.3-1.3-0.7-1.8-1.3c-0.5-0.5-0.9-1.1-1.2-1.8
				c-0.3-0.7-0.4-1.4-0.4-2.2c0-1,0.2-2,0.7-2.8c0.5-0.9,1.1-1.5,2-2.1s1.9-0.8,3-0.8c1.1,0,2.1,0.3,3,0.8c0.8,0.5,1.5,1.2,1.9,2
				l-2.3,0.7c-0.3-0.5-0.6-0.8-1.1-1.1c-0.5-0.3-1-0.4-1.5-0.4c-0.6,0-1.2,0.2-1.7,0.5c-0.5,0.3-0.9,0.7-1.2,1.3
				c-0.3,0.6-0.4,1.2-0.4,1.9c0,0.7,0.1,1.3,0.4,1.9c0.3,0.6,0.7,1,1.2,1.3c0.5,0.3,1.1,0.5,1.7,0.5c0.4,0,0.8-0.1,1.1-0.2
				c0.4-0.1,0.7-0.3,0.9-0.6s0.5-0.5,0.6-0.8l2.3,0.7c-0.2,0.6-0.6,1-1.1,1.5c-0.5,0.4-1,0.8-1.7,1
				C371.8,256.3,371.1,256.4,370.3,256.4z"/>
			<path class="st0" d="M377,258.8c0.2,0,0.4,0.1,0.6,0.1c0.2,0,0.4,0.1,0.5,0.1c0.2,0,0.4-0.1,0.6-0.2c0.2-0.1,0.4-0.4,0.5-0.8
				c0.2-0.4,0.4-1,0.7-1.7l-4.6-11h2.4l3.4,8.7l3-8.7h2.3l-5,13.6c-0.2,0.4-0.4,0.8-0.7,1.1c-0.3,0.3-0.7,0.6-1.1,0.8
				c-0.4,0.2-1,0.3-1.5,0.3c-0.2,0-0.3,0-0.5,0c-0.2,0-0.4-0.1-0.6-0.1V258.8z"/>
		</g>
	</g>
</g>
</svg>
