<?xml version="1.0" encoding="utf-8"?>
<!-- Generator: Adobe Illustrator 25.4.1, SVG Export Plug-In . SVG Version: 6.00 Build 0)  -->
<svg version="1.1" id="Layer_1" xmlns="http://www.w3.org/2000/svg" xmlns:xlink="http://www.w3.org/1999/xlink" x="0px" y="0px"
	 viewBox="0 0 154.5 55" style="enable-background:new 0 0 154.5 55;" xml:space="preserve">
<style type="text/css">
	.st0{fill:#F9A01B;}
	.st1{fill:#135B78;}
	.st2{fill:#FFFFFF;}
</style>
<g>
	<g>
		<path class="st0" d="M2.9,34.7v-16h7.7c2.5,0,3.8,1.3,3.8,3.8v2.6c0,2-0.8,3.2-2.3,3.6l2.8,5.4l-0.3,0.6h-2.4l-3-5.8H5.7v5.8H2.9z
			 M5.7,26.3h4.8c0.7,0,1-0.3,1-1v-3c0-0.7-0.3-1-1-1H5.7V26.3z"/>
		<path class="st0" d="M16.1,31v-4.8c0-2.4,1.2-3.7,3.7-3.7h2.9c2.4,0,3.6,1.2,3.6,3.7v3.4h-7.6v1.6c0,0.7,0.3,1,1,1h6.1v1.5
			l-1.2,0.9h-5C17.3,34.7,16.1,33.5,16.1,31z M18.8,27.5h4.9V26c0-0.7-0.3-1.1-1.1-1.1h-2.8c-0.7,0-1,0.3-1,1.1
			C18.8,25.9,18.8,27.5,18.8,27.5z"/>
		<path class="st0" d="M28.4,34.7V22.5h13.8c2.4,0,3.6,1.2,3.6,3.7v8.5h-2.7v-8.8c0-0.7-0.3-1.1-1.1-1.1h-3.6v9.9h-2.8v-9.8H31v9.8
			H28.4z"/>
		<path class="st0" d="M47.7,31v-4.8c0-2.4,1.2-3.7,3.7-3.7h3c2.4,0,3.6,1.2,3.6,3.7v3.4h-7.6v1.6c0,0.7,0.3,1,1,1h6.1v1.5l-1.3,0.9
			h-5C48.9,34.7,47.7,33.5,47.7,31z M50.4,27.5h4.9V26c0-0.7-0.3-1.1-1.1-1.1h-2.8c-0.7,0-1,0.3-1,1.1C50.4,26,50.4,27.5,50.4,27.5z
			"/>
		<path class="st0" d="M59.7,31v-4.8c0-2.4,1.2-3.7,3.7-3.7h4v-5h2.7v17.2h-6.6C60.9,34.7,59.7,33.5,59.7,31z M62.5,31.3
			c0,0.7,0.3,1,1,1h3.9v-7.5h-3.9c-0.7,0-1,0.3-1,1.1V31.3z"/>
		<path class="st0" d="M72.1,20.4v-2.8H75v2.8H72.1z M72.2,34.7V22.5H75v12.2H72.2z"/>
		<path class="st0" d="M76.9,31v-8.5h2.8v8.8c0,0.7,0.3,1,1,1h3.9v-9.8h2.7v12.2h-6.6C78.1,34.7,76.9,33.5,76.9,31z"/>
		<path class="st0" d="M88.9,33.8v-1.5h5.3c0.8,0,1.1-0.3,1.1-1.1S95,30,94.4,29.8l-2.6-0.4C89.9,29.1,89,28,89,26.1
			c0-2.4,1.2-3.6,3.7-3.6h3.7l1.2,0.9v1.5h-4.8c-0.7,0-1.1,0.3-1.1,1.1c0,0.7,0.3,1.1,0.9,1.3l2.6,0.4c1.9,0.3,2.8,1.5,2.8,3.4
			c0,2.4-1.2,3.6-3.6,3.6h-4.2L88.9,33.8z"/>
	</g>
	<path class="st1" d="M144.2,37.5h-42.3v-22h42.3c4.4,0,8,3.6,8,8v6C152.2,33.9,148.6,37.5,144.2,37.5z"/>
	<g>
		<path class="st2" d="M106.9,33.1V20.5h2.6v5h4.7v-5h2.6v12.7h-2.6v-5.3h-4.7v5.3h-2.6V33.1z"/>
		<path class="st2" d="M119.9,33.1V20.5h3.2l3.6,7.7l3.6-7.7h3.2v12.7h-2.6v-8l-3,6.4h-2.2l-3-6.4v8h-2.8V33.1z"/>
		<path class="st2" d="M135.8,32.2v-1.4h5.7c0.4,0,0.6-0.2,0.6-0.6v-1.3c0-0.3-0.2-0.5-0.5-0.6l-3.6-0.8c-1.5-0.3-2.2-1.3-2.2-3v-1
			c0-2.1,1-3.1,3.1-3.1h4.2l1.2,1v1.4H139c-0.4,0-0.5,0.2-0.5,0.6v1.2c0,0.3,0.2,0.5,0.5,0.6l3.6,0.7c1.5,0.3,2.2,1.3,2.2,3v1.2
			c0,2.1-1,3.1-3.1,3.1h-4.6L135.8,32.2z"/>
	</g>
</g>
</svg>
