<?xml version="1.0" encoding="utf-8"?>
<!-- Generator: Adobe Illustrator 28.1.0, SVG Export Plug-In . SVG Version: 6.00 Build 0)  -->
<svg version="1.1" id="Layer_1" xmlns="http://www.w3.org/2000/svg" xmlns:xlink="http://www.w3.org/1999/xlink" x="0px" y="0px"
	 viewBox="0 0 595.3 210.4" style="enable-background:new 0 0 595.3 210.4;" xml:space="preserve">
<style type="text/css">
	.st0{fill:#F9A01F;}
	.st1{fill:#155C79;}
</style>
<g>
	<g>
		<path class="st0" d="M39,133.2V67.1h31.9c10.3,0,15.5,5.2,15.5,15.5v10.8c0,8.1-3.2,13-9.6,14.7l11.5,22.5l-1.4,2.5H77l-12.3-24.2
			h-14v24.2H39z M50.7,98.4h19.8c2.8,0,4.2-1.4,4.2-4.2V81.8c0-2.8-1.4-4.2-4.2-4.2H50.7V98.4z"/>
		<path class="st0" d="M93.4,118V98c0-10.1,5-15.1,15.1-15.1H121c10,0,15,5,15,15.1v14.4h-31.4v6.6c0,2.9,1.5,4.4,4.4,4.4h25.1v6
			l-5.1,3.7h-20.5C98.5,133.2,93.4,128.1,93.4,118z M104.7,103.4H125v-6.3c0-3-1.5-4.5-4.5-4.5h-11.4c-2.9,0-4.4,1.5-4.4,4.5V103.4z
			"/>
		<path class="st0" d="M144,133.2V82.9h57.3c10,0,15,5,15,15.1v35.1h-11.1V97.1c0-3-1.5-4.5-4.5-4.5h-14.9v40.6h-11.2V92.6h-19.3
			v40.6H144z"/>
		<path class="st0" d="M223.9,118V98c0-10.1,5-15.1,15.1-15.1h12.5c10,0,15,5,15,15.1v14.4h-31.4v6.6c0,2.9,1.5,4.4,4.4,4.4h25.1v6
			l-5.1,3.7H239C228.9,133.2,223.9,128.1,223.9,118z M235.1,103.4h20.3v-6.3c0-3-1.5-4.5-4.5-4.5h-11.4c-2.9,0-4.4,1.5-4.4,4.5
			V103.4z"/>
		<path class="st0" d="M273.7,118V98c0-10.1,5-15.1,15.1-15.1h16.4V62.3h11.1v70.9h-27.5C278.7,133.2,273.7,128.1,273.7,118z
			 M284.9,119c0,2.9,1.5,4.4,4.4,4.4h15.9V92.6h-15.9c-2.9,0-4.4,1.5-4.4,4.5V119z"/>
		<path class="st0" d="M324.8,74.4V63.1h11.6v11.3H324.8z M325,133.2V82.9h11.2v50.3H325z"/>
		<path class="st0" d="M344.5,118V82.9h11.2V119c0,2.9,1.5,4.4,4.4,4.4H376V82.9h11.1v50.3h-27.5C349.5,133.2,344.5,128.1,344.5,118
			z"/>
		<path class="st0" d="M394,129.4v-6h22c3.1,0,4.6-1.6,4.6-4.7c0-3.3-1.3-5.1-4-5.6l-10.7-1.7c-7.9-1.3-11.9-5.8-11.9-13.5
			c0-10,5-15,15.1-15h15.2l5,3.7v5.9h-19.7c-3,0-4.5,1.6-4.5,4.8c0,3,1.3,4.7,3.9,5.2l10.8,1.8c7.9,1.3,11.8,5.9,11.8,13.8
			c0,10-5,15-15,15H399L394,129.4z"/>
	</g>
	<g>
		<g>
			<g>
				<path class="st1" d="M492.9,79.9h-19v19.9h19c2.7,0,4-1.3,4-4V83.9C497,81.2,495.6,79.9,492.9,79.9z"/>
			</g>
			<g>
				<g>
					<path class="st1" d="M577.4,91.3c-4.7-34.2-36-59.4-71.7-58c-34.1,1.4-63.4,29.3-64.8,63.1c-1,24.1-0.2,48.3-0.2,72.4
						c2,1.6,4.3,1,6.5,1c22.1,0.1,44.3-0.1,66.4,0.1c2.2-0.1,4.5-0.1,6.7-0.4C558.1,162.9,582.7,129.2,577.4,91.3z M508.7,133.2
						h-9.6l-11.8-23.3h-13.4v23.3h-11.2V69.7h30.6c9.9,0,14.9,5,14.9,14.9V95c0,7.8-3.1,12.5-9.2,14.2l11,21.6L508.7,133.2z
						 M554.4,133.2h-9.8L533,116.7l-11.5,16.5h-9.9l-0.8-1.8l16.3-22.6l-15.8-22l0.9-1.8h9.8l11,15.8l11-15.8h9.9l0.8,1.8l-15.7,22
						l16.3,22.6L554.4,133.2z"/>
				</g>
			</g>
		</g>
	</g>
	<g>
		<path class="st1" d="M209,158.6v-6.5c0-3.3,1.6-4.9,4.9-4.9h4.3c3.2,0,4.9,1.6,4.9,4.9v6.5c0,3.3-1.6,4.9-4.9,4.9h-4.3
			C210.6,163.5,209,161.9,209,158.6z M212.6,159c0,1,0.5,1.4,1.4,1.4h4c1,0,1.5-0.5,1.5-1.4v-7.1c0-1-0.5-1.5-1.5-1.5h-4
			c-1,0-1.4,0.5-1.4,1.5V159z"/>
		<path class="st1" d="M226.3,163.5v-16.3h8.9c3.2,0,4.9,1.6,4.9,4.9v11.4h-3.6v-11.7c0-1-0.5-1.5-1.5-1.5h-5.1v13.2H226.3z"/>
		<path class="st1" d="M243.2,158.1v-17.6h3.6v17.9c0,1.3,0.7,2,2,2.2v3.1C245.1,163.8,243.2,161.9,243.2,158.1z"/>
		<path class="st1" d="M251,144.5v-3.7h3.8v3.7H251z M251.1,163.5v-16.3h3.6v16.3H251.1z"/>
		<path class="st1" d="M258.1,163.5v-16.3h8.9c3.2,0,4.9,1.6,4.9,4.9v11.4h-3.6v-11.7c0-1-0.5-1.5-1.5-1.5h-5.1v13.2H258.1z"/>
		<path class="st1" d="M274.9,158.6v-6.5c0-3.3,1.6-4.9,4.9-4.9h4c3.2,0,4.9,1.6,4.9,4.9v4.7h-10.2v2.1c0,1,0.5,1.4,1.4,1.4h8.1v2
			l-1.6,1.2h-6.6C276.5,163.5,274.9,161.9,274.9,158.6z M278.5,153.9h6.6v-2c0-1-0.5-1.5-1.5-1.5H280c-1,0-1.4,0.5-1.4,1.5V153.9z"
			/>
		<path class="st1" d="M298,169.8v-22.5h8.9c3.2,0,4.9,1.6,4.9,4.9v6.5c0,3.3-1.6,4.9-4.9,4.9h-5.3v6.2H298z M301.7,160.4h5.1
			c1,0,1.5-0.5,1.5-1.4v-7.1c0-1-0.5-1.5-1.5-1.5h-5.1V160.4z"/>
		<path class="st1" d="M315,163.5v-23h3.6v6.7h5.3c3.2,0,4.9,1.6,4.9,4.9v11.4h-3.6v-11.7c0-1-0.5-1.5-1.5-1.5h-5.1v13.2H315z"/>
		<path class="st1" d="M336.1,163.5c-3.3,0-4.9-1.6-4.9-4.8c0-3.2,1.6-4.8,4.9-4.8h4.8v-2c0-1-0.5-1.5-1.5-1.5h-6.6v-1.9l1.6-1.2
			h5.2c3.2,0,4.9,1.6,4.9,4.9v11.4H336.1z M334.8,159c0,1,0.5,1.4,1.4,1.4h4.7v-3.6h-4.7c-1,0-1.4,0.5-1.4,1.4V159z"/>
		<path class="st1" d="M347.6,163.5v-14.3c0.7-1.3,2.2-2,4.3-2h3.3l1.6,1.2v1.9h-4.3c-0.6,0-1,0.2-1.3,0.5v12.7H347.6z"/>
		<path class="st1" d="M358.6,163.5v-16.3h18.6c3.2,0,4.9,1.6,4.9,4.9v11.4h-3.6v-11.7c0-1-0.5-1.5-1.5-1.5h-4.8v13.2h-3.6v-13.2
			h-6.3v13.2H358.6z"/>
		<path class="st1" d="M389.3,163.5c-3.3,0-4.9-1.6-4.9-4.8c0-3.2,1.6-4.8,4.9-4.8h4.8v-2c0-1-0.5-1.5-1.5-1.5h-6.6v-1.9l1.6-1.2
			h5.2c3.2,0,4.9,1.6,4.9,4.9v11.4H389.3z M388.1,159c0,1,0.5,1.4,1.4,1.4h4.7v-3.6h-4.7c-1,0-1.4,0.5-1.4,1.4V159z"/>
		<path class="st1" d="M400.8,158.6v-6.5c0-3.3,1.6-4.9,4.9-4.9h5.9l1.6,1.2v1.9h-7.4c-1,0-1.4,0.5-1.4,1.5v7.1c0,1,0.5,1.4,1.4,1.4
			h7.4v2l-1.6,1.2h-5.9C402.4,163.5,400.8,161.9,400.8,158.6z"/>
		<path class="st1" d="M413.9,147.8l0.4-0.6h3.1l4.1,13.1h0.4l4.1-13.1h3.1l0.4,0.6l-7.1,21.9h-3.1l-0.4-0.6l1.9-5.6H419
			L413.9,147.8z"/>
	</g>
</g>
</svg>
