<?xml version="1.0" encoding="utf-8"?>
<!-- Generator: Adobe Illustrator 28.1.0, SVG Export Plug-In . SVG Version: 6.00 Build 0)  -->
<svg version="1.1" id="Layer_1" xmlns="http://www.w3.org/2000/svg" xmlns:xlink="http://www.w3.org/1999/xlink" x="0px" y="0px"
	 viewBox="0 0 595.3 210.4" style="enable-background:new 0 0 595.3 210.4;" xml:space="preserve">
<style type="text/css">
	.st0{fill:#2075BC;}
</style>
<g>
	<path class="st0" d="M114.9,35.6L69.3,36c-2.9,0-5.3,2.2-5.6,5l-8.3,68.6c-0.5,3.8,2.9,7,6.6,6.3c2.1-0.4,4.3-0.8,6.5-1.3
		c16.7-3.8,29.7-11,39.1-17.7c1.3-0.9,2-2.2,2.3-3.5L97.7,87c-3-1.6-3.2-5.8-0.3-7.6l33.2-20.8c2.9-1.8,6.6,0.2,6.8,3.6l1.4,39.2
		c0.1,3.4-3.5,5.7-6.5,4.1l-12.8-6.8c-0.8,0.7-1.5,1.6-1.8,2.7c-3.7,11.2-10.3,25.3-22.3,38.8c-15.8,17.6-34.1,26.4-47.6,30.9l0,0.3
		h52.7c36.5,0,49.4-12.2,56.1-67C163.7,47,150.7,35.6,114.9,35.6z"/>
	<g>
		<g>
			<path class="st0" d="M211.3,114.1c-2.4,0-4.2-0.4-5.2-1.3c-1.1-0.9-1.6-2.2-1.6-4.1c0-1,0.1-2.1,0.3-3.1l6.7-31.6
				c1.2-5.5,4.3-8.2,9.4-8.2h5.5c5,0,9.2,0.5,12.5,1.6c2.8,0.9,5,2.6,6.6,5c1.6,2.4,2.4,5.4,2.4,8.9c0,3.4-0.3,6.6-0.8,9.7
				c-0.5,3-1.4,6-2.6,8.9c-1.2,2.9-3,5.4-5.3,7.6c-2.3,2.2-5.1,3.8-8.2,4.9c-3.4,1.1-8.1,1.7-14,1.7H211.3z M216.7,102.9
				c0,1,0.7,1.6,2.1,1.6h3.1c2.2,0,4.3-0.4,6.1-1.2c2.9-1.3,5-4,6.4-8.1c1.4-4.1,2.1-8.1,2.1-12.3c0-3.3-1.1-5.5-3.4-6.6
				c-1.4-0.7-3.4-1.1-6.2-1.1h-2.3c-1.5,0-2.4,0.8-2.7,2.5l-4.9,23C216.8,101.8,216.7,102.5,216.7,102.9z"/>
			<path class="st0" d="M261.8,114.1h-7.1c-1.2,0-1.8-0.6-1.8-1.8c0-0.4,0.1-0.9,0.3-1.6l7.9-37c0.6-2.8,1.6-4.9,3.1-6.2
				c1.5-1.3,3.7-1.9,6.7-1.9h5.1c5.8,0,10.2,0.7,13,2.1c3.4,1.7,5.1,4.8,5.1,9.4c0,8.7-3.3,14.3-9.8,16.9l5.5,15.9
				c0.3,0.7,0.4,1.5,0.4,2.3c0,1-0.5,1.5-1.4,1.7c-1,0.2-3.5,0.3-7.5,0.3c-1.1,0-1.9-0.5-2.2-1.6l-5.3-16.7c-0.8,0-2,0.1-3.7,0.1
				h-2.5l-3.4,15.7C263.8,113.3,263,114.1,261.8,114.1z M271.9,87.3c3.1,0,5.2-0.3,6.6-0.8c2.6-1,4-3.4,4-7.1c0-1.9-0.7-3.2-2.1-3.9
				c-1.1-0.5-2.7-0.8-4.8-0.8h-1.5c-1.4,0-2.3,0.7-2.5,2.2l-2.2,10.3H271.9z"/>
			<path class="st0" d="M340.8,95.2c-1.6,6-3.8,10.5-6.6,13.6c-3.8,4.1-9.4,6.2-16.8,6.2c-2.8,0-5.2-0.2-7.3-0.7
				c-2.1-0.4-3.9-1.2-5.7-2.3c-1.7-1.1-3.1-2.7-4-4.8c-0.9-2.1-1.4-4.7-1.4-7.8c0-4.9,0.8-10,2.3-15.4c1.5-5.4,3.7-9.7,6.6-12.9
				c3.9-4.2,9.4-6.4,16.5-6.4c2.9,0,5.3,0.2,7.3,0.5c2,0.3,3.9,1,5.7,2c1.8,1,3.2,2.5,4.2,4.5c0.9,2,1.4,4.5,1.4,7.6
				C343.2,84,342.4,89.3,340.8,95.2z M329.6,75.4c-1.2-1-3.1-1.6-5.9-1.6c-3.2,0-5.7,1.2-7.5,3.6c-1.6,2.1-3,5.2-3.9,9.6
				c-1,4.3-1.5,8-1.5,11c0,3.1,0.6,5.2,1.7,6.3c1.1,1.1,3,1.7,5.6,1.7c2,0,3.6-0.3,4.8-0.8c1.3-0.5,2.4-1.6,3.4-3.3
				c1.4-2.2,2.6-5.6,3.6-10.1c1-4.5,1.4-8,1.4-10.6C331.4,78.4,330.8,76.4,329.6,75.4z"/>
			<path class="st0" d="M356.8,114.1h-7.1c-1.1,0-1.6-0.5-1.6-1.6c0-0.1,0-0.3,0.1-0.5c0-0.3,0.1-0.5,0.2-0.8
				c0.1-0.3,0.1-0.5,0.1-0.5l7.7-36.6c0.7-3.1,1.7-5.2,3-6.5c1.3-1.3,3.5-1.9,6.4-1.9h5.7c6.7,0,11.4,0.7,14.1,2.2
				c3.3,1.7,5,4.8,5,9.3c0,9.2-3.9,14.9-11.8,17.1c-3.1,0.9-7.2,1.3-12.3,1.3h-3.4l-3.5,16.4C359.1,113.4,358.2,114.1,356.8,114.1z
				 M368.6,87c2.7,0,4.7-0.2,5.9-0.7c2.9-1,4.3-3.2,4.3-6.6c0-2.1-0.8-3.4-2.4-4.2c-1-0.5-2.9-0.7-5.4-0.7h-1.7
				c-0.7,0-1.3,0.2-1.6,0.5c-0.3,0.3-0.6,0.9-0.8,1.7l-2.1,9.9H368.6z"/>
			<path class="st0" d="M395.9,100c-1.1,0-1.7-0.5-1.7-1.4c0-0.4,0.4-2.2,1.1-5.5c0.3-1.2,1.1-1.8,2.5-1.8h14.6
				c1.2,0,1.8,0.5,1.8,1.4c0,0.4-0.4,2.3-1.2,5.5c-0.2,0.7-0.5,1.2-0.8,1.4c-0.4,0.2-0.9,0.3-1.6,0.3H395.9z"/>
			<path class="st0" d="M463.4,95.2c-1.6,6-3.8,10.5-6.6,13.6c-3.8,4.1-9.4,6.2-16.8,6.2c-2.8,0-5.2-0.2-7.3-0.7
				c-2.1-0.4-3.9-1.2-5.7-2.3c-1.7-1.1-3.1-2.7-4-4.8c-0.9-2.1-1.4-4.7-1.4-7.8c0-4.9,0.8-10,2.3-15.4c1.5-5.4,3.7-9.7,6.6-12.9
				c3.9-4.2,9.4-6.4,16.5-6.4c2.9,0,5.3,0.2,7.3,0.5c2,0.3,3.9,1,5.7,2c1.8,1,3.2,2.5,4.2,4.5c0.9,2,1.4,4.5,1.4,7.6
				C465.7,84,464.9,89.3,463.4,95.2z M452.2,75.4c-1.2-1-3.1-1.6-5.9-1.6c-3.2,0-5.7,1.2-7.5,3.6c-1.6,2.1-3,5.2-3.9,9.6
				c-1,4.3-1.5,8-1.5,11c0,3.1,0.6,5.2,1.7,6.3s3,1.7,5.6,1.7c2,0,3.6-0.3,4.8-0.8c1.3-0.5,2.4-1.6,3.4-3.3
				c1.4-2.2,2.6-5.6,3.6-10.1c1-4.5,1.4-8,1.4-10.6C453.9,78.4,453.3,76.4,452.2,75.4z"/>
			<path class="st0" d="M479.5,114.1h-7.2c-1.1,0-1.6-0.5-1.6-1.6c0-0.1,0.1-0.5,0.2-1.4l8.1-37.5c0.6-2.7,1.6-4.7,3.1-6
				c1.5-1.3,3.6-1.9,6.3-1.9h18.8c1.3,0,2,0.5,2,1.4c0,0.8-0.4,2.9-1.3,6.4c-0.3,1.1-1.1,1.7-2.5,1.7H492c-1.5,0-2.4,0.8-2.7,2.5
				l-1.7,8.1H501c1.2,0,1.8,0.5,1.8,1.5c0,0.5-0.4,2.6-1.2,6.3c-0.3,1.1-1,1.6-2.3,1.6h-13.8l-3.6,16.7
				C481.6,113.4,480.8,114.1,479.5,114.1z"/>
			<path class="st0" d="M517.7,114.1h-7.2c-1.1,0-1.6-0.5-1.6-1.6c0-0.1,0.1-0.5,0.2-1.4l8.1-37.5c0.6-2.7,1.6-4.7,3.1-6
				c1.5-1.3,3.6-1.9,6.3-1.9h18.8c1.3,0,2,0.5,2,1.4c0,0.8-0.4,2.9-1.3,6.4c-0.3,1.1-1.1,1.7-2.5,1.7h-13.4c-1.5,0-2.4,0.8-2.7,2.5
				l-1.7,8.1h13.4c1.2,0,1.8,0.5,1.8,1.5c0,0.5-0.4,2.6-1.2,6.3c-0.3,1.1-1,1.6-2.3,1.6h-13.8l-3.6,16.7
				C519.9,113.4,519,114.1,517.7,114.1z"/>
		</g>
		<g>
			<path class="st0" d="M206.6,144.8c-0.9,0-1.5-0.2-1.8-0.5c-0.4-0.3-0.6-0.8-0.6-1.4c0-0.4,0-0.7,0.1-1.1l2.4-11.2
				c0.2-1,0.6-1.7,1.1-2.1c0.5-0.4,1.3-0.7,2.2-0.7h6.8c0.5,0,0.7,0.2,0.7,0.5c0,0.2-0.2,0.9-0.5,2.2c-0.1,0.4-0.4,0.6-0.9,0.6h-4.9
				c-0.5,0-0.8,0.3-0.9,0.9l-0.5,2.3h5c0.4,0,0.6,0.2,0.6,0.5c0,0.3-0.2,1-0.5,2.2c-0.1,0.4-0.4,0.6-0.8,0.6h-5.1l-0.5,2.4
				c-0.1,0.4-0.1,0.6-0.1,0.8c0,0.4,0.2,0.6,0.7,0.6h5.6c0.4,0,0.7,0.2,0.7,0.5c0,0.4-0.2,1.1-0.5,2.3c-0.1,0.4-0.4,0.6-0.8,0.6
				H206.6z"/>
			<path class="st0" d="M220.3,144.8h-2.4c-0.4,0-0.6-0.2-0.6-0.5c0-0.1,0-0.3,0.1-0.5l1.7-8h-1c-0.5,0-0.7-0.2-0.7-0.6
				c0-0.2,0.1-0.8,0.3-1.7c0.1-0.5,0.4-0.7,0.9-0.7h1.1l0.1-0.6c0.4-1.8,1.1-3,2-3.7c1.2-0.9,2.8-1.3,4.9-1.3c0.7,0,1.1,0.3,1.1,0.8
				c0,0.5-0.1,1-0.2,1.5c-0.1,0.4-0.4,0.7-0.9,0.7c-0.8,0.1-1.4,0.2-1.7,0.3c-0.3,0.1-0.6,0.3-0.8,0.5c-0.2,0.2-0.4,0.7-0.5,1.4
				l-0.1,0.5h4.2l0.2-1.1c0.4-1.8,1-3,2-3.7c1.2-0.9,2.7-1.3,4.6-1.3c0.8,0,1.1,0.2,1.1,0.7c0,0.6-0.1,1.1-0.2,1.6
				c-0.1,0.4-0.4,0.6-0.9,0.7c-1.3,0.2-2,0.4-2.3,0.7c-0.3,0.3-0.5,0.8-0.6,1.4l-0.2,0.9h7.2c0.4,0,0.6,0.2,0.6,0.5
				c0,0.2,0,0.4-0.1,0.7l-2.2,10.1c-0.1,0.5-0.4,0.7-0.8,0.7h-2.5c-0.4,0-0.6-0.2-0.6-0.5c0-0.2,0-0.4,0.1-0.6l1.7-7.9H231l-1.7,8.2
				c-0.1,0.6-0.4,0.8-0.9,0.8h-2.4c-0.4,0-0.6-0.2-0.6-0.5c0-0.1,0-0.3,0.1-0.5l1.7-8h-4.2l-1.7,8.2
				C221.1,144.5,220.8,144.8,220.3,144.8z M240.1,129.5c-0.1,0.4-0.3,0.7-0.5,0.9c-0.4,0.4-0.9,0.6-1.5,0.6c-1.1,0-1.7-0.5-1.7-1.5
				c0-0.8,0.2-1.4,0.6-1.8c0.4-0.4,0.9-0.6,1.6-0.6c1.1,0,1.7,0.5,1.7,1.5C240.3,128.8,240.2,129.1,240.1,129.5z"/>
			<path class="st0" d="M246.5,142c0.4,0,1,0,1.6-0.1c0,0,0.1,0,0.3-0.1c0.2,0,0.3-0.1,0.4-0.1c0.3,0,0.5,0.2,0.6,0.6
				c0.1,0.6,0.2,1.1,0.2,1.7c0,0.3-0.2,0.5-0.7,0.7c-1,0.3-2.1,0.4-3.5,0.4c-1.5,0-2.7-0.4-3.5-1.1c-0.8-0.7-1.3-1.8-1.3-3.2
				c0-1.3,0.2-2.6,0.7-4c0.5-1.3,1.2-2.4,2.2-3.2c1.1-0.9,2.6-1.3,4.5-1.3c1.2,0,2.1,0.1,2.8,0.4c0.3,0.1,0.4,0.3,0.4,0.6
				c0,0.2-0.1,0.5-0.2,0.9c-0.1,0.4-0.2,0.8-0.3,1c-0.2,0.3-0.4,0.4-0.7,0.4c-0.1,0-0.3,0-0.8-0.1c-0.6-0.1-1.1-0.1-1.5-0.1
				c-0.9,0-1.6,0.2-2,0.7c-0.4,0.4-0.7,0.9-0.9,1.7c-0.2,0.7-0.3,1.4-0.3,2.1C244.6,141.3,245.2,142,246.5,142z"/>
			<path class="st0" d="M254.4,144.8h-2.5c-0.4,0-0.6-0.2-0.6-0.5c0-0.2,0-0.4,0.1-0.6l2.2-10.2c0.1-0.5,0.4-0.7,0.8-0.7h2.5
				c0.4,0,0.5,0.2,0.5,0.5c0,0.1,0,0.4-0.1,0.7l-2.1,10.1C255.1,144.5,254.8,144.8,254.4,144.8z M258.1,129.5
				c-0.1,0.4-0.3,0.7-0.5,0.9c-0.4,0.4-0.9,0.6-1.6,0.6c-1.1,0-1.7-0.5-1.7-1.5c0-0.8,0.2-1.4,0.6-1.8c0.4-0.4,1-0.6,1.6-0.6
				c1.1,0,1.7,0.5,1.7,1.5C258.2,128.8,258.2,129.1,258.1,129.5z"/>
			<path class="st0" d="M262.4,140.5c0,0.6,0.2,1,0.5,1.2c0.4,0.2,0.9,0.3,1.6,0.3c0.9,0,1.7-0.1,2.4-0.2c0,0,0.1,0,0.4-0.1
				c0.2,0,0.4-0.1,0.5-0.1c0.3,0,0.5,0.2,0.5,0.5c0.2,0.6,0.3,1.1,0.3,1.6c0,0.3-0.2,0.6-0.6,0.7c-1,0.4-2.5,0.7-4.6,0.7
				c-3.3,0-4.9-1.4-4.9-4.3c0-1.3,0.2-2.5,0.7-3.8c0.5-1.3,1.1-2.3,2-3.1c1.1-1,2.7-1.4,4.6-1.4c1.5,0,2.6,0.3,3.3,0.9
				c0.7,0.6,1,1.4,1,2.5c0,1.1-0.1,2.2-0.4,3.2c-0.1,0.4-0.3,0.7-0.5,0.8c-0.1,0.1-0.4,0.1-0.6,0.1h-6.2
				C262.4,140.2,262.4,140.4,262.4,140.5z M266.5,137.3c0.1-0.4,0.2-0.7,0.2-1.1c0-0.4-0.1-0.6-0.3-0.8c-0.2-0.2-0.5-0.3-1-0.3
				c-0.6,0-1.1,0.2-1.5,0.5c-0.4,0.3-0.7,0.9-0.9,1.7H266.5z"/>
			<path class="st0" d="M274,144.8h-2.5c-0.4,0-0.6-0.2-0.6-0.5c0-0.1,0-0.3,0.1-0.5l1.9-8.8c0.1-0.8,0.6-1.3,1.2-1.5
				c1.7-0.7,3.7-1,6.2-1c2.4,0,3.6,0.8,3.6,2.3c0,0.7-0.1,1.4-0.2,2.1L282,144c-0.1,0.5-0.4,0.7-0.8,0.7h-2.5
				c-0.4,0-0.6-0.2-0.6-0.5c0-0.1,0-0.3,0.1-0.5l1.4-6.6c0.1-0.4,0.1-0.7,0.1-0.9c0-0.5-0.4-0.8-1.2-0.8c-0.5,0-1,0.1-1.4,0.2
				c-0.2,0-0.4,0.1-0.6,0.3c-0.1,0.1-0.2,0.3-0.3,0.6l-1.6,7.5C274.6,144.5,274.4,144.8,274,144.8z"/>
			<path class="st0" d="M290.3,139.7c-0.1,0.4-0.1,0.7-0.1,1.1c0,0.4,0.1,0.6,0.3,0.8c0.2,0.2,0.7,0.3,1.4,0.4
				c0.4,0,0.6,0.3,0.6,0.7c0,0.5-0.1,1-0.3,1.6c-0.1,0.5-0.4,0.7-0.9,0.7c-1.6,0-2.9-0.2-3.8-0.6c-0.9-0.4-1.3-1.1-1.3-2.3
				c0-0.7,0.1-1.7,0.4-2.8l0.7-3.5h-1.1c-0.4,0-0.6-0.2-0.6-0.5c0-0.3,0.1-0.9,0.4-1.8c0.1-0.5,0.4-0.7,0.9-0.7h1.2
				c0-0.1,0.2-1,0.6-2.5c0.2-0.5,0.5-0.8,0.9-0.8h2.1c0.4,0,0.6,0.2,0.6,0.5c0,0.2,0,0.5-0.1,0.9l-0.4,1.9h1.6
				c0.5,0,0.7,0.2,0.7,0.6c0,0.4-0.1,1-0.3,1.8c-0.1,0.4-0.4,0.6-0.9,0.6h-1.8L290.3,139.7z"/>
			<path class="st0" d="M302.4,144.8h-2.5c-0.4,0-0.5-0.2-0.5-0.5c0-0.1,0-0.3,0.1-0.6l1.8-8.6c0.1-0.5,0.2-0.8,0.4-1
				c0.2-0.2,0.4-0.4,0.8-0.7c0.4-0.3,1.2-0.5,2.2-0.7c1-0.2,1.9-0.3,2.7-0.3c0.8,0,1.4,0.1,1.7,0.2c0.3,0.1,0.4,0.3,0.4,0.7
				c0,0.7-0.1,1.3-0.4,1.9c-0.1,0.3-0.4,0.5-0.8,0.5c-0.1,0-0.4,0-0.7,0c-0.4,0-0.6,0-0.8,0c-0.6,0-1.1,0.1-1.4,0.2
				c-0.2,0-0.3,0.1-0.4,0.3c-0.1,0.1-0.2,0.4-0.2,0.6l-1.5,7.3C303,144.5,302.8,144.8,302.4,144.8z"/>
			<path class="st0" d="M320.7,140.1c-0.4,1.4-0.9,2.4-1.6,3.2c-1,1.2-2.6,1.8-4.8,1.8c-0.8,0-1.5-0.1-2.1-0.2
				c-0.6-0.1-1.1-0.3-1.6-0.6c-0.5-0.3-0.9-0.7-1.1-1.3c-0.3-0.6-0.4-1.3-0.4-2.1c0-1.2,0.2-2.5,0.6-3.7c0.4-1.3,1-2.3,1.8-3.1
				c1.1-1.1,2.6-1.7,4.5-1.7c0.8,0,1.5,0,2.1,0.1c0.6,0.1,1.1,0.3,1.6,0.5c0.5,0.3,0.9,0.7,1.2,1.2c0.3,0.6,0.4,1.3,0.4,2.1
				C321.2,137.5,321,138.7,320.7,140.1z M316.9,135.8c-0.2-0.2-0.6-0.3-1.2-0.3c-0.7,0-1.3,0.3-1.6,0.8c-0.3,0.5-0.6,1.1-0.8,2.1
				c-0.2,0.9-0.3,1.6-0.3,2.2c0,0.6,0.1,1,0.4,1.2c0.2,0.2,0.6,0.3,1.2,0.3c0.7,0,1.3-0.2,1.6-0.7c0.3-0.4,0.6-1.1,0.8-2.1
				c0.2-1,0.3-1.8,0.3-2.3C317.3,136.4,317.2,136,316.9,135.8z"/>
			<path class="st0" d="M332.4,144.2c-1.6,0.6-3.6,0.9-6.1,0.9c-2.4,0-3.6-0.8-3.6-2.3c0-0.7,0.1-1.4,0.2-2.1l1.5-7.2
				c0.1-0.5,0.4-0.7,0.8-0.7h2.5c0.4,0,0.6,0.2,0.6,0.5c0,0.1,0,0.3-0.1,0.5l-1.4,6.4c-0.1,0.5-0.1,0.9-0.1,1c0,0.5,0.4,0.8,1.2,0.8
				c0.5,0,1-0.1,1.4-0.2c0.2-0.1,0.4-0.2,0.6-0.3c0.1-0.1,0.2-0.3,0.3-0.6l1.6-7.5c0.1-0.5,0.4-0.7,0.8-0.7h2.5
				c0.4,0,0.6,0.2,0.6,0.5c0,0.1,0,0.3-0.1,0.5l-1.9,8.9C333.5,143.4,333.1,143.9,332.4,144.2z"/>
			<path class="st0" d="M341.7,139.7c-0.1,0.4-0.1,0.7-0.1,1.1c0,0.4,0.1,0.6,0.3,0.8c0.2,0.2,0.7,0.3,1.4,0.4
				c0.4,0,0.6,0.3,0.6,0.7c0,0.5-0.1,1-0.3,1.6c-0.1,0.5-0.4,0.7-0.9,0.7c-1.6,0-2.9-0.2-3.8-0.6c-0.9-0.4-1.3-1.1-1.3-2.3
				c0-0.7,0.1-1.7,0.4-2.8l0.7-3.5h-1.1c-0.4,0-0.6-0.2-0.6-0.5c0-0.3,0.1-0.9,0.4-1.8c0.1-0.5,0.4-0.7,0.9-0.7h1.2
				c0-0.1,0.2-1,0.6-2.5c0.2-0.5,0.5-0.8,0.9-0.8h2.1c0.4,0,0.6,0.2,0.6,0.5c0,0.2,0,0.5-0.1,0.9l-0.4,1.9h1.6
				c0.5,0,0.7,0.2,0.7,0.6c0,0.4-0.1,1-0.3,1.8c-0.1,0.4-0.4,0.6-0.9,0.6h-1.8L341.7,139.7z"/>
			<path class="st0" d="M349.4,140.5c0,0.6,0.2,1,0.5,1.2c0.4,0.2,0.9,0.3,1.6,0.3c0.9,0,1.7-0.1,2.4-0.2c0,0,0.1,0,0.4-0.1
				c0.2,0,0.4-0.1,0.5-0.1c0.3,0,0.5,0.2,0.5,0.5c0.2,0.6,0.3,1.1,0.3,1.6c0,0.3-0.2,0.6-0.6,0.7c-1,0.4-2.5,0.7-4.6,0.7
				c-3.3,0-4.9-1.4-4.9-4.3c0-1.3,0.2-2.5,0.7-3.8c0.5-1.3,1.1-2.3,2-3.1c1.1-1,2.7-1.4,4.6-1.4c1.5,0,2.6,0.3,3.3,0.9
				c0.7,0.6,1,1.4,1,2.5c0,1.1-0.1,2.2-0.4,3.2c-0.1,0.4-0.3,0.7-0.5,0.8c-0.1,0.1-0.4,0.1-0.6,0.1h-6.2
				C349.4,140.2,349.4,140.4,349.4,140.5z M353.5,137.3c0.1-0.4,0.2-0.7,0.2-1.1c0-0.4-0.1-0.6-0.3-0.8c-0.2-0.2-0.5-0.3-1-0.3
				c-0.6,0-1.1,0.2-1.5,0.5c-0.4,0.3-0.7,0.9-0.9,1.7H353.5z"/>
			<path class="st0" d="M366.9,138.7c0.4,0.5,0.6,1,0.6,1.7c0,1.5-0.4,2.7-1.3,3.4c-0.9,0.8-2.2,1.1-4.1,1.1c-2.1,0-3.5-0.2-4.4-0.6
				c-0.3-0.1-0.4-0.3-0.4-0.6c0-0.4,0.2-1,0.5-1.9c0.1-0.3,0.4-0.5,0.8-0.5c0.2,0,0.4,0,0.7,0.1c1,0.3,2,0.4,3.1,0.4
				c0.6,0,1-0.1,1.2-0.3c0.1-0.2,0.2-0.4,0.2-0.6c0-0.2-0.1-0.3-0.2-0.4c-0.1-0.1-0.4-0.2-0.8-0.3l-1.4-0.4c-0.9-0.3-1.6-0.6-2-1.1
				c-0.5-0.4-0.7-1.1-0.7-1.8c0-1.6,0.5-2.8,1.6-3.6c0.9-0.7,2.3-1,4.1-1c1.4,0,2.5,0.1,3.3,0.3c0.3,0.1,0.5,0.3,0.5,0.6
				c0,0.5-0.1,1.1-0.4,1.9c-0.1,0.3-0.3,0.5-0.7,0.5c-0.2,0-0.4,0-0.7-0.1c-0.9-0.2-1.7-0.2-2.5-0.2c-0.5,0-0.9,0.1-1.2,0.3
				c-0.2,0.1-0.3,0.4-0.3,0.7s0.3,0.6,1,0.8l1.4,0.5C365.8,137.9,366.5,138.3,366.9,138.7z"/>
			<path class="st0" d="M372.1,140.8c0.7,0,1,0.3,1,0.9c0,0.9-0.4,2.1-1.2,3.5c-0.8,1.4-1.6,2.5-2.5,3.2c-0.5,0.4-0.9,0.6-1.1,0.6
				c-0.3,0-0.6-0.1-0.9-0.4c-0.3-0.3-0.5-0.5-0.5-0.7c0-0.2,0.2-0.5,0.5-0.8c0.5-0.5,1-1.3,1.4-2.2c0.4-0.9,0.7-1.9,0.9-3
				c0.1-0.4,0.2-0.7,0.4-0.9c0.2-0.2,0.5-0.3,0.9-0.3H372.1z"/>
			<path class="st0" d="M385.9,139.7c-0.1,0.4-0.1,0.7-0.1,1.1c0,0.4,0.1,0.6,0.3,0.8c0.2,0.2,0.7,0.3,1.4,0.4
				c0.4,0,0.6,0.3,0.6,0.7c0,0.5-0.1,1-0.3,1.6c-0.1,0.5-0.4,0.7-0.9,0.7c-1.6,0-2.9-0.2-3.8-0.6c-0.9-0.4-1.3-1.1-1.3-2.3
				c0-0.7,0.1-1.7,0.4-2.8l0.7-3.5h-1.1c-0.4,0-0.6-0.2-0.6-0.5c0-0.3,0.1-0.9,0.4-1.8c0.1-0.5,0.4-0.7,0.9-0.7h1.2
				c0-0.1,0.2-1,0.6-2.5c0.2-0.5,0.5-0.8,0.9-0.8h2.1c0.4,0,0.6,0.2,0.6,0.5c0,0.2,0,0.5-0.1,0.9l-0.4,1.9h1.6
				c0.5,0,0.7,0.2,0.7,0.6c0,0.4-0.1,1-0.3,1.8c-0.1,0.4-0.4,0.6-0.9,0.6h-1.8L385.9,139.7z"/>
			<path class="st0" d="M392.8,144.8h-2.5c-0.4,0-0.6-0.2-0.6-0.5c0-0.2,0-0.4,0.1-0.6l2.2-10.2c0.1-0.5,0.4-0.7,0.8-0.7h2.5
				c0.4,0,0.5,0.2,0.5,0.5c0,0.1,0,0.4-0.1,0.7l-2.1,10.1C393.5,144.5,393.3,144.8,392.8,144.8z M396.5,129.5
				c-0.1,0.4-0.3,0.7-0.5,0.9c-0.4,0.4-0.9,0.6-1.6,0.6c-1.1,0-1.7-0.5-1.7-1.5c0-0.8,0.2-1.4,0.6-1.8c0.4-0.4,1-0.6,1.6-0.6
				c1.1,0,1.7,0.5,1.7,1.5C396.7,128.8,396.6,129.1,396.5,129.5z"/>
			<path class="st0" d="M399.7,144.8h-2.5c-0.4,0-0.6-0.2-0.6-0.5c0-0.1,0-0.3,0.1-0.5l1.9-8.8c0.1-0.8,0.6-1.3,1.2-1.5
				c1.7-0.7,3.6-1,5.9-1c1.2,0,2,0.3,2.6,0.8c1.1-0.5,2.6-0.8,4.6-0.8c2.4,0,3.5,0.8,3.5,2.3c0,0.7-0.1,1.4-0.2,2.1l-1.5,7.2
				c-0.1,0.5-0.4,0.7-0.8,0.7h-2.5c-0.4,0-0.6-0.2-0.6-0.5c0-0.1,0-0.3,0.1-0.5l1.4-6.6c0.1-0.4,0.1-0.7,0.1-0.9
				c0-0.5-0.3-0.8-1-0.8c-0.5,0-1,0.1-1.4,0.2c-0.2,0-0.3,0.1-0.5,0.3c-0.1,0.1-0.2,0.2-0.2,0.4c-0.1,0.3-0.1,0.5-0.2,0.7l-1.5,6.9
				c-0.1,0.5-0.4,0.7-0.8,0.7h-2.5c-0.4,0-0.6-0.2-0.6-0.5c0-0.1,0-0.3,0.1-0.6l1.4-6.5c0.1-0.4,0.1-0.7,0.1-0.9
				c0-0.5-0.3-0.8-1-0.8c-0.5,0-1,0.1-1.4,0.2c-0.3,0.1-0.5,0.2-0.5,0.2c-0.1,0.1-0.2,0.3-0.3,0.6l-1.6,7.5
				C400.4,144.5,400.1,144.8,399.7,144.8z"/>
			<path class="st0" d="M421.9,140.5c0,0.6,0.2,1,0.5,1.2c0.4,0.2,0.9,0.3,1.6,0.3c0.9,0,1.7-0.1,2.4-0.2c0,0,0.1,0,0.4-0.1
				c0.2,0,0.4-0.1,0.5-0.1c0.3,0,0.5,0.2,0.5,0.5c0.2,0.6,0.3,1.1,0.3,1.6c0,0.3-0.2,0.6-0.6,0.7c-1,0.4-2.5,0.7-4.6,0.7
				c-3.3,0-4.9-1.4-4.9-4.3c0-1.3,0.2-2.5,0.7-3.8c0.5-1.3,1.1-2.3,2-3.1c1.1-1,2.7-1.4,4.6-1.4c1.5,0,2.6,0.3,3.3,0.9
				c0.7,0.6,1,1.4,1,2.5c0,1.1-0.1,2.2-0.4,3.2c-0.1,0.4-0.3,0.7-0.5,0.8c-0.1,0.1-0.4,0.1-0.6,0.1H422
				C421.9,140.2,421.9,140.4,421.9,140.5z M426,137.3c0.1-0.4,0.2-0.7,0.2-1.1c0-0.4-0.1-0.6-0.3-0.8c-0.2-0.2-0.5-0.3-1-0.3
				c-0.6,0-1.1,0.2-1.5,0.5c-0.4,0.3-0.7,0.9-0.9,1.7H426z"/>
			<path class="st0" d="M435,139.7c-0.1,0.5-0.2,1-0.2,1.4c0,0.3,0.1,0.5,0.3,0.7c0.2,0.1,0.5,0.2,0.9,0.3c0.4,0.1,0.6,0.3,0.6,0.7
				c0,0.4-0.1,0.8-0.3,1.4c-0.1,0.5-0.5,0.7-1.1,0.7c-2.8,0-4.2-1-4.2-2.9c0-0.5,0.1-1.2,0.2-1.9l2.7-12.4c0.1-0.6,0.4-0.9,0.9-0.9
				h2.2c0.5,0,0.7,0.2,0.7,0.6c0,0,0,0.2-0.1,0.5L435,139.7z"/>
			<path class="st0" d="M442.1,145.1c-2.4,0-3.5-0.8-3.5-2.3c0-0.5,0.1-1.2,0.2-2l1.5-7.2c0.1-0.5,0.4-0.7,0.8-0.7h2.5
				c0.4,0,0.5,0.2,0.5,0.5c0,0,0,0.1,0,0.2c0,0.1,0,0.2,0,0.3c0,0.1,0,0.2,0,0.2l-1.4,6.3c-0.1,0.4-0.1,0.7-0.1,1.1
				c0,0.5,0.4,0.7,1.2,0.7c0.5,0,0.9-0.1,1.3-0.2c0.2-0.1,0.4-0.2,0.6-0.3c0.2-0.2,0.3-0.4,0.3-0.7l1.6-7.4c0.1-0.5,0.4-0.7,0.8-0.7
				h2.4c0.4,0,0.6,0.2,0.6,0.5c0,0.1,0,0.3-0.1,0.6l-2.1,9.9c-0.3,1.4-0.6,2.5-0.9,3c-0.6,1.4-1.6,2.3-3,2.9s-3.4,0.8-6.2,0.8
				c-0.7,0-1-0.2-1-0.7c0-0.7,0-1.2,0-1.4c0-0.6,0.3-0.9,0.9-0.9c1.9,0,3.2-0.2,4-0.4c0.8-0.2,1.3-0.6,1.6-1
				c0.1-0.3,0.3-0.7,0.4-1.1l0.1-0.3C444.2,144.9,443.2,145.1,442.1,145.1z"/>
			<path class="st0" d="M468.3,143.7c-0.2,0.3-0.5,0.6-1.1,0.8c-1.1,0.4-2.7,0.6-4.7,0.6c-3.1,0-4.7-1.3-4.7-4c0-1.3,0.2-2.7,0.6-4
				c0.4-1.3,1-2.4,1.9-3.2c0.6-0.6,1.2-1,2-1.2c0.7-0.2,1.6-0.3,2.7-0.3c0.8,0,1.4,0.1,1.9,0.3l1.1-5c0.1-0.6,0.4-0.9,0.9-0.9h2.2
				c0.5,0,0.7,0.2,0.7,0.6c0,0,0,0.2-0.1,0.6l-3.2,15C468.6,143.1,468.5,143.4,468.3,143.7z M466.2,136.3c0-0.2,0-0.4,0-0.4
				c0-0.1-0.1-0.3-0.2-0.3c-0.2-0.1-0.6-0.2-1.1-0.2c-0.8,0-1.4,0.2-1.8,0.7c-0.4,0.4-0.7,1-1,1.9c-0.3,0.8-0.4,1.6-0.4,2.4
				c0,1.1,0.5,1.7,1.5,1.7c0.6,0,1-0.1,1.4-0.2c0.2-0.1,0.3-0.2,0.4-0.3c0.1-0.1,0.1-0.3,0.2-0.5L466.2,136.3z"/>
			<path class="st0" d="M475.7,140.5c0,0.6,0.2,1,0.5,1.2c0.4,0.2,0.9,0.3,1.6,0.3c0.9,0,1.7-0.1,2.4-0.2c0,0,0.1,0,0.4-0.1
				c0.2,0,0.4-0.1,0.5-0.1c0.3,0,0.5,0.2,0.5,0.5c0.2,0.6,0.3,1.1,0.3,1.6c0,0.3-0.2,0.6-0.6,0.7c-1,0.4-2.5,0.7-4.6,0.7
				c-3.3,0-4.9-1.4-4.9-4.3c0-1.3,0.2-2.5,0.7-3.8c0.5-1.3,1.1-2.3,2-3.1c1.1-1,2.7-1.4,4.6-1.4c1.5,0,2.6,0.3,3.3,0.9
				c0.7,0.6,1,1.4,1,2.5c0,1.1-0.1,2.2-0.4,3.2c-0.1,0.4-0.3,0.7-0.5,0.8c-0.1,0.1-0.4,0.1-0.6,0.1h-6.2
				C475.7,140.2,475.7,140.4,475.7,140.5z M479.7,137.3c0.1-0.4,0.2-0.7,0.2-1.1c0-0.4-0.1-0.6-0.3-0.8c-0.2-0.2-0.5-0.3-1-0.3
				c-0.6,0-1.1,0.2-1.5,0.5c-0.4,0.3-0.7,0.9-0.9,1.7H479.7z"/>
			<path class="st0" d="M488.8,139.7c-0.1,0.5-0.2,1-0.2,1.4c0,0.3,0.1,0.5,0.3,0.7c0.2,0.1,0.5,0.2,0.9,0.3
				c0.4,0.1,0.6,0.3,0.6,0.7c0,0.4-0.1,0.8-0.3,1.4c-0.1,0.5-0.5,0.7-1.1,0.7c-2.8,0-4.2-1-4.2-2.9c0-0.5,0.1-1.2,0.2-1.9l2.7-12.4
				c0.1-0.6,0.4-0.9,0.9-0.9h2.2c0.5,0,0.7,0.2,0.7,0.6c0,0,0,0.2-0.1,0.5L488.8,139.7z"/>
			<path class="st0" d="M494.8,144.8h-2.5c-0.4,0-0.6-0.2-0.6-0.5c0-0.2,0-0.4,0.1-0.6l2.2-10.2c0.1-0.5,0.4-0.7,0.8-0.7h2.5
				c0.4,0,0.5,0.2,0.5,0.5c0,0.1,0,0.4-0.1,0.7l-2.1,10.1C495.5,144.5,495.2,144.8,494.8,144.8z M498.5,129.5
				c-0.1,0.4-0.3,0.7-0.5,0.9c-0.4,0.4-0.9,0.6-1.6,0.6c-1.1,0-1.7-0.5-1.7-1.5c0-0.8,0.2-1.4,0.6-1.8c0.4-0.4,1-0.6,1.6-0.6
				c1.1,0,1.7,0.5,1.7,1.5C498.7,128.8,498.6,129.1,498.5,129.5z"/>
			<path class="st0" d="M508,133.4c0.3-0.5,0.6-0.7,1-0.7c0.8,0,1.6,0,2.4,0.1c0.4,0,0.5,0.2,0.5,0.5c0,0.2-0.1,0.5-0.3,0.9
				l-5.2,8.8c-0.4,0.7-0.8,1.2-1.2,1.5c-0.4,0.3-0.9,0.4-1.6,0.4H503c-0.7,0-1.3-0.1-1.5-0.4c-0.3-0.3-0.5-0.8-0.6-1.5l-1.3-8.8
				c0-0.2,0-0.4,0-0.5c0-0.5,0.2-0.8,0.7-0.8c0.8-0.1,1.6-0.1,2.4-0.1c0.5,0,0.7,0.3,0.8,0.8c0.5,4.7,0.7,7.1,0.7,7.4
				C504.8,139.3,506.1,136.9,508,133.4z"/>
			<path class="st0" d="M515.9,140.5c0,0.6,0.2,1,0.5,1.2c0.4,0.2,0.9,0.3,1.6,0.3c0.9,0,1.7-0.1,2.4-0.2c0,0,0.1,0,0.4-0.1
				c0.2,0,0.4-0.1,0.5-0.1c0.3,0,0.5,0.2,0.5,0.5c0.2,0.6,0.3,1.1,0.3,1.6c0,0.3-0.2,0.6-0.6,0.7c-1,0.4-2.5,0.7-4.6,0.7
				c-3.3,0-4.9-1.4-4.9-4.3c0-1.3,0.2-2.5,0.7-3.8c0.5-1.3,1.1-2.3,2-3.1c1.1-1,2.7-1.4,4.6-1.4c1.5,0,2.6,0.3,3.3,0.9
				c0.7,0.6,1,1.4,1,2.5c0,1.1-0.1,2.2-0.4,3.2c-0.1,0.4-0.3,0.7-0.5,0.8c-0.1,0.1-0.4,0.1-0.6,0.1h-6.2
				C515.9,140.2,515.9,140.4,515.9,140.5z M519.9,137.3c0.1-0.4,0.2-0.7,0.2-1.1c0-0.4-0.1-0.6-0.3-0.8c-0.2-0.2-0.5-0.3-1-0.3
				c-0.6,0-1.1,0.2-1.5,0.5c-0.4,0.3-0.7,0.9-0.9,1.7H519.9z"/>
			<path class="st0" d="M527.4,144.8h-2.5c-0.4,0-0.5-0.2-0.5-0.5c0-0.1,0-0.3,0.1-0.6l1.8-8.6c0.1-0.5,0.2-0.8,0.4-1
				c0.2-0.2,0.4-0.4,0.8-0.7c0.4-0.3,1.2-0.5,2.2-0.7c1-0.2,1.9-0.3,2.7-0.3c0.8,0,1.4,0.1,1.7,0.2c0.3,0.1,0.4,0.3,0.4,0.7
				c0,0.7-0.1,1.3-0.4,1.9c-0.1,0.3-0.4,0.5-0.8,0.5c-0.1,0-0.4,0-0.7,0c-0.4,0-0.6,0-0.8,0c-0.6,0-1.1,0.1-1.4,0.2
				c-0.2,0-0.3,0.1-0.4,0.3c-0.1,0.1-0.2,0.4-0.2,0.6l-1.5,7.3C528.1,144.5,527.8,144.8,527.4,144.8z"/>
			<path class="st0" d="M537.8,145.1c-2.4,0-3.5-0.8-3.5-2.3c0-0.5,0.1-1.2,0.2-2l1.5-7.2c0.1-0.5,0.4-0.7,0.8-0.7h2.5
				c0.4,0,0.5,0.2,0.5,0.5c0,0,0,0.1,0,0.2c0,0.1,0,0.2,0,0.3c0,0.1,0,0.2,0,0.2l-1.4,6.3c-0.1,0.4-0.1,0.7-0.1,1.1
				c0,0.5,0.4,0.7,1.2,0.7c0.5,0,0.9-0.1,1.3-0.2c0.2-0.1,0.4-0.2,0.6-0.3c0.2-0.2,0.3-0.4,0.3-0.7l1.6-7.4c0.1-0.5,0.4-0.7,0.8-0.7
				h2.4c0.4,0,0.6,0.2,0.6,0.5c0,0.1,0,0.3-0.1,0.6l-2.1,9.9c-0.3,1.4-0.6,2.5-0.9,3c-0.6,1.4-1.6,2.3-3,2.9s-3.4,0.8-6.2,0.8
				c-0.7,0-1-0.2-1-0.7c0-0.7,0-1.2,0-1.4c0-0.6,0.3-0.9,0.9-0.9c1.9,0,3.2-0.2,4-0.4c0.8-0.2,1.3-0.6,1.6-1
				c0.1-0.3,0.3-0.7,0.4-1.1l0.1-0.3C539.9,144.9,538.9,145.1,537.8,145.1z"/>
		</g>
	</g>
</g>
</svg>
