<?xml version="1.0" encoding="utf-8"?>
<!-- Generator: Adobe Illustrator 24.3.0, SVG Export Plug-In . SVG Version: 6.00 Build 0)  -->
<svg version="1.1" id="Layer_1" xmlns="http://www.w3.org/2000/svg" xmlns:xlink="http://www.w3.org/1999/xlink" x="0px" y="0px"
	 viewBox="0 0 1080.46 838.32" style="enable-background:new 0 0 1080.46 838.32;" xml:space="preserve">
<style type="text/css">
	.st0{fill:#155C79;}
	.st1{fill:#F9A01F;}
	.st2{fill:#FFFFFF;}
</style>
<g>
	<g>
		<path class="st0" d="M171.81,671.48v-77.53h34.94c3.64,0,7.01,0.75,10.1,2.24c3.09,1.49,5.77,3.49,8.03,6.01
			c2.26,2.51,4.02,5.33,5.3,8.46c1.27,3.13,1.91,6.3,1.91,9.5c0,3.2-0.51,6.24-1.53,9.12c-1.02,2.88-2.48,5.46-4.37,7.75
			c-1.89,2.29-4.15,4.17-6.77,5.62l17.03,28.83h-19.76l-14.85-25.01h-12.12v25.01H171.81z M189.71,630.86h16.38
			c1.46,0,2.75-0.45,3.88-1.37c1.13-0.91,2.06-2.17,2.78-3.77c0.73-1.6,1.09-3.46,1.09-5.57c0-2.11-0.42-3.95-1.26-5.51
			c-0.84-1.56-1.88-2.78-3.11-3.66c-1.24-0.87-2.55-1.31-3.93-1.31h-15.83V630.86z"/>
		<path class="st0" d="M268.99,672.57c-4.88,0-9.21-0.77-12.99-2.32c-3.79-1.55-7.01-3.65-9.66-6.32c-2.66-2.66-4.68-5.74-6.06-9.23
			c-1.38-3.49-2.08-7.14-2.08-10.96c0-5.43,1.22-10.38,3.66-14.85c2.44-4.47,5.95-8.08,10.54-10.83c4.59-2.75,10.12-4.13,16.6-4.13
			c6.48,0,11.99,1.36,16.54,4.08c4.55,2.72,8.03,6.29,10.43,10.7c2.4,4.41,3.6,9.19,3.6,14.35c0,1-0.05,1.99-0.16,2.96
			c-0.11,0.97-0.2,1.81-0.27,2.53h-42.37c0.22,2.48,0.93,4.57,2.13,6.26c1.2,1.7,2.75,2.99,4.64,3.87c1.89,0.89,3.89,1.33,6.01,1.33
			c2.62,0,5.08-0.62,7.37-1.86c2.29-1.24,3.88-2.91,4.75-5.02l14.85,4.15c-1.46,2.99-3.51,5.62-6.17,7.92
			c-2.66,2.29-5.79,4.09-9.39,5.4C277.34,671.92,273.36,672.57,268.99,672.57 M256.32,637.85h24.9c-0.29-2.29-0.98-4.29-2.07-5.99
			c-1.09-1.7-2.55-3.02-4.37-3.96c-1.82-0.94-3.82-1.41-6.01-1.41c-2.26,0-4.28,0.47-6.06,1.41c-1.78,0.94-3.22,2.26-4.31,3.96
			C257.31,633.56,256.61,635.56,256.32,637.85"/>
		<path class="st0" d="M398.17,671.48H380.7v-31.56c0-3.64-0.69-6.31-2.08-8.02c-1.38-1.71-3.17-2.57-5.35-2.57
			c-2.33,0-4.62,0.93-6.88,2.78c-2.26,1.85-3.86,4.24-4.8,7.17v32.2h-17.47v-31.56c0-3.71-0.69-6.4-2.08-8.08
			c-1.38-1.68-3.17-2.52-5.35-2.52c-2.26,0-4.51,0.91-6.77,2.73c-2.26,1.82-3.9,4.17-4.91,7.04v32.38h-17.47v-56.67h15.72v9.67
			c2.11-3.37,4.97-5.97,8.57-7.8c3.6-1.83,7.81-2.74,12.61-2.74c4.73,0,8.37,1.09,10.92,3.28c2.55,2.19,4.19,4.75,4.91,7.69
			c2.18-3.51,5.08-6.22,8.68-8.12c3.6-1.9,7.66-2.85,12.17-2.85c3.64,0,6.59,0.66,8.85,1.99c2.26,1.33,3.97,3.07,5.13,5.22
			c1.16,2.15,1.97,4.46,2.4,6.94c0.44,2.47,0.66,4.9,0.66,7.26V671.48z"/>
		<path class="st0" d="M437.04,672.57c-4.88,0-9.21-0.77-12.99-2.32c-3.79-1.55-7.01-3.65-9.66-6.32c-2.66-2.66-4.68-5.74-6.06-9.23
			c-1.38-3.49-2.08-7.14-2.08-10.96c0-5.43,1.22-10.38,3.66-14.85c2.44-4.47,5.95-8.08,10.54-10.83c4.59-2.75,10.12-4.13,16.6-4.13
			c6.48,0,11.99,1.36,16.54,4.08c4.55,2.72,8.03,6.29,10.43,10.7c2.4,4.41,3.6,9.19,3.6,14.35c0,1-0.05,1.99-0.17,2.96
			c-0.11,0.97-0.2,1.81-0.27,2.53h-42.37c0.22,2.48,0.93,4.57,2.13,6.26c1.2,1.7,2.75,2.99,4.64,3.87c1.89,0.89,3.89,1.33,6.01,1.33
			c2.62,0,5.08-0.62,7.37-1.86c2.29-1.24,3.88-2.91,4.75-5.02l14.85,4.15c-1.46,2.99-3.51,5.62-6.17,7.92
			c-2.66,2.29-5.79,4.09-9.39,5.4C445.4,671.92,441.41,672.57,437.04,672.57 M424.38,637.85h24.9c-0.29-2.29-0.98-4.29-2.07-5.99
			c-1.09-1.7-2.55-3.02-4.37-3.96c-1.82-0.94-3.82-1.41-6.01-1.41c-2.26,0-4.28,0.47-6.06,1.41c-1.78,0.94-3.22,2.26-4.31,3.96
			C425.36,633.56,424.66,635.56,424.38,637.85"/>
		<path class="st0" d="M472.31,643.2c0-5.52,1.09-10.49,3.28-14.9c2.18-4.41,5.17-7.91,8.95-10.49c3.78-2.58,8.15-3.87,13.1-3.87
			c4,0,7.64,0.97,10.92,2.89c3.28,1.93,5.75,4.46,7.43,7.59v-32.65h17.47v60.28c0,1.75,0.29,2.97,0.87,3.66
			c0.58,0.69,1.53,1.11,2.84,1.26v14.52c-3.06,0.58-5.53,0.87-7.43,0.87c-2.99,0-5.41-0.66-7.26-1.97c-1.86-1.31-3-3.13-3.44-5.46
			l-0.33-2.95c-2.04,3.57-4.8,6.22-8.3,7.97c-3.49,1.75-7.17,2.62-11.03,2.62c-3.93,0-7.55-0.74-10.86-2.2
			c-3.31-1.47-6.19-3.53-8.63-6.19c-2.44-2.66-4.31-5.78-5.62-9.36C472.97,651.23,472.31,647.36,472.31,643.2 M516.1,650.09v-11.66
			c-0.73-1.91-1.77-3.57-3.11-4.98c-1.35-1.41-2.88-2.54-4.59-3.39c-1.71-0.85-3.44-1.27-5.19-1.27c-1.89,0-3.62,0.39-5.19,1.17
			c-1.57,0.78-2.93,1.86-4.09,3.23c-1.17,1.38-2.06,2.95-2.68,4.72c-0.62,1.77-0.93,3.64-0.93,5.62c0,2.05,0.34,3.94,1.04,5.67
			c0.69,1.73,1.65,3.25,2.89,4.56c1.24,1.31,2.69,2.32,4.37,3.02c1.67,0.71,3.49,1.06,5.46,1.06c1.24,0,2.44-0.19,3.6-0.58
			c1.16-0.39,2.27-0.9,3.33-1.54c1.05-0.64,2.02-1.45,2.89-2.44C514.79,652.28,515.51,651.22,516.1,650.09"/>
		<path class="st0" d="M547,591.77h17.47v15.83H547V591.77z M547,614.15h17.47v57.33H547V614.15z"/>
		<path class="st0" d="M575.93,651.09v-36.28h17.47v32.37c0,3.44,0.69,6.08,2.08,7.91c1.38,1.83,3.35,2.74,5.9,2.74
			c1.6,0,3.13-0.26,4.59-0.79c1.46-0.53,2.88-1.39,4.26-2.59c1.38-1.2,2.62-2.75,3.71-4.66v-34.98h17.47v37.31
			c0,1.72,0.27,2.92,0.82,3.6c0.55,0.68,1.51,1.09,2.89,1.24v14.52c-1.6,0.29-3,0.51-4.2,0.66c-1.2,0.15-2.28,0.22-3.22,0.22
			c-3.06,0-5.5-0.63-7.32-1.89c-1.82-1.26-2.95-3.04-3.39-5.34l-0.33-3.45c-2.62,3.74-5.88,6.5-9.77,8.26
			c-3.9,1.76-8.24,2.64-13.05,2.64c-5.82,0-10.26-1.83-13.32-5.51C577.46,663.39,575.93,658.07,575.93,651.09"/>
		<path class="st0" d="M666.89,672.57c-4.88,0-9.65-0.8-14.3-2.4c-4.66-1.6-8.59-3.97-11.79-7.1l6.01-11.03
			c3.49,2.55,6.9,4.48,10.21,5.79c3.31,1.31,6.42,1.97,9.34,1.97c2.26,0,4-0.34,5.24-1.03c1.24-0.69,1.86-1.75,1.86-3.19
			c0-1.07-0.37-1.92-1.09-2.53c-0.73-0.61-1.84-1.17-3.33-1.67c-1.49-0.5-3.33-1.04-5.51-1.61c-4.37-1.43-8.01-2.83-10.92-4.2
			c-2.91-1.36-5.1-3.03-6.55-5c-1.46-1.97-2.18-4.54-2.18-7.69c0-3.8,0.96-7.12,2.89-9.95c1.93-2.83,4.68-5.04,8.24-6.62
			c3.57-1.58,7.82-2.37,12.78-2.37c3.93,0,7.77,0.62,11.52,1.86c3.75,1.24,7.26,3.31,10.54,6.22l-6.77,10.92
			c-3.28-2.26-6.19-3.89-8.74-4.91c-2.55-1.02-5.02-1.53-7.42-1.53c-1.24,0-2.37,0.14-3.38,0.43c-1.02,0.29-1.84,0.77-2.46,1.45
			c-0.62,0.68-0.93,1.55-0.93,2.63c0,1.07,0.31,1.93,0.93,2.57c0.62,0.64,1.6,1.2,2.95,1.66c1.35,0.46,3.04,1.02,5.08,1.66
			c4.73,1.36,8.66,2.73,11.79,4.13c3.13,1.39,5.48,3.11,7.04,5.14c1.56,2.04,2.35,4.73,2.35,8.09c0,5.72-2.09,10.2-6.28,13.45
			C679.8,670.95,674.1,672.57,666.89,672.57"/>
		<polygon class="st1" points="699.98,671.48 699.98,593.95 717.89,593.95 717.89,655.76 755.45,655.76 755.45,671.48 		"/>
		<path class="st1" d="M762.44,591.77h17.47v15.83h-17.47V591.77z M762.44,614.15h17.47v57.33h-17.47V614.15z"/>
		<polygon class="st1" points="806.77,671.48 786.46,614.81 804.48,614.81 817.04,655.94 829.59,614.81 845.97,614.81 
			825.77,671.48 		"/>
		<path class="st1" d="M878.08,672.57c-4.88,0-9.21-0.77-12.99-2.32c-3.79-1.55-7.01-3.65-9.66-6.32c-2.66-2.66-4.68-5.74-6.06-9.23
			c-1.38-3.49-2.08-7.14-2.08-10.96c0-5.43,1.22-10.38,3.66-14.85c2.44-4.47,5.95-8.08,10.54-10.83c4.59-2.75,10.12-4.13,16.6-4.13
			c6.48,0,11.99,1.36,16.54,4.08c4.55,2.72,8.03,6.29,10.43,10.7c2.4,4.41,3.6,9.19,3.6,14.35c0,1-0.05,1.99-0.16,2.96
			c-0.11,0.97-0.2,1.81-0.27,2.53h-42.37c0.22,2.48,0.93,4.57,2.13,6.26c1.2,1.7,2.75,2.99,4.64,3.87c1.89,0.89,3.89,1.33,6.01,1.33
			c2.62,0,5.08-0.62,7.37-1.86c2.29-1.24,3.88-2.91,4.75-5.02l14.85,4.15c-1.46,2.99-3.51,5.62-6.17,7.92
			c-2.66,2.29-5.79,4.09-9.39,5.4C886.43,671.92,882.45,672.57,878.08,672.57 M865.41,637.85h24.9c-0.29-2.29-0.98-4.29-2.08-5.99
			c-1.09-1.7-2.55-3.02-4.37-3.96c-1.82-0.94-3.82-1.41-6.01-1.41c-2.26,0-4.28,0.47-6.06,1.41c-1.78,0.94-3.22,2.26-4.31,3.96
			C866.39,633.56,865.7,635.56,865.41,637.85"/>
	</g>
	<path class="st0" d="M598.76,555.18H344.59c-33.23,0-60.17-26.94-60.17-60.17V225.92c0-33.23,26.94-60.18,60.18-60.18h269.09
		c33.23,0,60.17,26.94,60.17,60.17V480.1C673.85,521.57,640.23,555.18,598.76,555.18"/>
	<path class="st2" d="M478.68,238.63h-4.32c-22.15,0-40.1,17.95-40.1,40.1v38.18h-41.3c-22.15,0-40.1,17.95-40.1,40.1v4.32
		c0,22.15,17.95,40.1,40.1,40.1h81.4h1.2h3.12c22.15,0,40.1-17.95,40.1-40.1v-82.6C518.78,256.58,500.82,238.63,478.68,238.63"/>
	<path class="st1" d="M561.1,314.68h-34.61v4.72h34.61c20.81,0,37.74,16.93,37.74,37.74v4.32c0,20.81-16.93,37.74-37.74,37.74
		h-43.66v40.54c0,20.81-16.93,37.74-37.74,37.74h-4.32c-20.81,0-37.74-16.93-37.74-37.74v-30.76h-4.72v30.76
		c0,23.41,19.05,42.46,42.46,42.46h4.32c23.41,0,42.46-19.05,42.46-42.46v-35.82h38.94c23.41,0,42.46-19.05,42.46-42.46v-4.32
		C603.56,333.73,584.51,314.68,561.1,314.68"/>
	<path class="st1" d="M479.7,484.06h-4.32c-24.43,0-44.31-19.88-44.31-44.31v-32.61h8.42v32.61c0,19.79,16.1,35.89,35.89,35.89h4.32
		c19.79,0,35.89-16.1,35.89-35.89v-42.39h45.51c19.79,0,35.89-16.1,35.89-35.89v-4.32c0-19.79-16.1-35.89-35.89-35.89h-36.46v-8.42
		h36.46c24.43,0,44.31,19.88,44.31,44.31v4.32c0,24.43-19.88,44.31-44.31,44.31h-37.09v33.97
		C524.01,464.18,504.13,484.06,479.7,484.06 M434.76,410.84v28.91c0,22.39,18.22,40.61,40.61,40.61h4.32
		c22.39,0,40.61-18.22,40.61-40.61v-37.67h40.79c22.39,0,40.61-18.22,40.61-40.61v-4.32c0-22.39-18.22-40.61-40.61-40.61h-32.77
		v1.02h32.77c21.83,0,39.59,17.76,39.59,39.59v4.32c0,21.83-17.76,39.59-39.59,39.59h-41.81v38.69c0,21.83-17.76,39.59-39.59,39.59
		h-4.32c-21.83,0-39.59-17.76-39.59-39.59v-28.91H434.76z"/>
	<path class="st2" d="M415.93,262.33c-0.84,0.81-1.98,1.28-3.24,1.25c-17.29-0.37-31.65,13.37-32.05,30.66
		c-0.05,2.5-2.13,4.49-4.63,4.43c-2.5-0.06-4.49-2.14-4.43-4.63c0.49-22.29,19.02-40.01,41.31-39.52c2.5,0.06,4.49,2.14,4.43,4.63
		C417.29,260.41,416.76,261.53,415.93,262.33"/>
	<path class="st2" d="M415.53,279.66c-0.84,0.81-1.98,1.28-3.24,1.25c-3.73-0.08-7.29,1.31-9.99,3.89c-2.7,2.58-4.24,6.08-4.33,9.81
		c-0.06,2.5-2.14,4.49-4.63,4.43c-2.5-0.06-4.49-2.14-4.43-4.63c0.14-6.15,2.66-11.89,7.12-16.16c4.46-4.26,10.3-6.54,16.47-6.39
		c2.5,0.06,4.49,2.14,4.43,4.63C416.91,277.73,416.38,278.86,415.53,279.66"/>
	<path class="st2" d="M407.81,290.56c2.41-2.31,6.24-2.23,8.55,0.19c2.31,2.41,2.22,6.24-0.19,8.55c-2.41,2.31-6.24,2.23-8.55-0.19
		C405.32,296.7,405.4,292.87,407.81,290.56"/>
	<path class="st2" d="M416.32,244.71c-0.84,0.81-1.98,1.28-3.24,1.25c-27-0.58-49.44,20.88-50.04,47.87
		c-0.06,2.5-2.14,4.49-4.63,4.43c-2.5-0.05-4.49-2.14-4.43-4.63c0.34-15.51,6.7-29.94,17.91-40.66
		c11.21-10.72,25.9-16.43,41.41-16.09c2.5,0.05,4.49,2.13,4.43,4.63C417.68,242.79,417.15,243.92,416.32,244.71"/>
</g>
</svg>
