<?xml version="1.0" encoding="utf-8"?>
<!-- Generator: Adobe Illustrator 24.3.0, SVG Export Plug-In . SVG Version: 6.00 Build 0)  -->
<svg version="1.1" id="Layer_1" xmlns="http://www.w3.org/2000/svg" xmlns:xlink="http://www.w3.org/1999/xlink" x="0px" y="0px"
	 viewBox="0 0 139.7 26.6" style="enable-background:new 0 0 139.7 26.6;" xml:space="preserve">
<style type="text/css">
	.st0{fill:#135B78;}
	.st1{fill:#F9A01B;}
	.st2{fill:#FFFFFF;}
</style>
<path class="st0" d="M129.8,24.3H87.5v-22h42.3c4.4,0,8,3.6,8,8v6C137.8,20.7,134.2,24.3,129.8,24.3z"/>
<path class="st1" d="M8.2,15.8H6.3V19H2.9V7.1h5.5c1.1,0,2,0.2,2.8,0.5C12,8,12.6,8.5,13.1,9.1c0.4,0.7,0.6,1.4,0.6,2.3
	c0,0.9-0.2,1.6-0.6,2.3c-0.4,0.6-1,1.1-1.7,1.5l2.6,3.8h-3.6L8.2,15.8z M9.8,10.2C9.4,9.9,8.9,9.7,8.2,9.7H6.3v3.5h1.9
	c0.7,0,1.2-0.2,1.6-0.5s0.5-0.7,0.5-1.3S10.1,10.5,9.8,10.2z"/>
<path class="st1" d="M23.6,15.2h-6.7c0.1,0.5,0.4,0.8,0.8,1.1c0.4,0.3,0.9,0.4,1.5,0.4c0.4,0,0.8-0.1,1.2-0.2s0.7-0.3,1-0.6l1.7,1.8
	c-0.9,1-2.2,1.5-3.9,1.5c-1.1,0-2-0.2-2.8-0.6c-0.8-0.4-1.5-1-1.9-1.7c-0.4-0.7-0.7-1.6-0.7-2.5c0-0.9,0.2-1.7,0.7-2.4
	s1-1.3,1.8-1.7c0.8-0.4,1.6-0.6,2.6-0.6c0.9,0,1.8,0.2,2.5,0.6c0.8,0.4,1.3,0.9,1.8,1.7c0.4,0.7,0.7,1.6,0.7,2.6
	C23.7,14.4,23.7,14.7,23.6,15.2z M17.5,12.3c-0.3,0.3-0.5,0.7-0.6,1.2h3.8c-0.1-0.5-0.3-0.9-0.6-1.2s-0.8-0.4-1.3-0.4
	S17.8,12.1,17.5,12.3z"/>
<path class="st1" d="M38.8,10.6c0.7,0.7,1,1.7,1,3.1V19h-3.2v-4.8c0-0.6-0.1-1.1-0.4-1.4s-0.6-0.5-1-0.5c-0.5,0-0.9,0.2-1.2,0.5
	c-0.3,0.3-0.4,0.9-0.4,1.6V19h-3.2v-4.8c0-1.3-0.5-1.9-1.4-1.9c-0.5,0-0.9,0.2-1.2,0.5s-0.4,0.9-0.4,1.6V19H24V9.8h3.1v1
	c0.3-0.4,0.7-0.7,1.2-0.8c0.5-0.2,1-0.3,1.5-0.3c0.6,0,1.2,0.1,1.7,0.4s0.9,0.6,1.2,1.1c0.4-0.5,0.8-0.8,1.4-1.1s1.2-0.4,1.8-0.4
	C37.2,9.6,38.1,10,38.8,10.6z"/>
<path class="st1" d="M50.2,15.2h-6.7c0.1,0.5,0.4,0.8,0.8,1.1c0.4,0.3,0.9,0.4,1.5,0.4c0.4,0,0.8-0.1,1.2-0.2s0.7-0.3,1-0.6l1.7,1.8
	c-0.9,1-2.2,1.5-3.9,1.5c-1.1,0-2-0.2-2.8-0.6c-0.8-0.4-1.5-1-1.9-1.7c-0.4-0.7-0.7-1.6-0.7-2.5c0-0.9,0.2-1.7,0.7-2.4
	s1-1.3,1.8-1.7c0.8-0.4,1.6-0.6,2.6-0.6c0.9,0,1.8,0.2,2.5,0.6c0.8,0.4,1.3,0.9,1.8,1.7c0.4,0.7,0.7,1.6,0.7,2.6
	C50.2,14.4,50.2,14.7,50.2,15.2z M44.1,12.3c-0.3,0.3-0.5,0.7-0.6,1.2h3.8c-0.1-0.5-0.3-0.9-0.6-1.2s-0.8-0.4-1.3-0.4
	S44.4,12.1,44.1,12.3z"/>
<path class="st1" d="M61.4,6.3V19h-3.1v-0.9c-0.6,0.7-1.5,1.1-2.7,1.1c-0.8,0-1.6-0.2-2.3-0.6c-0.7-0.4-1.2-1-1.6-1.7
	S51,15.3,51,14.3c0-1,0.2-1.8,0.6-2.5s1-1.3,1.6-1.7c0.7-0.4,1.5-0.6,2.3-0.6c1.1,0,2,0.3,2.6,1V6.3H61.4z M57.7,16
	c0.4-0.4,0.5-0.9,0.5-1.6c0-0.7-0.2-1.2-0.5-1.6c-0.4-0.4-0.8-0.6-1.4-0.6c-0.6,0-1,0.2-1.4,0.6c-0.4,0.4-0.5,0.9-0.5,1.6
	c0,0.7,0.2,1.2,0.5,1.6c0.4,0.4,0.8,0.6,1.4,0.6C56.8,16.6,57.3,16.4,57.7,16z"/>
<path class="st0" d="M62.5,8.2c-0.4-0.3-0.5-0.7-0.5-1.2c0-0.5,0.2-0.9,0.5-1.2c0.4-0.3,0.8-0.5,1.4-0.5c0.6,0,1.1,0.2,1.4,0.5
	s0.5,0.7,0.5,1.2c0,0.5-0.2,0.9-0.5,1.3s-0.8,0.5-1.4,0.5C63.3,8.7,62.9,8.5,62.5,8.2z"/>
<rect x="62.3" y="9.7" class="st1" width="3.2" height="9.2"/>
<path class="st1" d="M76.2,9.7V19h-3.1v-1c-0.3,0.4-0.8,0.7-1.2,0.9c-0.5,0.2-1,0.3-1.5,0.3c-1.2,0-2.1-0.4-2.9-1.1
	s-1.1-1.8-1.1-3.2V9.7h3.2v4.6c0,0.7,0.1,1.2,0.4,1.5s0.6,0.5,1.1,0.5c0.5,0,0.9-0.2,1.3-0.5c0.3-0.4,0.5-0.9,0.5-1.6V9.7H76.2z"/>
<path class="st1" d="M78.2,18.9c-0.8-0.2-1.4-0.4-1.8-0.7l1-2.2c0.4,0.3,0.9,0.5,1.5,0.6c0.6,0.2,1.2,0.2,1.7,0.2
	c0.5,0,0.9-0.1,1.1-0.2c0.2-0.1,0.3-0.3,0.3-0.5c0-0.2-0.1-0.3-0.4-0.4c-0.3-0.1-0.7-0.2-1.3-0.2c-0.7-0.1-1.4-0.2-1.9-0.4
	c-0.5-0.1-1-0.4-1.3-0.8c-0.4-0.4-0.6-1-0.6-1.7c0-0.6,0.2-1.1,0.5-1.6s0.9-0.8,1.5-1.1c0.7-0.3,1.5-0.4,2.4-0.4
	c0.7,0,1.3,0.1,2,0.2c0.7,0.1,1.2,0.3,1.7,0.6l-1,2.2c-0.8-0.5-1.7-0.7-2.7-0.7c-0.5,0-0.9,0.1-1.1,0.2c-0.2,0.1-0.4,0.3-0.4,0.5
	c0,0.2,0.1,0.4,0.4,0.5c0.3,0.1,0.7,0.2,1.3,0.3c0.8,0.1,1.4,0.2,1.9,0.4c0.5,0.1,0.9,0.4,1.3,0.8c0.4,0.4,0.6,0.9,0.6,1.6
	c0,0.6-0.2,1.1-0.5,1.6c-0.4,0.5-0.9,0.8-1.6,1.1c-0.7,0.3-1.5,0.4-2.5,0.4C79.7,19.1,78.9,19,78.2,18.9z"/>
<g>
	<path class="st2" d="M105,7.1V19h-3.4v-4.7H97V19h-3.4V7.1H97v4.5h4.6V7.1H105z"/>
	<path class="st2" d="M117,19l0-6.3l-3.1,5.2h-1.5l-3.1-5V19h-3.1V7.1h2.8l4.2,6.9l4.1-6.9h2.8l0,11.9H117z"/>
	<path class="st2" d="M122.7,18.9c-0.9-0.2-1.6-0.6-2.2-1l1.1-2.5c0.5,0.4,1.2,0.6,1.9,0.9c0.7,0.2,1.4,0.3,2.1,0.3
		c1.3,0,1.9-0.3,1.9-1c0-0.3-0.2-0.6-0.6-0.8c-0.4-0.2-1-0.3-1.8-0.5c-0.9-0.2-1.6-0.4-2.3-0.6c-0.6-0.2-1.1-0.6-1.6-1.1
		c-0.4-0.5-0.6-1.1-0.6-2c0-0.7,0.2-1.4,0.6-2c0.4-0.6,1-1,1.8-1.4c0.8-0.3,1.8-0.5,2.9-0.5c0.8,0,1.6,0.1,2.3,0.3s1.4,0.4,2,0.8
		l-1,2.5c-1.1-0.6-2.2-0.9-3.3-0.9c-0.7,0-1.2,0.1-1.5,0.3c-0.3,0.2-0.5,0.5-0.5,0.8s0.2,0.6,0.5,0.7s0.9,0.3,1.8,0.5
		c0.9,0.2,1.7,0.4,2.3,0.6c0.6,0.2,1.1,0.6,1.6,1.1c0.4,0.5,0.7,1.1,0.7,2c0,0.7-0.2,1.4-0.6,1.9c-0.4,0.6-1,1-1.8,1.4
		s-1.8,0.5-2.9,0.5C124.6,19.3,123.6,19.1,122.7,18.9z"/>
</g>
</svg>
