<?xml version="1.0" encoding="UTF-8"?>
<svg id="Layer_1" xmlns="http://www.w3.org/2000/svg" version="1.1" viewBox="0 0 707.48 354.42">
  <!-- Generator: Adobe Illustrator 29.3.1, SVG Export Plug-In . SVG Version: 2.1.0 Build 151)  -->
  <defs>
    <style>
      .st0 {
        fill: #135b78;
      }

      .st1 {
        fill: #149199;
      }

      .st2 {
        fill: none;
      }
    </style>
  </defs>
  <polygon class="st0" points="127.47 6.67 130.35 12.5 136.78 13.44 132.13 17.98 133.23 24.38 127.47 21.36 121.72 24.38 122.82 17.98 118.16 13.44 124.59 12.5 127.47 6.67"/>
  <path class="st0" d="M111.44,236.39c-17.08,55.75-45.68,90.71-60.84,106.92.23-.48.47-.97.71-1.49,13.86-19.76,34.52-55.1,43.02-103.77,7.63-43.73,2.31-80.2-2.85-102.43,18.73-4,29.3-19.13,31.66-22.66,2.5,23.79,4.61,70.16-11.7,123.44"/>
  <path class="st1" d="M55.38,293.85c2.33-8.52,4.32-17.68,5.79-27.46-7.33.49-14.01-.89-19.67-4.35-21.44-13.11-22.02-52.18-4.24-95.53-.01,0-.03-.01-.04-.02-23.97,54.27-23.23,105.12,4.9,122.31,4.06,2.48,8.5,4.14,13.25,5.04"/>
  <path class="st1" d="M193.22,49.95c-20.16-12.32-49.87-4.59-79.41,17.38.15.19.28.39.4.61,21.52-14.17,42.12-18.62,56.35-9.93,27.43,16.77,20.77,76.03-14.87,132.37-7.12,11.26-14.87,21.55-22.92,30.68-1.19,4.33-2.45,8.64-3.82,12.91-5.33,16.54-11.67,31.54-18.53,45.06,24.09-14.98,48.88-39.99,69.05-71.88,41.73-65.96,47.88-136.34,13.75-157.2"/>
  <path class="st1" d="M96.56,237.45c-8.5,48.67-29.16,84.01-43.02,103.77,8.64-18.04,26.04-60.61,23.28-117.67-2.48-51.44-20.1-88.59-29.28-105.36,2.09,2.37,19.5,21.35,44.26,17.2.65-.11,1.29-.23,1.92-.37,5.16,22.23,10.48,58.7,2.85,102.43"/>
  <path class="st0" d="M117.99,83.13c-6.88-18.87-27.75-28.58-46.62-21.7-18.86,6.88-28.58,27.75-21.7,46.62,6.88,18.86,27.75,28.58,46.62,21.7,18.87-6.88,28.58-27.75,21.7-46.62M92.13,118.32c-12.55,4.58-26.44-1.89-31.02-14.44-4.58-12.55,1.89-26.44,14.44-31.02,12.55-4.58,26.44,1.89,31.02,14.44,4.58,12.55-1.89,26.44-14.44,31.02"/>
  <polygon class="st0" points="105.11 22.23 109.51 31.14 119.34 32.56 112.22 39.5 113.9 49.29 105.11 44.67 96.32 49.29 97.99 39.5 90.88 32.56 100.71 31.14 105.11 22.23"/>
  <g>
    <polygon class="st1" points="253.07 206.19 242.3 187.8 238.53 187.8 238.53 215.76 243.07 215.76 243.07 197.55 251.82 212.45 254.21 212.45 262.96 197.46 262.96 215.76 267.5 215.76 267.5 187.8 263.74 187.8 253.07 206.19"/>
    <path class="st1" d="M306.06,189.41c-2.21-1.22-4.71-1.83-7.44-1.83s-5.25.62-7.48,1.85c-2.24,1.23-4.01,2.95-5.28,5.1-1.26,2.15-1.9,4.59-1.9,7.26s.64,5.11,1.9,7.26c1.26,2.15,3.04,3.87,5.28,5.1,2.23,1.23,4.75,1.85,7.48,1.85s5.23-.62,7.44-1.83c2.22-1.22,3.98-2.94,5.26-5.1,1.27-2.16,1.92-4.61,1.92-7.28s-.65-5.11-1.92-7.28c-1.27-2.16-3.04-3.88-5.26-5.1ZM308.58,201.78c0,1.86-.43,3.56-1.29,5.06-.85,1.49-2.05,2.67-3.55,3.52-1.51.85-3.24,1.28-5.12,1.28s-3.62-.43-5.14-1.28c-1.52-.84-2.72-2.03-3.59-3.52-.87-1.5-1.31-3.2-1.31-5.06s.44-3.56,1.31-5.06c.86-1.49,2.07-2.68,3.59-3.52,1.52-.85,3.26-1.28,5.14-1.28s3.61.43,5.12,1.28c1.5.84,2.7,2.02,3.55,3.52.86,1.5,1.29,3.2,1.29,5.06Z"/>
    <path class="st1" d="M351.76,202.98c-.64-.76-1.44-1.37-2.4-1.83.54-.43,1.01-.92,1.41-1.48.82-1.16,1.24-2.58,1.24-4.21,0-2.44-.94-4.37-2.79-5.72-1.76-1.28-4.22-1.93-7.32-1.93h-12.19v27.96h12.94c3.42,0,6.07-.67,7.87-1.99,1.9-1.39,2.87-3.38,2.87-5.92,0-1.96-.54-3.6-1.62-4.87h0ZM334.35,203.7h8.25c5.49,0,6.13,2.24,6.13,3.93,0,1.36-.45,2.32-1.37,2.94h0c-1.03.69-2.63,1.03-4.76,1.03h-8.25v-7.9ZM346.04,198.49c-.97.69-2.43,1.04-4.33,1.04h-7.36v-7.56h7.36c1.9,0,3.36.35,4.33,1.04.88.63,1.31,1.52,1.31,2.75s-.43,2.12-1.31,2.74Z"/>
    <rect class="st1" x="369.96" y="187.8" width="4.65" height="27.96"/>
    <polygon class="st1" points="398.03 187.8 393.38 187.8 393.38 215.76 412.63 215.76 412.63 211.48 398.03 211.48 398.03 187.8"/>
    <polygon class="st1" points="432.14 203.7 445.62 203.7 445.62 199.45 432.14 199.45 432.14 192.08 447.26 192.08 447.26 187.8 427.49 187.8 427.49 215.76 447.82 215.76 447.82 211.48 432.14 211.48 432.14 203.7"/>
    <polygon class="st1" points="505.59 199.42 491.17 199.42 491.17 187.8 486.52 187.8 486.52 215.76 491.17 215.76 491.17 203.73 505.59 203.73 505.59 215.76 510.2 215.76 510.2 187.8 505.59 187.8 505.59 199.42"/>
    <polygon class="st1" points="533.62 203.7 547.1 203.7 547.1 199.45 533.62 199.45 533.62 192.08 548.74 192.08 548.74 187.8 528.97 187.8 528.97 215.76 549.3 215.76 549.3 211.48 533.62 211.48 533.62 203.7"/>
    <path class="st1" d="M574.15,187.8l-12.78,27.96h4.96l3.13-6.96h13.3l3.13,6.96h4.99l-12.78-27.96h-3.94ZM571.3,204.67l4.79-10.73,4.8,10.73h-9.59Z"/>
    <polygon class="st1" points="609.59 187.8 604.94 187.8 604.94 215.76 624.19 215.76 624.19 211.48 609.59 211.48 609.59 187.8"/>
    <polygon class="st1" points="632.54 192.08 641.7 192.08 641.7 215.76 646.35 215.76 646.35 192.08 655.51 192.08 655.51 187.8 632.54 187.8 632.54 192.08"/>
    <polygon class="st1" points="689.26 187.8 689.26 199.42 674.84 199.42 674.84 187.8 670.19 187.8 670.19 215.76 674.84 215.76 674.84 203.73 689.26 203.73 689.26 215.76 693.87 215.76 693.87 187.8 689.26 187.8"/>
  </g>
  <path class="st0" d="M241.93,258.3v-17.29h7.28c1.84,0,3.47.36,4.88,1.09,1.41.72,2.5,1.74,3.28,3.04.78,1.3,1.17,2.81,1.17,4.52s-.39,3.22-1.17,4.52c-.78,1.3-1.88,2.31-3.28,3.04-1.41.72-3.03,1.09-4.88,1.09h-7.28ZM244.4,256.15h4.67c1.43,0,2.67-.27,3.72-.81,1.04-.54,1.86-1.3,2.43-2.28.58-.98.86-2.11.86-3.4s-.29-2.44-.86-3.41c-.58-.97-1.39-1.73-2.43-2.27-1.05-.54-2.28-.81-3.72-.81h-4.67v12.99Z"/>
  <rect class="st0" x="265.09" y="241.02" width="2.47" height="17.29"/>
  <path class="st0" d="M283.31,258.5c-1.33,0-2.56-.22-3.68-.65-1.12-.44-2.09-1.05-2.91-1.85-.82-.8-1.47-1.73-1.93-2.8-.46-1.07-.69-2.25-.69-3.53s.23-2.46.69-3.53c.46-1.07,1.11-2,1.94-2.8.83-.8,1.81-1.42,2.93-1.85,1.12-.44,2.35-.65,3.7-.65s2.62.22,3.75.67c1.14.44,2.1,1.11,2.89,2l-1.53,1.53c-.71-.69-1.48-1.2-2.31-1.52-.83-.32-1.73-.48-2.7-.48s-1.91.16-2.75.49c-.85.33-1.58.79-2.2,1.38-.62.59-1.09,1.3-1.43,2.11-.34.82-.51,1.7-.51,2.65s.17,1.82.51,2.63c.34.81.81,1.52,1.43,2.12.62.6,1.35,1.07,2.19,1.39.84.33,1.75.49,2.74.49.92,0,1.81-.14,2.65-.43.85-.29,1.63-.77,2.36-1.44l1.41,1.88c-.86.72-1.86,1.27-3,1.64-1.14.37-2.33.56-3.54.56M287.49,255.98v-6.42h2.37v6.74l-2.37-.32Z"/>
  <rect class="st0" x="297.34" y="241.02" width="2.47" height="17.29"/>
  <polygon class="st0" points="311.19 258.3 311.19 243.16 305.27 243.16 305.27 241.02 319.56 241.02 319.56 243.16 313.64 243.16 313.64 258.3 311.19 258.3"/>
  <path class="st0" d="M321.54,258.3l7.83-17.29h2.44l7.85,17.29h-2.59l-6.99-15.9h.99l-6.99,15.9h-2.54ZM324.87,253.98l.67-1.98h9.73l.72,1.98h-11.11Z"/>
  <polygon class="st0" points="345 258.3 345 241.02 347.47 241.02 347.47 256.15 356.82 256.15 356.82 258.3 345 258.3"/>
  <path class="st0" d="M374.31,258.3h-2.47v-17.29h2.47v17.29ZM384.46,250.6h-10.4v-2.15h10.4v2.15ZM384.23,241.02h2.47v17.29h-2.47v-17.29Z"/>
  <path class="st0" d="M397.12,256.15h10.07v2.15h-12.54v-17.29h12.2v2.15h-9.73v12.99ZM396.9,248.47h8.89v2.1h-8.89v-2.1Z"/>
  <path class="st0" d="M411.35,258.3l7.83-17.29h2.44l7.85,17.29h-2.59l-6.99-15.9h.99l-6.99,15.9h-2.54ZM414.68,253.98l.67-1.98h9.73l.72,1.98h-11.11Z"/>
  <polygon class="st0" points="434.81 258.3 434.81 241.02 437.28 241.02 437.28 256.15 446.63 256.15 446.63 258.3 434.81 258.3"/>
  <polygon class="st0" points="454.07 258.3 454.07 243.16 448.14 243.16 448.14 241.02 462.44 241.02 462.44 243.16 456.51 243.16 456.51 258.3 454.07 258.3"/>
  <path class="st0" d="M470.37,258.3h-2.47v-17.29h2.47v17.29ZM480.51,250.6h-10.4v-2.15h10.4v2.15ZM480.29,241.02h2.47v17.29h-2.47v-17.29Z"/>
  <rect class="st0" x="500.12" y="239.98" width="2.2" height="23.11"/>
  <path class="st0" d="M527.41,258.5c-1.32,0-2.53-.22-3.64-.65-1.11-.44-2.07-1.05-2.89-1.85-.81-.8-1.45-1.73-1.91-2.8-.46-1.07-.69-2.25-.69-3.53s.23-2.46.69-3.53c.46-1.07,1.1-2,1.93-2.8.82-.8,1.79-1.42,2.9-1.85,1.11-.44,2.32-.65,3.64-.65s2.56.23,3.69.68c1.13.45,2.09,1.12,2.88,2.01l-1.6,1.56c-.66-.69-1.4-1.21-2.22-1.54-.82-.34-1.7-.51-2.64-.51s-1.87.16-2.7.49c-.83.33-1.55.79-2.16,1.38-.61.59-1.08,1.3-1.42,2.11-.34.82-.51,1.7-.51,2.65s.17,1.84.51,2.66c.34.81.81,1.52,1.42,2.11.61.59,1.33,1.05,2.16,1.38.83.33,1.73.49,2.7.49s1.82-.17,2.64-.51c.82-.34,1.56-.86,2.22-1.57l1.6,1.56c-.79.89-1.75,1.56-2.88,2.02-1.13.46-2.37.69-3.72.69"/>
  <polygon class="st0" points="540.3 258.3 540.3 241.02 542.77 241.02 542.77 256.15 552.13 256.15 552.13 258.3 540.3 258.3"/>
  <rect class="st0" x="557.73" y="241.02" width="2.47" height="17.29"/>
  <polygon class="st0" points="568.15 258.3 568.15 241.02 570.18 241.02 581.61 255.22 580.55 255.22 580.55 241.02 583.02 241.02 583.02 258.3 580.99 258.3 569.56 244.1 570.62 244.1 570.62 258.3 568.15 258.3"/>
  <rect class="st0" x="590.97" y="241.02" width="2.47" height="17.29"/>
  <path class="st0" d="M609.12,258.5c-1.32,0-2.53-.22-3.64-.65-1.11-.44-2.07-1.05-2.89-1.85-.81-.8-1.45-1.73-1.91-2.8-.46-1.07-.69-2.25-.69-3.53s.23-2.46.69-3.53c.46-1.07,1.1-2,1.93-2.8.82-.8,1.79-1.42,2.9-1.85,1.11-.44,2.32-.65,3.64-.65s2.56.23,3.69.68c1.13.45,2.09,1.12,2.88,2.01l-1.6,1.56c-.66-.69-1.4-1.21-2.22-1.54-.82-.34-1.7-.51-2.64-.51s-1.87.16-2.7.49c-.83.33-1.55.79-2.16,1.38-.61.59-1.08,1.3-1.42,2.11-.34.82-.51,1.7-.51,2.65s.17,1.84.51,2.66c.34.81.81,1.52,1.42,2.11.61.59,1.33,1.05,2.16,1.38.83.33,1.73.49,2.7.49s1.82-.17,2.64-.51c.82-.34,1.56-.86,2.22-1.57l1.6,1.56c-.79.89-1.75,1.56-2.88,2.02-1.13.46-2.37.69-3.72.69"/>
  <path class="st0" d="M618.97,258.3l7.83-17.29h2.44l7.85,17.29h-2.59l-6.99-15.9h.99l-6.99,15.9h-2.54ZM622.3,253.98l.67-1.98h9.73l.72,1.98h-11.11Z"/>
  <polygon class="st0" points="642.43 258.3 642.43 241.02 644.9 241.02 644.9 256.15 654.26 256.15 654.26 258.3 642.43 258.3"/>
  <rect class="st0" x="669.27" y="241.02" width="2.47" height="17.29"/>
  <polygon class="st0" points="683.12 258.3 683.12 243.16 677.2 243.16 677.2 241.02 691.49 241.02 691.49 243.16 685.57 243.16 685.57 258.3 683.12 258.3"/>
  <g>
    <path class="st0" d="M293.29,103.64h46.16c.64,0,1.16.52,1.16,1.16v10.06c0,.64-.52,1.16-1.16,1.16h-31.07c-.64,0-1.16.52-1.16,1.16v13.35c0,.64.52,1.16,1.16,1.16h27.88c.64,0,1.16.52,1.16,1.16v10.16c0,.64-.52,1.16-1.16,1.16h-27.88c-.64,0-1.16.52-1.16,1.16v14.1c0,.64.52,1.16,1.16,1.16h31.72c.64,0,1.16.52,1.16,1.16v10.16c0,.64-.52,1.16-1.16,1.16h-46.82c-.64,0-1.16-.52-1.16-1.16v-67.07c0-.64.52-1.16,1.16-1.16Z"/>
    <path class="st0" d="M360.25,104.25l22.27,42.07c.44.82,1.62.82,2.05,0l21.91-42.06c.2-.38.59-.62,1.02-.62h12.3c.64,0,1.15.52,1.16,1.15l.18,67.07c0,.64-.52,1.16-1.16,1.16h-13.35c-.64,0-1.15-.51-1.16-1.15l-.16-35.73c0-1.21-1.62-1.6-2.18-.53l-15.61,29.85c-.2.38-.59.62-1.02.62h-6.3c-.43,0-.82-.23-1.02-.61l-15.6-29.09c-.57-1.06-2.17-.66-2.17.55v34.93c0,.64-.52,1.16-1.16,1.16h-13.35c-.64,0-1.16-.52-1.16-1.16v-67.07c0-.64.52-1.16,1.16-1.16h12.31c.43,0,.82.24,1.02.61Z"/>
    <path class="st0" d="M429.99,103.64h46.16c.64,0,1.16.52,1.16,1.16v10.06c0,.64-.52,1.16-1.16,1.16h-31.07c-.64,0-1.16.52-1.16,1.16v13.35c0,.64.52,1.16,1.16,1.16h27.88c.64,0,1.16.52,1.16,1.16v10.16c0,.64-.52,1.16-1.16,1.16h-27.88c-.64,0-1.16.52-1.16,1.16v14.1c0,.64.52,1.16,1.16,1.16h31.72c.64,0,1.16.52,1.16,1.16v10.16c0,.64-.52,1.16-1.16,1.16h-46.82c-.64,0-1.16-.52-1.16-1.16v-67.07c0-.64.52-1.16,1.16-1.16Z"/>
    <path class="st0" d="M530.94,108c5.19,2.91,9.22,6.97,12.09,12.19,2.88,5.22,4.31,11.24,4.31,18.05s-1.44,12.86-4.31,18.14c-2.88,5.28-6.91,9.38-12.09,12.28-5.19,2.91-11.16,4.36-17.91,4.36h-27.25c-.64,0-1.16-.52-1.16-1.16v-67.07c0-.64.52-1.16,1.16-1.16h27.25c6.75,0,12.72,1.45,17.91,4.36M522.87,157.78c2.81-1.84,5-4.45,6.56-7.83,1.56-3.37,2.34-7.28,2.34-11.72s-.78-8.25-2.34-11.63c-1.56-3.38-3.75-5.98-6.56-7.83-2.81-1.84-6.06-2.77-9.75-2.77h-12.25c-.64,0-1.16.52-1.16,1.16v42.22c0,.64.52,1.16,1.16,1.16h12.25c3.69,0,6.94-.92,9.75-2.77"/>
    <rect class="st0" x="553.25" y="103.64" width="15.1" height="69.38" rx="1.16" ry="1.16"/>
    <path class="st0" d="M635.39,160.74c-2.56,4.19-6.19,7.44-10.88,9.75-4.69,2.31-10.07,3.47-16.13,3.47s-11.44-1.16-16.13-3.47c-4.69-2.31-8.33-5.56-10.92-9.75-2.59-4.19-3.89-9-3.89-14.44v-41.51c0-.64.52-1.16,1.16-1.16h12.69c.64,0,1.16.52,1.16,1.16v40.85c0,4.75,1.47,8.58,4.41,11.49,2.94,2.91,6.81,4.36,11.63,4.36s8.48-1.45,11.39-4.36c2.91-2.91,4.36-6.73,4.36-11.49v-40.85c0-.64.52-1.16,1.16-1.16h12.69c.64,0,1.16.52,1.16,1.16v41.51c0,5.44-1.28,10.25-3.84,14.44"/>
    <path class="st0" d="M655.17,171.14c-3.73-1.7-6.65-3.52-8.75-5.48-.38-.36-.45-.93-.2-1.39l4.53-8.15c.35-.63,1.17-.77,1.73-.34,2.07,1.6,4.28,2.91,6.62,3.92,2.75,1.19,5.84,1.78,9.28,1.78,3.69,0,6.34-.67,7.97-2.02,1.62-1.34,2.44-2.92,2.44-4.74,0-1.56-.31-2.84-.94-3.84-.63-1-1.75-1.94-3.37-2.81-1.63-.88-4-1.81-7.13-2.81l-4.88-1.5c-5.38-1.75-9.64-4.06-12.8-6.94-3.16-2.87-4.74-7.13-4.74-12.75,0-4.31,1.05-8.08,3.14-11.3,2.09-3.22,5.02-5.7,8.77-7.45,3.75-1.75,8.09-2.63,13.03-2.63,4.06,0,8.09.8,12.1,2.39,3.59,1.43,6.47,3.07,8.65,4.93.43.36.51,1,.21,1.47l-5.29,8.5c-.36.58-1.13.71-1.68.31-2.04-1.51-4.08-2.72-6.11-3.63-2.38-1.06-5.06-1.59-8.06-1.59-3.19,0-5.52.67-6.99,2.02-1.47,1.35-2.2,2.95-2.2,4.83,0,1.19.2,2.2.61,3.05.41.84,1.27,1.67,2.58,2.49,1.31.81,3.28,1.66,5.91,2.53l4.97,1.59c6.06,1.94,10.88,4.58,14.44,7.92,3.56,3.34,5.34,8.05,5.34,14.11,0,3.44-.95,6.72-2.86,9.84-1.91,3.13-4.77,5.66-8.58,7.59-3.81,1.94-8.44,2.91-13.88,2.91-5.13,0-9.75-.94-13.88-2.81"/>
    <path class="st0" d="M272.35,151.26c-.4-.57-.21-1.38.42-1.69,3.94-1.93,7.03-4.58,9.27-7.95,2.46-3.71,3.69-8.12,3.69-13.24s-1.21-9.54-3.64-13.28c-2.43-3.74-5.89-6.63-10.38-8.66-4.49-2.03-9.79-3.05-15.89-3.05h-27.67c-.91,0-1.46,1.01-.97,1.78l12.64,19.85c.62.98,2.13.54,2.13-.62v-6.86c0-.64.52-1.16,1.16-1.16h11.83c4.79,0,8.43,1.03,10.92,3.1,2.49,2.07,3.74,5.04,3.74,8.9s-1.25,6.76-3.74,8.86c-2.49,2.1-6.13,3.15-10.92,3.15h-3.22c-.91,0-1.46,1.01-.97,1.78l18.83,29.57c.21.33.58.53.97.53h14.25c.93,0,1.48-1.05.95-1.82l-13.39-19.19Z"/>
  </g>
  <rect class="st2" x="-64.48" y="-108.52" width="841.89" height="595.28"/>
</svg>