<?xml version="1.0" encoding="utf-8"?>
<!-- Generator: Adobe Illustrator 28.1.0, SVG Export Plug-In . SVG Version: 6.00 Build 0)  -->
<svg version="1.1" id="Layer_1" xmlns="http://www.w3.org/2000/svg" xmlns:xlink="http://www.w3.org/1999/xlink" x="0px" y="0px"
	 viewBox="0 0 841.9 595.3" style="enable-background:new 0 0 841.9 595.3;" xml:space="preserve">
<style type="text/css">
	.st0{fill:#135B78;}
	.st1{fill:#149199;}
	.st2{fill:none;}
</style>
<polygon class="st0" points="179.2,105.8 182.2,112 189,113 184.1,117.8 185.3,124.5 179.2,121.3 173.1,124.5 174.3,117.8 
	169.4,113 176.2,112 "/>
<path class="st0" d="M162.3,348.3c-18,58.8-48.2,95.7-64.2,112.9c0.2-0.5,0.5-1,0.8-1.6c14.6-20.9,36.4-58.2,45.4-109.5
	c8.1-46.2,2.4-84.7-3-108.1c19.8-4.2,30.9-20.2,33.4-23.9C177.3,243.1,179.5,292.1,162.3,348.3"/>
<path class="st1" d="M103.1,409c2.5-9,4.6-18.7,6.1-29c-7.7,0.5-14.8-0.9-20.8-4.6c-22.6-13.8-23.2-55.1-4.5-100.8c0,0,0,0,0,0
	c-25.3,57.3-24.5,111,5.2,129.1C93.4,406.3,98.1,408,103.1,409"/>
<path class="st1" d="M248.6,151.5c-21.3-13-52.6-4.8-83.8,18.4c0.2,0.2,0.3,0.4,0.4,0.6c22.7-15,44.5-19.7,59.5-10.5
	c28.9,17.7,21.9,80.2-15.7,139.7c-7.5,11.9-15.7,22.7-24.2,32.4c-1.3,4.6-2.6,9.1-4,13.6c-5.6,17.5-12.3,33.3-19.6,47.6
	c25.4-15.8,51.6-42.2,72.9-75.9C278.1,247.8,284.6,173.6,248.6,151.5"/>
<path class="st1" d="M146.6,349.4c-9,51.4-30.8,88.7-45.4,109.5c9.1-19,27.5-64,24.6-124.2c-2.6-54.3-21.2-93.5-30.9-111.2
	c2.2,2.5,20.6,22.5,46.7,18.2c0.7-0.1,1.4-0.2,2-0.4C149,264.8,154.6,303.3,146.6,349.4"/>
<path class="st0" d="M169.2,186.6c-7.3-19.9-29.3-30.2-49.2-22.9c-19.9,7.3-30.2,29.3-22.9,49.2c7.3,19.9,29.3,30.2,49.2,22.9
	C166.2,228.5,176.5,206.5,169.2,186.6 M141.9,223.7c-13.3,4.8-27.9-2-32.7-15.2c-4.8-13.2,2-27.9,15.2-32.7
	c13.2-4.8,27.9,2,32.7,15.2C162,204.2,155.1,218.9,141.9,223.7"/>
<polygon class="st0" points="155.6,122.3 160.2,131.7 170.6,133.2 163.1,140.5 164.9,150.8 155.6,146 146.3,150.8 148.1,140.5 
	140.6,133.2 151,131.7 "/>
<g>
	<polygon class="st1" points="311.8,316.4 300.4,297 296.4,297 296.4,326.5 301.2,326.5 301.2,307.3 310.5,323 313,323 322.2,307.2 
		322.2,326.5 327,326.5 327,297 323,297 	"/>
	<path class="st1" d="M367.7,298.7c-2.3-1.3-5-1.9-7.9-1.9c-2.9,0-5.5,0.7-7.9,2c-2.4,1.3-4.2,3.1-5.6,5.4c-1.3,2.3-2,4.8-2,7.7
		c0,2.8,0.7,5.4,2,7.7c1.3,2.3,3.2,4.1,5.6,5.4c2.4,1.3,5,2,7.9,2c2.9,0,5.5-0.6,7.9-1.9c2.3-1.3,4.2-3.1,5.5-5.4
		c1.3-2.3,2-4.9,2-7.7c0-2.8-0.7-5.4-2-7.7C371.9,301.8,370,300,367.7,298.7z M370.4,311.8c0,2-0.5,3.8-1.4,5.3
		c-0.9,1.6-2.2,2.8-3.7,3.7c-1.6,0.9-3.4,1.3-5.4,1.3c-2,0-3.8-0.5-5.4-1.3c-1.6-0.9-2.9-2.1-3.8-3.7c-0.9-1.6-1.4-3.4-1.4-5.3
		c0-2,0.5-3.8,1.4-5.3c0.9-1.6,2.2-2.8,3.8-3.7c1.6-0.9,3.4-1.3,5.4-1.3c2,0,3.8,0.5,5.4,1.3c1.6,0.9,2.8,2.1,3.7,3.7
		C369.9,308,370.4,309.8,370.4,311.8z"/>
	<path class="st1" d="M415.9,313.1c-0.7-0.8-1.5-1.5-2.5-1.9c0.6-0.4,1.1-1,1.5-1.6c0.9-1.2,1.3-2.7,1.3-4.4c0-2.6-1-4.6-2.9-6
		c-1.9-1.4-4.5-2-7.7-2h-12.9v29.5h13.7c3.6,0,6.4-0.7,8.3-2.1c2-1.5,3-3.6,3-6.3C417.6,316.1,417.1,314.4,415.9,313.1L415.9,313.1z
		 M397.6,313.8h8.7c5.8,0,6.5,2.4,6.5,4.1c0,1.4-0.5,2.5-1.4,3.1h0c-1.1,0.7-2.8,1.1-5,1.1h-8.7V313.8z M409.9,308.3
		c-1,0.7-2.6,1.1-4.6,1.1h-7.8v-8h7.8c2,0,3.5,0.4,4.6,1.1c0.9,0.7,1.4,1.6,1.4,2.9C411.3,306.7,410.8,307.7,409.9,308.3z"/>
	<rect x="435.1" y="297" class="st1" width="4.9" height="29.5"/>
	<polygon class="st1" points="464.8,297 459.9,297 459.9,326.5 480.2,326.5 480.2,322 464.8,322 	"/>
	<polygon class="st1" points="500.8,313.8 515,313.8 515,309.3 500.8,309.3 500.8,301.5 516.7,301.5 516.7,297 495.9,297 
		495.9,326.5 517.3,326.5 517.3,322 500.8,322 	"/>
	<polygon class="st1" points="578.3,309.3 563.1,309.3 563.1,297 558.2,297 558.2,326.5 563.1,326.5 563.1,313.9 578.3,313.9 
		578.3,326.5 583.2,326.5 583.2,297 578.3,297 	"/>
	<polygon class="st1" points="607.9,313.8 622.1,313.8 622.1,309.3 607.9,309.3 607.9,301.5 623.9,301.5 623.9,297 603,297 
		603,326.5 624.5,326.5 624.5,322 607.9,322 	"/>
	<path class="st1" d="M650.7,297l-13.5,29.5h5.2l3.3-7.4h14l3.3,7.4h5.3L654.8,297H650.7z M647.7,314.8l5.1-11.3l5.1,11.3H647.7z"/>
	<polygon class="st1" points="688.1,297 683.2,297 683.2,326.5 703.5,326.5 703.5,322 688.1,322 	"/>
	<polygon class="st1" points="712.3,301.5 722,301.5 722,326.5 726.9,326.5 726.9,301.5 736.6,301.5 736.6,297 712.3,297 	"/>
	<polygon class="st1" points="772.2,297 772.2,309.3 757,309.3 757,297 752.1,297 752.1,326.5 757,326.5 757,313.9 772.2,313.9 
		772.2,326.5 777,326.5 777,297 	"/>
</g>
<path class="st0" d="M300,371.5v-18.2h7.7c1.9,0,3.7,0.4,5.1,1.1c1.5,0.8,2.6,1.8,3.5,3.2c0.8,1.4,1.2,3,1.2,4.8s-0.4,3.4-1.2,4.8
	c-0.8,1.4-2,2.4-3.5,3.2c-1.5,0.8-3.2,1.1-5.1,1.1H300z M302.6,369.2h4.9c1.5,0,2.8-0.3,3.9-0.9c1.1-0.6,2-1.4,2.6-2.4
	c0.6-1,0.9-2.2,0.9-3.6c0-1.4-0.3-2.6-0.9-3.6c-0.6-1-1.5-1.8-2.6-2.4c-1.1-0.6-2.4-0.9-3.9-0.9h-4.9V369.2z"/>
<rect x="324.5" y="353.2" class="st0" width="2.6" height="18.2"/>
<path class="st0" d="M343.7,371.7c-1.4,0-2.7-0.2-3.9-0.7c-1.2-0.5-2.2-1.1-3.1-2c-0.9-0.8-1.5-1.8-2-3c-0.5-1.1-0.7-2.4-0.7-3.7
	c0-1.4,0.2-2.6,0.7-3.7c0.5-1.1,1.2-2.1,2-3c0.9-0.8,1.9-1.5,3.1-2c1.2-0.5,2.5-0.7,3.9-0.7c1.4,0,2.8,0.2,4,0.7
	c1.2,0.5,2.2,1.2,3,2.1l-1.6,1.6c-0.7-0.7-1.6-1.3-2.4-1.6c-0.9-0.3-1.8-0.5-2.9-0.5c-1,0-2,0.2-2.9,0.5c-0.9,0.3-1.7,0.8-2.3,1.5
	c-0.7,0.6-1.2,1.4-1.5,2.2c-0.4,0.9-0.5,1.8-0.5,2.8c0,1,0.2,1.9,0.5,2.8c0.4,0.9,0.9,1.6,1.5,2.2c0.7,0.6,1.4,1.1,2.3,1.5
	c0.9,0.3,1.9,0.5,2.9,0.5c1,0,1.9-0.2,2.8-0.5c0.9-0.3,1.7-0.8,2.5-1.5l1.5,2c-0.9,0.8-2,1.3-3.2,1.7
	C346.2,371.5,345,371.7,343.7,371.7 M348.1,369v-6.8h2.5v7.1L348.1,369z"/>
<rect x="358.5" y="353.2" class="st0" width="2.6" height="18.2"/>
<polygon class="st0" points="373.1,371.5 373.1,355.5 366.9,355.5 366.9,353.2 382,353.2 382,355.5 375.7,355.5 375.7,371.5 "/>
<path class="st0" d="M384,371.5l8.3-18.2h2.6l8.3,18.2h-2.7l-7.4-16.8h1l-7.4,16.8H384z M387.6,366.9l0.7-2.1h10.3l0.8,2.1H387.6z"
	/>
<polygon class="st0" points="408.8,371.5 408.8,353.2 411.4,353.2 411.4,369.2 421.3,369.2 421.3,371.5 "/>
<path class="st0" d="M439.7,371.5h-2.6v-18.2h2.6V371.5z M450.5,363.3h-11v-2.3h11V363.3z M450.2,353.2h2.6v18.2h-2.6V353.2z"/>
<path class="st0" d="M463.8,369.2h10.6v2.3h-13.2v-18.2h12.9v2.3h-10.3V369.2z M463.6,361.1h9.4v2.2h-9.4V361.1z"/>
<path class="st0" d="M478.8,371.5l8.3-18.2h2.6l8.3,18.2h-2.7l-7.4-16.8h1l-7.4,16.8H478.8z M482.4,366.9l0.7-2.1h10.3l0.8,2.1
	H482.4z"/>
<polygon class="st0" points="503.6,371.5 503.6,353.2 506.2,353.2 506.2,369.2 516.1,369.2 516.1,371.5 "/>
<polygon class="st0" points="523.9,371.5 523.9,355.5 517.7,355.5 517.7,353.2 532.8,353.2 532.8,355.5 526.5,355.5 526.5,371.5 "/>
<path class="st0" d="M541.1,371.5h-2.6v-18.2h2.6V371.5z M551.8,363.3h-11v-2.3h11V363.3z M551.6,353.2h2.6v18.2h-2.6V353.2z"/>
<rect x="572.5" y="352.1" class="st0" width="2.3" height="24.4"/>
<path class="st0" d="M601.3,371.7c-1.4,0-2.7-0.2-3.8-0.7c-1.2-0.5-2.2-1.1-3-2c-0.9-0.8-1.5-1.8-2-3c-0.5-1.1-0.7-2.4-0.7-3.7
	c0-1.4,0.2-2.6,0.7-3.7c0.5-1.1,1.2-2.1,2-3c0.9-0.8,1.9-1.5,3.1-2c1.2-0.5,2.5-0.7,3.8-0.7c1.4,0,2.7,0.2,3.9,0.7
	c1.2,0.5,2.2,1.2,3,2.1l-1.7,1.6c-0.7-0.7-1.5-1.3-2.3-1.6c-0.9-0.4-1.8-0.5-2.8-0.5c-1,0-2,0.2-2.9,0.5c-0.9,0.3-1.6,0.8-2.3,1.5
	c-0.6,0.6-1.1,1.4-1.5,2.2c-0.4,0.9-0.5,1.8-0.5,2.8c0,1,0.2,1.9,0.5,2.8c0.4,0.9,0.9,1.6,1.5,2.2c0.6,0.6,1.4,1.1,2.3,1.5
	c0.9,0.3,1.8,0.5,2.9,0.5c1,0,1.9-0.2,2.8-0.5c0.9-0.4,1.7-0.9,2.3-1.7l1.7,1.6c-0.8,0.9-1.8,1.7-3,2.1
	C604.1,371.4,602.8,371.7,601.3,371.7"/>
<polygon class="st0" points="614.9,371.5 614.9,353.2 617.6,353.2 617.6,369.2 627.4,369.2 627.4,371.5 "/>
<rect x="633.3" y="353.2" class="st0" width="2.6" height="18.2"/>
<polygon class="st0" points="644.3,371.5 644.3,353.2 646.5,353.2 658.6,368.2 657.4,368.2 657.4,353.2 660,353.2 660,371.5 
	657.9,371.5 645.8,356.5 647,356.5 647,371.5 "/>
<rect x="668.4" y="353.2" class="st0" width="2.6" height="18.2"/>
<path class="st0" d="M687.6,371.7c-1.4,0-2.7-0.2-3.8-0.7c-1.2-0.5-2.2-1.1-3-2c-0.9-0.8-1.5-1.8-2-3c-0.5-1.1-0.7-2.4-0.7-3.7
	c0-1.4,0.2-2.6,0.7-3.7c0.5-1.1,1.2-2.1,2-3c0.9-0.8,1.9-1.5,3.1-2c1.2-0.5,2.5-0.7,3.8-0.7c1.4,0,2.7,0.2,3.9,0.7
	c1.2,0.5,2.2,1.2,3,2.1l-1.7,1.6c-0.7-0.7-1.5-1.3-2.3-1.6c-0.9-0.4-1.8-0.5-2.8-0.5c-1,0-2,0.2-2.9,0.5c-0.9,0.3-1.6,0.8-2.3,1.5
	c-0.6,0.6-1.1,1.4-1.5,2.2c-0.4,0.9-0.5,1.8-0.5,2.8c0,1,0.2,1.9,0.5,2.8c0.4,0.9,0.9,1.6,1.5,2.2c0.6,0.6,1.4,1.1,2.3,1.5
	c0.9,0.3,1.8,0.5,2.9,0.5c1,0,1.9-0.2,2.8-0.5c0.9-0.4,1.7-0.9,2.3-1.7l1.7,1.6c-0.8,0.9-1.8,1.7-3,2.1
	C690.3,371.4,689,371.7,687.6,371.7"/>
<path class="st0" d="M698,371.5l8.3-18.2h2.6l8.3,18.2h-2.7l-7.4-16.8h1l-7.4,16.8H698z M701.5,366.9l0.7-2.1h10.3l0.8,2.1H701.5z"
	/>
<polygon class="st0" points="722.7,371.5 722.7,353.2 725.4,353.2 725.4,369.2 735.2,369.2 735.2,371.5 "/>
<rect x="751.1" y="353.2" class="st0" width="2.6" height="18.2"/>
<polygon class="st0" points="765.7,371.5 765.7,355.5 759.4,355.5 759.4,353.2 774.5,353.2 774.5,355.5 768.3,355.5 768.3,371.5 "/>
<g>
	<path class="st0" d="M354.2,208.2h48.7c0.7,0,1.2,0.5,1.2,1.2V220c0,0.7-0.5,1.2-1.2,1.2h-32.8c-0.7,0-1.2,0.5-1.2,1.2v14.1
		c0,0.7,0.5,1.2,1.2,1.2h29.4c0.7,0,1.2,0.5,1.2,1.2v10.7c0,0.7-0.5,1.2-1.2,1.2h-29.4c-0.7,0-1.2,0.5-1.2,1.2V267
		c0,0.7,0.5,1.2,1.2,1.2h33.5c0.7,0,1.2,0.5,1.2,1.2v10.7c0,0.7-0.5,1.2-1.2,1.2h-49.4c-0.7,0-1.2-0.5-1.2-1.2v-70.8
		C353,208.7,353.5,208.2,354.2,208.2z"/>
	<path class="st0" d="M424.9,208.8l23.5,44.4c0.5,0.9,1.7,0.9,2.2,0l23.1-44.4c0.2-0.4,0.6-0.7,1.1-0.7h13c0.7,0,1.2,0.5,1.2,1.2
		l0.2,70.8c0,0.7-0.5,1.2-1.2,1.2h-14.1c-0.7,0-1.2-0.5-1.2-1.2l-0.2-37.7c0-1.3-1.7-1.7-2.3-0.6l-16.5,31.5
		c-0.2,0.4-0.6,0.7-1.1,0.7H446c-0.4,0-0.9-0.2-1.1-0.6l-16.5-30.7c-0.6-1.1-2.3-0.7-2.3,0.6v36.9c0,0.7-0.5,1.2-1.2,1.2h-14.1
		c-0.7,0-1.2-0.5-1.2-1.2v-70.8c0-0.7,0.5-1.2,1.2-1.2h13C424.3,208.2,424.7,208.4,424.9,208.8z"/>
	<path class="st0" d="M498.5,208.2h48.7c0.7,0,1.2,0.5,1.2,1.2V220c0,0.7-0.5,1.2-1.2,1.2h-32.8c-0.7,0-1.2,0.5-1.2,1.2v14.1
		c0,0.7,0.5,1.2,1.2,1.2h29.4c0.7,0,1.2,0.5,1.2,1.2v10.7c0,0.7-0.5,1.2-1.2,1.2h-29.4c-0.7,0-1.2,0.5-1.2,1.2V267
		c0,0.7,0.5,1.2,1.2,1.2h33.5c0.7,0,1.2,0.5,1.2,1.2v10.7c0,0.7-0.5,1.2-1.2,1.2h-49.4c-0.7,0-1.2-0.5-1.2-1.2v-70.8
		C497.3,208.7,497.8,208.2,498.5,208.2z"/>
	<path class="st0" d="M605.1,212.8c5.5,3.1,9.7,7.4,12.8,12.9c3,5.5,4.6,11.9,4.6,19.1c0,7.2-1.5,13.6-4.6,19.1
		c-3,5.6-7.3,9.9-12.8,13c-5.5,3.1-11.8,4.6-18.9,4.6h-28.8c-0.7,0-1.2-0.5-1.2-1.2v-70.8c0-0.7,0.5-1.2,1.2-1.2h28.8
		C593.3,208.2,599.6,209.7,605.1,212.8 M596.6,265.3c3-1.9,5.3-4.7,6.9-8.3c1.6-3.6,2.5-7.7,2.5-12.4c0-4.6-0.8-8.7-2.5-12.3
		c-1.7-3.6-4-6.3-6.9-8.3c-3-1.9-6.4-2.9-10.3-2.9h-12.9c-0.7,0-1.2,0.5-1.2,1.2V267c0,0.7,0.5,1.2,1.2,1.2h12.9
		C590.2,268.3,593.6,267.3,596.6,265.3"/>
	<path class="st0" d="M643.3,281.4h-13.5c-0.7,0-1.2-0.5-1.2-1.2v-70.8c0-0.7,0.5-1.2,1.2-1.2h13.5c0.7,0,1.2,0.5,1.2,1.2v70.8
		C644.6,280.9,644,281.4,643.3,281.4z"/>
	<path class="st0" d="M715.3,268.5c-2.7,4.4-6.5,7.9-11.5,10.3c-4.9,2.4-10.6,3.7-17,3.7c-6.4,0-12.1-1.2-17-3.7
		c-4.9-2.4-8.8-5.9-11.5-10.3c-2.7-4.4-4.1-9.5-4.1-15.2v-43.8c0-0.7,0.5-1.2,1.2-1.2h13.4c0.7,0,1.2,0.5,1.2,1.2v43.1
		c0,5,1.5,9.1,4.7,12.1c3.1,3.1,7.2,4.6,12.3,4.6c4.9,0,9-1.5,12-4.6c3.1-3.1,4.6-7.1,4.6-12.1v-43.1c0-0.7,0.5-1.2,1.2-1.2h13.4
		c0.7,0,1.2,0.5,1.2,1.2v43.8C719.4,259,718,264,715.3,268.5"/>
	<path class="st0" d="M736.2,279.5c-3.9-1.8-7-3.7-9.2-5.8c-0.4-0.4-0.5-1-0.2-1.5l4.8-8.6c0.4-0.7,1.2-0.8,1.8-0.4
		c2.2,1.7,4.5,3.1,7,4.1c2.9,1.3,6.2,1.9,9.8,1.9c3.9,0,6.7-0.7,8.4-2.1c1.7-1.4,2.6-3.1,2.6-5c0-1.6-0.3-3-1-4.1
		c-0.7-1.1-1.8-2-3.6-3c-1.7-0.9-4.2-1.9-7.5-3l-5.1-1.6c-5.7-1.8-10.2-4.3-13.5-7.3c-3.3-3-5-7.5-5-13.5c0-4.6,1.1-8.5,3.3-11.9
		c2.2-3.4,5.3-6,9.3-7.9c4-1.8,8.5-2.8,13.8-2.8c4.3,0,8.5,0.8,12.8,2.5c3.8,1.5,6.8,3.2,9.1,5.2c0.5,0.4,0.5,1.1,0.2,1.6l-5.6,9
		c-0.4,0.6-1.2,0.8-1.8,0.3c-2.2-1.6-4.3-2.9-6.5-3.8c-2.5-1.1-5.3-1.7-8.5-1.7c-3.4,0-5.8,0.7-7.4,2.1c-1.6,1.4-2.3,3.1-2.3,5.1
		c0,1.3,0.2,2.3,0.6,3.2c0.4,0.9,1.3,1.8,2.7,2.6c1.4,0.9,3.5,1.7,6.2,2.7l5.2,1.7c6.4,2,11.5,4.8,15.2,8.4
		c3.8,3.5,5.6,8.5,5.6,14.9c0,3.6-1,7.1-3,10.4c-2,3.3-5,6-9.1,8c-4,2-8.9,3.1-14.6,3.1C745.4,282.4,740.5,281.4,736.2,279.5"/>
	<path class="st0" d="M332.1,258.5c-0.4-0.6-0.2-1.5,0.4-1.8c4.2-2,7.4-4.8,9.8-8.4c2.6-3.9,3.9-8.6,3.9-14c0-5.4-1.3-10.1-3.8-14
		c-2.6-3.9-6.2-7-11-9.1c-4.7-2.1-10.3-3.2-16.8-3.2h-29.2c-1,0-1.5,1.1-1,1.9l13.3,21c0.7,1,2.2,0.6,2.2-0.7v-7.2
		c0-0.7,0.5-1.2,1.2-1.2h12.5c5.1,0,8.9,1.1,11.5,3.3c2.6,2.2,3.9,5.3,3.9,9.4c0,4-1.3,7.1-3.9,9.3c-2.6,2.2-6.5,3.3-11.5,3.3h-3.4
		c-1,0-1.5,1.1-1,1.9l19.9,31.2c0.2,0.4,0.6,0.6,1,0.6h15c1,0,1.6-1.1,1-1.9L332.1,258.5z"/>
</g>
<rect class="st2" width="841.9" height="595.3"/>
</svg>
