<?xml version="1.0" encoding="utf-8"?>
<!-- Generator: Adobe Illustrator 24.3.0, SVG Export Plug-In . SVG Version: 6.00 Build 0)  -->
<svg version="1.1" id="Layer_1" xmlns="http://www.w3.org/2000/svg" xmlns:xlink="http://www.w3.org/1999/xlink" x="0px" y="0px"
	 viewBox="0 0 1786.52 515.92" style="enable-background:new 0 0 1786.52 515.92;" xml:space="preserve">
<style type="text/css">
	.st0{fill:#F9EEF3;}
	.st1{fill:#F9A01B;}
	.st2{fill:#115B78;}
</style>
<path class="st0" d="M1701.86-5.46c0.9,0,1.8,0,2.7,0c-0.81,0.95-1.89,1-3,0.83c-0.38-0.06-0.66-0.4-0.45-0.8
	C1701.17-5.54,1701.6-5.46,1701.86-5.46z"/>
<g>
	<path class="st1" d="M1492.2,202.94c-3.03-2.14-6.24-3.21-9.62-3.21h-38.76v51.86h40.1c3.56,0,6.72-1.11,9.49-3.34
		c2.76-2.23,5.03-5.3,6.82-9.22c1.78-3.92,2.67-8.46,2.67-13.63s-1.03-9.66-3.07-13.5c-2.05-3.83-4.59-6.82-7.62-8.95L1492.2,202.94
		z"/>
	<path class="st1" d="M1753.11,227.55c-14.87-106.99-112.73-186.23-224.52-181.79c-106.73,4.23-198.66,91.76-202.89,197.67
		c-3.02,75.51-0.57,151.23-0.56,226.86c6.18,4.94,13.52,3.14,20.4,3.17c69.37,0.34,138.75-0.35,208.12,0.4
		c7.03-0.43,14.18-0.17,21.07-1.38C1692.68,451.72,1769.58,346.03,1753.11,227.55L1753.11,227.55z M1509.84,351.03l-36.35-61.21
		h-29.67v61.21h-43.84V161.24h85.54c8.91,0,17.15,1.83,24.73,5.48c7.57,3.65,14.12,8.55,19.65,14.7
		c5.52,6.15,9.84,13.06,12.97,20.72c3.12,7.66,4.68,15.42,4.68,23.26s-1.25,15.28-3.74,22.32c-2.5,7.04-6.06,13.37-10.69,18.98
		c-4.64,5.61-10.16,10.2-16.57,13.77l41.7,70.57h-48.38L1509.84,351.03z M1661.94,351.03l-26.2-38.85l-2.41-5.02l-2.41,5.02
		l-26.2,38.85h-44.11l48.12-68.97l-47.05-69.76h44.11l24.86,39.11l2.67,5.02l2.67-5.02l24.86-39.11h44.11l-47.05,68.97l48.12,69.76
		h-44.11H1661.94z"/>
</g>
<path class="st2" d="M135.91,314.76h-27.08v46.63H59.19V185.9h80.23c15.88,0,29.67,2.63,41.37,7.9
	c11.7,5.27,20.72,12.79,27.08,22.56c6.35,9.78,9.53,21.27,9.53,34.47s-2.97,23.78-8.9,33.22c-5.94,9.44-14.42,16.84-25.45,22.19
	l37.86,55.15h-53.15l-31.84-46.63L135.91,314.76z M159.48,231.78c-5.18-4.51-12.87-6.77-23.06-6.77h-27.58v51.4h27.58
	c10.19,0,17.88-2.21,23.06-6.64c5.18-4.43,7.77-10.74,7.77-18.93S164.66,236.3,159.48,231.78L159.48,231.78z"/>
<path class="st2" d="M370.07,305.49h-98.78c2.01,7.02,5.89,12.41,11.66,16.17s12.99,5.64,21.69,5.64c6.52,0,12.16-0.92,16.92-2.76
	s9.57-4.85,14.42-9.03l25.07,26.07c-13.21,14.71-32.51,22.06-57.91,22.06c-15.88,0-29.83-3.01-41.87-9.02
	c-12.03-6.02-21.35-14.37-27.95-25.07c-6.6-10.69-9.9-22.81-9.9-36.35s3.22-25.36,9.65-35.98c6.43-10.61,15.33-18.93,26.7-24.95
	c11.36-6.02,24.15-9.02,38.36-9.02s25.82,2.8,36.85,8.4c11.03,5.6,19.76,13.71,26.2,24.32c6.43,10.62,9.65,23.19,9.65,37.73
	c0,0.34-0.25,4.26-0.75,11.78L370.07,305.49z M279.95,263.37c-4.93,4.18-8.07,9.86-9.4,17.05h55.66c-1.34-7.18-4.47-12.87-9.4-17.05
	s-11.07-6.27-18.43-6.27S284.88,259.19,279.95,263.37L279.95,263.37z"/>
<path class="st2" d="M598.35,238.3c9.94,10.03,14.92,25.16,14.92,45.38v77.72h-47.63v-69.95c0-9.53-1.8-16.55-5.39-21.06
	c-3.6-4.51-8.65-6.77-15.17-6.77c-7.19,0-12.95,2.51-17.3,7.52c-4.35,5.02-6.52,12.62-6.52,22.82v67.44h-47.63v-69.95
	c0-18.55-6.86-27.83-20.56-27.83c-7.36,0-13.2,2.51-17.55,7.52c-4.35,5.02-6.52,12.62-6.52,22.82v67.44h-47.63V225.52h45.38v14.29
	c5.01-5.52,10.99-9.65,17.93-12.41c6.93-2.76,14.5-4.14,22.69-4.14c9.53,0,18.05,1.75,25.57,5.26c7.52,3.51,13.62,8.86,18.3,16.05
	c5.35-6.85,12.12-12.12,20.31-15.79s17.13-5.51,26.83-5.51c16.71,0,30.04,5.01,39.99,15.04L598.35,238.3z"/>
<path class="st2" d="M766.97,305.49h-98.78c2.01,7.02,5.89,12.41,11.66,16.17c5.77,3.76,12.99,5.64,21.69,5.64
	c6.52,0,12.16-0.92,16.92-2.76s9.57-4.85,14.42-9.03l25.07,26.07c-13.21,14.71-32.51,22.06-57.91,22.06
	c-15.88,0-29.83-3.01-41.87-9.02c-12.03-6.02-21.35-14.37-27.95-25.07c-6.6-10.69-9.9-22.81-9.9-36.35s3.22-25.36,9.65-35.98
	c6.43-10.61,15.33-18.93,26.7-24.95c11.36-6.02,24.15-9.02,38.36-9.02s25.82,2.8,36.85,8.4c11.03,5.6,19.76,13.71,26.2,24.32
	c6.43,10.62,9.65,23.19,9.65,37.73C767.73,294.04,767.48,297.96,766.97,305.49L766.97,305.49z M676.85,263.37
	c-4.93,4.18-8.07,9.86-9.4,17.05h55.66c-1.34-7.18-4.47-12.87-9.4-17.05c-4.93-4.18-11.07-6.27-18.43-6.27
	S681.78,259.19,676.85,263.37L676.85,263.37z"/>
<path class="st2" d="M928.67,175.37v186.02h-45.38v-13.54c-8.86,10.53-22.15,15.79-39.86,15.79c-12.37,0-23.65-2.88-33.85-8.65
	c-10.2-5.77-18.26-14-24.19-24.69s-8.9-23.06-8.9-37.1s2.97-26.36,8.9-36.98c5.93-10.61,14-18.76,24.19-24.44
	c10.19-5.68,21.47-8.52,33.85-8.52c16.21,0,28.74,4.68,37.61,14.04v-61.92L928.67,175.37L928.67,175.37z M873.77,317.14
	c5.35-5.77,8.02-13.75,8.02-23.94s-2.63-17.88-7.9-23.57c-5.26-5.68-12.08-8.52-20.43-8.52s-15.21,2.84-20.56,8.52
	s-8.02,13.54-8.02,23.57s2.67,18.18,8.02,23.94c5.35,5.77,12.2,8.65,20.56,8.65S868.42,322.91,873.77,317.14z"/>
<path class="st2" d="M1152.59,225.51v135.88h-45.38v-14.54c-5.02,5.51-11.03,9.69-18.05,12.53s-14.46,4.26-22.31,4.26
	c-17.55,0-31.55-5.18-41.99-15.54c-10.45-10.36-15.67-25.9-15.67-46.63v-75.96h47.63v68.19c0,10.2,1.92,17.64,5.77,22.31
	c3.84,4.68,9.44,7.02,16.8,7.02s13.66-2.63,18.43-7.9s7.14-13.33,7.14-24.19v-65.43L1152.59,225.51L1152.59,225.51z"/>
<path class="st2" d="M1186.44,359.76c-11.03-2.59-19.89-5.97-26.57-10.15l14.29-32.59c6.18,3.85,13.54,6.89,22.06,9.15
	c8.52,2.26,16.96,3.38,25.32,3.38c7.69,0,13.16-0.79,16.42-2.38s4.89-3.89,4.89-6.9s-1.97-5.14-5.89-6.39
	c-3.93-1.25-10.15-2.47-18.68-3.64c-10.87-1.34-20.1-3.09-27.7-5.27c-7.61-2.17-14.16-6.18-19.68-12.03
	c-5.51-5.85-8.27-14.04-8.27-24.57c0-8.69,2.59-16.42,7.77-23.19s12.74-12.12,22.69-16.05c9.94-3.93,21.85-5.89,35.73-5.89
	c9.86,0,19.64,1,29.33,3.01s17.8,4.85,24.32,8.52l-14.29,32.34c-12.03-6.68-25.07-10.03-39.11-10.03c-7.52,0-13.04,0.88-16.55,2.63
	c-3.51,1.76-5.27,4.06-5.27,6.9c0,3.18,1.92,5.39,5.77,6.64c3.84,1.25,10.19,2.55,19.05,3.89c11.2,1.67,20.47,3.6,27.83,5.77
	c7.35,2.17,13.75,6.14,19.18,11.91s8.15,13.83,8.15,24.19c0,8.52-2.59,16.17-7.77,22.94s-12.83,12.08-22.94,15.92
	c-10.11,3.84-22.27,5.77-36.48,5.77c-11.37,0-22.56-1.3-33.6-3.89V359.76z"/>
<g>
	<path class="st2" d="M435.6,453.46c-1.72-1.71-2.57-3.86-2.57-6.43s0.86-4.76,2.57-6.39c1.71-1.62,3.83-2.43,6.34-2.43
		s4.62,0.81,6.34,2.43c1.71,1.62,2.57,3.75,2.57,6.39s-0.86,4.72-2.57,6.43c-1.72,1.72-3.83,2.57-6.34,2.57
		S437.31,455.17,435.6,453.46z"/>
	<path class="st2" d="M458.02,453.46c-1.72-1.71-2.57-3.86-2.57-6.43s0.86-4.76,2.57-6.39c1.71-1.62,3.83-2.43,6.34-2.43
		s4.62,0.81,6.34,2.43c1.71,1.62,2.57,3.75,2.57,6.39s-0.86,4.72-2.57,6.43c-1.72,1.72-3.83,2.57-6.34,2.57
		S459.73,455.17,458.02,453.46z"/>
	<path class="st2" d="M480.44,453.46c-1.72-1.71-2.57-3.86-2.57-6.43s0.86-4.76,2.57-6.39c1.71-1.62,3.83-2.43,6.34-2.43
		s4.62,0.81,6.34,2.43c1.71,1.62,2.57,3.75,2.57,6.39s-0.86,4.72-2.57,6.43c-1.72,1.72-3.83,2.57-6.34,2.57
		S482.15,455.17,480.44,453.46z"/>
	<path class="st2" d="M512.64,452.78c-4.13-2.17-7.37-5.19-9.69-9.05c-2.33-3.86-3.49-8.24-3.49-13.14s1.16-9.28,3.49-13.14
		c2.33-3.86,5.56-6.87,9.69-9.05c4.13-2.17,8.8-3.26,14.01-3.26s9.86,1.09,13.97,3.26c4.1,2.18,7.32,5.19,9.65,9.05
		s3.49,8.24,3.49,13.14s-1.16,9.28-3.49,13.14s-5.54,6.88-9.65,9.05c-4.1,2.17-8.76,3.26-13.97,3.26S516.77,454.95,512.64,452.78z
		 M535.7,440.56c2.36-2.48,3.54-5.8,3.54-9.97s-1.18-7.49-3.54-9.97s-5.38-3.72-9.05-3.72s-6.71,1.24-9.1,3.72
		c-2.39,2.48-3.58,5.8-3.58,9.97s1.2,7.49,3.58,9.97c2.39,2.48,5.42,3.72,9.1,3.72S533.34,443.04,535.7,440.56z"/>
	<path class="st2" d="M606.54,410.65c3.77,3.68,5.65,9.13,5.65,16.35v28.3h-14.33v-26.09c0-3.92-0.86-6.85-2.57-8.78
		c-1.72-1.93-4.2-2.89-7.44-2.89c-3.62,0-6.49,1.12-8.64,3.35c-2.14,2.24-3.22,5.56-3.22,9.97v24.44h-14.33v-49.43h13.69v5.79
		c1.9-2.08,4.26-3.69,7.07-4.82c2.82-1.13,5.91-1.7,9.28-1.7C597.82,405.14,602.77,406.98,606.54,410.65L606.54,410.65z"/>
	<path class="st2" d="M623.5,387.13h14.33v68.17H623.5V387.13z"/>
	<path class="st2" d="M650.23,396.68c-1.65-1.53-2.48-3.43-2.48-5.7s0.83-4.16,2.48-5.7c1.65-1.53,3.8-2.3,6.43-2.3
		s4.78,0.74,6.43,2.21c1.65,1.47,2.48,3.31,2.48,5.51c0,2.39-0.83,4.36-2.48,5.93c-1.65,1.56-3.8,2.34-6.43,2.34
		s-4.78-0.77-6.43-2.3V396.68z M649.5,405.87h14.33v49.43H649.5V405.87z"/>
	<path class="st2" d="M720.38,410.65c3.77,3.68,5.65,9.13,5.65,16.35v28.3H711.7v-26.09c0-3.92-0.86-6.85-2.57-8.78
		c-1.72-1.93-4.2-2.89-7.44-2.89c-3.62,0-6.49,1.12-8.64,3.35c-2.14,2.24-3.22,5.56-3.22,9.97v24.44H675.5v-49.43h13.69v5.79
		c1.9-2.08,4.26-3.69,7.07-4.82c2.82-1.13,5.91-1.7,9.28-1.7C711.66,405.14,716.61,406.98,720.38,410.65L720.38,410.65z"/>
	<path class="st2" d="M786.03,434.63h-37.4c0.67,3.06,2.27,5.48,4.78,7.26s5.64,2.66,9.37,2.66c2.57,0,4.85-0.38,6.84-1.15
		c1.99-0.77,3.84-1.98,5.56-3.63l7.63,8.27c-4.66,5.33-11.45,7.99-20.4,7.99c-5.57,0-10.51-1.09-14.79-3.26
		c-4.29-2.17-7.6-5.19-9.92-9.05c-2.33-3.86-3.49-8.24-3.49-13.14s1.15-9.2,3.45-13.09c2.3-3.89,5.45-6.92,9.46-9.1
		c4.01-2.17,8.5-3.26,13.46-3.26s9.22,1.04,13.14,3.12c3.92,2.08,7,5.07,9.23,8.96c2.24,3.89,3.35,8.41,3.35,13.55
		c0,0.18-0.09,1.47-0.28,3.86L786.03,434.63z M752.49,418.73c-2.2,1.84-3.55,4.35-4.04,7.53h24.35c-0.49-3.12-1.84-5.62-4.04-7.49
		c-2.2-1.87-4.9-2.8-8.09-2.8S754.7,416.89,752.49,418.73L752.49,418.73z"/>
	<path class="st2" d="M860.31,408.31c3.77,2.11,6.72,5.08,8.87,8.91c2.14,3.83,3.22,8.28,3.22,13.37s-1.07,9.54-3.22,13.37
		c-2.14,3.83-5.1,6.8-8.87,8.91s-7.95,3.17-12.54,3.17c-6.31,0-11.27-1.99-14.88-5.97v23.06h-14.33v-67.26h13.69v5.69
		c3.55-4.29,8.73-6.43,15.53-6.43c4.59,0,8.77,1.06,12.54,3.17L860.31,408.31z M854.34,440.56c2.36-2.48,3.54-5.8,3.54-9.97
		s-1.18-7.49-3.54-9.97s-5.38-3.72-9.05-3.72s-6.69,1.24-9.05,3.72s-3.54,5.8-3.54,9.97s1.18,7.49,3.54,9.97s5.37,3.72,9.05,3.72
		S851.98,443.04,854.34,440.56z"/>
	<path class="st2" d="M925.18,410.65c3.77,3.68,5.65,9.13,5.65,16.35v28.3H916.5v-26.09c0-3.92-0.86-6.85-2.57-8.78
		c-1.72-1.93-4.2-2.89-7.44-2.89c-3.62,0-6.49,1.12-8.64,3.35c-2.14,2.24-3.22,5.56-3.22,9.97v24.44H880.3v-68.17h14.33v23.89
		c1.9-1.9,4.19-3.35,6.89-4.36c2.69-1.01,5.63-1.51,8.82-1.51c6.12,0,11.07,1.84,14.84,5.51L925.18,410.65z"/>
	<path class="st2" d="M979.71,410.6c4.1,3.65,6.16,9.14,6.16,16.49v28.21h-13.41v-6.16c-2.7,4.59-7.72,6.89-15.07,6.89
		c-3.8,0-7.09-0.64-9.88-1.93c-2.79-1.29-4.92-3.06-6.39-5.33c-1.47-2.27-2.2-4.84-2.2-7.72c0-4.59,1.73-8.21,5.19-10.84
		s8.8-3.95,16.03-3.95h11.39c0-3.12-0.95-5.53-2.85-7.21c-1.9-1.68-4.75-2.53-8.55-2.53c-2.63,0-5.22,0.41-7.76,1.24
		c-2.54,0.83-4.7,1.95-6.48,3.35l-5.15-10.02c2.7-1.9,5.93-3.37,9.69-4.41c3.77-1.04,7.64-1.56,11.62-1.56
		c7.66,0,13.54,1.82,17.64,5.47L979.71,410.6z M967.49,444.69c1.9-1.13,3.25-2.8,4.04-5.01v-5.05h-9.83c-5.88,0-8.82,1.93-8.82,5.79
		c0,1.84,0.72,3.29,2.16,4.36c1.44,1.07,3.41,1.61,5.93,1.61S965.59,445.82,967.49,444.69L967.49,444.69z"/>
	<path class="st2" d="M1017.79,406.97c2.91-1.22,6.26-1.84,10.06-1.84v13.23c-1.59-0.12-2.67-0.18-3.22-0.18
		c-4.11,0-7.32,1.15-9.65,3.44c-2.33,2.3-3.49,5.74-3.49,10.34v23.34h-14.33v-49.43h13.69v6.52
		C1012.56,410,1014.88,408.2,1017.79,406.97z"/>
	<path class="st2" d="M1112.8,410.6c3.64,3.65,5.47,9.11,5.47,16.4v28.3h-14.33v-26.09c0-3.92-0.81-6.85-2.43-8.78
		s-3.94-2.89-6.94-2.89c-3.37,0-6.03,1.09-7.99,3.26c-1.96,2.18-2.94,5.41-2.94,9.69v24.81h-14.33v-26.09
		c0-7.78-3.12-11.67-9.37-11.67c-3.31,0-5.94,1.09-7.9,3.26c-1.96,2.18-2.94,5.41-2.94,9.69v24.81h-14.33v-49.43h13.69v5.69
		c1.84-2.08,4.09-3.67,6.75-4.78c2.66-1.1,5.59-1.65,8.77-1.65c3.49,0,6.65,0.69,9.46,2.07s5.08,3.39,6.8,6.02
		c2.02-2.57,4.58-4.56,7.67-5.97s6.48-2.11,10.15-2.11c6.19,0,11.1,1.82,14.75,5.47L1112.8,410.6z"/>
	<path class="st2" d="M1167.05,410.6c4.1,3.65,6.16,9.14,6.16,16.49v28.21h-13.41v-6.16c-2.7,4.59-7.72,6.89-15.07,6.89
		c-3.8,0-7.09-0.64-9.88-1.93c-2.79-1.29-4.92-3.06-6.39-5.33s-2.21-4.84-2.21-7.72c0-4.59,1.73-8.21,5.19-10.84
		s8.8-3.95,16.03-3.95h11.39c0-3.12-0.95-5.53-2.85-7.21s-4.75-2.53-8.55-2.53c-2.63,0-5.22,0.41-7.76,1.24s-4.7,1.95-6.48,3.35
		l-5.15-10.02c2.69-1.9,5.93-3.37,9.69-4.41c3.77-1.04,7.64-1.56,11.62-1.56c7.66,0,13.54,1.82,17.64,5.47L1167.05,410.6z
		 M1154.83,444.69c1.9-1.13,3.24-2.8,4.04-5.01v-5.05h-9.83c-5.88,0-8.82,1.93-8.82,5.79c0,1.84,0.72,3.29,2.16,4.36
		c1.44,1.07,3.41,1.61,5.93,1.61S1152.93,445.82,1154.83,444.69L1154.83,444.69z"/>
	<path class="st2" d="M1194.75,452.78c-4.2-2.17-7.47-5.19-9.83-9.05s-3.54-8.24-3.54-13.14s1.18-9.28,3.54-13.14
		c2.36-3.86,5.64-6.87,9.83-9.05c4.2-2.17,8.93-3.26,14.2-3.26s9.75,1.09,13.64,3.26c3.89,2.18,6.72,5.28,8.5,9.33l-11.12,5.97
		c-2.57-4.53-6.28-6.8-11.12-6.8c-3.74,0-6.83,1.23-9.28,3.68c-2.45,2.45-3.67,5.79-3.67,10.02s1.22,7.57,3.67,10.02
		s5.54,3.67,9.28,3.67c4.9,0,8.6-2.27,11.12-6.8l11.12,6.06c-1.78,3.92-4.61,6.98-8.5,9.19s-8.44,3.31-13.64,3.31
		S1198.95,454.96,1194.75,452.78L1194.75,452.78z"/>
	<path class="st2" d="M1286.03,405.87l-22.33,52.46c-2.27,5.7-5.07,9.71-8.41,12.04c-3.34,2.33-7.37,3.49-12.08,3.49
		c-2.57,0-5.12-0.4-7.63-1.2c-2.51-0.8-4.56-1.9-6.15-3.31l5.24-10.2c1.1,0.98,2.37,1.75,3.81,2.3c1.44,0.55,2.86,0.83,4.27,0.83
		c1.96,0,3.55-0.48,4.78-1.42c1.23-0.95,2.33-2.53,3.31-4.73l0.18-0.46l-21.41-49.8h14.79l13.87,33.54l13.97-33.54L1286.03,405.87
		L1286.03,405.87z"/>
</g>
<path class="st2" d="M970.55,229.27c-8.25,0-15.62-1.26-22.14-3.76h-1.68v135.88h47.63V225.51h-1.85
	C986.03,228.01,978.72,229.27,970.55,229.27z"/>
<path class="st1" d="M951.29,213.66c-4.9-4.43-7.34-9.94-7.34-16.52s2.45-12.08,7.34-16.52c4.89-4.43,11.32-6.65,19.27-6.65
	s14.37,2.1,19.27,6.31c4.89,4.21,7.34,9.6,7.34,16.17s-2.45,12.58-7.34,17.09c-4.9,4.51-11.32,6.77-19.27,6.77
	S956.18,218.09,951.29,213.66z"/>
</svg>
