<?xml version="1.0" encoding="utf-8"?>
<!-- Generator: Adobe Illustrator 28.1.0, SVG Export Plug-In . SVG Version: 6.00 Build 0)  -->
<svg version="1.1" id="Layer_1" xmlns="http://www.w3.org/2000/svg" xmlns:xlink="http://www.w3.org/1999/xlink" x="0px" y="0px"
	 viewBox="0 0 595.3 210.4" style="enable-background:new 0 0 595.3 210.4;" xml:space="preserve">
<style type="text/css">
	.st0{fill:#49BC95;}
	.st1{fill:#FFFFFF;}
</style>
<g>
	<path class="st0" d="M215.7,146.4c1.9,2.7,3.1,4.8,4.6,6.7c28.8,36.9,87.3,39.8,121.3,6.3c24-23.7,27.4-66-2.5-92.3
		c-22.3-19.7-48-24.8-76.4-18.3c-22.2,5-39,18-49.6,37.9c-8.7,16.3-8.4,33.6-1.9,50.9c1.4,3.8,3.6,5.8,7.6,6.9
		c20.1,5.6,40.4,10.2,61.3,11.9c9.8,0.8,19.3,0.2,27.2-6.8c1.2-1,3.4-0.9,5.1-1.2c-0.4,1.9-0.2,4.3-1.3,5.7c-3.4,4.4-8.7,5-13.8,5.5
		c-15.8,1.5-31.1-1.6-46.4-4.8C239.5,152.4,228.1,149.4,215.7,146.4z"/>
	<path class="st0" d="M215.7,146.4c12.4,3,23.8,6,35.3,8.4c15.3,3.3,30.6,6.3,46.4,4.8c5.1-0.5,10.4-1.1,13.8-5.5
		c1.1-1.4,0.9-3.8,1.3-5.7c-1.7,0.4-4,0.2-5.1,1.2c-8,7-17.4,7.6-27.2,6.8c-20.9-1.7-41.2-6.3-61.3-11.9c-4-1.1-6.2-3.2-7.6-6.9
		c-6.5-17.3-6.8-34.6,1.9-50.9c10.6-19.9,27.4-32.9,49.6-37.9c28.3-6.4,54-1.3,76.4,18.3c29.9,26.3,26.6,68.6,2.5,92.3
		c-34,33.5-92.5,30.6-121.3-6.3C218.8,151.2,217.5,149.1,215.7,146.4z M310.1,88.3c-1.2,0-2.3-0.1-3.5,0c-10.2,0.6-18.4,7.7-21,18
		c-2.4,9.4,1.7,19.3,10.2,24.5c7.2,4.4,15,4.7,22.8,2.7c12.1-3.1,18.9-14.1,16.7-26.4C333.3,95.4,323.6,88.2,310.1,88.3z
		 M266.4,134.5c6,0.4,12.2-1.7,17.3-6.6c2.7-2.6,2.4-4.4-0.8-6.5c-3.4-2.2-5.9-2.7-9.2,0.4c-3.9,3.7-11.2,3.6-15.9,0.5
		c-4.6-3-6.6-9.1-5-15.2c1.4-5.1,5.8-8.7,11.6-9.1c4.1-0.3,7.7,0.8,10.8,3.7c2.4,2.3,7.1,1.4,9.9-2.1c2.4-3-1-4.4-2.5-5.8
		c-10.8-9.8-31.5-7-39,5.3c-4.6,7.6-4.8,15.6-0.5,23.3C247.8,131.2,255.8,134.5,266.4,134.5z M230.3,134.4c4.7,0.3,8.2-2.7,8.3-6.9
		c0.1-4.2-3-7.4-7.3-7.6c-4.4-0.2-7.7,2.6-8,6.8C223,130.9,225.9,134.2,230.3,134.4z"/>
	<path class="st1" d="M310.1,88.3c13.6-0.1,23.2,7.1,25.2,18.8c2.1,12.3-4.7,23.3-16.7,26.4c-7.8,2-15.6,1.7-22.8-2.7
		c-8.5-5.2-12.6-15.1-10.2-24.5c2.6-10.3,10.9-17.4,21-18C307.7,88.3,308.9,88.3,310.1,88.3z M297.2,111.1
		c-0.1,8.2,5.1,13.6,13.1,13.6c7.7,0,13.1-5.5,13.2-13.2c0.1-8.1-5.2-13.5-13.2-13.5C302.3,98,297.3,103,297.2,111.1z"/>
	<path class="st1" d="M266.4,134.5c-10.6-0.1-18.6-3.4-23.4-12c-4.3-7.7-4.1-15.7,0.5-23.3c7.5-12.3,28.3-15.2,39-5.3
		c1.5,1.4,4.9,2.8,2.5,5.8c-2.8,3.5-7.4,4.4-9.9,2.1c-3.1-2.9-6.6-4.1-10.8-3.7c-5.8,0.5-10.2,4-11.6,9.1c-1.6,6.1,0.4,12.1,5,15.2
		c4.7,3.1,12,3.2,15.9-0.5c3.3-3.1,5.8-2.6,9.2-0.4c3.2,2.1,3.5,3.9,0.8,6.5C278.6,132.8,272.4,134.9,266.4,134.5z"/>
	<path class="st1" d="M230.3,134.4c-4.4-0.3-7.3-3.5-7-7.8c0.3-4.2,3.6-7,8-6.8c4.3,0.2,7.4,3.5,7.3,7.6
		C238.5,131.7,235,134.7,230.3,134.4z"/>
	<path class="st0" d="M297.2,111.1c0.1-8.1,5.1-13.1,13.1-13.1c8,0,13.3,5.4,13.2,13.5c-0.1,7.8-5.5,13.2-13.2,13.2
		C302.3,124.7,297.2,119.3,297.2,111.1z"/>
	<path class="st0" d="M351.2,28.1c-9.8-1.3-18.6,5.9-18.2,14.8c0.3,7.5,7.4,13.2,16.2,13.3c8.5,0,15.5-5.7,16-13
		C365.7,35.5,359.9,29.3,351.2,28.1z M349.1,52.2c-6.4,0-11.3-4.4-11.3-10.1c0-5.6,5-10.2,11.2-10.3c6.1-0.1,11.2,4.6,11.3,10.2
		C360.3,47.8,355.4,52.2,349.1,52.2z"/>
</g>
</svg>
